<svg width="74" height="49" viewBox="0 0 74 49" fill="none" xmlns="http://www.w3.org/2000/svg">
<path d="M48 24.5C48 37.4787 37.4787 48 24.5 48C11.5213 48 0.999998 37.4787 0.999999 24.5C1 11.5213 11.5213 0.999998 24.5 0.999999C37.4787 0.999999 48 11.5213 48 24.5Z" stroke="black" stroke-width="2"/>
<path d="M27.0684 22.7305C27.023 23.3139 27 23.9042 27 24.5L25 24.5C25 23.8525 25.0259 23.211 25.0752 22.5762L27.0684 22.7305ZM25.0752 26.4229C25.0259 25.7884 25 25.1471 25 24.5L27 24.5C27 25.0958 27.023 25.6861 27.0684 26.2695L25.0752 26.4229ZM28.7061 15.8877C28.2588 16.9664 27.8937 18.0875 27.6172 19.2432L25.6738 18.7783C25.9752 17.5189 26.3738 16.2976 26.8613 15.1221L28.7061 15.8877ZM26.8613 33.877C26.3739 32.7014 25.9751 31.4802 25.6738 30.2207L27.6172 29.7568C27.8937 30.9125 28.2588 32.0336 28.7061 33.1123L26.8613 33.877ZM32.3896 9.88769C31.6251 10.782 30.9298 11.7373 30.3115 12.7441L29.46 12.2197L28.6084 11.6973C29.2817 10.601 30.039 9.56213 30.8711 8.58887L32.3896 9.88769ZM30.8711 40.4102C30.039 39.4368 29.2816 38.3981 28.6084 37.3018L29.459 36.7793L30.3115 36.2559C30.9298 37.2627 31.6251 38.218 32.3896 39.1123L30.8711 40.4102ZM37.7441 5.31152C36.7373 5.92983 35.782 6.62511 34.8877 7.38965L33.5898 5.87012C34.5631 5.03811 35.6019 4.28062 36.6982 3.60742L37.7441 5.31152ZM36.6982 45.3916C35.6019 44.7184 34.5632 43.961 33.5898 43.1289L34.8877 41.6104C35.782 42.3749 36.7373 43.0702 37.7441 43.6885L36.6982 45.3916ZM44.2432 2.61719C43.0875 2.8937 41.9664 3.25875 40.8877 3.70605L40.5059 2.78223L40.5049 2.7832L40.123 1.86035C41.2985 1.37294 42.5199 0.974128 43.7793 0.67285L44.2432 2.61719ZM43.7793 48.3262C42.5198 48.0249 41.2986 47.6261 40.123 47.1387L40.5049 46.2168L40.8877 45.2939C41.9664 45.7413 43.0875 46.1063 44.2432 46.3828L43.7793 48.3262ZM49.5 -1.07093e-06C50.1474 -1.04263e-06 50.789 0.024911 51.4238 0.0742178L51.2695 2.06836C50.6861 2.02303 50.0958 2 49.5 2C48.9042 2 48.3139 2.02303 47.7305 2.06836L47.5771 0.0742176C48.2116 0.0249607 48.8529 -1.09922e-06 49.5 -1.07093e-06ZM49.5 49C48.8529 49 48.2116 48.9741 47.5771 48.9248L47.7305 46.9316C48.3139 46.977 48.9042 47 49.5 47C50.0958 47 50.6861 46.977 51.2695 46.9316L51.4238 48.9248C50.789 48.9741 50.1475 49 49.5 49ZM58.4951 2.7832L58.1123 3.70605C57.0336 3.25875 55.9125 2.8937 54.7568 2.61719L55.2217 0.672851C56.4811 0.974173 57.7025 1.3729 58.8779 1.86035L58.4951 2.7832ZM58.8779 47.1387C57.7024 47.6262 56.4811 48.0248 55.2217 48.3262L54.7568 46.3828C55.9125 46.1063 57.0336 45.7413 58.1123 45.2939L58.8779 47.1387ZM64.1123 7.38965C63.218 6.62511 62.2627 5.92983 61.2559 5.31152L61.7803 4.45898L62.3027 3.60742C63.399 4.28064 64.4379 5.0381 65.4111 5.87012L64.1123 7.38965ZM65.4111 43.1289C64.4379 43.961 63.399 44.7183 62.3027 45.3916L61.7793 44.541L61.7803 44.54L61.2559 43.6885C62.2627 43.0702 63.218 42.3749 64.1123 41.6104L65.4111 43.1289ZM70.1406 11.8516L68.6885 12.7441C68.0702 11.7373 67.3749 10.782 66.6104 9.8877L68.1299 8.58887C68.9619 9.56212 69.7194 10.601 70.3926 11.6973L70.1406 11.8516ZM70.3926 37.3018C69.7194 38.3981 68.9619 39.4369 68.1299 40.4102L66.6103 39.1123C67.3749 38.218 68.0702 37.2627 68.6885 36.2559L70.1406 37.1484L70.3926 37.3018ZM71.3828 19.2432C71.1063 18.0875 70.7412 16.9664 70.2939 15.8877L72.1396 15.1221C72.6271 16.2975 73.0258 17.5189 73.3271 18.7783L71.3828 19.2432ZM73.3271 30.2207C73.0259 31.4802 72.6271 32.7015 72.1396 33.877L71.3193 33.5381L70.2939 33.1123C70.7412 32.0336 71.1063 30.9125 71.3828 29.7568L73.3271 30.2207ZM74 24.5C74 25.1471 73.975 25.7884 73.9258 26.4229L71.9316 26.2695C71.977 25.6861 72 25.0958 72 24.5C72 23.9042 71.977 23.3139 71.9316 22.7305L73.9258 22.5762C73.9751 23.211 74 23.8526 74 24.5Z" fill="#012DD4"/>
<path d="M34.5 15C35.0523 15 35.5 15.4477 35.5 16C35.5 16.5523 35.0523 17 34.5 17H32C31.4477 17 31 16.5523 31 16C31 15.4477 31.4477 15 32 15H34.5ZM42 15C42.5523 15 43 15.4477 43 16C43 16.5523 42.5523 17 42 17H39.5C38.9477 17 38.5 16.5523 38.5 16C38.5 15.4477 38.9477 15 39.5 15H42Z" fill="#012DD4"/>
<path d="M34.5 23C35.0523 23 35.5 23.4477 35.5 24C35.5 24.5523 35.0523 25 34.5 25H32C31.4477 25 31 24.5523 31 24C31 23.4477 31.4477 23 32 23H34.5ZM42 23C42.5523 23 43 23.4477 43 24C43 24.5523 42.5523 25 42 25H39.5C38.9477 25 38.5 24.5523 38.5 24C38.5 23.4477 38.9477 23 39.5 23H42Z" fill="#012DD4"/>
<path d="M34.5 30C35.0523 30 35.5 30.4477 35.5 31C35.5 31.5523 35.0523 32 34.5 32H32C31.4477 32 31 31.5523 31 31C31 30.4477 31.4477 30 32 30H34.5ZM42 30C42.5523 30 43 30.4477 43 31C43 31.5523 42.5523 32 42 32H39.5C38.9477 32 38.5 31.5523 38.5 31C38.5 30.4477 38.9477 30 39.5 30H42Z" fill="#012DD4"/>
</svg>
