<svg width="63" height="61" viewBox="0 0 63 61" fill="none" xmlns="http://www.w3.org/2000/svg">
<path d="M16.625 59.3931L15.752 60.0288L15.5293 60.1772C15.3288 60.2994 15.1229 60.3917 14.916 60.4614L14.7568 59.9907L14.5977 59.5161C14.7837 59.4533 14.9741 59.3572 15.1641 59.2192L16.0381 58.5845L16.625 59.3931ZM47.8359 59.2192C48.0259 59.3572 48.2163 59.4533 48.4023 59.5161L48.2422 59.9897L48.1377 60.3032L48.083 60.4614C47.8765 60.3917 47.6709 60.2992 47.4707 60.1772L47.248 60.0288L46.374 59.3931L46.9619 58.5845L47.8359 59.2192ZM12.3594 58.771C12.6134 59.1137 12.9754 59.3765 13.3799 59.5122L13.2197 59.9858L13.0615 60.4585C12.4631 60.2575 11.9324 59.873 11.5566 59.3657L11.958 59.0688L12.3594 58.771ZM51.4424 59.3657C51.0664 59.873 50.5361 60.2577 49.9375 60.4585L49.7793 59.9868L49.6201 59.5122C50.0246 59.3765 50.3866 59.1137 50.6406 58.771L51.4424 59.3657ZM19.8281 56.4487L20.1211 56.853L18.374 58.1235L17.7861 57.3149L19.5342 56.0444L19.8281 56.4487ZM45.2139 57.3149L44.625 58.1235L42.8779 56.853L43.4658 56.0444L45.2139 57.3149ZM11.4697 55.647L11.9453 55.8013L12.4209 55.9565L12.0869 56.9839C12.0144 57.2072 11.9817 57.4184 11.9795 57.6147L10.9814 57.603C10.9848 57.3032 11.0326 56.9917 11.1357 56.6743L11.4688 55.646L11.4697 55.647ZM51.8643 56.6743C51.9674 56.9917 52.0142 57.3032 52.0176 57.603L51.0205 57.6147C51.0183 57.4184 50.9856 57.2072 50.9131 56.9839L50.5791 55.9565L51.0547 55.8013L51.5303 55.647L51.8643 56.6743ZM23.6182 54.313L21.8701 55.5835L21.2822 54.7749L23.0303 53.5044L23.6182 54.313ZM41.7178 54.7749L41.1289 55.5835L39.3809 54.313L39.9697 53.5044L41.7178 54.7749ZM12.8047 51.5376L13.7559 51.8462L13.0879 53.9009L12.1367 53.5923L12.8047 51.5376ZM50.1943 51.5376L50.8623 53.5923L49.9121 53.9009L49.2441 51.8462L50.1943 51.5376ZM27.1143 51.7729L25.3662 53.0434L24.7783 52.2348L26.5264 50.9643L27.1143 51.7729ZM38.2217 52.2348L37.6328 53.0434L35.8848 51.7729L36.4736 50.9643L38.2217 52.2348ZM30.5732 49.4419C30.2791 49.5374 29.9962 49.6798 29.7363 49.8686L28.8623 50.5034L28.5684 50.0991L28.2744 49.6938L29.1484 49.0591C29.4942 48.8078 29.8713 48.6182 30.2637 48.4907L30.5732 49.4419ZM32.7363 48.4907C33.1287 48.6182 33.5058 48.8078 33.8516 49.0591L34.7256 49.6938L34.4307 50.0981L34.2178 50.3931L34.1367 50.5034L33.2637 49.8686C33.0035 49.6796 32.7202 49.5374 32.4258 49.4419L32.7363 48.4907ZM14.1406 47.4272L15.0918 47.7358L14.4238 49.7915L13.4727 49.4819L14.1396 47.4263L14.1406 47.4272ZM49.5264 49.4819L48.5762 49.7915L47.9082 47.7358L48.8594 47.4272L49.5264 49.4819ZM15.4756 43.3169L16.4268 43.6264L15.7588 45.6811L14.8076 45.3725L15.4756 43.3169ZM47.5234 43.3169L48.1914 45.3725L47.2412 45.6811L46.5732 43.6264L47.5234 43.3169ZM17.624 39.3071C17.6241 39.7196 17.5607 40.137 17.4287 40.5434L17.0947 41.5718L16.1436 41.2622L16.4775 40.2348C16.5767 39.9296 16.624 39.6171 16.624 39.3081L17.624 39.3071ZM46.376 39.3081C46.376 39.6171 46.4233 39.9296 46.5225 40.2348L46.8555 41.2622L45.9053 41.5718L45.5713 40.5434C45.4393 40.137 45.3759 39.7196 45.376 39.3071L46.376 39.3081ZM15.9756 36.0718C16.3213 36.323 16.6179 36.6228 16.8604 36.9565L16.0518 37.5444C15.9161 37.3576 15.7569 37.1848 15.5771 37.0307L15.3877 36.8804L14.5137 36.2446L14.8076 35.8413L15.1016 35.437L15.9756 36.0718ZM48.4854 36.2446L47.6123 36.8804C47.3524 37.0692 47.1299 37.2942 46.9482 37.5444L46.1396 36.9565C46.3821 36.6228 46.6787 36.323 47.0244 36.0718L47.8984 35.437L48.4854 36.2446ZM13.3535 34.1665L12.7656 34.9751L11.0176 33.7046L11.6055 32.897L13.3535 34.1665ZM51.9814 33.7046L50.2334 34.9751L49.6465 34.1665L51.3945 32.897L51.9814 33.7046ZM9.85742 31.6264L9.26953 32.435L7.52148 31.1645L8.10938 30.3569L9.85742 31.6264ZM55.4775 31.1645L53.7295 32.435L53.1426 31.6264L54.8906 30.3569L55.4775 31.1645ZM6.36133 29.0864L5.77246 29.895L4.02539 28.6245L4.61328 27.8169L6.36133 29.0864ZM58.9736 28.6245L57.2266 29.895L56.6387 29.0864L58.3867 27.8169L58.9736 28.6245ZM1.5332 25.4643C1.65042 25.6219 1.80125 25.7736 1.99121 25.9116L2.86523 26.5464L2.27637 27.355L1.40332 26.7202C1.13311 26.5239 0.911428 26.2998 0.732422 26.0591L1.5332 25.4643ZM62.2666 26.0591C62.0877 26.2996 61.8667 26.524 61.5967 26.7202L60.7227 27.355L60.1348 26.5464L61.0088 25.9116C61.1987 25.7736 61.3496 25.6219 61.4668 25.4643L62.2666 26.0591ZM1.5498 23.105C1.30243 23.4524 1.16528 23.8777 1.16113 24.3042L0.161133 24.2944C0.167275 23.6636 0.36952 23.0399 0.735352 22.5259L1.5498 23.105ZM62.2637 22.5259C62.6297 23.0399 62.8317 23.6634 62.8379 24.2944L61.8389 24.3042C61.8347 23.8777 61.6976 23.4524 61.4502 23.105L62.2637 22.5259ZM4.24707 21.2934V22.2934H3.16602C2.93124 22.2935 2.72062 22.3276 2.5332 22.3862L2.23438 21.4341C2.44289 21.3688 2.66422 21.3232 2.89844 21.3042L3.16602 21.2934H4.24707ZM59.834 21.2934C60.1678 21.2935 60.4785 21.3446 60.7646 21.4341L60.4668 22.3862C60.2794 22.3276 60.0688 22.2935 59.834 22.2934H58.7529V21.2934H59.834ZM8.56836 21.2934V22.2934H6.40723V21.2934H8.56836ZM12.8896 21.2934V22.2934H10.7285V21.2934H12.8896ZM17.2109 21.2934V22.2934H15.0498V21.2934H17.2109ZM21.3789 21.147L21.6885 22.0981C21.2961 22.2257 20.8796 22.2934 20.4521 22.2934H19.3721V21.2934H20.4521L20.6943 21.2837C20.9299 21.2647 21.1588 21.2171 21.3779 21.146L21.3789 21.147ZM41.6211 21.146C41.8405 21.2173 42.0698 21.2647 42.3057 21.2837L42.5479 21.2934H43.6279V22.2934H42.5479C42.1204 22.2934 41.7039 22.2257 41.3115 22.0981L41.6211 21.146ZM47.9502 21.2934V22.2934H45.7891V21.2934H47.9502ZM52.2715 21.2934V22.2934H50.1104V21.2934H52.2715ZM56.5928 21.2934V22.2934H54.4316V21.2934H56.5928ZM24.5898 18.5014L24.2559 19.5298C24.1238 19.9362 23.931 20.3113 23.6885 20.645L22.8789 20.0571C23.0608 19.807 23.2064 19.5257 23.3057 19.2202L23.6387 18.1929L24.5898 18.5014ZM39.6943 19.2202C39.7935 19.5255 39.9384 19.8071 40.1201 20.0571L39.3115 20.645C39.069 20.3113 38.8762 19.9362 38.7441 19.5298L38.4102 18.5014L39.3604 18.1929L39.6943 19.2202ZM24.9746 14.0825L25.9258 14.3921L25.2578 16.4468L24.3066 16.1382L24.9746 14.0825ZM38.0244 14.0825L38.6924 16.1382L37.7422 16.4468L37.0742 14.3921L38.0244 14.0825ZM26.3096 9.97313L27.2607 10.2817L26.5928 12.3374L25.6426 12.0278L25.6416 12.0268L26.3096 9.97313ZM36.6895 9.97313L37.3574 12.0268L36.4072 12.3374L35.7393 10.2817L36.6895 9.97313ZM27.6455 5.86278L28.5967 6.17235L27.9287 8.22704L26.9775 7.91844L26.9766 7.91746L27.6445 5.8618L27.6455 5.86278ZM36.0225 7.91746L35.0713 8.22704L34.4033 6.17235L35.3545 5.86278L36.0225 7.91746ZM29.4746 2.22703L29.8818 2.5161C29.7682 2.67626 29.6702 2.86601 29.5977 3.08934L29.2637 4.11668L28.3125 3.80809L28.6465 2.78075C28.7496 2.46345 28.894 2.18339 29.0674 1.93895L29.4746 2.22703ZM33.9316 1.93895C34.1052 2.1835 34.2504 2.46325 34.3535 2.78075L34.6865 3.80809L33.7363 4.11668L33.4023 3.08934C33.3298 2.86601 33.2318 2.67626 33.1182 2.5161L33.9316 1.93895ZM30.5693 0.851058C31.1717 0.661533 31.8273 0.66172 32.4297 0.851058L32.1309 1.80321C31.7239 1.67528 31.2761 1.67528 30.8691 1.80321L30.5693 0.851058Z" fill="#E9F03C"/>
</svg>
