<svg width="186" height="186" viewBox="0 0 186 186" fill="none" xmlns="http://www.w3.org/2000/svg">
<path d="M92.8924 185.82C80.3526 185.82 68.1871 183.363 56.7337 178.519C45.6726 173.839 35.7379 167.139 27.2067 158.608C18.6756 150.075 11.9778 140.14 7.29984 129.075C2.45616 117.621 0 105.453 0 92.9099C0 80.3665 2.45616 68.2 7.29984 56.7444C11.9791 45.6812 18.6769 35.7446 27.2067 27.2119C35.7366 18.6791 45.6713 11.9801 56.7337 7.30122C68.1871 2.45662 80.3513 0 92.8924 0C105.433 0 117.598 2.45662 129.051 7.30122C140.112 11.9814 150.047 18.6804 158.578 27.2119C167.109 35.7434 173.807 45.6799 178.485 56.7444C183.329 68.1987 185.785 80.3665 185.785 92.9099C185.785 105.453 183.329 117.62 178.485 129.075C173.806 140.139 167.108 150.075 158.578 158.608C150.047 167.141 140.113 173.84 129.051 178.519C117.598 183.363 105.433 185.82 92.8924 185.82ZM92.8924 1.46853C42.481 1.46853 1.46826 42.489 1.46826 92.9099C1.46826 143.331 42.481 184.351 92.8924 184.351C143.304 184.351 184.316 143.331 184.316 92.9099C184.316 42.489 143.304 1.46853 92.8924 1.46853Z" fill="#012DD4"/>
<path d="M96.5459 164.609C91.8718 164.609 87.1913 164.154 82.5819 163.235C73.1328 161.355 64.3349 157.68 56.4317 152.312C48.7978 147.127 42.3176 140.59 37.1683 132.882C32.0191 125.174 28.4624 116.683 26.5953 107.645C24.6622 98.2871 24.6351 88.7507 26.515 79.2998C28.395 69.8489 32.0696 61.0494 37.4363 53.1447C42.6205 45.5093 49.1565 39.0278 56.8629 33.8776C64.5693 28.7274 73.059 25.17 82.0951 23.3026C91.451 21.3692 100.986 21.342 110.435 23.2223L110.149 24.6624C91.8382 21.0182 73.2027 24.7245 57.6786 35.0988C42.1544 45.4731 31.5983 61.2721 27.9548 79.5873C20.4336 117.395 45.0676 154.274 82.8681 161.798C94.3137 164.076 106.213 163.453 117.28 159.998L117.718 161.399C110.875 163.536 103.72 164.612 96.5459 164.612V164.609Z" fill="#DF0034"/>
<path d="M82.5826 168.455C86.2095 168.455 89.1496 165.514 89.1496 161.887C89.1496 158.259 86.2095 155.318 82.5826 155.318C78.9558 155.318 76.0156 158.259 76.0156 161.887C76.0156 165.514 78.9558 168.455 82.5826 168.455Z" fill="#E9F03C"/>
<path d="M185.785 92.9099H184.317C184.317 69.9016 175.743 47.9151 160.175 30.9985C142.904 12.2313 118.38 1.46853 92.8926 1.46853V0C106.112 0 118.882 2.7208 130.85 8.0847C142.411 13.2673 152.64 20.6423 161.256 30.0039C177.074 47.1925 185.786 69.5325 185.786 92.9099H185.785Z" fill="#012DD4"/>
<path d="M108.331 30.5017C111.958 30.5017 114.898 27.561 114.898 23.9335C114.898 20.3059 111.958 17.3652 108.331 17.3652C104.704 17.3652 101.764 20.3059 101.764 23.9335C101.764 27.561 104.704 30.5017 108.331 30.5017Z" fill="#012DD4"/>
</svg>
