<svg width="32" height="32" viewBox="0 0 32 32" fill="none" xmlns="http://www.w3.org/2000/svg">
<circle cx="16" cy="16" r="15.5" stroke="#848484" stroke-dasharray="2 2"/>
<path d="M11 12.5C10.7239 12.5 10.5 12.7239 10.5 13C10.5 13.2761 10.7239 13.5 11 13.5V12.5ZM23.3536 13.3536C23.5488 13.1583 23.5488 12.8417 23.3536 12.6464L20.1716 9.46447C19.9763 9.2692 19.6597 9.2692 19.4645 9.46447C19.2692 9.65973 19.2692 9.97631 19.4645 10.1716L22.2929 13L19.4645 15.8284C19.2692 16.0237 19.2692 16.3403 19.4645 16.5355C19.6597 16.7308 19.9763 16.7308 20.1716 16.5355L23.3536 13.3536ZM11 13.5H23V12.5H11V13.5Z" fill="#888888"/>
<path d="M21 19.5C21.2761 19.5 21.5 19.2761 21.5 19C21.5 18.7239 21.2761 18.5 21 18.5L21 19.5ZM8.64645 18.6464C8.45118 18.8417 8.45118 19.1583 8.64645 19.3536L11.8284 22.5355C12.0237 22.7308 12.3403 22.7308 12.5355 22.5355C12.7308 22.3403 12.7308 22.0237 12.5355 21.8284L9.70711 19L12.5355 16.1716C12.7308 15.9763 12.7308 15.6597 12.5355 15.4645C12.3403 15.2692 12.0237 15.2692 11.8284 15.4645L8.64645 18.6464ZM21 18.5L9 18.5L9 19.5L21 19.5L21 18.5Z" fill="#888888"/>
</svg>
