<svg width="36" height="36" viewBox="0 0 36 36" fill="none" xmlns="http://www.w3.org/2000/svg">
<path d="M33.0453 19.7618L33.0195 19.9757L33.1574 20.1414L35.4235 22.864L35.4253 22.8661C35.513 22.9703 35.5228 23.113 35.4581 23.2215L35.4563 23.2247L31.3292 30.2717C31.3291 30.2719 31.3289 30.2721 31.3288 30.2723C31.2594 30.3893 31.1215 30.4544 30.9839 30.4312L30.9811 30.4307L27.4581 29.8557L27.2502 29.8218L27.0807 29.9468C26.1261 30.651 25.0844 31.2451 23.9728 31.7149L23.7765 31.7979L23.7004 31.997L22.4434 35.2866L22.4432 35.2872C22.3957 35.4119 22.2705 35.5 22.1296 35.5H13.8704C13.7269 35.5 13.6034 35.4112 13.5576 35.2893L13.5566 35.2866L12.2996 31.997L12.2236 31.7979L12.0272 31.7149C10.9153 31.245 9.87219 30.6509 8.91963 29.947L8.75005 29.8217L8.54195 29.8557L5.01885 30.4307L5.01611 30.4312C4.88003 30.4542 4.74239 30.3906 4.67054 30.2712C4.67028 30.2708 4.67003 30.2704 4.66977 30.2699L0.544951 23.2268C0.544791 23.2265 0.544631 23.2262 0.544472 23.2259C0.47783 23.1101 0.49097 22.9656 0.574717 22.8661L0.576476 22.864L2.84261 20.1414L2.97997 19.9763L2.95489 19.7631C2.88665 19.183 2.84582 18.594 2.84582 18C2.84582 17.4052 2.88513 16.8164 2.95473 16.2382L2.98048 16.0243L2.84261 15.8586L0.576476 13.136L0.576482 13.136L0.574707 13.1339C0.487035 13.0297 0.477228 12.887 0.541843 12.7785L0.543744 12.7753L4.6708 5.72834C4.67092 5.72815 4.67103 5.72795 4.67115 5.72776C4.74056 5.61071 4.87847 5.54559 5.01613 5.56885L5.01885 5.5693L8.54195 6.14432L8.74982 6.17825L8.91931 6.05322C9.87389 5.34902 10.9156 4.75493 12.0272 4.28508L12.2236 4.2021L12.2996 4.00299L13.5566 0.713359L13.5568 0.712767C13.6043 0.588062 13.7295 0.5 13.8704 0.5H22.1296C22.2731 0.5 22.3966 0.588771 22.4424 0.710679L22.4434 0.713359L23.7004 4.003L23.7765 4.2021L23.9728 4.28508C25.0847 4.75502 26.1278 5.34911 27.0804 6.05298L27.25 6.17829L27.4581 6.14432L30.9811 5.5693L30.9839 5.56884C31.12 5.54585 31.2576 5.60937 31.3295 5.72881C31.3297 5.72923 31.33 5.72966 31.3302 5.73008L35.455 12.7732C35.4552 12.7735 35.4554 12.7738 35.4555 12.774C35.5222 12.8899 35.509 13.0344 35.4253 13.1339L35.4235 13.136L33.1574 15.8586L33.02 16.0237L33.0451 16.2369C33.1133 16.817 33.1542 17.406 33.1542 18C33.1542 18.5948 33.1149 19.1836 33.0453 19.7618ZM9.67794 17.9999C9.67794 22.5428 13.4109 26.21 18.0034 26.21C22.5961 26.21 26.3289 22.5428 26.3289 17.9999C26.3289 13.4569 22.5961 9.78979 18.0034 9.78979C13.4107 9.78979 9.67794 13.4569 9.67794 17.9999Z" stroke="white"/>
</svg>
