<svg width="50" height="50" viewBox="0 0 50 50" fill="none" xmlns="http://www.w3.org/2000/svg">
<path d="M40.6874 34.0641L40.6874 34.0641L40.7018 34.0675C41.3665 34.2209 42.0685 34.3829 42.7747 34.6534C43.6191 34.9327 44.5597 34.9797 45.5049 34.7437C47.1501 34.3198 48.4175 33.052 48.8409 31.4066C49.6429 28.2439 47.2915 25.4675 44.2731 25.4675C43.7639 25.4675 43.2938 25.5595 42.804 25.7063C42.8034 25.7065 42.8027 25.7067 42.8021 25.7069L42.797 25.7084C42.1256 25.915 41.4341 26.1278 40.7395 26.2881L40.7301 26.2903L40.73 26.2902C39.4368 26.5624 38.1999 25.6049 38.1999 24.2383V14.342C38.1999 12.691 36.8611 11.3522 35.2101 11.3522H25.3138C24.0109 11.3522 22.9873 10.1267 23.2619 8.82204L23.2639 8.8126L23.264 8.81262L23.2673 8.79842C23.4207 8.13364 23.5827 7.43153 23.8532 6.72525C24.1325 5.88105 24.1796 4.9407 23.9437 3.99571C23.52 2.35018 22.252 1.08247 20.6064 0.659038C17.4438 -0.142872 14.6674 2.20852 14.6674 5.22695C14.6674 5.73615 14.7593 6.20632 14.9062 6.69624C14.9064 6.69681 14.9066 6.69737 14.9067 6.69794L14.9083 6.70317C15.1149 7.37448 15.3277 8.06591 15.4879 8.76053L15.4901 8.76994L15.49 8.76996C15.7623 10.0632 14.8048 11.3001 13.4382 11.3001H3.54184C1.89081 11.3001 0.552086 12.6389 0.552086 14.2899V24.1341C0.552086 24.8481 1.18503 25.3478 1.86787 25.2092C2.48224 25.0555 3.03901 24.9032 3.64416 24.7015L3.65135 24.6991L3.6586 24.697C4.20979 24.5316 4.78084 24.4154 5.41694 24.4154C9.0668 24.4154 11.9229 27.8388 10.9535 31.6028L40.6874 34.0641ZM40.6874 34.0641L40.678 34.0621M40.6874 34.0641L40.678 34.0621M40.678 34.0621C39.3733 33.7874 38.1478 34.811 38.1478 36.1139V46.0102C38.1478 47.6692 36.8044 48.992 35.224 48.9481L35.224 48.9479H35.2101H3.48976C1.83872 48.9479 0.5 47.6092 0.5 45.9582V36.1139C0.5 35.4 1.13292 34.9003 1.81573 35.0389C2.44243 35.1955 3.038 35.3452 3.57932 35.5421L3.57925 35.5423L3.59207 35.5465C4.62132 35.8896 5.70598 35.944 6.88698 35.6628L6.887 35.6628M40.678 34.0621L6.887 35.6628M6.887 35.6628L6.89569 35.6606M6.887 35.6628L6.89569 35.6606M6.89569 35.6606C8.89514 35.1465 10.4393 33.6024 10.9535 31.603L6.89569 35.6606Z" stroke="white"/>
</svg>
