<svg width="33" height="39" viewBox="0 0 33 39" fill="none" xmlns="http://www.w3.org/2000/svg">
<path d="M27.7228 29.3099C29.5099 29.816 30.9288 30.4415 31.8432 31.1448L31.5384 31.5411C32.2306 32.0735 32.5 32.5701 32.5 33.0001C32.5 33.4301 32.2306 33.9266 31.5384 34.4591L31.8432 34.8554C30.9288 35.5587 29.5099 36.1841 27.7228 36.6902L27.5866 36.2092C26.3106 36.5705 24.8364 36.8716 23.2149 37.095L23.2831 37.5903C21.8724 37.7846 20.356 37.9202 18.7675 37.9868L18.7466 37.4873C18.0123 37.5181 17.2623 37.534 16.5 37.534C15.7377 37.534 14.9877 37.5181 14.2534 37.4873L14.2325 37.9868C12.644 37.9202 11.1276 37.7846 9.71689 37.5903L9.78513 37.095C8.16363 36.8716 6.68936 36.5705 5.41343 36.2092L5.27718 36.6902C3.4901 36.1841 2.07124 35.5587 1.15682 34.8554L1.46164 34.4591C0.769356 33.9266 0.5 33.4301 0.5 33.0001C0.5 32.5701 0.769356 32.0735 1.46164 31.5411L1.15682 31.1448C2.07123 30.4415 3.49009 29.816 5.27718 29.3099L5.41343 29.791C6.68935 29.4297 8.16362 29.1286 9.78513 28.9052L9.71689 28.4099C11.1276 28.2155 12.644 28.0799 14.2325 28.0133L14.2534 28.5129C14.9877 28.4821 15.7377 28.4662 16.5 28.4662C17.2623 28.4662 18.0123 28.4821 18.7466 28.5129L18.7675 28.0133C20.356 28.0799 21.8724 28.2155 23.2831 28.4099L23.2149 28.9052C24.8364 29.1286 26.3106 29.4297 27.5866 29.791L27.7228 29.3099Z" stroke="white" stroke-dasharray="4 4"/>
<path d="M20.1357 14.1287V0L9.50854 19.9282H16.3136V34.1186L26.2882 14.1287H20.1357Z" fill="white"/>
</svg>
