<svg width="30" height="29" viewBox="0 0 30 29" fill="none" xmlns="http://www.w3.org/2000/svg">
<path d="M23.9081 19.7757L23.908 19.7758L23.9216 19.7789C24.3069 19.8678 24.7289 19.9652 25.155 20.128C25.6116 20.2781 26.1213 20.3037 26.6356 20.1755C27.5273 19.9456 28.2135 19.2591 28.443 18.3672C28.8786 16.6479 27.6042 15.1425 25.9644 15.1425C25.6921 15.1425 25.4372 15.1914 25.1627 15.2737C25.1622 15.2738 25.1617 15.274 25.1611 15.2741L25.1562 15.2756C24.7647 15.3961 24.3532 15.5227 23.9386 15.6184L23.9292 15.6206L23.9292 15.6205C23.0452 15.8066 22.1959 15.1506 22.1959 14.2148V8.41101C22.1959 7.55694 21.5034 6.86441 20.6493 6.86441H14.8455C13.9519 6.86441 13.2514 6.02656 13.4399 5.13119L13.4419 5.12174L13.4419 5.12176L13.4451 5.10827C13.534 4.72288 13.6314 4.30092 13.7941 3.87473C13.9443 3.41811 13.9698 2.90839 13.8416 2.39407C13.6117 1.50251 12.9254 0.81643 12.0337 0.586846C10.3142 0.151059 8.80861 1.42549 8.80861 3.0654C8.80861 3.33772 8.85752 3.59253 8.93977 3.86705C8.93993 3.86759 8.94009 3.86813 8.94026 3.86866L8.94179 3.8736C9.06225 4.2651 9.18886 4.67657 9.28455 5.09121L9.28672 5.10062L9.28663 5.10064C9.47273 5.98462 8.81676 6.83386 7.88096 6.83386H2.07715C1.22308 6.83386 0.530546 7.52639 0.530546 8.38047V14.1537C0.530546 14.4372 0.7764 14.6354 1.05014 14.5824C1.40568 14.4934 1.72531 14.4058 2.07177 14.2903L2.07896 14.2879L2.08621 14.2857C2.422 14.185 2.77766 14.1119 3.17682 14.1119C5.44815 14.1119 7.22727 16.2429 6.62406 18.5853L23.9081 19.7757ZM23.9081 19.7757L23.8986 19.7737M23.9081 19.7757L23.8986 19.7737M23.8986 19.7737C23.0033 19.5852 22.1654 20.2857 22.1654 21.1794V26.9832C22.1654 27.8452 21.4682 28.5218 20.6632 28.4995L20.6632 28.4993H20.6493H2.04661C1.19253 28.4993 0.5 27.8067 0.5 26.9527V21.1794C0.5 20.896 0.745869 20.6977 1.01962 20.7507C1.38729 20.8427 1.7242 20.9277 2.02847 21.0384L2.0284 21.0385L2.04122 21.0428C2.68276 21.2567 3.35816 21.2895 4.08684 21.116L4.08686 21.116M23.8986 19.7737L4.08686 21.116M4.08686 21.116L4.09555 21.1138M4.08686 21.116L4.09555 21.1138M4.09555 21.1138C5.34111 20.7935 6.30366 19.831 6.62401 18.5855L4.09555 21.1138Z" stroke="white"/>
</svg>
