<svg width="130" height="59" viewBox="0 0 130 59" fill="none" xmlns="http://www.w3.org/2000/svg">
<path d="M32.3926 58.86C31.7566 58.9219 31.1146 58.9636 30.4673 58.9844L30.4351 57.985C30.1247 57.995 29.8129 58 29.5 58C29.1871 58 28.8753 57.995 28.5649 57.985L28.5327 58.9844C27.8854 58.9636 27.2434 58.9219 26.6074 58.86L26.7042 57.8647C26.0814 57.8041 25.4645 57.7234 24.8542 57.6234L24.6925 58.6102C24.0539 58.5056 23.4223 58.3804 22.7982 58.2354L23.0245 57.2614C22.4165 57.1201 21.816 56.9594 21.2237 56.78L20.9337 57.737C20.3155 57.5497 19.7058 57.3426 19.1055 57.1166L19.4579 56.1807C18.8743 55.961 18.2998 55.7226 17.7351 55.4663L17.3219 56.3769C16.7345 56.1104 16.1574 55.8251 15.5913 55.5219L16.0635 54.6404C15.5143 54.3463 14.9759 54.0347 14.449 53.7063L13.9202 54.555C13.3731 54.2142 12.8381 53.8559 12.3158 53.481L12.899 52.6686C12.3934 52.3056 11.9001 51.9265 11.4199 51.532L10.7851 52.3047C10.2875 51.8959 9.80358 51.4711 9.33403 51.0311L10.0178 50.3014C9.56387 49.8761 9.12389 49.4361 8.6986 48.9822L7.96887 49.666C7.52891 49.1964 7.10413 48.7125 6.69532 48.2149L7.46797 47.5801C7.07347 47.0999 6.69436 46.6066 6.33141 46.101L5.51905 46.6842C5.14412 46.1619 4.78584 45.6269 4.44497 45.0798L5.29368 44.551C4.96533 44.024 4.65372 43.4857 4.3596 42.9365L3.47808 43.4087C3.17489 42.8426 2.88963 42.2655 2.62306 41.6781L3.53367 41.2649C3.27741 40.7002 3.03903 40.1257 2.81927 39.5421L1.88343 39.8945C1.65736 39.2942 1.4503 38.6845 1.26299 38.0663L2.22003 37.7763C2.04057 37.184 1.87988 36.5835 1.73864 35.9755L0.764578 36.2018C0.619612 35.5777 0.494444 34.9461 0.389784 34.3075L1.37662 34.1458C1.27659 33.5355 1.19593 32.9186 1.13532 32.2958L0.140017 32.3926C0.078116 31.7566 0.0364137 31.1146 0.0155626 30.4673L1.01504 30.4351C1.00504 30.1247 1 29.8129 1 29.5C1 29.1871 1.00504 28.8753 1.01504 28.5649L0.0155627 28.5327C0.0364139 27.8854 0.0781162 27.2434 0.140017 26.6074L1.13532 26.7042C1.19593 26.0814 1.27659 25.4645 1.37662 24.8542L0.389785 24.6925C0.494445 24.0539 0.619613 23.4223 0.764579 22.7982L1.73864 23.0245C1.87988 22.4165 2.04057 21.816 2.22003 21.2237L1.26299 20.9337C1.4503 20.3155 1.65736 19.7058 1.88343 19.1055L2.81927 19.4579C3.03903 18.8743 3.27741 18.2998 3.53367 17.7351L2.62306 17.3219C2.88963 16.7345 3.17489 16.1574 3.47808 15.5913L4.3596 16.0635C4.65372 15.5143 4.96533 14.9759 5.29368 14.449L4.44497 13.9202C4.78584 13.3731 5.14412 12.8381 5.51905 12.3158L6.33141 12.899C6.69436 12.3934 7.07347 11.9001 7.46798 11.4199L6.69532 10.7851C7.10413 10.2875 7.52891 9.80358 7.96888 9.33403L8.6986 10.0178C9.12389 9.56387 9.56387 9.12389 10.0178 8.6986L9.33403 7.96888C9.80358 7.52891 10.2875 7.10413 10.7851 6.69532L11.4199 7.46797C11.9001 7.07347 12.3934 6.69436 12.899 6.33141L12.3158 5.51905C12.8381 5.14412 13.3731 4.78584 13.9202 4.44497L14.449 5.29368C14.9759 4.96533 15.5144 4.65372 16.0635 4.3596L15.5913 3.47808C16.1574 3.17489 16.7345 2.88963 17.3219 2.62306L17.7351 3.53367C18.2998 3.2774 18.8743 3.03903 19.4579 2.81927L19.1055 1.88343C19.7058 1.65735 20.3155 1.4503 20.9337 1.26299L21.2237 2.22003C21.816 2.04057 22.4165 1.87987 23.0245 1.73864L22.7982 0.764574C23.4223 0.619606 24.0539 0.494442 24.6925 0.389782L24.8542 1.37661C25.4645 1.27658 26.0814 1.19593 26.7042 1.13531L26.6074 0.140015C27.2434 0.0781128 27.8854 0.0364107 28.5327 0.0155588L28.5649 1.01504C28.8753 1.00504 29.1871 0.999999 29.5 0.999999C29.813 0.999999 30.1247 1.00504 30.4351 1.01504L30.4673 0.0155589C31.1146 0.0364109 31.7566 0.0781129 32.3926 0.140015L32.2958 1.13531C32.9186 1.19593 33.5355 1.27658 34.1458 1.37661L34.3075 0.389782C34.9461 0.494442 35.5777 0.619605 36.2018 0.764573L35.9755 1.73864C36.5835 1.87987 37.184 2.04057 37.7763 2.22003L38.0663 1.26299C38.6845 1.4503 39.2942 1.65735 39.8945 1.88342L39.5421 2.81927C40.1257 3.03903 40.7002 3.2774 41.2649 3.53367L41.6781 2.62305C42.2655 2.88963 42.8426 3.17489 43.4087 3.47808L42.9365 4.35959C43.4856 4.65372 44.0241 4.96533 44.551 5.29368L45.0798 4.44497C45.6269 4.78584 46.1619 5.14412 46.6842 5.51905L46.101 6.33141C46.6066 6.69436 47.0999 7.07347 47.5801 7.46797L48.2149 6.69532C48.7125 7.10413 49.1964 7.52891 49.666 7.96888L48.9822 8.6986C49.4361 9.12389 49.8761 9.56387 50.3014 10.0178L51.0311 9.33403C51.4711 9.80358 51.8959 10.2875 52.3047 10.7851L51.532 11.4199C51.9265 11.9001 52.3056 12.3934 52.6686 12.899L53.481 12.3158C53.8559 12.8381 54.2142 13.3731 54.555 13.9202L53.7063 14.449C54.0347 14.9759 54.3463 15.5144 54.6404 16.0635L55.5219 15.5913C55.8251 16.1574 56.1104 16.7345 56.3769 17.3219L55.4663 17.7351C55.7226 18.2998 55.961 18.8743 56.1807 19.4579L57.1166 19.1055C57.3426 19.7058 57.5497 20.3155 57.737 20.9337L56.78 21.2237C56.9594 21.816 57.1201 22.4165 57.2614 23.0245L58.2354 22.7982C58.3804 23.4223 58.5056 24.0539 58.6102 24.6925L57.6234 24.8542C57.7234 25.4645 57.8041 26.0814 57.8647 26.7042L58.86 26.6074C58.9219 27.2434 58.9636 27.8854 58.9844 28.5327L57.985 28.5649C57.995 28.8753 58 29.1871 58 29.5C58 29.813 57.995 30.1247 57.985 30.4351L58.9844 30.4673C58.9636 31.1146 58.9219 31.7566 58.86 32.3926L57.8647 32.2958C57.8041 32.9186 57.7234 33.5355 57.6234 34.1458L58.6102 34.3075C58.5056 34.9461 58.3804 35.5777 58.2354 36.2018L57.2614 35.9755C57.1201 36.5835 56.9594 37.184 56.78 37.7763L57.737 38.0663C57.5497 38.6845 57.3426 39.2942 57.1166 39.8945L56.1807 39.5421C55.961 40.1257 55.7226 40.7002 55.4663 41.2649L56.3769 41.6781C56.1104 42.2655 55.8251 42.8426 55.5219 43.4087L54.6404 42.9365C54.3463 43.4857 54.0347 44.0241 53.7063 44.551L54.555 45.0798C54.2142 45.6269 53.8559 46.1619 53.481 46.6842L52.6686 46.101C52.3056 46.6066 51.9265 47.0999 51.532 47.5801L52.3047 48.2149C51.8959 48.7125 51.4711 49.1964 51.0311 49.666L50.3014 48.9822C49.8761 49.4361 49.4361 49.8761 48.9822 50.3014L49.666 51.0311C49.1964 51.4711 48.7125 51.8959 48.2149 52.3047L47.5801 51.532C47.0999 51.9265 46.6066 52.3056 46.101 52.6686L46.6842 53.481C46.1619 53.8559 45.6269 54.2142 45.0798 54.555L44.551 53.7063C44.0241 54.0347 43.4857 54.3463 42.9365 54.6404L43.4087 55.5219C42.8426 55.8251 42.2655 56.1104 41.6781 56.3769L41.2649 55.4663C40.7002 55.7226 40.1257 55.961 39.5421 56.1807L39.8945 57.1166C39.2942 57.3426 38.6845 57.5497 38.0663 57.737L37.7763 56.78C37.184 56.9594 36.5835 57.1201 35.9755 57.2614L36.2018 58.2354C35.5777 58.3804 34.9461 58.5056 34.3075 58.6102L34.1458 57.6234C33.5355 57.7234 32.9186 57.8041 32.2958 57.8647L32.3926 58.86Z" stroke="white" stroke-width="2" stroke-dasharray="2 2"/>
<path d="M66.5 58C50.7599 58 38 45.2401 38 29.5C38 13.7599 50.7599 0.999998 66.5 0.999999C82.2401 0.999999 95 13.7599 95 29.5C95 45.2401 82.2401 58 66.5 58Z" stroke="#EAF03C" stroke-width="2"/>
<path d="M100.5 58C84.7599 58 72 45.2401 72 29.5C72 13.7599 84.7599 0.999998 100.5 0.999999C116.24 0.999999 129 13.7599 129 29.5C129 45.2401 116.24 58 100.5 58Z" stroke="#EAF03C" stroke-width="2"/>
<circle cx="100.5" cy="29.5" r="9.5" transform="rotate(90 100.5 29.5)" fill="#EAF03C" stroke="#EAF03C" stroke-width="2"/>
<path d="M100.5 40C92.5806 40 85.373 37.2015 80.1145 34.3696C77.491 32.9567 75.3682 31.5439 73.9037 30.4862C73.3767 30.1055 72.9354 29.7712 72.5873 29.5C72.9354 29.2288 73.3767 28.8945 73.9037 28.5138C75.3682 27.4561 77.491 26.0433 80.1145 24.6304C85.373 21.7985 92.5806 19 100.5 19C108.419 19 115.627 21.7985 120.885 24.6304C123.509 26.0433 125.632 27.4561 127.096 28.5138C127.623 28.8945 128.065 29.2288 128.413 29.5C128.065 29.7712 127.623 30.1055 127.096 30.4862C125.632 31.5439 123.509 32.9567 120.885 34.3696C115.627 37.2015 108.419 40 100.5 40Z" stroke="#EAF03C" stroke-width="2"/>
</svg>
