<svg width="99" height="73" viewBox="0 0 99 73" fill="none" xmlns="http://www.w3.org/2000/svg">
<rect x="29.2858" y="31.4619" width="40.4286" height="40.4286" rx="1" stroke="#EAF03C" stroke-width="2"/>
<rect x="42.4286" y="44.6044" width="14.1429" height="28.2857" rx="2" fill="#EAF03C"/>
<path d="M43.8265 5.29132L45.3354 3.88413L46.0174 4.61544L46.7718 3.91185C46.9589 3.73736 47.1579 3.58458 47.3658 3.45314L46.8314 2.60788C47.3706 2.26703 47.9604 2.03922 48.5672 1.92446L48.753 2.90704C49.2462 2.81375 49.7538 2.81375 50.247 2.90704L50.4328 1.92446C51.0396 2.03922 51.6294 2.26703 52.1686 2.60788L51.6342 3.45314C51.8421 3.58457 52.0411 3.73736 52.2282 3.91184L52.9826 4.61543L53.6646 3.88413L55.1735 5.29131L54.4914 6.02262L56.0002 7.4298L56.6823 6.6985L58.1911 8.10568L57.509 8.83699L59.0179 10.2442L59.6999 9.51287L61.2087 10.9201L60.5267 11.6514L62.0355 13.0585L62.7175 12.3272L64.2263 13.7344L63.5443 14.4657L65.0531 15.8729L65.7352 15.1416L67.244 16.5488L66.5619 17.2801L68.0707 18.6873L68.7528 17.956L70.2616 19.3632L69.5796 20.0945L71.0884 21.5017L71.7704 20.7703L73.2792 22.1775L72.5972 22.9088L74.106 24.316L74.788 23.5847L76.2969 24.9919L75.6148 25.7232L77.1236 27.1304L77.8057 26.3991L79.3145 27.8063L78.6324 28.5376L80.1413 29.9448L80.8233 29.2135L82.3321 30.6206L81.6501 31.3519L82.4045 32.0555C82.6113 32.2484 82.7897 32.4508 82.9419 32.6593L83.7496 32.0697C84.1606 32.6327 84.4291 33.2458 84.5692 33.8734L83.5933 34.0914C83.7098 34.6132 83.7152 35.1518 83.619 35.6746L84.6025 35.8555C84.482 36.5105 84.2341 37.1398 83.8755 37.701L83.0328 37.1626C82.7467 37.6104 82.3754 38.0006 81.9342 38.3028L82.4993 39.1278C81.9687 39.4912 81.3542 39.7564 80.6697 39.8878L80.4811 38.9058C80.2276 38.9544 79.9591 38.9808 79.6763 38.9808H78.6704V39.9808H76.6587V38.9808H74.6469V39.9808H72.6352V38.9808H70.6234V39.9808H68.6117V38.9808H66.5999V39.9808H64.5882V38.9808H62.5764V39.9808H60.5646V38.9808H58.5529V39.9808H56.5411V38.9808H54.5294V39.9808H52.5176V38.9808H50.5059V39.9808H48.4941V38.9808H46.4824V39.9808H44.4706V38.9808H42.4589V39.9808H40.4471V38.9808H38.4354V39.9808H36.4236V38.9808H34.4119V39.9808H32.4001V38.9808H30.3883V39.9808H28.3766V38.9808H26.3648V39.9808H24.3531V38.9808H22.3413V39.9808H20.3296V38.9808H19.3237C19.0409 38.9808 18.7724 38.9544 18.5189 38.9058L18.3303 39.8878C17.6458 39.7564 17.0312 39.4912 16.5007 39.1278L17.0658 38.3028C16.6246 38.0006 16.2533 37.6104 15.9671 37.1626L15.1245 37.701C14.7659 37.1398 14.518 36.5105 14.3975 35.8555L15.3809 35.6746C15.2848 35.1518 15.2902 34.6132 15.4067 34.0914L14.4308 33.8734C14.5709 33.2458 14.8394 32.6327 15.2504 32.0697L16.0581 32.6593C16.2103 32.4508 16.3887 32.2484 16.5955 32.0555L17.3499 31.352L16.6679 30.6206L18.1767 29.2135L18.8587 29.9448L20.3676 28.5376L19.6855 27.8063L21.1943 26.3991L21.8764 27.1304L23.3852 25.7232L22.7031 24.9919L24.2119 23.5847L24.894 24.316L26.4028 22.9088L25.7208 22.1775L27.2296 20.7704L27.9116 21.5017L29.4204 20.0945L28.7384 19.3632L30.2472 17.956L30.9293 18.6873L32.4381 17.2801L31.756 16.5488L33.2648 15.1416L33.9469 15.8729L35.4557 14.4657L34.7737 13.7344L36.2825 12.3272L36.9645 13.0585L38.4733 11.6514L37.7913 10.9201L39.3001 9.51287L39.9821 10.2442L41.491 8.83699L40.8089 8.10569L42.3177 6.6985L42.9998 7.42981L44.5086 6.02262L43.8265 5.29132Z" stroke="white" stroke-width="2" stroke-dasharray="2 2"/>
</svg>
