<svg width="1090" height="386" viewBox="0 0 1090 386" fill="none" xmlns="http://www.w3.org/2000/svg">
<path d="M387.527 278.281C361.857 278.281 354.644 254.043 347.66 230.605C339.76 204.059 331.585 176.6 298.29 176.6V172.031C334.997 172.031 344.065 202.46 352.056 229.302C359.155 253.129 365.292 273.689 387.527 273.689C409.761 273.689 419.036 241.798 427.737 208.034C437.034 171.986 446.651 134.681 476.763 134.681C505.318 134.681 513.333 149.827 521.073 164.493C529.019 179.524 536.552 193.734 566 193.734C598.173 193.734 609.256 172.785 619.996 152.545C628.583 136.326 636.689 120.997 655.237 120.997C673.785 120.997 681.502 140.826 689.631 161.843C699.638 187.68 710.995 216.944 744.474 216.944C777.952 216.944 789.378 193.185 799.385 172.237C807.56 155.104 815.277 138.907 833.71 138.907V143.476C818.162 143.476 811.361 157.708 803.507 174.202C792.927 196.384 780.951 221.512 744.474 221.512C707.996 221.512 695.905 190.695 685.372 163.488C677.472 143.133 670.671 125.566 655.237 125.566C639.803 125.566 632.315 139.067 624.049 154.67C613.217 175.115 600.944 198.302 566 198.302C533.782 198.302 524.874 181.466 517.02 166.617C509.577 152.545 502.548 139.25 476.763 139.25C450.979 139.25 441.041 174.796 432.179 209.154C423.409 243.123 414.341 278.235 387.527 278.235V278.281Z" fill="#E9F03C"/>
<path d="M476.763 143.521C480.38 143.521 483.312 140.596 483.312 136.988C483.312 133.38 480.38 130.454 476.763 130.454C473.146 130.454 470.214 133.38 470.214 136.988C470.214 140.596 473.146 143.521 476.763 143.521Z" fill="#E9F03C"/>
<circle cx="476" cy="96" r="24" fill="#E9F03C"/>
<path fill-rule="evenodd" clip-rule="evenodd" d="M476.001 87C478.078 87 479.761 88.6003 479.761 90.5732C479.761 92.546 478.078 94.145 476.001 94.145C473.924 94.145 472.24 92.5447 472.24 90.5719C472.24 88.599 473.924 87 476.001 87ZM466.725 89.0338C468.401 89.0338 469.76 90.3252 469.76 91.9178C469.76 93.5103 468.401 94.8018 466.725 94.8018C465.049 94.8018 463.69 93.5103 463.69 91.9178C463.69 90.3252 465.049 89.0338 466.725 89.0338ZM460.421 102.214C462.663 103.172 464.904 103.618 467.147 103.555C466.897 103.236 466.773 102.833 466.812 102.415C467.04 100.051 468.248 97.9753 470.033 96.5372C469.055 96.0129 467.927 95.7143 466.723 95.7143C463.206 95.7143 460.317 98.2712 460.003 101.536C459.976 101.828 460.138 102.094 460.421 102.214L460.421 102.214ZM485.277 89.0338C486.953 89.0338 488.312 90.3252 488.312 91.9178C488.312 93.5103 486.953 94.8018 485.277 94.8018C483.601 94.8018 482.242 93.5103 482.242 91.9178C482.243 90.3252 483.601 89.0338 485.277 89.0338ZM468.191 103.332C467.84 103.182 467.637 102.853 467.673 102.489C468.062 98.4435 471.642 95.2767 476.001 95.2767C480.358 95.2767 483.938 98.4449 484.327 102.489C484.363 102.853 484.161 103.182 483.81 103.332C478.604 105.556 473.397 105.556 468.19 103.332H468.191ZM484.855 103.555C487.096 103.62 489.338 103.172 491.579 102.214C491.862 102.093 492.024 101.827 491.997 101.534C491.683 98.2697 488.794 95.7126 485.277 95.7126C484.075 95.7126 482.945 96.0111 481.967 96.5355C483.752 97.9736 484.96 100.048 485.188 102.414C485.229 102.833 485.104 103.234 484.855 103.554L484.855 103.555Z" fill="#1D1E1F"/>
</svg>
