<svg width="1178" height="474" viewBox="0 0 1178 474" fill="none" xmlns="http://www.w3.org/2000/svg">
<path d="M914.617 373.611L1096.63 157.385L993.785 118.161L914.617 373.611Z" fill="#E9F03C"/>
<path d="M1095.78 168.115C1095.29 168.306 1094.79 168.473 1094.29 168.604L1093.58 165.866C1094.37 165.661 1095.17 165.336 1095.89 164.955L1097.23 167.444C1096.77 167.691 1096.28 167.926 1095.79 168.121L1095.78 168.115ZM1091.16 169.034C1090.11 169.053 1089.05 168.933 1088.02 168.694L1088.66 165.936C1089.47 166.123 1090.3 166.215 1091.12 166.202L1091.16 169.034ZM1099.8 165.614L1097.89 163.52C1098.5 162.967 1099.04 162.333 1099.5 161.646L1101.86 163.222C1101.27 164.1 1100.58 164.91 1099.8 165.614ZM1085.06 167.617C1084.12 167.139 1083.23 166.553 1082.43 165.868L1084.28 163.719C1084.9 164.259 1085.6 164.715 1086.34 165.09L1085.06 167.617ZM1103.28 160.402L1100.62 159.432C1100.9 158.653 1101.09 157.839 1101.18 157.017L1104 157.323C1103.89 158.368 1103.65 159.407 1103.29 160.399L1103.28 160.402ZM1080.29 163.53C1079.69 162.673 1079.18 161.744 1078.79 160.758L1081.42 159.719C1081.73 160.491 1082.12 161.217 1082.6 161.888L1080.29 163.53ZM1103.95 154.162L1101.14 154.549C1101.03 153.731 1100.82 152.922 1100.52 152.15L1103.13 151.065L1103.15 151.111C1103.54 152.097 1103.8 153.122 1103.95 154.162ZM1080.79 157.315L1077.98 157.701C1077.84 156.651 1077.82 155.595 1077.93 154.541L1080.74 154.838C1080.66 155.656 1080.67 156.492 1080.78 157.306L1080.79 157.315ZM1099.31 149.939C1098.83 149.268 1098.27 148.653 1097.64 148.117L1099.47 145.962C1100.28 146.643 1101 147.434 1101.61 148.291L1099.3 149.942L1099.31 149.939ZM1081.31 152.432L1078.64 151.465C1079 150.473 1079.47 149.523 1080.06 148.645L1082.43 150.218C1081.97 150.905 1081.59 151.653 1081.31 152.432ZM1095.58 146.746C1094.84 146.371 1094.05 146.091 1093.25 145.904L1093.88 143.14C1094.91 143.378 1095.9 143.739 1096.84 144.204L1095.58 146.737L1095.58 146.746ZM1084.03 148.338L1082.11 146.244C1082.9 145.527 1083.76 144.917 1084.69 144.41L1086.05 146.896C1085.32 147.29 1084.64 147.773 1084.04 148.335L1084.03 148.338ZM1090.79 145.647C1089.97 145.66 1089.14 145.771 1088.35 145.989L1087.62 143.244C1088.64 142.971 1089.69 142.825 1090.75 142.806L1090.79 145.638L1090.79 145.647Z" fill="#C91212"/>
<path d="M209 72L395 291L267.135 254.586L209 72Z" fill="#DF0034"/>
<g filter="url(#filter0_d_122_2)">
<rect x="44" y="189" width="277" height="219" rx="15" fill="#2A2C2D"/>
</g>
<g clip-path="url(#clip0_122_2)">
<g style="mix-blend-mode:overlay" opacity="0.25">
<path d="M76.9562 390C75.3053 390 73.9727 388.666 73.9727 387.013V210.987C73.9727 209.334 75.3053 208 76.9562 208C78.607 208 79.9397 209.334 79.9397 210.987V387.013C79.9397 388.666 78.607 390 76.9562 390Z" fill="#FEFDFF"/>
</g>
<g style="mix-blend-mode:overlay" opacity="0.25">
<path d="M130.481 390C128.83 390 127.497 388.666 127.497 387.013V210.987C127.497 209.334 128.83 208 130.481 208C132.131 208 133.464 209.334 133.464 210.987V387.013C133.464 388.666 132.131 390 130.481 390Z" fill="#FEFDFF"/>
</g>
<g style="mix-blend-mode:overlay" opacity="0.25">
<path d="M184.005 390C182.354 390 181.021 388.666 181.021 387.013V210.987C181.021 209.334 182.354 208 184.005 208C185.655 208 186.988 209.334 186.988 210.987V387.013C186.988 388.666 185.655 390 184.005 390Z" fill="#FEFDFF"/>
</g>
<g style="mix-blend-mode:overlay" opacity="0.25">
<path d="M237.509 390C235.858 390 234.525 388.666 234.525 387.013V210.987C234.525 209.334 235.858 208 237.509 208C239.16 208 240.492 209.334 240.492 210.987V387.013C240.492 388.666 239.16 390 237.509 390Z" fill="#FEFDFF"/>
</g>
<g style="mix-blend-mode:overlay" opacity="0.25">
<path d="M291.033 390C289.382 390 288.05 388.666 288.05 387.013V210.987C288.05 209.334 289.382 208 291.033 208C292.684 208 294.017 209.334 294.017 210.987V387.013C294.017 388.666 292.684 390 291.033 390Z" fill="#FEFDFF"/>
</g>
<g style="mix-blend-mode:overlay" opacity="0.25">
<path d="M291.033 283.13H76.9558C73.654 283.13 70.9888 280.461 70.9888 277.156C70.9888 273.851 73.654 271.182 76.9558 271.182H291.033C294.334 271.182 297 273.851 297 277.156C297 280.461 294.334 283.13 291.033 283.13Z" fill="#FEFDFF"/>
</g>
<g style="mix-blend-mode:overlay" opacity="0.25">
<path d="M291.033 240.776H76.9558C73.654 240.776 70.9888 238.108 70.9888 234.802C70.9888 231.497 73.654 228.828 76.9558 228.828H291.033C294.334 228.828 297 231.497 297 234.802C297 238.108 294.334 240.776 291.033 240.776Z" fill="#FEFDFF"/>
</g>
<path d="M242.322 240.776H76.9558C73.654 240.776 70.9888 238.108 70.9888 234.802C70.9888 231.497 73.654 228.828 76.9558 228.828H242.322C245.624 228.828 248.289 231.497 248.289 234.802C248.289 238.108 245.624 240.776 242.322 240.776Z" fill="#DF0034"/>
<path d="M184.004 240.776H76.9558C73.654 240.776 70.9888 238.108 70.9888 234.802C70.9888 231.497 73.654 228.828 76.9558 228.828H184.004C187.306 228.828 189.971 231.497 189.971 234.802C189.971 238.108 187.306 240.776 184.004 240.776Z" fill="#012DD4"/>
<path d="M274.584 283.13H76.9558C73.654 283.13 70.9888 280.461 70.9888 277.156C70.9888 273.851 73.654 271.182 76.9558 271.182H274.584C277.885 271.182 280.551 273.851 280.551 277.156C280.551 280.461 277.885 283.13 274.584 283.13Z" fill="#012DD4"/>
<path d="M244.092 283.13H76.9558C73.654 283.13 70.9888 280.461 70.9888 277.156C70.9888 273.851 73.654 271.182 76.9558 271.182H244.092C247.394 271.182 250.059 273.851 250.059 277.156C250.059 280.461 247.394 283.13 244.092 283.13Z" fill="#DF0034"/>
<g style="mix-blend-mode:overlay" opacity="0.25">
<path d="M291.033 325.484H76.9558C73.654 325.484 70.9888 322.815 70.9888 319.51C70.9888 316.204 73.654 313.536 76.9558 313.536H291.033C294.334 313.536 297 316.204 297 319.51C297 322.815 294.334 325.484 291.033 325.484Z" fill="#FEFDFF"/>
</g>
<path d="M173.204 325.484H76.9558C73.654 325.484 70.9888 322.815 70.9888 319.51C70.9888 316.204 73.654 313.536 76.9558 313.536H173.204C176.506 313.536 179.171 316.204 179.171 319.51C179.171 322.815 176.506 325.484 173.204 325.484Z" fill="#DF0034"/>
<path d="M103.37 327.475H76.956C72.5603 327.475 69 323.911 69 319.51C69 315.109 72.5603 311.545 76.956 311.545H103.37C107.766 311.545 111.326 315.109 111.326 319.51C111.326 323.911 107.766 327.475 103.37 327.475Z" fill="#012DD4"/>
<g style="mix-blend-mode:overlay" opacity="0.25">
<path d="M291.033 367.817H76.9558C73.654 367.817 70.9888 365.149 70.9888 361.844C70.9888 358.538 73.654 355.87 76.9558 355.87H291.033C294.334 355.87 297 358.538 297 361.844C297 365.149 294.334 367.817 291.033 367.817Z" fill="#FEFDFF"/>
</g>
<path d="M251.193 367.817H76.9558C73.654 367.817 70.9888 365.149 70.9888 361.844C70.9888 358.538 73.654 355.87 76.9558 355.87H251.193C254.495 355.87 257.16 358.538 257.16 361.844C257.16 365.149 254.495 367.817 251.193 367.817Z" fill="#012DD4"/>
<path d="M103.37 369.809H76.956C72.5603 369.809 69 366.244 69 361.844C69 357.443 72.5603 353.879 76.956 353.879H103.37C107.766 353.879 111.326 357.443 111.326 361.844C111.326 366.244 107.766 369.809 103.37 369.809Z" fill="#DF0034"/>
</g>
<path d="M134.626 194.298C140.511 191.545 143.05 184.542 140.297 178.657C137.544 172.771 130.541 170.232 124.656 172.986C118.771 175.739 116.232 182.742 118.985 188.627C121.738 194.512 128.741 197.051 134.626 194.298Z" fill="#DF0034"/>
<g filter="url(#filter1_d_122_2)">
<rect x="897" y="191" width="237" height="216" rx="15" fill="#2A2C2D"/>
</g>
<g clip-path="url(#clip1_122_2)">
<path d="M1077.1 372.976C1076.46 372.976 1075.82 372.732 1075.34 372.245C1074.37 371.27 1074.37 369.695 1075.34 368.72C1106.95 337.019 1106.95 285.446 1075.34 253.745C1074.37 252.77 1074.37 251.195 1075.34 250.22C1076.31 249.245 1077.88 249.245 1078.85 250.22C1112.39 283.852 1112.39 338.594 1078.85 372.226C1078.37 372.713 1077.73 372.957 1077.1 372.957V372.976Z" fill="#A10C2E"/>
<path d="M958.915 378C957.008 378 955.082 377.269 953.624 375.807C918.119 340.206 918.119 282.296 953.624 246.696C989.128 211.095 1046.88 211.095 1082.37 246.696C1085.28 249.62 1085.28 254.363 1082.37 257.307C1079.45 260.231 1074.7 260.231 1071.79 257.307C1042.11 227.555 993.84 227.555 964.187 257.307C934.516 287.058 934.516 335.444 964.187 365.196C967.104 368.12 967.104 372.863 964.187 375.807C962.729 377.269 960.822 378 958.896 378H958.915Z" fill="#E9F03C"/>
<path d="M1049 311.5C1049 329.992 1034.22 345 1016 345C997.784 345 983 329.992 983 311.5C983 293.008 997.784 278 1016 278C1034.22 278 1049 293.008 1049 311.5Z" fill="#012DD4"/>
</g>
<g filter="url(#filter2_d_122_2)">
<rect x="302" y="40" width="616" height="386" rx="15" fill="#2A2C2D"/>
</g>
<path d="M431.527 318.281C405.857 318.281 398.644 294.043 391.66 270.605C383.76 244.059 375.585 216.6 342.29 216.6V212.031C378.997 212.031 388.065 242.46 396.056 269.302C403.155 293.129 409.292 313.689 431.527 313.689C453.761 313.689 463.036 281.798 471.737 248.034C481.034 211.986 490.651 174.681 520.763 174.681C549.318 174.681 557.333 189.827 565.073 204.493C573.019 219.524 580.552 233.734 610 233.734C642.173 233.734 653.256 212.785 663.996 192.545C672.583 176.326 680.689 160.997 699.237 160.997C717.785 160.997 725.502 180.826 733.631 201.843C743.638 227.68 754.995 256.944 788.474 256.944C821.952 256.944 833.378 233.185 843.385 212.237C851.56 195.104 859.277 178.907 877.71 178.907V183.476C862.162 183.476 855.361 197.708 847.507 214.202C836.927 236.384 824.951 261.512 788.474 261.512C751.996 261.512 739.905 230.695 729.372 203.488C721.472 183.133 714.671 165.566 699.237 165.566C683.803 165.566 676.315 179.067 668.049 194.67C657.217 215.115 644.944 238.302 610 238.302C577.782 238.302 568.874 221.466 561.02 206.617C553.577 192.545 546.548 179.25 520.763 179.25C494.979 179.25 485.041 214.796 476.179 249.154C467.409 283.123 458.341 318.235 431.527 318.235V318.281Z" fill="#E9F03C"/>
<path d="M520.763 318.281C498.048 318.281 484.812 310.651 469.493 301.81C446.503 288.537 417.879 272.044 342.29 272.044V267.475C419.093 267.475 448.312 284.334 471.783 297.858C487.148 306.722 499.284 313.712 520.763 313.712C547.944 313.712 557.974 276.978 567.66 241.455C577.026 207.12 585.865 174.704 610.023 174.704C632.647 174.704 638.509 199.056 644.738 224.847C652.523 257.172 660.584 290.616 699.26 290.616C741.256 290.616 751.881 270.33 761.247 252.42C767.521 240.427 773.452 229.119 788.496 229.119C804.434 229.119 812.907 243.671 821.906 259.091C833.378 278.783 846.385 301.079 877.733 301.079V305.648C843.728 305.648 829.44 281.09 817.944 261.375C809.289 246.504 801.801 233.688 788.496 233.688C776.223 233.688 771.414 242.894 765.323 254.545C755.843 272.661 744.05 295.208 699.26 295.208C656.966 295.208 648.104 258.406 640.272 225.944C634.25 200.906 629.029 179.295 610.023 179.295C589.368 179.295 580.987 210.09 572.08 242.666C561.936 279.857 551.448 318.304 520.763 318.304V318.281Z" fill="#012DD4"/>
<path d="M701.412 299.434C705.029 299.434 707.961 296.509 707.961 292.901C707.961 289.292 705.029 286.367 701.412 286.367C697.795 286.367 694.863 289.292 694.863 292.901C694.863 296.509 697.795 299.434 701.412 299.434Z" fill="#012DD4"/>
<path d="M520.763 183.521C524.38 183.521 527.312 180.596 527.312 176.988C527.312 173.38 524.38 170.454 520.763 170.454C517.146 170.454 514.214 173.38 514.214 176.988C514.214 180.596 517.146 183.521 520.763 183.521Z" fill="#E9F03C"/>
<circle cx="520" cy="136" r="24" fill="#E9F03C"/>
<path fill-rule="evenodd" clip-rule="evenodd" d="M520.001 127C522.078 127 523.761 128.6 523.761 130.573C523.761 132.546 522.078 134.145 520.001 134.145C517.924 134.145 516.24 132.545 516.24 130.572C516.24 128.599 517.924 127 520.001 127ZM510.725 129.034C512.401 129.034 513.76 130.325 513.76 131.918C513.76 133.51 512.401 134.802 510.725 134.802C509.049 134.802 507.69 133.51 507.69 131.918C507.69 130.325 509.049 129.034 510.725 129.034ZM504.421 142.214C506.663 143.172 508.904 143.618 511.147 143.555C510.897 143.236 510.773 142.833 510.812 142.415C511.04 140.051 512.248 137.975 514.033 136.537C513.055 136.013 511.927 135.714 510.723 135.714C507.206 135.714 504.317 138.271 504.003 141.536C503.976 141.828 504.138 142.094 504.421 142.214L504.421 142.214ZM529.277 129.034C530.953 129.034 532.312 130.325 532.312 131.918C532.312 133.51 530.953 134.802 529.277 134.802C527.601 134.802 526.242 133.51 526.242 131.918C526.243 130.325 527.601 129.034 529.277 129.034ZM512.191 143.332C511.84 143.182 511.637 142.853 511.673 142.489C512.062 138.444 515.642 135.277 520.001 135.277C524.358 135.277 527.938 138.445 528.327 142.489C528.363 142.853 528.161 143.182 527.81 143.332C522.604 145.556 517.397 145.556 512.19 143.332H512.191ZM528.855 143.555C531.096 143.62 533.338 143.172 535.579 142.214C535.862 142.093 536.024 141.827 535.997 141.534C535.683 138.27 532.794 135.713 529.277 135.713C528.075 135.713 526.945 136.011 525.967 136.536C527.752 137.974 528.96 140.048 529.188 142.414C529.229 142.833 529.104 143.234 528.855 143.554L528.855 143.555Z" fill="#1D1E1F"/>
<circle cx="700" cy="333" r="24" fill="#012DD4"/>
<path fill-rule="evenodd" clip-rule="evenodd" d="M700 321C693.377 321 688 326.377 688 333C688 339.623 693.377 345 700 345C706.623 345 712 339.623 712 333C712 326.377 706.623 321 700 321ZM698.4 327.422V334.179C698.4 334.538 698.64 334.853 698.986 334.95L703.568 336.221C703.993 336.339 704.435 336.089 704.553 335.664C704.671 335.238 704.421 334.797 703.996 334.679L700 333.571V327.422C700 326.981 699.641 326.622 699.2 326.622C698.758 326.622 698.4 326.981 698.4 327.422Z" fill="white" fill-opacity="0.6"/>
<defs>
<filter id="filter0_d_122_2" x="0" y="149" width="365" height="307" filterUnits="userSpaceOnUse" color-interpolation-filters="sRGB">
<feFlood flood-opacity="0" result="BackgroundImageFix"/>
<feColorMatrix in="SourceAlpha" type="matrix" values="0 0 0 0 0 0 0 0 0 0 0 0 0 0 0 0 0 0 127 0" result="hardAlpha"/>
<feOffset dy="4"/>
<feGaussianBlur stdDeviation="22"/>
<feComposite in2="hardAlpha" operator="out"/>
<feColorMatrix type="matrix" values="0 0 0 0 0 0 0 0 0 0 0 0 0 0 0 0 0 0 0.25 0"/>
<feBlend mode="normal" in2="BackgroundImageFix" result="effect1_dropShadow_122_2"/>
<feBlend mode="normal" in="SourceGraphic" in2="effect1_dropShadow_122_2" result="shape"/>
</filter>
<filter id="filter1_d_122_2" x="853" y="151" width="325" height="304" filterUnits="userSpaceOnUse" color-interpolation-filters="sRGB">
<feFlood flood-opacity="0" result="BackgroundImageFix"/>
<feColorMatrix in="SourceAlpha" type="matrix" values="0 0 0 0 0 0 0 0 0 0 0 0 0 0 0 0 0 0 127 0" result="hardAlpha"/>
<feOffset dy="4"/>
<feGaussianBlur stdDeviation="22"/>
<feComposite in2="hardAlpha" operator="out"/>
<feColorMatrix type="matrix" values="0 0 0 0 0 0 0 0 0 0 0 0 0 0 0 0 0 0 0.25 0"/>
<feBlend mode="normal" in2="BackgroundImageFix" result="effect1_dropShadow_122_2"/>
<feBlend mode="normal" in="SourceGraphic" in2="effect1_dropShadow_122_2" result="shape"/>
</filter>
<filter id="filter2_d_122_2" x="258" y="0" width="704" height="474" filterUnits="userSpaceOnUse" color-interpolation-filters="sRGB">
<feFlood flood-opacity="0" result="BackgroundImageFix"/>
<feColorMatrix in="SourceAlpha" type="matrix" values="0 0 0 0 0 0 0 0 0 0 0 0 0 0 0 0 0 0 127 0" result="hardAlpha"/>
<feOffset dy="4"/>
<feGaussianBlur stdDeviation="22"/>
<feComposite in2="hardAlpha" operator="out"/>
<feColorMatrix type="matrix" values="0 0 0 0 0 0 0 0 0 0 0 0 0 0 0 0 0 0 0.25 0"/>
<feBlend mode="normal" in2="BackgroundImageFix" result="effect1_dropShadow_122_2"/>
<feBlend mode="normal" in="SourceGraphic" in2="effect1_dropShadow_122_2" result="shape"/>
</filter>
<clipPath id="clip0_122_2">
<rect width="228" height="182" fill="white" transform="translate(69 208)"/>
</clipPath>
<clipPath id="clip1_122_2">
<rect width="177" height="158" fill="white" transform="translate(927 220)"/>
</clipPath>
</defs>
</svg>
