<svg width="1090" height="386" viewBox="0 0 1090 386" fill="none" xmlns="http://www.w3.org/2000/svg">
<path d="M657.412 259.434C661.029 259.434 663.961 256.509 663.961 252.901C663.961 249.292 661.029 246.367 657.412 246.367C653.795 246.367 650.863 249.292 650.863 252.901C650.863 256.509 653.795 259.434 657.412 259.434Z" fill="#012DD4"/>
<path d="M476.763 278.281C454.048 278.281 440.812 270.651 425.493 261.81C402.503 248.537 373.879 232.044 298.29 232.044V227.475C375.093 227.475 404.312 244.334 427.783 257.858C443.148 266.722 455.284 273.712 476.763 273.712C503.944 273.712 513.974 236.978 523.66 201.455C533.026 167.12 541.865 134.704 566.023 134.704C588.647 134.704 594.509 159.056 600.738 184.847C608.523 217.172 616.584 250.616 655.26 250.616C697.256 250.616 707.881 230.33 717.247 212.42C723.521 200.427 729.452 189.119 744.496 189.119C760.434 189.119 768.907 203.671 777.906 219.091C789.378 238.783 802.385 261.079 833.733 261.079V265.648C799.728 265.648 785.44 241.09 773.944 221.375C765.289 206.504 757.801 193.688 744.496 193.688C732.223 193.688 727.414 202.894 721.323 214.545C711.843 232.661 700.05 255.208 655.26 255.208C612.966 255.208 604.104 218.406 596.272 185.944C590.25 160.906 585.029 139.295 566.023 139.295C545.368 139.295 536.987 170.09 528.08 202.666C517.936 239.857 507.448 278.304 476.763 278.304V278.281Z" fill="#012DD4"/>
<circle cx="656" cy="293" r="24" fill="#012DD4"/>
<path fill-rule="evenodd" clip-rule="evenodd" d="M656 281C649.377 281 644 286.377 644 293C644 299.623 649.377 305 656 305C662.623 305 668 299.623 668 293C668 286.377 662.623 281 656 281ZM654.4 287.422V294.179C654.4 294.538 654.64 294.853 654.986 294.95L659.568 296.221C659.993 296.339 660.435 296.089 660.553 295.664C660.671 295.238 660.421 294.797 659.996 294.679L656 293.571V287.422C656 286.981 655.641 286.622 655.2 286.622C654.758 286.622 654.4 286.981 654.4 287.422Z" fill="white" fill-opacity="0.6"/>
</svg>
