<svg width="179" height="144" viewBox="0 0 179 144" fill="none" xmlns="http://www.w3.org/2000/svg">
<path d="M74.284 18.0493H46.2347V24.9185H74.284V18.0493Z" fill="black"/>
<path d="M63.1558 22.9673H56.2866V45.8646H63.1558V22.9673Z" fill="black"/>
<path d="M178.545 32.0894H150.496V38.9586H178.545V32.0894Z" fill="black"/>
<path d="M167.417 37.0063H160.548V59.9037H167.417V37.0063Z" fill="black"/>
<path d="M22.9781 47.2727H31.3242C31.5796 47.9414 31.985 48.5426 32.5092 49.0301C33.738 50.175 35.4553 50.7474 37.6611 50.7474C38.8582 50.8258 40.0547 50.5868 41.13 50.0548C41.4626 49.8936 41.745 49.6449 41.9467 49.3352C42.1484 49.0255 42.2618 48.6667 42.2748 48.2974C42.2758 47.9998 42.1925 47.708 42.0345 47.4559C41.8311 47.1586 41.5604 46.9134 41.2445 46.7404C40.8989 46.5258 40.5394 46.3345 40.1683 46.1679C39.6736 45.9718 39.167 45.8073 38.6514 45.6756C37.9911 45.4963 37.4416 45.3532 37.0027 45.2463C36.562 45.1376 35.9266 44.9887 35.0908 44.7998C34.2551 44.6109 33.6196 44.4564 33.1846 44.3476C30.7923 43.8179 28.5293 42.8177 26.5272 41.4053C24.8747 40.1536 24.0466 38.3561 24.0428 36.013C24.0428 33.5362 25.1877 31.4182 27.4774 29.6589C29.7672 27.8997 32.864 27.02 36.768 27.02C41.7291 27.02 45.448 28.5198 47.9248 31.5194C49.0058 32.8256 49.7716 34.3632 50.163 36.013H41.8684C41.6707 35.5449 41.3716 35.1265 40.9926 34.788C40.0538 33.9675 38.6628 33.5591 36.8196 33.5629C35.7331 33.4851 34.6445 33.682 33.654 34.1354C33.37 34.2635 33.1262 34.4665 32.9487 34.7227C32.7712 34.9788 32.6667 35.2784 32.6465 35.5894C32.6465 36.3507 33.1331 36.9575 34.1177 37.404C35.5113 37.9831 36.9618 38.4148 38.4453 38.6919C39.5558 38.9381 40.3572 39.1213 40.838 39.2644C41.3189 39.4075 42.0974 39.6078 43.1679 39.9227C44.0008 40.1494 44.8144 40.4423 45.6007 40.7985C46.1731 41.0733 46.8257 41.4454 47.6042 41.9434C48.279 42.3357 48.8749 42.8501 49.3616 43.4603C49.7939 44.0597 50.1479 44.7118 50.4149 45.4009C50.7252 46.194 50.8806 47.0393 50.8728 47.891C50.8728 50.5051 49.7165 52.7261 47.4039 54.5541C45.0913 56.3821 41.8475 57.2942 37.6725 57.2903C32.4634 57.2903 28.4563 55.6284 25.6514 52.3044C24.4307 50.8255 23.5196 49.1164 22.9724 47.2785" fill="black"/>
<path d="M75.7322 54.5441V25.9224H91.1021C94.7657 25.9224 97.7309 26.8764 99.9977 28.7845C101.071 29.6358 101.935 30.7208 102.526 31.9568C103.116 33.1929 103.416 34.5474 103.404 35.9171C103.404 39.5997 101.352 42.4619 97.25 44.5036L103.621 54.5154H94.8344L89.3447 45.9289H83.855V54.5154L75.7322 54.5441ZM83.855 39.0197H90.8846C91.9666 39.0719 93.0344 38.755 93.9127 38.1209C94.2657 37.8804 94.5546 37.5573 94.7543 37.1797C94.9539 36.8021 95.0583 36.3814 95.0583 35.9543C95.0583 35.5271 94.9539 35.1065 94.7543 34.7288C94.5546 34.3512 94.2657 34.0281 93.9127 33.7876C93.0356 33.151 91.967 32.8339 90.8846 32.8889H83.855V39.0197Z" fill="black"/>
<path d="M116.146 32.0894H108.018V60.6939H116.146V32.0894Z" fill="black"/>
<path d="M121.853 54.5435V25.939H129.976V36.5633H133.491L140.955 25.939H150.183L140.52 39.4255L150.841 54.5435H141.619L133.932 43.5127H129.976V54.5435H121.853Z" fill="black"/>
<path fill-rule="evenodd" clip-rule="evenodd" d="M0 0H129.983V129.983H0V0ZM8.14213 8.14213V121.841H121.841V8.14213H8.14213Z" fill="black"/>
<path d="M14.8293 94.6275L22.8944 95.1863L16.7016 79.7617L14.8437 94.6275" fill="black"/>
<path d="M57.9183 127.237L44.4591 143.488L84.3912 128.81L57.9183 127.237Z" fill="#2F00C0"/>
<path d="M44.3228 142.815L27.0053 100.306L18.3401 79.0415L49.9345 63.9834L44.3228 142.815Z" fill="#DF0034"/>
<path d="M26.109 94.8422C27.2832 92.4832 28.6068 89.469 30.7928 87.8492C31.0263 87.6586 31.3038 87.5297 31.6001 87.4744C31.0051 87.5923 31.9566 87.6028 31.4245 87.4744C31.5377 87.5217 31.6429 87.5863 31.7364 87.6657C31.4586 87.2935 31.6604 87.6238 31.7705 87.7365C31.8806 87.8492 32.0064 87.9986 32.1138 88.1218C31.8203 87.7548 32.2396 88.3393 32.2554 88.3682C33.9643 91.2854 34.5514 94.9654 36.9523 97.6363C38.1738 98.994 39.9692 99.6807 41.7725 99.243C43.4185 98.842 44.6557 97.5865 45.6595 96.2943C47.6909 93.6732 48.9411 90.0037 51.3577 88.0877C50.8335 88.494 52.0288 87.4875 51.4783 87.9986C51.6539 87.8335 51.9239 88.0353 51.688 87.9095C51.4521 87.7837 51.8033 87.8885 51.916 87.9095C51.3918 87.7522 51.7797 87.8964 51.8558 87.9278C51.3315 87.705 51.9029 87.9462 51.9894 88.0143C52.0759 88.0825 52.3092 88.2922 51.9894 88.0143C52.1491 88.1595 52.3004 88.3135 52.4429 88.4756C52.6168 88.6816 52.7721 88.9026 52.9068 89.1361C53.1375 89.4978 53.3471 89.87 53.5516 90.2475C53.9814 91.0338 54.372 91.8516 54.7861 92.6484C56.4977 95.9378 59.5041 99.4972 63.6008 97.4213C66.8745 95.757 68.0566 91.786 70.5309 89.6158C70.5938 89.5607 70.8926 89.3537 70.5676 89.5791C70.7065 89.4847 70.8821 89.4166 71.0132 89.317C71.2097 89.165 70.6148 89.3484 71.0944 89.317C70.5702 89.3563 70.9319 89.338 71.042 89.3353C71.3041 89.3353 70.9188 89.241 71.1468 89.3878C71.2229 89.4376 71.5164 89.6289 71.1468 89.3878C71.3379 89.553 71.5134 89.7355 71.6711 89.9329C71.9332 90.2553 71.3749 89.4821 71.7838 90.1059C71.8755 90.2422 71.962 90.3811 72.0459 90.5201C72.2687 90.887 72.4679 91.2671 72.6618 91.6471C73.0864 92.4832 73.4639 93.3403 73.8754 94.1843C75.0758 96.6507 77.6812 100.291 80.8474 98.5458C81.757 98.0425 82.5564 97.2143 83.2641 96.4673C85.1879 94.4333 86.8707 92.1582 88.5246 89.9146C89.2821 88.8819 88.6976 87.2699 87.6753 86.6697C86.4723 85.9673 85.1906 86.4862 84.4305 87.5216C83.0793 89.4174 81.6204 91.2342 80.0611 92.9629C79.6627 93.3928 79.2468 93.8051 78.8135 94.2001C78.7139 94.2918 78.2264 94.6456 78.6274 94.3652C79.0284 94.0847 78.5881 94.4202 78.5016 94.4333C77.9774 94.5093 79.128 94.2367 78.7637 94.3311C79.0542 94.2785 79.3507 94.267 79.6444 94.297C79.149 94.297 79.993 94.5067 79.5474 94.2813C79.1018 94.0559 79.8462 94.5434 79.4268 94.1896C79.3267 94.0964 79.233 93.9966 79.1464 93.8908C79.474 94.2603 79.0206 93.7073 78.9917 93.6601C78.7978 93.3508 78.6143 93.0415 78.4413 92.7191C78.0036 91.9066 77.6262 91.06 77.2304 90.2239C75.6839 86.9659 72.903 83.147 68.801 85.1547C65.619 86.7064 64.2587 90.6039 61.9862 92.8187C61.5983 93.1988 61.884 93.0389 61.3886 93.2486C60.77 93.5107 61.6507 93.1228 61.2864 93.2853C61.1448 93.3508 60.7176 93.3508 61.213 93.3115C60.6049 93.3613 61.268 93.3115 61.234 93.3403C61.1999 93.3692 60.4791 93.1071 61.0583 93.3063C60.5997 93.149 60.8958 93.2748 60.5341 92.9157C60.085 92.3925 59.6939 91.8222 59.3678 91.2146C58.9248 90.4283 58.5316 89.6237 58.1227 88.8216C56.5685 85.7838 54.005 82.0252 50.0236 83.5061C46.5743 84.7878 44.8496 88.8478 43.0332 91.7572C42.8235 92.0927 42.6086 92.4282 42.3858 92.7558C42.3072 92.8738 41.7725 93.6051 41.9533 93.3797C41.7174 93.6758 41.4606 93.9432 41.2011 94.2184C41.1067 94.318 40.9967 94.4124 40.8944 94.5015C41.2876 94.1686 40.766 94.5696 40.6638 94.6299C40.344 94.8186 41.1303 94.3363 40.6638 94.6299C40.2418 94.892 40.821 94.6063 40.7896 94.6299C40.7896 94.6168 39.9194 94.7059 40.7293 94.6614C40.6743 94.6614 40.1736 94.5146 40.8132 94.7216C40.7214 94.6902 40.4095 94.3835 40.6061 94.6142C40.842 94.8999 40.4305 94.4333 40.4226 94.4228C40.3361 94.3206 40.2418 94.2263 40.1605 94.1214C40.4672 94.5015 40.0269 93.8829 39.9744 93.7964C38.0558 90.6668 37.5919 86.038 34.2684 83.6791C28.6907 79.7186 23.9361 88.5647 22.0017 92.4466C20.6466 95.1698 24.7355 97.576 26.0958 94.8396" fill="#D9E021"/>
<path d="M98.2671 77.8675C100.734 77.8675 103.098 75.6973 102.985 73.1496C102.872 70.6019 100.912 68.4316 98.2671 68.4316C95.798 68.4316 93.4338 70.6019 93.5492 73.1496C93.6645 75.6973 95.6224 77.8675 98.2671 77.8675Z" fill="#DF0034"/>
</svg>
