<svg width="120" height="96" viewBox="0 0 120 96" fill="none" xmlns="http://www.w3.org/2000/svg">
<path d="M49.6993 12.0757H30.9331V16.6715H49.6993V12.0757Z" fill="white"/>
<path d="M42.2541 15.3662H37.6583V30.6856H42.2541V15.3662Z" fill="white"/>
<path d="M119.455 21.4692H100.689V26.065H119.455V21.4692Z" fill="white"/>
<path d="M112.01 24.7588H107.414V40.0782H112.01V24.7588Z" fill="white"/>
<path d="M15.3734 31.6276H20.9573C21.1282 32.075 21.3994 32.4772 21.7501 32.8034C22.5722 33.5693 23.7212 33.9523 25.197 33.9523C25.9979 34.0047 26.7984 33.8449 27.5178 33.4889C27.7403 33.3811 27.9293 33.2147 28.0642 33.0075C28.1992 32.8003 28.2751 32.5603 28.2838 32.3132C28.2845 32.1141 28.2287 31.9189 28.123 31.7502C27.9869 31.5512 27.8058 31.3872 27.5944 31.2714C27.3632 31.1279 27.1227 30.9999 26.8744 30.8885C26.5435 30.7572 26.2045 30.6472 25.8595 30.5591C25.4178 30.4391 25.0501 30.3433 24.7565 30.2718C24.4616 30.1991 24.0365 30.0995 23.4774 29.9731C22.9182 29.8467 22.4931 29.7433 22.202 29.6706C20.6015 29.3162 19.0874 28.647 17.7479 27.702C16.6423 26.8646 16.0883 25.662 16.0857 24.0943C16.0857 22.4373 16.8517 21.0202 18.3837 19.8432C19.9156 18.6662 21.9875 18.0776 24.5995 18.0776C27.9187 18.0776 30.4068 19.0811 32.0638 21.0879C32.7871 21.9618 33.2995 22.9905 33.5613 24.0943H28.0119C27.8796 23.7811 27.6794 23.5012 27.4259 23.2747C26.7978 22.7258 25.8672 22.4526 24.634 22.4551C23.9071 22.4031 23.1787 22.5348 22.5161 22.8381C22.326 22.9239 22.1629 23.0597 22.0442 23.2311C21.9254 23.4024 21.8555 23.6029 21.842 23.8109C21.842 24.3203 22.1675 24.7262 22.8263 25.025C23.7587 25.4124 24.7291 25.7013 25.7216 25.8867C26.4646 26.0514 27.0008 26.1739 27.3225 26.2697C27.6442 26.3654 28.1651 26.4995 28.8813 26.7101C29.4386 26.8618 29.9828 27.0577 30.5089 27.2961C30.8919 27.4799 31.3285 27.7288 31.8494 28.062C32.3008 28.3245 32.6995 28.6687 33.0251 29.0769C33.3143 29.4779 33.5512 29.9142 33.7298 30.3753C33.9374 30.9059 34.0414 31.4714 34.0362 32.0412C34.0362 33.7902 33.2626 35.2762 31.7153 36.4992C30.1681 37.7222 27.9978 38.3324 25.2046 38.3298C21.7195 38.3298 19.0386 37.2179 17.162 34.994C16.3452 34.0046 15.7357 32.8611 15.3696 31.6314" fill="white"/>
<path d="M50.6683 36.4925V17.3433H60.9514C63.4025 17.3433 65.3864 17.9816 66.903 19.2582C67.6209 19.8277 68.1994 20.5536 68.5943 21.3806C68.9892 22.2076 69.1901 23.1138 69.1817 24.0302C69.1817 26.494 67.8093 28.4089 65.0646 29.7749L69.3272 36.4733H63.4484L59.7756 30.7286H56.1028V36.4733L50.6683 36.4925ZM56.1028 26.1059H60.8058C61.5298 26.1409 62.2442 25.9289 62.8319 25.5047C63.068 25.3437 63.2613 25.1276 63.3949 24.8749C63.5284 24.6223 63.5983 24.3408 63.5983 24.0551C63.5983 23.7693 63.5284 23.4878 63.3949 23.2352C63.2613 22.9825 63.068 22.7664 62.8319 22.6055C62.245 22.1796 61.53 21.9674 60.8058 22.0042H56.1028V26.1059Z" fill="white"/>
<path d="M77.707 21.4692H72.2686V40.607H77.707V21.4692Z" fill="white"/>
<path d="M81.5253 36.4922V17.3545H86.9598V24.4627H89.3113L94.3054 17.3545H100.479L94.0144 26.3776L100.92 36.4922H94.7497L89.6062 29.1121H86.9598V36.4922H81.5253Z" fill="white"/>
<path fill-rule="evenodd" clip-rule="evenodd" d="M0 0H86.9646V86.9646H0V0ZM5.44745 5.44745V81.5172H81.5172V5.44745H5.44745Z" fill="white"/>
<path d="M9.92148 63.3101L15.3174 63.684L11.1741 53.3643L9.93112 63.3101" fill="white"/>
<path d="M38.75 85.1274L29.7451 95.9999L56.4615 86.1796L38.75 85.1274Z" fill="#2F00C0"/>
<path d="M29.6539 95.5494L18.0678 67.1092L12.2704 52.8821L33.4084 42.8076L29.6539 95.5494Z" fill="#DF0034"/>
<path d="M17.4681 63.4537C18.2537 61.8754 19.1393 59.8588 20.6018 58.775C20.758 58.6475 20.9437 58.5613 21.1419 58.5243C20.7438 58.6032 21.3804 58.6102 21.0244 58.5243C21.1001 58.5559 21.1705 58.5991 21.2331 58.6523C21.0472 58.4033 21.1822 58.6242 21.2559 58.6996C21.3295 58.775 21.4137 58.875 21.4856 58.9574C21.2892 58.7119 21.5698 59.103 21.5803 59.1222C22.7236 61.074 23.1165 63.5361 24.7228 65.323C25.54 66.2314 26.7412 66.6909 27.9477 66.398C29.0489 66.1297 29.8766 65.2897 30.5483 64.4252C31.9073 62.6716 32.7438 60.2165 34.3606 58.9346C34.0099 59.2064 34.8096 58.533 34.4413 58.875C34.5588 58.7645 34.7394 58.8995 34.5816 58.8154C34.4238 58.7312 34.6587 58.8013 34.7342 58.8154C34.3834 58.7101 34.643 58.8066 34.6938 58.8276C34.3431 58.6786 34.7254 58.8399 34.7833 58.8855C34.8411 58.9311 34.9972 59.0714 34.7833 58.8855C34.8901 58.9827 34.9913 59.0857 35.0866 59.1941C35.203 59.3319 35.3069 59.4798 35.397 59.6361C35.5513 59.8781 35.6916 60.1271 35.8284 60.3796C36.116 60.9057 36.3773 61.4528 36.6544 61.9859C37.7995 64.1867 39.8109 66.5681 42.5518 65.1792C44.742 64.0657 45.5329 61.409 47.1883 59.957C47.2304 59.9201 47.4303 59.7816 47.2129 59.9324C47.3058 59.8693 47.4233 59.8237 47.511 59.7571C47.6425 59.6553 47.2444 59.7781 47.5654 59.7571C47.2146 59.7834 47.4566 59.7711 47.5303 59.7693C47.7056 59.7693 47.4479 59.7062 47.6004 59.8044C47.6513 59.8377 47.8477 59.9657 47.6004 59.8044C47.7283 59.915 47.8457 60.0371 47.9511 60.1692C48.1265 60.3849 47.753 59.8675 48.0266 60.2849C48.0879 60.3761 48.1458 60.469 48.2019 60.562C48.351 60.8075 48.4843 61.0617 48.614 61.316C48.8981 61.8754 49.1506 62.4489 49.4259 63.0135C50.2291 64.6637 51.9722 67.0994 54.0906 65.9315C54.6991 65.5948 55.2339 65.0407 55.7074 64.5409C56.9945 63.1801 58.1204 61.658 59.2269 60.1569C59.7337 59.466 59.3426 58.3875 58.6587 57.9859C57.8538 57.5159 56.9963 57.8632 56.4878 58.5558C55.5837 59.8242 54.6077 61.0397 53.5645 62.1963C53.2979 62.4839 53.0197 62.7598 52.7297 63.024C52.6631 63.0854 52.3369 63.3222 52.6053 63.1345C52.8736 62.9469 52.5789 63.1713 52.5211 63.1801C52.1704 63.231 52.9402 63.0486 52.6964 63.1117C52.8908 63.0765 53.0892 63.0688 53.2857 63.0889C52.9542 63.0889 53.5189 63.2292 53.2208 63.0784C52.9227 62.9276 53.4207 63.2538 53.1401 63.017C53.0731 62.9547 53.0104 62.8879 52.9525 62.8171C53.1717 63.0644 52.8683 62.6944 52.849 62.6628C52.7192 62.4559 52.5965 62.2489 52.4808 62.0332C52.1879 61.4896 51.9354 60.9232 51.6706 60.3638C50.6359 58.1841 48.7754 55.629 46.0309 56.9723C43.9021 58.0105 42.9919 60.6181 41.4715 62.0999C41.212 62.3542 41.4032 62.2472 41.0717 62.3875C40.6579 62.5628 41.2471 62.3033 41.0033 62.412C40.9086 62.4559 40.6228 62.4559 40.9542 62.4296C40.5474 62.4629 40.9911 62.4296 40.9683 62.4489C40.9455 62.4681 40.4632 62.2928 40.8508 62.4261C40.5439 62.3208 40.742 62.405 40.5 62.1648C40.1995 61.8147 39.9379 61.4331 39.7197 61.0267C39.4233 60.5006 39.1603 59.9622 38.8867 59.4256C37.8468 57.3932 36.1318 54.8785 33.468 55.8693C31.1603 56.7268 30.0064 59.4432 28.7911 61.3897C28.6509 61.6141 28.5071 61.8386 28.358 62.0578C28.3054 62.1367 27.9477 62.626 28.0687 62.4752C27.9108 62.6733 27.739 62.8522 27.5654 63.0363C27.5022 63.103 27.4286 63.1661 27.3602 63.2257C27.6233 63.003 27.2743 63.2713 27.2059 63.3116C26.992 63.4379 27.518 63.1152 27.2059 63.3116C26.9236 63.487 27.3111 63.2959 27.2901 63.3116C27.2901 63.3029 26.7079 63.3625 27.2497 63.3327C27.2129 63.3327 26.878 63.2345 27.3058 63.373C27.2445 63.352 27.0358 63.1468 27.1673 63.3011C27.3251 63.4923 27.0498 63.1801 27.0446 63.1731C26.9867 63.1047 26.9236 63.0416 26.8692 62.9714C27.0744 63.2257 26.7798 62.8119 26.7447 62.754C25.461 60.6602 25.1507 57.5633 22.9271 55.985C19.1954 53.3353 16.0143 59.2538 14.7201 61.8509C13.8135 63.6729 16.5492 65.2827 17.4593 63.4519" fill="#D9E021"/>
<path d="M65.7451 52.0967C67.3952 52.0967 68.977 50.6447 68.9016 48.9402C68.8262 47.2357 67.5145 45.7837 65.7451 45.7837C64.0932 45.7837 62.5114 47.2357 62.5886 48.9402C62.6657 50.6447 63.9757 52.0967 65.7451 52.0967Z" fill="#DF0034"/>
</svg>
