<svg width="78" height="66" viewBox="0 0 78 66" fill="none" xmlns="http://www.w3.org/2000/svg">
<path d="M22.2447 40.0181C21.573 39.5207 21.0728 38.8235 20.8168 38.0279L21.7688 37.7216C21.6751 37.4305 21.625 37.1216 21.625 36.8031V35.0789H20.625V31.6305H21.625V28.182H20.625V24.7336H21.625V23.0094C21.625 22.6909 21.6751 22.382 21.7688 22.0909L20.8168 21.7846C21.0728 20.989 21.573 20.2918 22.2447 19.7944L22.8398 20.598C23.0855 20.416 23.3621 20.2696 23.6638 20.1675L25.7419 19.4646L25.4215 18.5174L29.5778 17.1116L29.8982 18.0588L34.0544 16.6531L33.734 15.7058L37.8903 14.3L38.2107 15.2473L42.3669 13.8415L42.0465 12.8942L46.2028 11.4884L46.5232 12.4357L50.6794 11.0299L50.359 10.0826L54.5153 8.67683L54.8357 9.62411L56.9138 8.92121C57.3922 8.75941 57.8688 8.72517 58.3171 8.79251L58.4656 7.80359C59.7342 7.9941 60.8496 8.79424 61.4365 9.93493L60.5473 10.3925C60.7547 10.7956 60.875 11.2581 60.875 11.7631V13.5774H61.875V17.206H60.875V20.8347H61.875V24.4633H60.875V28.0919H61.875V31.7206H60.875V35.3492H61.875V38.9778H60.875V42.6065H61.875V46.2351H60.875V48.0494C60.875 48.5544 60.7547 49.0169 60.5473 49.42L61.4365 49.8776C60.8496 51.0183 59.7342 51.8184 58.4656 52.0089L58.3171 51.02C57.8688 51.0873 57.3922 51.0531 56.9138 50.8913L54.8357 50.1884L54.5153 51.1357L50.359 49.7299L50.6794 48.7826L46.5232 47.3768L46.2028 48.3241L42.0465 46.9183L42.3669 45.971L38.2107 44.5652L37.8903 45.5125L33.734 44.1067L34.0544 43.1594L29.8982 41.7537L29.5778 42.7009L25.4215 41.2951L25.7419 40.3479L23.6638 39.645C23.3621 39.5429 23.0856 39.3965 22.8398 39.2145L22.2447 40.0181Z" stroke="white" stroke-width="2" stroke-dasharray="4 4"/>
<rect x="60.8125" y="1" width="15.5312" height="55.75" rx="7.76562" stroke="#EAF03C" stroke-width="2"/>
<rect x="7.1875" y="40.1875" width="8.3125" height="24.8125" rx="4.15625" stroke="white" stroke-width="2"/>
<circle cx="11.3438" cy="29.9062" r="11.3438" fill="#EAF03C"/>
</svg>
