<svg width="127" height="59" viewBox="0 0 127 59" fill="none" xmlns="http://www.w3.org/2000/svg">
<path d="M22.9213 58.6876C22.2837 58.8252 21.6363 58.9185 20.9806 58.9652L20.9095 57.9677C20.6082 57.9891 20.305 58 20 58C19.695 58 19.3918 57.9891 19.0905 57.9677L19.0194 58.9652C18.3637 58.9185 17.7163 58.8252 17.0787 58.6876L17.2897 57.7101C16.6972 57.5822 16.1126 57.4128 15.5373 57.2035L15.1955 58.1433C14.5856 57.9214 13.9867 57.6583 13.4003 57.3561L13.8584 56.4672C13.3194 56.1894 12.7901 55.8755 12.2716 55.527L11.7137 56.3568C11.1783 55.9969 10.6557 55.6032 10.1469 55.1775L10.7886 54.4106C10.3191 54.0178 9.86087 53.5953 9.41507 53.1445L8.704 53.8476C8.25105 53.3895 7.81152 52.9047 7.38648 52.3946L8.15473 51.7544C7.75949 51.2801 7.37655 50.7821 7.00694 50.2616L6.19162 50.8406C5.81803 50.3146 5.45823 49.7674 5.1131 49.2004L5.96732 48.6804C5.64361 48.1486 5.33284 47.598 5.03589 47.0297L4.1496 47.4928C3.85048 46.9204 3.5653 46.3313 3.2948 45.7267L4.20762 45.3183C3.95166 44.7462 3.70903 44.1592 3.48046 43.5583L2.5458 43.9138C2.31579 43.3092 2.09981 42.6913 1.8985 42.0613L2.85105 41.7569C2.65947 41.1573 2.48144 40.546 2.31758 39.9238L1.35055 40.1785C1.18542 39.5516 1.0344 38.9142 0.898077 38.2673L1.87659 38.061C1.74644 37.4435 1.62998 36.8167 1.52774 36.1816L0.540453 36.3405C0.437403 35.7004 0.348494 35.0521 0.274245 34.3965L1.26789 34.284C1.19657 33.6543 1.13908 33.0174 1.09592 32.3743L0.0981622 32.4412C0.0547548 31.7944 0.0255113 31.1414 0.0108973 30.483L1.01065 30.4608C1.00357 30.1418 1 29.8215 1 29.5C1 29.1785 1.00357 28.8582 1.01065 28.5392L0.0108973 28.517C0.0255115 27.8586 0.054755 27.2056 0.0981624 26.5588L1.09592 26.6257C1.13908 25.9825 1.19657 25.3457 1.26789 24.716L0.274245 24.6035C0.348494 23.9479 0.437404 23.2996 0.540454 22.6594L1.52774 22.8184C1.62998 22.1833 1.74645 21.5565 1.87659 20.9389L0.898082 20.7327C1.03441 20.0858 1.18542 19.4484 1.35055 18.8215L2.31758 19.0761C2.48144 18.454 2.65948 17.8427 2.85106 17.2431L1.8985 16.9387C2.09981 16.3087 2.3158 15.6908 2.54581 15.0861L3.48047 15.4417C3.70904 14.8408 3.95167 14.2538 4.20762 13.6817L3.29481 13.2733C3.5653 12.6687 3.85049 12.0796 4.1496 11.5072L5.03589 11.9703C5.33285 11.402 5.64361 10.8514 5.96732 10.3196L5.11311 9.79963C5.45823 9.23261 5.81803 8.68541 6.19162 8.15935L7.00694 8.73835C7.37655 8.21789 7.75949 7.71989 8.15473 7.24557L7.38648 6.60542C7.81153 6.09532 8.25105 5.61046 8.70401 5.15238L9.41508 5.8555C9.86087 5.40467 10.3191 4.9822 10.7886 4.58944L10.1469 3.82247C10.6557 3.3968 11.1783 3.00309 11.7137 2.64317L12.2716 3.47304C12.7901 3.12447 13.3195 2.81057 13.8584 2.53279L13.4003 1.64391C13.9867 1.34166 14.5856 1.07855 15.1955 0.856725L15.5373 1.7965C16.1126 1.58724 16.6972 1.41784 17.2897 1.28993L17.0787 0.312447C17.7163 0.174796 18.3637 0.0815265 19.0194 0.034834L19.0905 1.03231C19.3918 1.01085 19.695 0.999999 20 0.999999C20.305 0.999999 20.6082 1.01085 20.9095 1.03231L20.9806 0.034834C21.6363 0.0815265 22.2837 0.174796 22.9213 0.312447L22.7103 1.28993C23.3028 1.41783 23.8874 1.58724 24.4627 1.7965L24.8045 0.856725C25.4144 1.07855 26.0133 1.34166 26.5997 1.64391L26.1416 2.53279C26.6806 2.81057 27.2099 3.12447 27.7284 3.47304L28.2863 2.64317C28.8217 3.00309 29.3443 3.39681 29.8531 3.82247L29.2114 4.58944C29.6809 4.9822 30.1391 5.40467 30.5849 5.8555L31.296 5.15239C31.749 5.61047 32.1885 6.09533 32.6135 6.60543L31.8453 7.24558C32.2405 7.7199 32.6235 8.2179 32.9931 8.73836L33.8084 8.15935C34.182 8.68542 34.5418 9.23261 34.8869 9.79963L34.0327 10.3196C34.3564 10.8514 34.6672 11.402 34.9641 11.9703L35.8504 11.5072C36.1495 12.0796 36.4347 12.6687 36.7052 13.2733L35.7924 13.6817C36.0483 14.2538 36.291 14.8408 36.5195 15.4417L37.4542 15.0862C37.6842 15.6908 37.9002 16.3087 38.1015 16.9387L37.1489 17.2431C37.3405 17.8427 37.5186 18.454 37.6824 19.0761L38.6494 18.8215C38.8146 19.4484 38.9656 20.0858 39.1019 20.7327L38.1234 20.9389C38.2536 21.5565 38.37 22.1833 38.4723 22.8184L39.4595 22.6595C39.5626 23.2996 39.6515 23.9479 39.7258 24.6035L38.7321 24.716C38.8034 25.3457 38.8609 25.9826 38.9041 26.6257L39.9018 26.5588C39.9452 27.2056 39.9745 27.8586 39.9891 28.517L38.9894 28.5392C38.9964 28.8582 39 29.1785 39 29.5C39 29.8215 38.9964 30.1418 38.9894 30.4608L39.9891 30.483C39.9745 31.1414 39.9452 31.7944 39.9018 32.4412L38.9041 32.3743C38.8609 33.0175 38.8034 33.6543 38.7321 34.284L39.7258 34.3965C39.6515 35.0521 39.5626 35.7004 39.4595 36.3406L38.4723 36.1816C38.37 36.8167 38.2536 37.4435 38.1234 38.0611L39.1019 38.2673C38.9656 38.9142 38.8146 39.5516 38.6494 40.1785L37.6824 39.9239C37.5186 40.546 37.3405 41.1573 37.1489 41.7569L38.1015 42.0613C37.9002 42.6913 37.6842 43.3092 37.4542 43.9139L36.5195 43.5583C36.291 44.1592 36.0483 44.7462 35.7924 45.3183L36.7052 45.7267C36.4347 46.3313 36.1495 46.9204 35.8504 47.4928L34.9641 47.0297C34.6672 47.598 34.3564 48.1486 34.0327 48.6804L34.8869 49.2004C34.5418 49.7674 34.182 50.3146 33.8084 50.8407L32.9931 50.2616C32.6235 50.7821 32.2405 51.2801 31.8453 51.7544L32.6135 52.3946C32.1885 52.9047 31.7489 53.3895 31.296 53.8476L30.5849 53.1445C30.1391 53.5953 29.6809 54.0178 29.2114 54.4106L29.8531 55.1775C29.3443 55.6032 28.8217 55.9969 28.2863 56.3568L27.7284 55.527C27.2099 55.8755 26.6805 56.1894 26.1416 56.4672L26.5997 57.3561C26.0133 57.6583 25.4144 57.9214 24.8045 58.1433L24.4627 57.2035C23.8874 57.4128 23.3028 57.5822 22.7103 57.7101L22.9213 58.6876Z" stroke="white" stroke-width="2" stroke-dasharray="2 2"/>
<path d="M78.8445 29.7019C79.2822 29.3143 79.3587 28.6857 79.0153 28.2981L73.4199 21.9807C73.0766 21.593 72.4434 21.593 72.0057 21.9807C71.568 22.3684 71.4916 22.9969 71.8349 23.3846L76.8086 29L70.4686 34.6154C70.0309 35.0031 69.9544 35.6316 70.2978 36.0193C70.6412 36.407 71.2743 36.407 71.712 36.0193L78.8445 29.7019ZM19.8792 29.9927H21.9586L22.2002 28.0073H20.1208L19.8792 29.9927ZM26.1174 29.9927H30.2762L30.5177 28.0073H26.3589L26.1174 29.9927ZM34.4349 29.9927L38.5937 29.9927L38.8353 28.0073L34.6765 28.0073L34.4349 29.9927ZM42.7525 29.9927H46.9113L47.1528 28.0073H42.994L42.7525 29.9927ZM51.07 29.9927H55.2288L55.4703 28.0073H51.3116L51.07 29.9927ZM59.3876 29.9927H63.5464L63.7879 28.0073H59.6291L59.3876 29.9927ZM67.7051 29.9927H71.8639L72.1054 28.0073H67.9467L67.7051 29.9927ZM76.0227 29.9927H78.1021L78.3436 28.0073H76.2642L76.0227 29.9927ZM78.8445 29.7019C79.2822 29.3143 79.3587 28.6857 79.0153 28.2981L73.4199 21.9807C73.0766 21.593 72.4434 21.593 72.0057 21.9807C71.568 22.3684 71.4916 22.9969 71.8349 23.3846L76.8086 29L70.4686 34.6154C70.0309 35.0031 69.9544 35.6316 70.2978 36.0193C70.6412 36.407 71.2743 36.407 71.712 36.0193L78.8445 29.7019ZM19.8792 29.9927H21.9586L22.2002 28.0073H20.1208L19.8792 29.9927ZM26.1174 29.9927H30.2762L30.5177 28.0073H26.3589L26.1174 29.9927ZM34.4349 29.9927L38.5937 29.9927L38.8353 28.0073L34.6765 28.0073L34.4349 29.9927ZM42.7525 29.9927H46.9113L47.1528 28.0073H42.994L42.7525 29.9927ZM51.07 29.9927H55.2288L55.4703 28.0073H51.3116L51.07 29.9927ZM59.3876 29.9927H63.5464L63.7879 28.0073H59.6291L59.3876 29.9927ZM67.7051 29.9927H71.8639L72.1054 28.0073H67.9467L67.7051 29.9927ZM76.0227 29.9927H78.1021L78.3436 28.0073H76.2642L76.0227 29.9927Z" fill="#EAF03C"/>
<path d="M107 58C101.908 58 97.1822 54.956 93.6856 49.7985C90.1927 44.6465 88 37.4729 88 29.5C88 21.5271 90.1927 14.3535 93.6856 9.20151C97.1822 4.04399 101.908 0.999999 107 0.999999C112.092 0.999999 116.818 4.04399 120.314 9.20151C123.807 14.3535 126 21.5271 126 29.5C126 37.4729 123.807 44.6465 120.314 49.7985C116.818 54.956 112.092 58 107 58Z" stroke="#EAF03C" stroke-width="2"/>
</svg>
