<svg width="86" height="78" viewBox="0 0 86 78" fill="none" xmlns="http://www.w3.org/2000/svg">
<rect width="39.4522" height="13.9992" rx="6.99958" transform="matrix(1 0 0 -1 0 70.1354)" fill="#EAF03C"/>
<path d="M67.8407 61.5942C66.7014 62.0656 65.4131 62.0656 64.2739 61.5942L64.6562 60.6702C64.226 60.4922 63.8221 60.2282 63.4699 59.876L62.1796 58.5857L61.4725 59.2928L58.8919 56.7122L59.599 56.0051L57.0184 53.4245L56.3113 54.1316L53.7306 51.5509L54.4377 50.8438L51.8571 48.2632L51.15 48.9703L48.5694 46.3897L49.2765 45.6826L46.6958 43.1019L45.9887 43.8091L43.4081 41.2284L44.1152 40.5213L41.5346 37.9407L40.8275 38.6478L38.2469 36.0672L38.954 35.3601L38.3708 34.7769L39.3109 33.8367L38.6038 33.1296L41.8982 29.8352L42.6053 30.5423L43.5455 29.6021L44.1287 30.1853L44.8358 29.4782L47.4164 32.0589L46.7093 32.766L49.2899 35.3466L49.997 34.6395L52.5777 37.2201L51.8706 37.9272L54.4512 40.5079L55.1583 39.8008L57.7389 42.3814L57.0318 43.0885L59.6124 45.6691L60.3196 44.962L62.9002 47.5426L62.1931 48.2497L64.7737 50.8304L65.4808 50.1233L68.0614 52.7039L67.3543 53.411L68.6446 54.7013C68.9968 55.0534 69.2608 55.4574 69.4388 55.8876L70.3628 55.5053C70.8342 56.6445 70.8342 57.9328 70.3628 59.0721L69.4388 58.6898C69.2608 59.1199 68.9968 59.5239 68.6446 59.876C68.2925 60.2282 67.8886 60.4922 67.4584 60.6702L67.8407 61.5942Z" stroke="white" stroke-width="2" stroke-dasharray="4 4"/>
<rect x="37.7053" y="11.4528" width="17.0898" height="24.7257" transform="rotate(45 37.7053 11.4528)" stroke="white" stroke-width="2"/>
<rect x="1.41421" y="1.19209e-07" width="23.453" height="10.7265" rx="5.36326" transform="matrix(0.707107 0.707107 0.707107 -0.707107 9.32266 32.4358)" stroke="white" stroke-width="2"/>
<rect x="1.41421" y="1.19209e-07" width="23.453" height="10.7265" rx="5.36326" transform="matrix(0.707107 0.707107 0.707107 -0.707107 33.62 8.13843)" stroke="white" stroke-width="2"/>
</svg>
