<svg width="66" height="66" viewBox="0 0 66 66" fill="none" xmlns="http://www.w3.org/2000/svg">
<path d="M32.5 55C26.424 55 20.9727 53.6296 17.0757 51.4647C13.1449 49.2809 11 46.4237 11 43.5C11 40.5763 13.1449 37.7191 17.0757 35.5353C20.9727 33.3704 26.424 32 32.5 32C38.576 32 44.0273 33.3704 47.9243 35.5353C51.8551 37.7191 54 40.5763 54 43.5C54 46.4237 51.8551 49.2809 47.9243 51.4647C44.0273 53.6296 38.576 55 32.5 55Z" stroke="#EAF03C" stroke-width="2"/>
<circle cx="32.5" cy="17.5" r="9.5" transform="rotate(90 32.5 17.5)" fill="#EAF03C" stroke="#EAF03C" stroke-width="2"/>
<path fill-rule="evenodd" clip-rule="evenodd" d="M8.29989 65.8037L8.50003 64.7921L8.70016 63.7804C9.21997 63.8833 9.75888 63.9375 10.3125 63.9375H12.2031V64.9688V66H10.3125C9.62378 66 8.95082 65.9325 8.29989 65.8037ZM53.7969 66V64.9688V63.9375H55.6875C56.2411 63.9375 56.78 63.8833 57.2998 63.7804L57.5 64.7921L57.7001 65.8037C57.0492 65.9325 56.3762 66 55.6875 66H53.7969ZM61.4173 64.263L60.8436 63.4061L60.2699 62.5491C61.1704 61.9462 61.9462 61.1704 62.5491 60.2699L63.4061 60.8436L64.263 61.4173C63.5101 62.5419 62.5419 63.5101 61.4173 64.263ZM66 12.2031H64.9688H63.9375V10.3125C63.9375 9.75888 63.8833 9.21997 63.7804 8.70016L64.7921 8.50003L65.8037 8.29989C65.9325 8.95082 66 9.62378 66 10.3125V12.2031ZM64.263 4.58271L63.4061 5.15642L62.5491 5.73012C61.9462 4.82956 61.1704 4.05377 60.2699 3.45085L60.8436 2.59392L61.4173 1.73698C62.5419 2.48988 63.5101 3.45812 64.263 4.58271ZM12.2031 0H10.3125C9.62378 0 8.95082 0.0675153 8.29989 0.196289L8.50003 1.20793L8.70016 2.21958C9.21997 2.11674 9.75888 2.0625 10.3125 2.0625H12.2031V1.03125V0ZM4.58271 1.73698L5.15642 2.59392L5.73012 3.45085C4.82956 4.05377 4.05377 4.82956 3.45085 5.73012L2.59392 5.15642L1.73698 4.58271C2.48988 3.45812 3.45812 2.48988 4.58271 1.73698ZM0 53.7969H1.03125H2.0625V55.6875C2.0625 56.2411 2.11674 56.78 2.21958 57.2998L1.20793 57.5L0.196288 57.7001C0.0675153 57.0492 0 56.3762 0 55.6875V53.7969ZM1.73698 61.4173L2.59392 60.8436L3.45085 60.2699C4.05377 61.1704 4.82956 61.9462 5.73012 62.5491L5.15642 63.4061L4.58271 64.263C3.45812 63.5101 2.48988 62.5419 1.73698 61.4173ZM0 12.2031H1.03125H2.0625V10.3125C2.0625 9.75888 2.11674 9.21997 2.21958 8.70016L1.20793 8.50003L0.196289 8.29989C0.0675154 8.95082 0 9.62378 0 10.3125V12.2031ZM53.7969 0V1.03125V2.0625H55.6875C56.2411 2.0625 56.78 2.11674 57.2998 2.21958L57.5 1.20793L57.7001 0.196288C57.0492 0.0675153 56.3762 0 55.6875 0H53.7969ZM66 53.7969H64.9688H63.9375V55.6875C63.9375 56.2411 63.8833 56.78 63.7804 57.2998L64.7921 57.5L65.8037 57.7001C65.9325 57.0492 66 56.3762 66 55.6875V53.7969Z" fill="white"/>
</svg>
