<svg width="385" height="316" viewBox="0 0 385 316" fill="none" xmlns="http://www.w3.org/2000/svg">
<g clip-path="url(#clip0_2002_10)">
<path d="M69.3125 0.349609H238.839C254.736 0.349609 270.059 0.349609 284.933 0.349609H384.713" stroke="#141414" stroke-width="0.5" stroke-miterlimit="10"/>
<path d="M69.3125 16.9434H215.187C245.008 15.5449 274.131 15.5449 305.101 16.9434H384.688" stroke="#141414" stroke-width="0.5" stroke-miterlimit="10"/>
<path d="M69.3125 33.5398H191.784C195.643 33.5398 199.526 33.5398 203.46 33.6147C240.85 33.6147 279.638 30.8052 316.553 33.5023C319.887 33.5023 323.109 33.5023 326.256 33.5023H384.688" stroke="#141414" stroke-width="0.5" stroke-miterlimit="10"/>
<path d="M69.3125 50.1341H180.332C184.212 50.1341 188.083 50.2298 191.946 50.4213C236.691 50.209 282.448 48.823 326.194 50.0842C332.001 50.0842 337.433 50.0842 342.591 50.0842H384.688" stroke="#141414" stroke-width="0.5" stroke-miterlimit="10"/>
<path d="M69.3125 66.7408H180.332C183.49 66.3641 186.669 66.1972 189.848 66.2413C211.727 66.8531 231.146 71.0112 253.325 73.7333C281.061 77.8913 307.411 69.5752 335.41 66.6908H384.688" stroke="#141414" stroke-width="0.5" stroke-miterlimit="10"/>
<path d="M69.3125 83.3364H180.332C183.498 83.0954 186.677 83.0537 189.848 83.2116C192.995 83.3614 196.092 83.6736 199.152 83.9982C231.146 84.8723 258.87 102.903 289.379 104.289C306.025 104.289 318.501 90.4164 333.924 84.7849C336.713 83.7759 339.615 83.1133 342.566 82.812C345.684 82.5206 348.828 82.6974 351.894 83.3364H384.688" stroke="#141414" stroke-width="0.5" stroke-miterlimit="10"/>
<path d="M69.3125 99.8923H180.332C184.783 99.6993 189.241 99.7827 193.682 100.142C198.053 100.479 202.349 101.016 206.52 101.553C226.988 102.802 245.008 111.18 263.029 119.496C292.151 131.983 317.115 115.338 341.529 102.14C345.231 100.725 349.094 99.777 353.031 99.3179C357.198 98.8512 361.412 99.0451 365.519 99.8923H384.676" stroke="#141414" stroke-width="0.5" stroke-miterlimit="10"/>
<path d="M69.3125 116.526H191.784C196.346 117.467 200.875 118.341 205.371 119.148C243.622 123.681 282.448 141.712 320.986 131.123C325.329 129.925 329.571 128.389 333.674 126.528C338.042 124.538 342.244 122.199 346.237 119.536C353.168 115.377 358.725 116.764 365.556 116.551C371.563 116.551 376.358 116.551 379.643 116.551H384.638" stroke="#141414" stroke-width="0.5" stroke-miterlimit="10"/>
<path d="M69.3125 133.121H203.423C207.331 133.121 211.265 133.121 215.399 133.371C245.008 143.11 275.517 145.857 305.701 143.935C310.696 143.502 315.691 142.936 320.686 142.236C335.828 140.053 350.837 137.031 365.644 133.184C371.613 133.184 376.408 133.184 379.693 133.184H384.688" stroke="#141414" stroke-width="0.5" stroke-miterlimit="10"/>
<path d="M69.3125 149.728H215.187C219.12 149.728 223.067 149.728 227.088 149.803C256.098 154.198 283.834 161.129 314.342 156.971C332.363 154.198 347.623 148.654 365.544 149.741H384.676" stroke="#141414" stroke-width="0.5" stroke-miterlimit="10"/>
<path d="M69.3125 166.323H118.553C121.842 166.39 125.172 166.44 128.544 166.473C131.866 166.473 135.225 166.535 138.534 166.548C154.894 166.673 171.528 166.673 187.9 166.323H238.839C278.289 170.818 317.115 169.432 355.691 166.398C361.598 166.311 366.83 166.311 371.138 166.311H384.688" stroke="#141414" stroke-width="0.5" stroke-miterlimit="10"/>
<path d="M69.3125 182.918H88.4693C93.3064 182.968 98.1226 182.993 102.918 182.993C145.165 180.495 185.34 183.317 227 182.918H256.435C285.158 183.305 315.729 183.305 344.938 182.918C350.945 182.918 356.465 182.918 361.335 182.918H384.688" stroke="#141414" stroke-width="0.5" stroke-miterlimit="10"/>
<path d="M69.3125 199.511H82.7373C87.0332 199.424 91.3166 199.286 95.5751 199.062C143.742 190.233 190.897 197.164 238.777 199.499H281.524C296.272 199.936 312.919 199.936 328.092 199.499H384.651" stroke="#141414" stroke-width="0.5" stroke-miterlimit="10"/>
<path d="M69.3125 216.107H78.0542C82.962 215.745 87.8574 215.295 92.6903 214.571C139.621 198.538 189.548 204.107 238.627 216.02C242.735 216.082 246.669 216.094 250.578 216.094H384.688" stroke="#141414" stroke-width="0.5" stroke-miterlimit="10"/>
<path d="M69.3125 232.702H78.0542C82.1557 233.244 86.3128 233.211 90.405 232.602C106.365 229.043 118.84 217.955 135.475 213.785C171.528 205.469 202.036 224.885 236.828 229.855C241.611 230.679 246.145 231.616 250.565 232.677H384.688" stroke="#141414" stroke-width="0.5" stroke-miterlimit="10"/>
<path d="M69.3125 249.309H78.1166C81.0139 249.446 83.9611 249.634 86.8583 249.709C106.327 252.63 114.644 231.84 131.279 226.296C145.141 220.752 160.401 223.524 174.263 227.682C195.068 234.612 214.475 242.928 236.891 245.838C241.611 246.849 246.082 247.96 250.528 249.134C254.449 249.297 258.333 249.297 262.192 249.309H384.663" stroke="#141414" stroke-width="0.5" stroke-miterlimit="10"/>
<path d="M69.3125 265.966H88.4318C96.6366 263.806 107.739 267.964 113.283 261.034C147.95 220.827 196.479 256.876 237.266 261.883C241.699 263.032 246.12 264.38 250.553 265.779C254.474 265.954 258.358 265.966 262.217 265.979H384.688" stroke="#141414" stroke-width="0.5" stroke-miterlimit="10"/>
<path d="M69.3125 282.499H88.4693C92.4905 282.499 97.0612 282.499 102.106 282.499C106.352 281.8 110.511 283.186 113.346 281.8C148.013 254.067 186.838 270.712 223.853 276.868C228.449 277.717 232.895 278.591 237.365 279.552C241.836 280.514 246.195 281.425 250.64 282.462C254.537 282.536 258.42 282.536 262.279 282.549H384.751" stroke="#141414" stroke-width="0.5" stroke-miterlimit="10"/>
<path d="M69.3125 299.092H118.591C122.949 297.968 127.332 297.032 131.716 296.195C153.495 292.849 175.674 291.463 197.803 293.935C202.261 294.222 206.67 294.56 211.065 294.922C215.461 295.284 219.807 295.696 224.091 296.095C228.374 296.495 232.832 296.907 237.303 297.344C241.774 297.781 246.132 298.405 250.578 299.03H384.688" stroke="#141414" stroke-width="0.5" stroke-miterlimit="10"/>
<path d="M69.3125 315.687H127.695H137.385C145.902 315.521 154.382 315.4 162.824 315.325C171.266 315.25 179.691 315.213 188.1 315.213C196.517 315.213 204.938 315.255 213.363 315.338C221.789 315.421 230.256 315.542 238.764 315.7H384.688" stroke="#141414" stroke-width="0.5" stroke-miterlimit="10"/>
<path d="M69.3125 315.688V0.349609" stroke="#141414" stroke-width="0.5" stroke-miterlimit="10"/>
<path d="M85.9079 315.688V282.898C85.9079 277.903 85.9079 272.334 85.9079 266.415C85.7955 258.124 85.7206 249.983 85.6706 241.879C85.6207 233.775 85.6706 225.746 85.6706 217.68C85.6706 209.614 85.783 201.447 85.8954 193.231C85.8954 189.373 85.8954 185.489 85.8954 181.594V0.349609" stroke="#141414" stroke-width="0.5" stroke-miterlimit="10"/>
<path d="M102.505 315.688V282.86C100.794 254.016 100.794 226.296 101.256 197.651C101.643 188.461 102.055 179.096 102.505 169.831V0.349609" stroke="#141414" stroke-width="0.5" stroke-miterlimit="10"/>
<path d="M119.115 315.688V310.693C119.115 307.422 119.115 302.627 119.115 296.546C111.91 258.249 110.523 216.631 117.417 178.147C117.954 173.802 118.503 169.332 119.09 164.849C119.09 161.465 119.09 158.081 119.09 154.71V0.349609" stroke="#141414" stroke-width="0.5" stroke-miterlimit="10"/>
<path d="M135.711 315.688C134.995 311.243 134.304 306.818 133.638 302.415C125.758 259.573 118.827 215.195 132.465 172.865C133.464 168.707 134.5 164.362 135.674 159.992C135.674 156.383 135.674 152.762 135.674 149.153V0.349609" stroke="#141414" stroke-width="0.5" stroke-miterlimit="10"/>
<path d="M152.308 315.351C152.454 311.558 152.316 307.76 151.895 303.988C147.949 274.819 127.144 248.472 131.303 216.581C134.075 195.791 153.494 181.931 152.295 159.505C152.295 156.05 152.295 152.6 152.295 149.153V0.349609" stroke="#141414" stroke-width="0.5" stroke-miterlimit="10"/>
<path d="M168.904 314.564C168.881 309.83 168.404 305.109 167.48 300.467C152.145 259.573 128.567 216.581 164.62 176.374C168.742 173.565 170.153 166.672 168.904 159.492V0.349609" stroke="#141414" stroke-width="0.5" stroke-miterlimit="10"/>
<path d="M185.44 314.177C184.466 309.27 183.48 304.387 182.356 299.53C165.971 256.801 153.496 209.651 185.141 169.819C185.39 165.873 185.453 161.927 185.453 157.981V100.131C185.328 83.4858 185.328 66.8536 185.453 49.622V0.349609" stroke="#141414" stroke-width="0.5" stroke-miterlimit="10"/>
<path d="M202.073 314.664C201.507 310.269 200.978 305.869 200.487 301.465C199.775 297.083 199.101 292.725 198.264 288.305C181.218 248.535 189.522 208.327 202.01 169.906C202.148 164.737 202.148 159.555 202.148 154.385V128.613C202.306 124.359 202.431 120.097 202.522 115.826C202.61 111.556 202.66 107.273 202.672 102.94C202.073 76.5557 202.073 51.5949 202.148 25.9348V0.349609" stroke="#141414" stroke-width="0.5" stroke-miterlimit="10"/>
<path d="M218.708 315.351C218.558 310.88 218.441 306.414 218.358 301.953C218.246 297.457 218.146 292.975 218.058 288.454C208.955 254.016 214.499 217.98 218.595 181.594C218.695 177.685 218.708 173.764 218.708 169.831V149.153C219.157 146.069 219.532 143.035 219.857 140.038C220.181 137.041 220.431 134.069 220.643 131.097C224.203 89.0299 218.658 48.8228 218.708 7.16733V0.349609" stroke="#141414" stroke-width="0.5" stroke-miterlimit="10"/>
<path d="M235.305 315.688V273.545C235.305 268.925 235.305 264.318 235.155 259.723C233.907 237.384 235.305 215.195 235.305 193.231V164.362C237.009 160.206 238.453 155.948 239.626 151.613C247.781 101.517 233.919 50.2089 235.305 0.349609" stroke="#141414" stroke-width="0.5" stroke-miterlimit="10"/>
<path d="M251.901 315.687V282.884C251.901 267.9 251.901 252.629 251.901 237.421V180.856C251.78 174.648 252.375 168.447 253.675 162.376C254.87 156.693 257.62 151.454 261.617 147.242C267.199 140.337 271.358 132.008 271.358 122.269C268.585 80.6755 246.382 43.2405 251.901 0.298828" stroke="#141414" stroke-width="0.5" stroke-miterlimit="10"/>
<path d="M268.497 315.688V193.231C266.462 182.73 269.259 173.315 273.418 164.449C274.816 161.49 276.352 158.593 277.926 155.709C282.973 148.758 286.585 140.872 288.551 132.511C290.517 124.15 290.798 115.481 289.377 107.011C281.06 69.5506 263.027 37.6847 268.497 0.287109" stroke="#141414" stroke-width="0.5" stroke-miterlimit="10"/>
<path d="M285.045 315.688V202.983C282.36 184.328 290.702 168.857 297.795 152.824C299.569 148.816 301.267 144.77 302.666 140.625C305.975 132.009 307.361 122.307 305.975 113.991C294.923 75.1697 279.675 40.5067 285.045 0.349609" stroke="#141414" stroke-width="0.5" stroke-miterlimit="10"/>
<path d="M301.705 315.688V202.983C299.52 183.129 307.824 165.373 313.057 146.369C314.106 142.623 315.03 138.714 315.729 134.781C317.115 95.96 297.696 58.5375 301.667 19.4168C301.667 13.4732 301.667 8.69077 301.667 5.40677V0.412109" stroke="#141414" stroke-width="0.5" stroke-miterlimit="10"/>
<path d="M318.301 315.688V202.421C321.174 176.924 323.996 151.688 324.695 126.365C324.808 121.295 324.845 116.226 324.695 111.131C323.996 84.9093 318.451 59.936 318.227 33.1396C318.227 28.1449 318.227 23.5249 318.227 19.5042V0.349609" stroke="#141414" stroke-width="0.5" stroke-miterlimit="10"/>
<path d="M334.897 315.688V202.983C334.897 199.37 334.897 195.737 334.897 192.082C336.99 163.259 337.619 134.349 336.783 105.462C336.658 101.367 336.504 97.2711 336.321 93.1755C335.072 82.0998 335.072 69.6256 334.885 58.7747V0.349609" stroke="#141414" stroke-width="0.5" stroke-miterlimit="10"/>
<path d="M351.494 315.688V187.425C351.494 184.028 351.494 180.62 351.494 177.223C351.756 148.654 353.143 118.149 351.494 89.2297C351.494 86.0581 351.494 82.9864 351.494 79.9271V0.349609" stroke="#141414" stroke-width="0.5" stroke-miterlimit="10"/>
<path d="M368.09 315.688V158.019C368.415 143.11 368.415 126.465 368.09 111.356V0.349609" stroke="#141414" stroke-width="0.5" stroke-miterlimit="10"/>
<path d="M384.688 315.688V0.349609" stroke="#141414" stroke-width="0.5" stroke-miterlimit="10"/>
</g>
<path d="M38.087 20L0 66L113 24.4516L38.087 20Z" fill="#E9F03C"/>
<defs>
<clipPath id="clip0_2002_10">
<rect width="316" height="316" fill="white" transform="translate(69)"/>
</clipPath>
</defs>
</svg>
