<svg width="61" height="80" viewBox="0 0 61 80" fill="none" xmlns="http://www.w3.org/2000/svg">
<path fill-rule="evenodd" clip-rule="evenodd" d="M31.0175 25.4637C24.3312 25.4637 18.9109 30.884 18.9109 37.5703C18.9109 44.2566 24.3312 49.6769 31.0175 49.6769C37.7038 49.6769 43.1242 44.2566 43.1242 37.5703C43.1242 30.884 37.7038 25.4637 31.0175 25.4637ZM16.543 37.5703C16.543 29.5762 23.0234 23.0957 31.0175 23.0957C39.0116 23.0957 45.4921 29.5762 45.4921 37.5703C45.4921 45.5644 39.0116 52.0449 31.0175 52.0449C23.0234 52.0449 16.543 45.5644 16.543 37.5703ZM40.2847 33.0127C40.751 32.5544 40.7574 31.8047 40.2991 31.3384C39.8406 30.872 39.091 30.8657 38.6247 31.324L28.4642 41.3119L23.4104 36.344C22.9441 35.8856 22.1944 35.892 21.736 36.3583C21.2777 36.8246 21.284 37.5743 21.7504 38.0327L27.6342 43.8165C28.0949 44.2693 28.8335 44.2693 29.2942 43.8165L40.2847 33.0127Z" fill="white"/>
<path d="M27.7656 77.6564C28.177 77.9251 28.6179 78.1274 29.0732 78.2629L28.7881 79.2209C28.3106 79.0787 27.8456 78.8763 27.4072 78.6125L27.2188 78.4943L25.6309 77.4572L26.1777 76.6193L27.7656 77.6564ZM35.3691 77.4572L33.7812 78.4943L33.5928 78.6125C33.1542 78.8764 32.6897 79.0787 32.2119 79.2209L31.9268 78.2629C32.3821 78.1274 32.823 77.9251 33.2344 77.6564L34.8223 76.6193L35.3691 77.4572ZM23.002 74.5451L22.4551 75.383L19.2793 73.3088L19.8262 72.4709L23.002 74.5451ZM41.7207 73.3088L38.5449 75.383L37.998 74.5451L41.1738 72.4709L41.7207 73.3088ZM16.6504 70.3977L16.1035 71.2346L12.9277 69.1604L13.4746 68.3234L16.6504 70.3977ZM48.0723 69.1604L44.8965 71.2346L44.3496 70.3977L47.5254 68.3234L48.0723 69.1604ZM10.2988 66.2492L9.75195 67.0861L6.57617 65.0119L7.12305 64.175L10.2988 66.2492ZM54.4238 65.0119L51.248 67.0861L50.7012 66.2492L53.877 64.175L54.4238 65.0119ZM0 58.552V56.383H1V58.552C1 59.565 1.51123 60.5097 2.35938 61.0637L3.94727 62.1008L3.40039 62.9377L1.8125 61.9006C0.752371 61.2081 0.0868029 60.058 0.0078125 58.8039L0 58.552ZM60.9922 58.8039C60.9132 60.058 60.2476 61.2081 59.1875 61.9006L57.5996 62.9377L57.0527 62.1008L58.6406 61.0637C59.4888 60.5097 60 59.565 60 58.552V56.383H61V58.552L60.9922 58.8039ZM1 47.7092V52.0461H0V47.7092H1ZM61 47.7092V52.0461H60V47.7092H61ZM1 39.0344V43.3713H0V39.0344H1ZM61 39.0344V43.3713H60V39.0344H61ZM1 30.3596V34.6975H0V30.3596H1ZM61 30.3596V34.6975H60V30.3596H61ZM1 21.6857V26.0227H0V21.6857H1ZM61 21.6857V26.0227H60V21.6857H61ZM0 15.1799C0 14.782 0.0587262 14.3932 0.169922 14.0246L1.12793 14.3127C1.04456 14.5889 1 14.8809 1 15.1799V17.3479H0V15.1799ZM61 17.3479H60V15.1799C60 14.8809 59.9554 14.5889 59.8721 14.3127L60.8291 14.0246C60.9403 14.3933 61 14.7819 61 15.1799V17.3479ZM4.49121 11.717L2.83496 12.4152C2.55951 12.5313 2.30807 12.6853 2.08594 12.8693L1.44824 12.0988C1.74483 11.8531 2.08044 11.6479 2.44727 11.4934L4.10352 10.7951L4.49121 11.717ZM58.5527 11.4934C58.9193 11.6478 59.2543 11.8533 59.5508 12.0988L58.9141 12.8693C58.6919 12.6853 58.4405 12.5313 58.165 12.4152L56.5088 11.717L56.8955 10.7951L58.5527 11.4934ZM10.7285 8.00411L11.1162 8.92598L7.80371 10.3215L7.60938 9.85958L7.41602 9.39962L10.7275 8.00313L10.7285 8.00411ZM53.583 9.39962L53.3906 9.86055L53.3896 9.85958L53.1963 10.3215L49.8838 8.92598L50.2715 8.00411L53.583 9.39962ZM17.7412 6.13399L14.4287 7.5295L14.04 6.60762L17.3535 5.21212L17.7412 6.13399ZM46.959 6.60762L46.7656 7.06954L46.7646 7.06856L46.5713 7.5295L43.2588 6.13399L43.6455 5.21212L46.959 6.60762ZM23.9785 2.4211L24.3662 3.34297L21.0537 4.73848L20.8594 4.27657L20.666 3.81661L23.9775 2.42012L23.9785 2.4211ZM40.333 3.81661L40.1406 4.27754L40.1396 4.27657L39.9463 4.73848L36.6338 3.34297L37.0215 2.4211L40.333 3.81661ZM28.9473 0.32735C29.9402 -0.0908876 31.0598 -0.0908872 32.0527 0.32735L33.709 1.02462L33.5156 1.48653L33.5146 1.48555L33.3213 1.94649L31.665 1.24922C30.9202 0.935366 30.0798 0.935366 29.335 1.24922L27.6787 1.94649L27.29 1.02462L28.9473 0.32735Z" fill="#E9F03C"/>
</svg>
