<svg width="115" height="115" viewBox="0 0 115 115" fill="none" xmlns="http://www.w3.org/2000/svg">
<path d="M56.6016 94.2344C35.8175 94.2344 18.9688 77.3856 18.9688 56.6016C18.9688 35.8175 35.8175 18.9687 56.6016 18.9687C77.3856 18.9687 94.2344 35.8175 94.2344 56.6016C94.2344 77.3856 77.3856 94.2344 56.6016 94.2344Z" stroke="#EAF03C" stroke-width="2"/>
<circle cx="56.6015" cy="56.6017" r="12.7507" transform="rotate(90 56.6015 56.6017)" fill="#EAF03C" stroke="#EAF03C" stroke-width="2"/>
<path d="M56.6016 70.661C46.1602 70.661 36.6694 66.9724 29.7582 63.2505C26.3084 61.3926 23.5168 59.5347 21.5902 58.1433C20.7292 57.5214 20.0417 56.9933 19.5463 56.6008C20.0417 56.2082 20.7292 55.6801 21.5902 55.0583C23.5168 53.6668 26.3084 51.809 29.7582 49.9511C36.6694 46.2291 46.1602 42.5405 56.6016 42.5405C67.0429 42.5405 76.5337 46.2291 83.4449 49.9511C86.8948 51.809 89.6863 53.6668 91.6129 55.0583C92.4739 55.6801 93.1614 56.2082 93.6568 56.6008C93.1614 56.9933 92.4739 57.5214 91.6129 58.1433C89.6863 59.5347 86.8948 61.3926 83.4449 63.2505C76.5337 66.9724 67.0429 70.661 56.6016 70.661Z" stroke="#EAF03C" stroke-width="2"/>
<path fill-rule="evenodd" clip-rule="evenodd" d="M14.4619 114.658L14.8106 112.895L15.1594 111.133C16.0651 111.312 17.0041 111.406 17.9688 111.406H21.263V113.203V115H17.9688C16.7687 115 15.5961 114.882 14.4619 114.658ZM93.737 115V113.203V111.406H97.0312C97.9959 111.406 98.9349 111.312 99.8406 111.133L100.189 112.895L100.538 114.658C99.4039 114.882 98.2313 115 97.0312 115H93.737ZM107.015 111.973L106.015 110.48L105.016 108.987C106.585 107.937 107.937 106.585 108.987 105.016L110.48 106.015L111.973 107.015C110.662 108.974 108.974 110.662 107.015 111.973ZM115 21.263H113.203H111.406V17.9688C111.406 17.0041 111.312 16.0651 111.133 15.1594L112.895 14.8107L114.658 14.4619C114.882 15.5961 115 16.7687 115 17.9688V21.263ZM111.973 7.98503L110.48 8.98467L108.987 9.98431C107.937 8.41514 106.585 7.06338 105.016 6.01285L106.015 4.51971L107.015 3.02656C108.974 4.33842 110.662 6.02551 111.973 7.98503ZM21.263 0H17.9688C16.7687 0 15.5961 0.11764 14.4619 0.342018L14.8107 2.10473L15.1594 3.86744C16.0651 3.68826 17.0041 3.59375 17.9688 3.59375H21.263V1.79688V0ZM7.98503 3.02656L8.98467 4.5197L9.98431 6.01285C8.41514 7.06338 7.06338 8.41514 6.01285 9.9843L4.51971 8.98467L3.02656 7.98503C4.33842 6.02551 6.02551 4.33842 7.98503 3.02656ZM0 93.737H1.79688H3.59375V97.0312C3.59375 97.9959 3.68826 98.9349 3.86744 99.8406L2.10473 100.189L0.342018 100.538C0.11764 99.4039 0 98.2313 0 97.0312V93.737ZM3.02656 107.015L4.5197 106.015L6.01285 105.016C7.06338 106.585 8.41514 107.937 9.9843 108.987L8.98467 110.48L7.98503 111.973C6.02551 110.662 4.33842 108.974 3.02656 107.015ZM0 21.263H1.79688H3.59375V17.9688C3.59375 17.0041 3.68826 16.0651 3.86744 15.1594L2.10473 14.8106L0.342018 14.4619C0.11764 15.5961 0 16.7687 0 17.9688V21.263ZM93.737 0V1.79688V3.59375H97.0312C97.9959 3.59375 98.9349 3.68826 99.8406 3.86744L100.189 2.10473L100.538 0.342018C99.4039 0.11764 98.2313 0 97.0312 0H93.737ZM115 93.737H113.203H111.406V97.0312C111.406 97.9959 111.312 98.9349 111.133 99.8406L112.895 100.189L114.658 100.538C114.882 99.4039 115 98.2313 115 97.0312V93.737Z" fill="white"/>
</svg>
