<svg width="87" height="61" viewBox="0 0 87 61" fill="none" xmlns="http://www.w3.org/2000/svg">
<mask id="mask0_2001_9" style="mask-type:alpha" maskUnits="userSpaceOnUse" x="0" y="0" width="87" height="61">
<rect width="87" height="61" fill="#D9D9D9"/>
</mask>
<g mask="url(#mask0_2001_9)">
<path d="M1.09698 44.6245C1.09974 44.9083 1.15889 45.1788 1.26352 45.4259L0.61057 45.7017C0.470781 45.3714 0.391388 45.0099 0.387696 44.6314L0.373493 43.2025L1.08326 43.1962L1.09698 44.6245ZM4.62818 47.4572L3.19983 47.4435C2.82107 47.4398 2.45943 47.3601 2.12905 47.2201L2.26669 46.8944L2.40532 46.5677C2.65236 46.6723 2.92286 46.7315 3.20669 46.7342L4.63504 46.7479L4.62818 47.4572ZM1.05534 40.339L0.345571 40.3453L0.318141 37.4886L1.02742 37.4818L1.05534 40.339ZM10.3421 47.5126L7.48537 47.4851L7.49223 46.7759L10.3494 46.8038L10.3421 47.5126ZM0.999497 34.6246L0.644859 34.6275L0.290221 34.6314L0.262299 31.7742L0.971578 31.7674L0.999497 34.6246ZM16.0565 47.5684L13.1993 47.5405L13.2027 47.1863L13.2066 46.8317L16.0638 46.8596L16.0565 47.5684ZM0.943167 28.9107L0.234379 28.9171L0.206948 26.0604L0.561097 26.0569L0.915736 26.054L0.943167 28.9107ZM21.7704 47.6238L18.9132 47.5958L18.92 46.8875L21.7772 46.9155L21.7704 47.6238ZM0.887816 23.1968L0.179028 23.2032L0.151108 20.346L0.505257 20.3425L0.859896 20.3396L0.887816 23.1968ZM27.4847 47.6796L24.6275 47.6517L24.6344 46.9434L27.4916 46.9713L27.4847 47.6796ZM0.96619 15.2654C0.868837 15.5058 0.815508 15.7718 0.81826 16.0541L0.831975 17.4824L0.123188 17.4888L0.108982 16.0609C0.105308 15.6841 0.176611 15.3253 0.308834 14.999L0.637022 15.1322L0.96619 15.2654ZM32.6985 47.1937L32.8313 47.5214C32.505 47.6535 32.1469 47.7259 31.7703 47.7222L30.3419 47.7075L30.3488 46.9992L31.7771 47.0129C32.0594 47.0157 32.3254 46.9624 32.5658 46.865L32.6985 47.1937ZM4.42 13.3183L4.41314 14.0276L2.85988 14.0124C2.57763 14.0097 2.31164 14.063 2.07125 14.1604L1.90128 13.7406L1.80527 13.5025C2.08987 13.3873 2.39893 13.3189 2.72322 13.3056L2.86674 13.3032L4.42 13.3174L4.42 13.3183ZM34.5124 43.3803L34.528 44.9645C34.5317 45.341 34.4597 45.6988 34.3277 46.0249L34.0906 45.9299L33.6708 45.7599C33.7438 45.5797 33.7926 45.385 33.8109 45.18L33.8188 44.9713L33.8036 43.3877L34.5124 43.3803ZM10.2025 13.1376L10.3435 13.4628L10.4841 13.7886C10.0522 13.9753 9.57467 14.0768 9.07439 14.0727L9.07341 14.0727L7.52015 14.0575L7.527 13.3482L9.08026 13.3634C9.47999 13.3667 9.85913 13.2844 10.202 13.1361L10.2025 13.1376ZM34.6838 37.52C34.5409 37.862 34.463 38.2383 34.4668 38.6304L34.4825 40.2136L34.1274 40.218L34.1274 40.217L33.7727 40.2209L33.7575 38.6373C33.7528 38.1469 33.85 37.6756 34.0289 37.2471L34.3561 37.3833L34.6838 37.52ZM12.3656 9.19346C12.4137 9.45291 12.4601 9.71779 12.4988 9.99091L12.5346 10.2667L12.5351 10.2691C12.5924 10.7713 12.5375 11.2597 12.3901 11.7092L11.7161 11.4878C11.8321 11.1337 11.8758 10.7478 11.8302 10.349C11.7894 10.0009 11.7309 9.66385 11.6676 9.32229L12.3656 9.19346ZM38.4521 36.0715C38.1033 35.9935 37.761 35.9242 37.4083 35.88C37.0131 35.831 36.6326 35.8755 36.2846 35.9946L36.0544 35.3236C36.502 35.1703 36.9906 35.1136 37.495 35.1761L37.4959 35.1761C37.8826 35.2246 38.2512 35.3003 38.6069 35.3799L38.4521 36.0715ZM42.6553 36.0956L42.721 36.4433C42.3569 36.5123 41.9811 36.5478 41.5968 36.5437C41.2162 36.5406 40.8652 36.5141 40.5363 36.4757L40.6186 35.7732C40.9239 35.8089 41.2497 35.8315 41.6027 35.8345L41.6037 35.8345C41.9413 35.838 42.2712 35.8081 42.5897 35.7478L42.6553 36.0956ZM12.082 5.24002C12.0215 5.55875 11.9913 5.88826 11.9943 6.22508C11.9977 6.57452 12.0167 6.89782 12.0462 7.2018L11.6935 7.23511L11.6935 7.23609L11.3413 7.26891C11.3192 7.04036 11.3015 6.80163 11.2923 6.54983L11.2855 6.23242C11.2821 5.84819 11.3167 5.47192 11.3859 5.10728L12.082 5.24002ZM13.8116 1.43157L14.2064 2.02035C13.6574 2.38885 13.1866 2.865 12.8221 3.41736L12.2872 3.06468L12.2304 3.02647C12.6395 2.40668 13.1659 1.8704 13.7802 1.45215L13.8116 1.43157ZM46.3859 33.9991C45.9686 34.6322 45.4298 35.1745 44.8023 35.5935L44.4085 35.0047C44.9574 34.6383 45.4301 34.1639 45.7952 33.6101L46.3859 33.9991ZM26.7054 13.5329L26.7025 13.8875L26.6986 14.2422L25.1203 14.2265C24.6299 14.2217 24.159 14.1153 23.7312 13.9297L24.0133 13.2792L24.0133 13.2782C24.3138 13.4086 24.6391 13.4906 24.9778 13.5118L25.1272 13.5172L26.7054 13.5319L26.7054 13.5329ZM34.313 22.6305C34.3163 23.0331 34.4056 23.4168 34.5614 23.7645L34.2567 23.9017L33.9133 24.055C33.7189 23.6209 33.608 23.1407 33.6037 22.6374L33.589 21.0778L34.2978 21.0704L34.313 22.6305ZM22.4762 9.49471C22.4109 9.84409 22.3526 10.1879 22.319 10.5434C22.2813 10.9384 22.3366 11.3197 22.4659 11.6701L22.1338 11.7935V11.7925L21.8007 11.9159C21.6359 11.4696 21.5644 10.9812 21.6126 10.4758C21.6493 10.089 21.7117 9.72079 21.7782 9.3649L22.4762 9.49471ZM38.4085 25.2898L38.4707 25.6391L38.5319 25.9883C38.1869 26.0492 37.8316 26.1074 37.4597 26.1456L37.4572 26.1461C36.9497 26.1965 36.4567 26.1319 36.0034 25.9756L36.2346 25.3055L36.2346 25.3045C36.5487 25.4128 36.8858 25.466 37.2344 25.451L37.3872 25.4402C37.7332 25.4047 38.0682 25.3489 38.4085 25.2889L38.4085 25.2898ZM47.201 29.6552C47.2775 30.0221 47.3206 30.4013 47.3244 30.7897C47.3282 31.1757 47.2934 31.5517 47.226 31.9148L46.5294 31.7855C46.5885 31.4673 46.6185 31.1368 46.6151 30.7965C46.6118 30.455 46.5745 30.122 46.5074 29.8002L47.201 29.6552ZM18.0031 1.29589C17.6811 1.22808 17.3478 1.19099 17.0062 1.18764C16.6676 1.18434 16.3378 1.21449 16.0207 1.27483L15.8884 0.578287C16.2514 0.509226 16.6275 0.474601 17.0131 0.478361C17.402 0.48217 17.7817 0.524935 18.149 0.602289L18.0031 1.29589ZM22.7299 5.20867C22.8072 5.57758 22.8501 5.95803 22.8539 6.34557C22.8576 6.72558 22.8406 7.07545 22.8112 7.40312L22.1054 7.34091C22.1328 7.03466 22.148 6.70771 22.1446 6.35243C22.1413 6.01217 22.1037 5.67807 22.0358 5.35415L22.7299 5.20867ZM42.4712 25.7669C42.1484 25.6991 41.8156 25.6618 41.4758 25.6582C41.1296 25.6548 40.81 25.6683 40.5094 25.693L40.4805 25.3388L40.4511 24.9862C40.772 24.9598 41.1139 24.9453 41.4837 24.9489C41.8706 24.953 42.2499 24.9955 42.6176 25.0729L42.4712 25.7669ZM32.3762 14.1202L32.2346 14.4548C31.9876 14.3501 31.7171 14.291 31.4333 14.2882L29.8555 14.273L29.8624 13.5637L29.8624 13.5628L31.4401 13.5789C31.819 13.5826 32.181 13.6618 32.5114 13.8018L32.3762 14.1202ZM34.0294 15.3198C34.1694 15.6503 34.2486 16.0122 34.2523 16.3911L34.2674 17.9502L33.5582 17.958L33.543 16.3979C33.5402 16.1141 33.4811 15.8436 33.3764 15.5966L34.0294 15.3198ZM20.2406 1.4977C20.8721 1.92907 21.4175 2.47893 21.8438 3.11268L21.5538 3.30861L21.255 3.50944C20.8785 2.94968 20.3972 2.46341 19.8404 2.08305L20.0408 1.78964L20.2406 1.4977ZM44.7068 25.9599C45.3382 26.3868 45.8847 26.9333 46.3134 27.5656L45.7271 27.9638C45.3494 27.4067 44.8668 26.9253 44.31 26.5487L44.5084 26.2543L44.7068 25.9609L44.7068 25.9599Z" fill="#EAF03C"/>
<path d="M84.1545 13.2883C85.6938 13.2743 86.9288 14.5092 86.9148 16.0485L86.6537 44.6248C86.6396 46.1642 85.3794 47.4244 83.8401 47.4384L77.6099 47.4957C75.9736 47.5133 74.6432 48.9363 74.8012 50.5631C74.9206 51.8237 75.2799 52.9385 75.2641 54.6664C75.2326 57.8261 72.64 60.5013 69.4253 60.5307C66.2105 60.56 63.6639 57.9342 63.6928 54.7717C63.706 53.0413 64.0804 51.9094 64.2252 50.6596C64.4152 49.0271 63.1111 47.6282 61.4724 47.6432L55.2417 47.7L55.0987 47.698C53.6741 47.6387 52.5408 46.5053 52.4815 45.0809L52.479 44.9373L52.5364 38.7277C52.5565 37.0888 53.9794 35.7639 55.6061 35.9166C56.8797 36.0332 58.0019 36.4003 59.7374 36.3819C62.8999 36.3531 65.5468 33.7579 65.5762 30.5431C65.6056 27.3024 63.006 24.7553 59.8437 24.7842C58.0349 24.7981 56.9023 25.2668 55.6184 25.42L55.469 25.4332C53.986 25.5209 52.7529 24.3065 52.6877 22.8214L52.6853 22.672L52.7367 17.0277C52.7563 14.8874 53.9394 13.6428 55.4126 13.5543L55.5567 13.5494L84.1545 13.2883ZM85.4957 16.0353C85.5024 15.2897 84.9129 14.7 84.1673 14.7068L55.5694 14.9679C55.202 14.9713 54.8909 15.1135 54.6514 15.3911C54.4031 15.6792 54.1634 16.2001 54.1557 17.0409L54.1038 22.6847C54.0962 23.5178 54.7842 24.0873 55.4499 24.0112C56.0126 23.9441 56.4909 23.8164 57.2476 23.6605C57.9653 23.5126 58.8004 23.3741 59.8324 23.3661C63.7835 23.331 67.0316 26.5186 66.9947 30.5568C66.9581 34.5521 63.6796 37.7624 59.7531 37.7995L59.7531 37.8005C58.776 37.8109 57.9756 37.7117 57.277 37.6011C56.5444 37.4852 56.0517 37.3824 55.4763 37.3297H55.4734C54.7037 37.2576 53.9653 37.9032 53.9549 38.7454L53.8981 44.9506C53.8914 45.696 54.4833 46.2881 55.229 46.2814L61.4596 46.2246C63.9203 46.2022 65.9261 48.3117 65.634 50.8232L65.5644 51.3326C65.4848 51.8424 65.3824 52.3461 65.3078 52.7776C65.2018 53.3905 65.1171 54.0229 65.1113 54.7825L65.1118 54.7849C65.0901 57.1709 67.0085 59.1341 69.4126 59.1121C71.8359 59.0899 73.8206 57.0577 73.845 54.6532L73.8446 54.3754C73.8337 53.7401 73.7659 53.1938 73.6819 52.66C73.5914 52.0849 73.4542 51.3844 73.389 50.6968L73.3895 50.6963C73.1501 48.2077 75.164 46.1033 77.5942 46.0772L77.5967 46.0767L83.8273 46.0199C84.5931 46.0128 85.2281 45.3781 85.2351 44.6121L85.4957 16.0353Z" fill="white"/>
</g>
</svg>
