<svg width="194" height="65" viewBox="0 0 194 65" fill="none" xmlns="http://www.w3.org/2000/svg">
<path d="M95.2561 2.77998C96.1542 0.0160484 100.065 0.0160484 100.963 2.77998L106.641 20.2565C107.017 21.4151 108.054 22.2225 109.252 22.319L109.494 22.3288H127.87C130.776 22.3292 131.984 26.0484 129.633 27.7565L114.767 38.5573L114.577 38.7067C113.664 39.4894 113.301 40.752 113.677 41.9108L119.356 59.3874C120.226 62.0647 117.284 64.3053 114.962 62.8903L114.74 62.7409L99.8733 51.9401C98.8218 51.1762 97.3974 51.1762 96.346 51.9401L81.4798 62.7409C79.2022 64.3957 76.1628 62.2911 76.7913 59.6452L76.8635 59.3874L82.5423 41.9108C82.9187 40.752 82.5552 39.4894 81.6419 38.7067L81.4524 38.5573L66.5862 27.7565C64.2352 26.0484 65.4431 22.3292 68.3489 22.3288H86.7249C87.9433 22.3288 89.0322 21.5936 89.4944 20.4831L89.5784 20.2565L95.2561 2.77998ZM99.0608 3.39814C98.7615 2.47682 97.4578 2.47685 97.1585 3.39814L91.4798 20.8737C90.8104 22.9338 88.891 24.3288 86.7249 24.3288H68.3489C67.3805 24.3292 66.9784 25.5691 67.762 26.1384L82.6282 36.9392C84.3803 38.2124 85.1129 40.4691 84.4436 42.529L78.7659 60.0056C78.4667 60.9268 79.5213 61.6931 80.305 61.1237L95.1712 50.322C96.9234 49.0493 99.2959 49.0493 101.048 50.322L115.914 61.1237C116.698 61.6931 117.753 60.9268 117.453 60.0056L111.776 42.529C111.106 40.4691 111.839 38.2124 113.591 36.9392L128.457 26.1384C129.241 25.5691 128.839 24.3292 127.87 24.3288H109.494C107.328 24.3288 105.409 22.9338 104.74 20.8737L99.0608 3.39814Z" fill="white"/>
<path d="M157.824 63.0413L158.411 63.8499L157.606 64.4348L157.384 64.5833C157.183 64.7055 156.977 64.7986 156.771 64.8684L156.452 63.9231C156.638 63.8603 156.829 63.7633 157.02 63.6252L157.824 63.0413ZM181.032 63.6252C181.222 63.7633 181.413 63.8603 181.6 63.9231L181.439 64.3967L181.279 64.8674C181.073 64.7977 180.867 64.7053 180.667 64.5833L180.444 64.4348L179.639 63.8499L179.934 63.4456L180.228 63.0413L181.032 63.6252ZM154.215 63.178C154.469 63.5204 154.83 63.7826 155.234 63.9182L155.074 64.3918L155.075 64.3928L154.916 64.8645C154.318 64.6635 153.787 64.279 153.411 63.7717L154.215 63.178ZM184.64 63.7717C184.264 64.279 183.733 64.6636 183.135 64.8645L182.977 64.3928L182.817 63.9182C183.222 63.7825 183.583 63.5204 183.837 63.178L184.64 63.7717ZM161.629 61.511L160.021 62.6809L159.433 61.8723L161.042 60.7024L161.629 61.511ZM178.618 61.8723L178.324 62.2766L178.03 62.6799L176.421 61.512L177.01 60.7024L178.618 61.8723ZM153.298 60.135L154.249 60.4436L153.941 61.3899C153.869 61.6132 153.836 61.8244 153.834 62.0208L152.836 62.009C152.839 61.7093 152.887 61.3977 152.99 61.0803L153.297 60.134L153.298 60.135ZM185.062 61.0803C185.165 61.3977 185.211 61.7093 185.215 62.009L184.218 62.0208C184.216 61.8244 184.183 61.6132 184.11 61.3899L183.803 60.4436L184.754 60.135L185.062 61.0803ZM164.849 59.1731L163.238 60.342L162.651 59.5334L164.261 58.3645L164.849 59.1731ZM175.4 59.5334L174.812 60.342L173.202 59.1731L173.791 58.3645L175.4 59.5334ZM154.527 56.3508L155.479 56.6604L154.863 58.552L153.912 58.2434L154.526 56.3499L154.527 56.3508ZM184.139 58.2424L183.664 58.3977L183.663 58.3967L183.188 58.552L182.573 56.6604L183.524 56.3508L184.139 58.2424ZM168.099 56.9934C167.805 57.0888 167.522 57.2306 167.263 57.4192L166.457 58.0032L165.87 57.1956L166.675 56.6106C167.021 56.3593 167.398 56.1697 167.79 56.0422L168.099 56.9934ZM170.262 56.0422C170.654 56.1697 171.031 56.3593 171.377 56.6106L172.182 57.1956L171.594 58.0032L170.789 57.4192C170.529 57.2304 170.246 57.0889 169.952 56.9934L170.262 56.0422ZM155.757 52.5676L156.707 52.8762L156.093 54.7688L155.142 54.4592L155.756 52.5667L155.757 52.5676ZM182.909 54.4592L181.959 54.7688L181.344 52.8762L182.295 52.5676L182.909 54.4592ZM157.825 48.803C157.825 49.2155 157.762 49.6328 157.63 50.0393L157.322 50.9846L156.371 50.676L156.679 49.7297C156.778 49.4245 156.825 49.112 156.825 48.803H157.825ZM181.226 48.803C181.226 49.112 181.274 49.4245 181.373 49.7297L181.68 50.676L180.729 50.9846L180.422 50.0393C180.29 49.6328 180.226 49.2155 180.226 48.803H181.226ZM156.177 45.5667C156.522 45.8179 156.819 46.1177 157.062 46.4514L156.253 47.0393C156.117 46.8525 155.958 46.6797 155.778 46.5256L155.589 46.3762L154.783 45.7913L155.372 44.9817L156.177 45.5667ZM183.268 45.7913L182.463 46.3762L182.273 46.5256C182.094 46.6798 181.935 46.8523 181.799 47.0393L180.99 46.4514C181.233 46.1177 181.529 45.8179 181.875 45.5667L182.68 44.9817L183.268 45.7913ZM153.763 43.8127L153.175 44.6213L151.564 43.4524L152.153 42.6438L153.763 43.8127ZM186.486 43.4524L184.876 44.6213L184.289 43.8127L185.898 42.6438L186.486 43.4524ZM150.544 41.4749L149.956 42.2825L148.347 41.1135L148.935 40.3049L150.544 41.4749ZM189.704 41.1145L188.095 42.2825L187.508 41.4749L189.117 40.3049L189.704 41.1145ZM146.063 38.1038C146.181 38.2614 146.33 38.4139 146.521 38.552L147.325 39.136L146.737 39.9446L145.934 39.3606C145.663 39.1643 145.442 38.9401 145.263 38.6995L146.063 38.1038ZM192.788 38.6995C192.609 38.94 192.388 39.1644 192.118 39.3606L191.312 39.9446L190.726 39.136L191.53 38.552C191.72 38.4139 191.871 38.2614 191.988 38.1038L192.788 38.6995ZM146.08 35.7454C145.833 36.0928 145.695 36.5181 145.69 36.9446L144.691 36.9348C144.698 36.3035 144.9 35.6795 145.267 35.1653L146.08 35.7454ZM192.784 35.1663C193.15 35.6804 193.353 36.3036 193.359 36.9348L192.36 36.9446C192.356 36.5181 192.218 36.0928 191.971 35.7454L192.784 35.1663ZM148.691 33.9338V34.9338H147.696C147.461 34.9339 147.251 34.968 147.063 35.0266L146.765 34.0735C146.973 34.0083 147.195 33.9636 147.429 33.9446L147.696 33.9338H148.691ZM190.355 33.9338C190.689 33.9339 190.999 33.9842 191.285 34.0735L191.153 34.5002L190.988 35.0266C190.801 34.968 190.59 34.9339 190.355 34.9338H189.36V33.9338H190.355ZM152.669 33.9338V34.9338H150.681V33.9338H152.669ZM156.647 33.9338V34.9338H154.658V33.9338H156.647ZM160.559 33.7874L160.867 34.7375C160.475 34.8651 160.058 34.9338 159.631 34.9338H158.637V33.9338H159.631L159.873 33.9241C160.109 33.9051 160.338 33.8577 160.558 33.7864L160.559 33.7874ZM177.493 33.7864C177.713 33.8578 177.943 33.9051 178.179 33.9241L178.42 33.9338H179.415V34.9338H178.42C177.992 34.9338 177.576 34.8651 177.184 34.7375L177.493 33.7864ZM183.393 33.9338V34.9338H181.404V33.9338H183.393ZM187.371 33.9338V34.9338H185.382V33.9338H187.371ZM162.792 30.9143L163.743 31.2239L163.436 32.1692C163.303 32.5758 163.11 32.9516 162.867 33.2854L162.059 32.6975L162.058 32.6965C162.239 32.4465 162.385 32.166 162.484 31.8606L162.791 30.9133L162.792 30.9143ZM175.567 31.8606C175.667 32.1659 175.811 32.4475 175.992 32.6975L175.589 32.9915L175.588 32.9905L175.184 33.2854C174.941 32.9516 174.748 32.5758 174.616 32.1692L174.309 31.2239L175.26 30.9143L175.567 31.8606ZM164.021 27.1311L164.497 27.2854L164.973 27.4407L164.357 29.3323L163.406 29.0227L164.021 27.1301L164.021 27.1311ZM174.645 29.0217L173.694 29.3323L173.079 27.4407L173.555 27.2854L174.03 27.1311L174.645 29.0217ZM165.251 23.3479L166.201 23.6565L165.587 25.5481L164.636 25.2395L165.25 23.3469L165.251 23.3479ZM173.415 25.2395L172.465 25.5481L171.85 23.6565L172.801 23.3479L173.415 25.2395ZM167.408 20.2454C167.295 20.4055 167.197 20.5954 167.124 20.8186L166.816 21.7649L166.341 21.6096L165.865 21.4553L166.173 20.51C166.276 20.1928 166.419 19.9126 166.593 19.6682L167.408 20.2454ZM171.457 19.6672C171.631 19.912 171.776 20.1922 171.879 20.51L172.186 21.4553L171.711 21.6106L171.71 21.6096L171.235 21.7649L170.928 20.8186C170.855 20.5953 170.757 20.4055 170.644 20.2454L171.457 19.6672ZM168.096 18.5793C168.698 18.3901 169.353 18.3903 169.955 18.5793L169.656 19.5325C169.249 19.4046 168.802 19.4046 168.396 19.5325L168.229 19.0042L168.096 18.5793Z" fill="#E9F03C"/>
<path d="M13.7715 63.0413L14.3584 63.8499L13.5537 64.4348L13.3311 64.5833C13.1305 64.7055 12.9247 64.7986 12.7178 64.8684L12.3994 63.9231C12.5856 63.8603 12.7767 63.7633 12.9668 63.6252L13.7715 63.0413ZM36.9795 63.6252C37.1695 63.7633 37.3607 63.8603 37.5469 63.9231L37.3867 64.3967L37.2266 64.8674C37.02 64.7977 36.8144 64.7053 36.6143 64.5833L36.3916 64.4348L35.5859 63.8499L35.8809 63.4456L36.1748 63.0413L36.9795 63.6252ZM10.1621 63.178C10.4161 63.5204 10.7774 63.7826 11.1816 63.9182L11.0215 64.3918L11.0225 64.3928L10.8633 64.8645C10.2649 64.6635 9.73416 64.279 9.3584 63.7717L10.1621 63.178ZM40.5869 63.7717C40.211 64.279 39.6806 64.6636 39.082 64.8645L38.9238 64.3928L38.7646 63.9182C39.1688 63.7825 39.5302 63.5204 39.7842 63.178L40.5869 63.7717ZM17.5762 61.511L15.9678 62.6809L15.3799 61.8723L16.9893 60.7024L17.5762 61.511ZM34.5654 61.8723L34.2715 62.2766L33.9775 62.6799L32.3682 61.512L32.957 60.7024L34.5654 61.8723ZM9.24512 60.135L10.1963 60.4436L9.88867 61.3899C9.81613 61.6132 9.78345 61.8244 9.78125 62.0208L8.7832 62.009C8.78659 61.7093 8.83437 61.3977 8.9375 61.0803L9.24414 60.134L9.24512 60.135ZM41.0088 61.0803C41.1119 61.3977 41.1587 61.7093 41.1621 62.009L40.165 62.0208C40.1628 61.8244 40.1301 61.6132 40.0576 61.3899L39.75 60.4436L40.7012 60.135L41.0088 61.0803ZM20.7959 59.1731L19.1855 60.342L18.5986 59.5334L20.208 58.3645L20.7959 59.1731ZM31.3477 59.5334L30.7598 60.342L29.1494 59.1731L29.7383 58.3645L31.3477 59.5334ZM10.4746 56.3508L11.4258 56.6604L10.8105 58.552L9.85938 58.2434L10.4736 56.3499L10.4746 56.3508ZM40.0859 58.2424L39.6113 58.3977L39.6104 58.3967L39.1357 58.552L38.5205 56.6604L39.4717 56.3508L40.0859 58.2424ZM24.0459 56.9934C23.7521 57.0888 23.4696 57.2306 23.21 57.4192L22.4043 58.0032L21.8174 57.1956L22.6221 56.6106C22.9679 56.3593 23.3449 56.1697 23.7373 56.0422L24.0459 56.9934ZM26.209 56.0422C26.6014 56.1697 26.9784 56.3593 27.3242 56.6106L28.1289 57.1956L27.541 58.0032L26.7363 57.4192C26.4764 57.2304 26.1935 57.0889 25.8994 56.9934L26.209 56.0422ZM11.7041 52.5676L12.6543 52.8762L12.04 54.7688L11.0889 54.4592L11.7031 52.5667L11.7041 52.5676ZM38.8564 54.4592L37.9062 54.7688L37.291 52.8762L38.2422 52.5676L38.8564 54.4592ZM13.7725 48.803C13.7725 49.2155 13.7092 49.6328 13.5771 50.0393L13.2695 50.9846L12.3184 50.676L12.626 49.7297C12.7251 49.4245 12.7725 49.112 12.7725 48.803H13.7725ZM37.1729 48.803C37.1728 49.112 37.2211 49.4245 37.3203 49.7297L37.627 50.676L36.6768 50.9846L36.3691 50.0393C36.2371 49.6328 36.1728 49.2155 36.1729 48.803H37.1729ZM12.124 45.5667C12.4697 45.8179 12.7664 46.1177 13.0088 46.4514L12.2002 47.0393C12.0645 46.8525 11.9054 46.6797 11.7256 46.5256L11.5361 46.3762L10.7305 45.7913L11.3193 44.9817L12.124 45.5667ZM39.2148 45.7913L38.4102 46.3762L38.2207 46.5256C38.0408 46.6798 37.8819 46.8523 37.7461 47.0393L36.9375 46.4514C37.1799 46.1177 37.4765 45.8179 37.8223 45.5667L38.627 44.9817L39.2148 45.7913ZM9.70996 43.8127L9.12207 44.6213L7.51172 43.4524L8.10059 42.6438L9.70996 43.8127ZM42.4336 43.4524L40.8232 44.6213L40.2363 43.8127L41.8457 42.6438L42.4336 43.4524ZM6.49121 41.4749L5.90332 42.2825L4.29395 41.1135L4.88184 40.3049L6.49121 41.4749ZM45.6514 41.1145L44.042 42.2825L43.4551 41.4749L45.0645 40.3049L45.6514 41.1145ZM2.01074 38.1038C2.12797 38.2614 2.27776 38.4139 2.46777 38.552L3.27246 39.136L2.68457 39.9446L1.88086 39.3606C1.6107 39.1643 1.38895 38.9401 1.20996 38.6995L2.01074 38.1038ZM48.7354 38.6995C48.5564 38.94 48.3355 39.1644 48.0654 39.3606L47.2598 39.9446L46.6729 39.136L47.4775 38.552C47.6676 38.4139 47.8183 38.2614 47.9355 38.1038L48.7354 38.6995ZM2.02734 35.7454C1.77994 36.0928 1.64181 36.5181 1.6377 36.9446L0.638672 36.9348C0.644793 36.3035 0.847527 35.6795 1.21387 35.1653L2.02734 35.7454ZM48.7314 35.1663C49.0976 35.6804 49.3005 36.3036 49.3066 36.9348L48.3076 36.9446C48.3035 36.5181 48.1654 36.0928 47.918 35.7454L48.7314 35.1663ZM4.63867 33.9338V34.9338H3.64355C3.40876 34.9339 3.19817 34.968 3.01074 35.0266L2.71191 34.0735C2.92036 34.0083 3.14185 33.9636 3.37598 33.9446L3.64355 33.9338H4.63867ZM46.3027 33.9338C46.6361 33.9339 46.9466 33.9842 47.2324 34.0735L47.1006 34.5002L46.9355 35.0266C46.7481 34.968 46.5375 34.9339 46.3027 34.9338H45.3076V33.9338H46.3027ZM8.61621 33.9338V34.9338H6.62793V33.9338H8.61621ZM12.5947 33.9338V34.9338H10.6055V33.9338H12.5947ZM16.5059 33.7874L16.8145 34.7375C16.4221 34.8651 16.0055 34.9338 15.5781 34.9338H14.584V33.9338H15.5781L15.8203 33.9241C16.0562 33.9051 16.2854 33.8577 16.5049 33.7864L16.5059 33.7874ZM33.4404 33.7864C33.6602 33.8578 33.8898 33.9051 34.126 33.9241L34.3672 33.9338H35.3623V34.9338H34.3672C33.9398 34.9338 33.5232 34.8651 33.1309 34.7375L33.4404 33.7864ZM39.3398 33.9338V34.9338H37.3516V33.9338H39.3398ZM43.3184 33.9338V34.9338H41.3291V33.9338H43.3184ZM18.7393 30.9143L19.6904 31.2239L19.3828 32.1692C19.2507 32.5758 19.057 32.9516 18.8145 33.2854L18.0059 32.6975L18.0049 32.6965C18.1866 32.4465 18.3324 32.166 18.4316 31.8606L18.7383 30.9133L18.7393 30.9143ZM31.5146 31.8606C31.6139 32.1659 31.7578 32.4475 31.9395 32.6975L31.5361 32.9915L31.5352 32.9905L31.1309 33.2854C30.8883 32.9516 30.6956 32.5758 30.5635 32.1692L30.2559 31.2239L31.207 30.9143L31.5146 31.8606ZM19.9688 27.1311L20.4443 27.2854L20.9199 27.4407L20.3047 29.3323L19.3535 29.0227L19.9678 27.1301L19.9688 27.1311ZM30.5918 29.0217L29.6416 29.3323L29.0264 27.4407L29.502 27.2854L29.9775 27.1311L30.5918 29.0217ZM21.1982 23.3479L22.1484 23.6565L21.5342 25.5481L20.583 25.2395L21.1973 23.3469L21.1982 23.3479ZM29.3623 25.2395L28.4121 25.5481L27.7969 23.6565L28.748 23.3479L29.3623 25.2395ZM23.3555 20.2454C23.2419 20.4055 23.1439 20.5954 23.0713 20.8186L22.7637 21.7649L22.2881 21.6096L21.8125 21.4553L22.1201 20.51C22.2232 20.1928 22.3667 19.9126 22.54 19.6682L23.3555 20.2454ZM27.4043 19.6672C27.5781 19.912 27.7229 20.1922 27.8262 20.51L28.1328 21.4553L27.6582 21.6106L27.6572 21.6096L27.1826 21.7649L26.875 20.8186C26.8024 20.5953 26.7044 20.4055 26.5908 20.2454L27.4043 19.6672ZM24.043 18.5793C24.6449 18.3901 25.3004 18.3903 25.9023 18.5793L25.6035 19.5325C25.1966 19.4046 24.7497 19.4046 24.3428 19.5325L24.1758 19.0042L24.043 18.5793Z" fill="#E9F03C"/>
</svg>
