<svg width="70" height="70" viewBox="0 0 70 70" fill="none" xmlns="http://www.w3.org/2000/svg">
<path d="M5.23438 64.1875C5.3731 64.245 5.52571 64.2773 5.68848 64.2773V65.2773C5.39155 65.2773 5.10881 65.2175 4.85059 65.1104L5.23438 64.1875ZM6.63574 64.2773V65.2773H5.68848V64.2773H6.63574ZM10.4229 64.2773V65.2773H8.5293V64.2773H10.4229ZM13.2627 64.2773V65.2773H12.3164V64.2773H13.2627ZM14.125 64.2363L14.2207 65.2305C13.9055 65.2611 13.5858 65.2773 13.2627 65.2773V64.2773C13.5537 64.2773 13.8416 64.2639 14.125 64.2363ZM17.873 64.126C17.3124 64.4249 16.72 64.6715 16.1016 64.8584L15.958 64.3809L15.8135 63.9023C16.3681 63.7347 16.9001 63.5134 17.4033 63.2451L17.873 64.126ZM3.5 63.0898V62.1436H4.5V63.0898C4.5 63.2524 4.53235 63.4054 4.58984 63.5439L4.12695 63.7354L4.12793 63.7363L3.87793 63.8398L3.66602 63.9268C3.55914 63.669 3.5 63.3861 3.5 63.0898ZM20.8291 61.7139C20.4208 62.2069 19.965 62.6592 19.4688 63.0645L19.4551 63.0479L19.1533 62.6787L18.8369 62.291C19.2829 61.9268 19.6928 61.5201 20.0596 61.0771L20.8291 61.7139ZM4.5 58.3584V60.251H3.5V58.3584H4.5ZM22.1641 58.2119L22.6406 58.3574C22.4516 58.9748 22.2026 59.566 21.9004 60.125L21.4629 59.8887L21.0225 59.6504C21.2936 59.1489 21.5171 58.6186 21.6865 58.0654L22.1641 58.2119ZM23.0654 55.5195C23.0654 55.8427 23.0486 56.1623 23.0176 56.4775L22.0234 56.3809C22.0513 56.0979 22.0654 55.8102 22.0654 55.5195C22.0654 55.2285 22.0513 54.9406 22.0234 54.6572L23.0176 54.5596C23.0486 54.8755 23.0654 55.1956 23.0654 55.5195ZM3.5 55.5195C3.50001 55.1963 3.51617 54.8768 3.54688 54.5615L4.54199 54.6582C4.51442 54.9413 4.50001 55.2288 4.5 55.5195V56.4658H3.5V55.5195ZM5.09277 51.1475L5.5332 51.3828C5.26452 51.8854 5.0438 52.4174 4.87598 52.9717L3.91895 52.6816C4.10605 52.0638 4.35305 51.4719 4.65234 50.9121L5.09277 51.1475ZM21.9023 50.9062C22.2042 51.4665 22.4517 52.0593 22.6406 52.6777L21.6865 52.9697C21.5172 52.4154 21.2943 51.8837 21.0234 51.3809L21.9023 50.9062ZM7.7041 48.7324C7.26068 49.0983 6.85376 49.5072 6.48926 49.9521L5.71484 49.3184C6.12052 48.8231 6.57377 48.3682 7.06738 47.9609L7.7041 48.7324ZM19.4727 47.958C19.9683 48.3646 20.4232 48.819 20.8311 49.3135L20.0605 49.9502C19.6938 49.5056 19.2846 49.0971 18.8389 48.7314L19.4727 47.958ZM10.7178 47.1113C10.1644 47.2801 9.63353 47.5023 9.13184 47.7725L8.65723 46.8926C9.21647 46.5914 9.80823 46.3436 10.4258 46.1553L10.7178 47.1113ZM16.1045 46.1553C16.7231 46.3433 17.3161 46.591 17.877 46.8916L17.4053 47.7725C16.9016 47.5025 16.3693 47.28 15.8145 47.1113L16.1045 46.1553ZM13.7656 45.7461C13.9186 45.7539 14.0706 45.7655 14.2217 45.7803L14.125 46.7754C13.8415 46.7476 13.5537 46.7334 13.2627 46.7334C12.9722 46.7334 12.6852 46.7477 12.4023 46.7754L12.3047 45.7803C12.6199 45.7494 12.9395 45.7334 13.2627 45.7334L13.7656 45.7461ZM47.6709 25.8125C48.05 25.8898 48.4417 25.9309 48.8418 25.9346H48.8604C49.2472 25.9454 49.635 25.9124 50.0176 25.8369L50.21 26.8164C49.7574 26.9056 49.2963 26.9475 48.833 26.9346C48.37 26.9303 47.9147 26.8813 47.4717 26.791L47.6709 25.8125ZM54.4131 24.1738C54.2303 24.4126 54.0315 24.6435 53.8135 24.8613L53.5576 25.1055C53.3016 25.3381 53.03 25.5506 52.7471 25.7432L52.4668 25.3311L52.1855 24.917C52.5127 24.6943 52.8223 24.4393 53.1074 24.1543C53.294 23.9678 53.4651 23.7712 53.6211 23.5674L54.4131 24.1738ZM43.877 23.2412C44.0385 23.4787 44.219 23.7053 44.417 23.9199L44.6201 24.1309L44.6279 24.1377L44.6357 24.1455C44.916 24.4329 45.2159 24.6863 45.5322 24.9043L45.248 25.3145L45.249 25.3154L44.9648 25.7266C44.5946 25.4714 44.2448 25.1769 43.9199 24.8438C43.593 24.5227 43.3023 24.1741 43.0498 23.8027L43.877 23.2412ZM55.7773 20.8369C55.7012 21.4381 55.5485 22.03 55.3174 22.5967L54.3926 22.2197C54.5902 21.7353 54.7217 21.2279 54.7871 20.7119L55.7773 20.8369ZM41.9971 18.5928L42.9785 18.7881C42.9022 19.1719 42.8623 19.5664 42.8623 19.9678C42.8665 20.3601 42.9076 20.7445 42.9834 21.1172L42.0039 21.3154C41.9148 20.8771 41.8666 20.4262 41.8623 19.9678C41.8623 19.6162 41.8886 19.2686 41.9395 18.9268L41.9971 18.5928ZM55.3076 17.2607C55.5396 17.8283 55.6946 18.4195 55.7734 19.0186L54.7832 19.1494C54.7155 18.6344 54.5819 18.1259 54.3828 17.6387L54.8457 17.4492L55.3076 17.2607ZM45.5449 14.9648C45.2263 15.1762 44.923 15.4215 44.6396 15.7012L44.6387 15.7002C44.3545 15.9848 44.1037 16.2914 43.8857 16.6143L43.0566 16.0547C43.3118 15.6766 43.6066 15.32 43.9375 14.9893C44.2667 14.6644 44.6202 14.3786 44.9922 14.1318L45.5449 14.9648ZM52.7432 14.1318C53.1211 14.3786 53.4801 14.6643 53.8135 14.9893C54.029 15.2092 54.2262 15.441 54.4072 15.6807L54.0127 15.9795L53.6113 16.2822C53.4559 16.0766 53.2851 15.8788 53.0996 15.6895C52.818 15.4171 52.5152 15.1765 52.1973 14.9688L52.4727 14.5479L52.7432 14.1318ZM48.8496 12.9727C49.3054 12.9727 49.7628 13.0173 50.2139 13.1055L50.0225 14.0869C49.6342 14.011 49.2409 13.9727 48.8496 13.9727C48.4591 13.9727 48.0702 14.0102 47.6885 14.085L47.4961 13.1035C47.9415 13.0162 48.3949 12.9727 48.8496 12.9727Z" fill="#E9F03C"/>
<path d="M22.6865 21.6514C31.2763 7.57849 46.51 -2.29657 67.0342 2.02539V2.02637C67.4983 2.12916 67.8567 2.48753 67.9639 2.94922H67.9648C72.3053 23.4554 62.4437 38.6519 48.3828 47.2617L47.8643 47.5791L47.9082 48.1865C48.3516 54.3417 47.0515 59.0852 44.2021 62.4736C41.0301 66.2363 35.7711 68.4941 28.3633 69H28.2559C27.85 68.9999 27.4788 68.7996 27.2607 68.4697L27.1777 68.3213C26.9677 67.8722 27.0542 67.3377 27.3887 66.9883L27.3896 66.9873C29.5726 64.7002 31.0304 62.543 31.7031 60.3262C32.3849 58.079 32.2328 55.8623 31.3652 53.5254L31.2891 53.3203L31.1348 53.166L16.8916 38.9307L16.7402 38.7793L16.541 38.7031L16.1025 38.5449C13.92 37.7944 11.836 37.6919 9.7207 38.333C7.49789 39.0068 5.33054 40.4743 3.02246 42.6699C2.78959 42.8848 2.49522 42.996 2.19336 42.9961C2.00128 42.9961 1.84524 42.9631 1.69238 42.8896L1.68262 42.8848L1.52637 42.7969C1.18067 42.5653 0.97535 42.1609 1.00293 41.7227L1.00195 41.7217C1.50517 34.2976 3.76468 29.0342 7.52051 25.8613C10.9139 23.0155 15.6358 21.7015 21.7637 22.1279L22.3701 22.1699L22.6865 21.6514Z" stroke="white" stroke-width="2"/>
</svg>
