<?xml version="1.0" ?><svg xmlns="http://www.w3.org/2000/svg" xmlns:xlink="http://www.w3.org/1999/xlink" version="1.1" viewBox="0 0 64 64" style="enable-background:new 0 0 64 64;" xml:space="preserve"><g id="coral_reef"/><g id="green_algae"/><g id="shark_warning"/><g id="squid"/><g id="dolpine"/><g id="fish"/><g id="turtle"/><g id="anchor"><g><path d="M56.6,37.6c-1.5-6-7.3-10.1-13.6-9.6c-0.3,0-0.5,0.1-0.7,0.4c0,0-0.1,0.1-0.1,0.1C42.1,28.6,42,28.8,42,29v9    c0,0.6,0.4,1,1,1c1.9,0,3.8-0.9,4.9-2.4c0.7,1,1.1,2.2,1.1,3.4c0,1.7-0.7,3.4-2,4.5c-1.3,1.2-3,1.7-4.8,1.4c-3-0.4-5.2-2.9-5.2-6    L36.1,20c3.4-1.7,5.3-5.4,4.8-9.2c-0.5-4-3.8-7.3-7.9-7.7c-2.6-0.3-5.1,0.5-7,2.2C24.1,7,23,9.4,23,12c0,3.4,1.9,6.5,4.9,8L27,40    c0,3-2.2,5.5-5.2,5.9c-1.8,0.2-3.5-0.3-4.8-1.4C15.7,43.4,15,41.7,15,40c0-1.2,0.4-2.4,1.1-3.4c1.2,1.5,3,2.4,4.9,2.4    c0.6,0,1-0.4,1-1v-9c0-0.2-0.1-0.4-0.2-0.6c0,0,0-0.1-0.1-0.1c-0.2-0.2-0.4-0.3-0.7-0.4C14.7,27.5,9,31.6,7.4,37.6    c-1.1,4.2-0.1,8.4,2.6,11.7c2.7,3.2,6.6,4.9,10.8,4.7c0,0,0.1,0,0.1,0c4.4-0.3,8.4,2.1,10,6.1l0.1,0.3c0.2,0.4,0.5,0.6,0.9,0.6    s0.8-0.3,0.9-0.6l0.1-0.3c1.6-3.9,5.6-6.4,10.1-6c4.2,0.3,8.2-1.4,10.9-4.7C56.7,46.1,57.6,41.8,56.6,37.6z M52.5,48    c-2.3,2.7-5.6,4.2-9.3,3.9c-4.6-0.3-8.9,1.9-11.2,5.7c-2.1-3.5-6-5.7-10.3-5.7c-0.3,0-0.6,0-0.9,0c-3.6,0.2-6.9-1.2-9.2-3.9    c-2.3-2.7-3.1-6.4-2.2-9.9C10.6,33.3,15,30,20,30v6.9c-1.1-0.3-2.1-1-2.7-2L17,34.4c-0.2-0.3-0.4-0.4-0.7-0.5    c-0.3,0-0.6,0.1-0.8,0.3C13.9,35.7,13,37.8,13,40c0,2.3,1,4.5,2.7,6c1.7,1.5,4.1,2.2,6.4,1.9c4-0.5,6.9-3.9,6.9-7.9l0.9-20.6    c0-0.4-0.2-0.8-0.6-1C26.7,17.4,25,14.8,25,12c0-2,0.9-3.9,2.3-5.2c1.5-1.3,3.4-2,5.5-1.7c3.1,0.4,5.7,2.9,6.1,6    c0.4,3.2-1.3,6.2-4.3,7.4c-0.4,0.2-0.6,0.5-0.6,1L35,40c0,4.1,2.9,7.4,6.9,7.9c2.3,0.3,4.6-0.4,6.4-1.9s2.7-3.7,2.7-6    c0-2.2-0.9-4.3-2.5-5.8C48.3,34,48,33.9,47.7,34c-0.3,0-0.6,0.2-0.7,0.5l-0.3,0.5c-0.6,1-1.6,1.7-2.7,2V30c5,0,9.4,3.3,10.6,8.1    C55.5,41.7,54.7,45.3,52.5,48z"/><path d="M37,12c0-2.8-2.2-5-5-5s-5,2.2-5,5s2.2,5,5,5S37,14.8,37,12z M32,15c-1.7,0-3-1.3-3-3s1.3-3,3-3s3,1.3,3,3S33.7,15,32,15z    "/></g></g><g id="buoy"/><g id="compass"/><g id="lifebuoy"/><g id="lifejacket"/><g id="license"/><g id="pressure"/><g id="gloves"/><g id="oxygen"/><g id="neoprene_clothes"/><g id="fins"/><g id="goggles"/><g id="ocean"/></svg>