<?xml version="1.0" ?><svg xmlns="http://www.w3.org/2000/svg" xmlns:xlink="http://www.w3.org/1999/xlink" version="1.1" viewBox="0 0 64 64" style="enable-background:new 0 0 64 64;" xml:space="preserve"><g id="coral_reef"/><g id="green_algae"/><g id="shark_warning"/><g id="squid"/><g id="dolpine"/><g id="fish"><g><path d="M55.9,32c2.1-1.2,3.6-3.2,4-5.8l1.1-7.1c0-0.3,0-0.6-0.2-0.8C60.6,18.1,60.3,18,60,18c-5.9,0-11.2,2.9-14.4,7.8    c-3.6-2.5-8.3-5.2-13.2-7l4.5-6.2c0.2-0.3,0.2-0.7,0.1-1.1c-0.2-0.3-0.5-0.5-0.9-0.5l-9.6,0.6c-3.6,0.2-6.9,2.6-8.2,6c0,0,0,0,0,0    c-10.3,2.8-14.9,13.8-15,14c-0.1,0.2-0.1,0.5,0,0.8c0.1,0.1,5,11.9,16.1,14.2c0.5,1.3,3.1,6.4,9.8,6.4c0.4,0,0.8-0.3,0.9-0.7    s-0.1-0.9-0.5-1.1c0,0-1.4-0.9-1.5-4.7c6.4-1.4,12.9-5.1,17.6-8.2C48.8,43.1,54.1,46,60,46c0.3,0,0.6-0.1,0.8-0.3    c0.2-0.2,0.3-0.5,0.2-0.8l-1.1-7.1C59.5,35.2,58,33.2,55.9,32z M58.8,20l-0.9,5.9c-0.4,2.8-2.8,4.9-5.6,5.1    c-0.7-0.6-2.6-2.2-5.1-4C49.8,22.9,54.1,20.4,58.8,20z M23,45c-1.3,0-2.6-0.2-3.7-0.4c3.6-8.4,3.6-16.8,0-25.2    c1.2-0.3,2.4-0.4,3.7-0.4c11,0,24,10.1,27.5,13C47,34.9,34,45,23,45z M26.4,13.6l7.5-0.5l-3.6,5C27.9,17.4,25.4,17,23,17    c-0.8,0-1.6,0.1-2.4,0.2C21.8,15.1,24,13.8,26.4,13.6z M5.1,32c0.8-1.8,4.7-9.3,12.2-12c3.5,8,3.5,16,0,24    C9.8,41.3,5.9,33.8,5.1,32z M26.8,50.8c-2.9-0.7-4.5-2.5-5.3-3.8C22,47,22.5,47,23,47c1,0,2-0.1,3-0.2    C26.1,48.6,26.4,49.9,26.8,50.8z M47.2,37c2.6-1.8,4.4-3.4,5.1-4c2.8,0.2,5.1,2.2,5.6,5.1l0.9,5.9C54.1,43.6,49.8,41.1,47.2,37z"/><path d="M13,25c-1.7,0-3,1.3-3,3s1.3,3,3,3s3-1.3,3-3S14.7,25,13,25z M13,29c-0.6,0-1-0.4-1-1s0.4-1,1-1s1,0.4,1,1S13.6,29,13,29z    "/></g></g><g id="turtle"/><g id="anchor"/><g id="buoy"/><g id="compass"/><g id="lifebuoy"/><g id="lifejacket"/><g id="license"/><g id="pressure"/><g id="gloves"/><g id="oxygen"/><g id="neoprene_clothes"/><g id="fins"/><g id="goggles"/><g id="ocean"/></svg>