<svg width="120" height="96" viewBox="0 0 120 96" fill="none" xmlns="http://www.w3.org/2000/svg">
<path d="M49.6993 12.0756H30.9331V16.6714H49.6993V12.0756Z" fill="black"/>
<path d="M42.2541 15.366H37.6583V30.6853H42.2541V15.366Z" fill="black"/>
<path d="M119.455 21.469H100.689V26.0648H119.455V21.469Z" fill="black"/>
<path d="M112.01 24.7584H107.414V40.0778H112.01V24.7584Z" fill="black"/>
<path d="M15.3734 31.6273H20.9573C21.1282 32.0747 21.3994 32.4769 21.7501 32.8031C22.5722 33.5691 23.7212 33.9521 25.1969 33.9521C25.9979 34.0045 26.7984 33.8446 27.5178 33.4886C27.7403 33.3808 27.9292 33.2144 28.0642 33.0072C28.1992 32.8 28.2751 32.56 28.2838 32.3129C28.2844 32.1138 28.2287 31.9186 28.1229 31.7499C27.9869 31.551 27.8058 31.3869 27.5944 31.2712C27.3632 31.1276 27.1227 30.9997 26.8744 30.8882C26.5434 30.7569 26.2044 30.6469 25.8595 30.5588C25.4178 30.4388 25.0501 30.3431 24.7565 30.2716C24.4616 30.1988 24.0365 30.0992 23.4773 29.9728C22.9182 29.8465 22.493 29.7431 22.202 29.6703C20.6014 29.3159 19.0874 28.6468 17.7479 27.7018C16.6423 26.8643 16.0883 25.6617 16.0857 24.094C16.0857 22.437 16.8517 21.02 18.3836 19.8429C19.9156 18.6659 21.9875 18.0774 24.5995 18.0774C27.9186 18.0774 30.4068 19.0808 32.0638 21.0876C32.7871 21.9616 33.2994 22.9903 33.5613 24.094H28.0119C27.8796 23.7809 27.6794 23.5009 27.4259 23.2745C26.7978 22.7255 25.8672 22.4523 24.634 22.4549C23.907 22.4028 23.1787 22.5345 22.516 22.8379C22.326 22.9236 22.1629 23.0594 22.0441 23.2308C21.9254 23.4022 21.8555 23.6026 21.842 23.8106C21.842 24.32 22.1675 24.726 22.8262 25.0247C23.7586 25.4122 24.7291 25.701 25.7216 25.8864C26.4646 26.0511 27.0008 26.1736 27.3225 26.2694C27.6442 26.3651 28.1651 26.4992 28.8812 26.7098C29.4385 26.8615 29.9828 27.0574 30.5089 27.2958C30.8919 27.4796 31.3285 27.7286 31.8494 28.0618C32.3008 28.3243 32.6995 28.6684 33.0251 29.0767C33.3143 29.4777 33.5512 29.914 33.7298 30.375C33.9374 30.9057 34.0414 31.4712 34.0362 32.041C34.0362 33.7899 33.2626 35.2759 31.7153 36.4989C30.1681 37.7219 27.9978 38.3321 25.2046 38.3296C21.7194 38.3296 19.0386 37.2176 17.1619 34.9938C16.3452 34.0043 15.7357 32.8608 15.3695 31.6312" fill="black"/>
<path d="M50.6683 36.4925V17.3433H60.9514C63.4025 17.3433 65.3863 17.9816 66.903 19.2582C67.6209 19.8277 68.1994 20.5536 68.5943 21.3806C68.9892 22.2076 69.1901 23.1138 69.1817 24.0302C69.1817 26.494 67.8093 28.4089 65.0646 29.7749L69.3272 36.4733H63.4484L59.7756 30.7285H56.1028V36.4733L50.6683 36.4925ZM56.1028 26.1059H60.8058C61.5298 26.1409 62.2442 25.9289 62.8318 25.5046C63.068 25.3437 63.2613 25.1276 63.3949 24.8749C63.5284 24.6223 63.5983 24.3408 63.5983 24.0551C63.5983 23.7693 63.5284 23.4878 63.3949 23.2352C63.2613 22.9825 63.068 22.7664 62.8318 22.6055C62.245 22.1796 61.53 21.9674 60.8058 22.0042H56.1028V26.1059Z" fill="black"/>
<path d="M77.707 21.469H72.2686V40.6067H77.707V21.469Z" fill="black"/>
<path d="M81.5253 36.4924V17.3547H86.9598V24.4628H89.3113L94.3054 17.3547H100.479L94.0144 26.3778L100.92 36.4924H94.7497L89.6062 29.1123H86.9598V36.4924H81.5253Z" fill="black"/>
<path fill-rule="evenodd" clip-rule="evenodd" d="M0 0H86.9646V86.9646H0V0ZM5.44745 5.44745V81.5172H81.5172V5.44745H5.44745Z" fill="black"/>
<path d="M37.5 87.0004L29.7452 96.0003L56.5 87.0004H37.5Z" fill="#2F00C0"/>
<path d="M29.654 95.5496L18.0678 67.1094L12.2704 52.8824L33.4084 42.8078L29.654 95.5496Z" fill="#DF0034"/>
<path d="M17.4681 63.4538C18.2537 61.8755 19.1393 59.8589 20.6018 58.7751C20.758 58.6476 20.9437 58.5614 21.1419 58.5244C20.7438 58.6033 21.3804 58.6103 21.0244 58.5244C21.1001 58.5561 21.1705 58.5992 21.2331 58.6524C21.0472 58.4034 21.1822 58.6243 21.2559 58.6997C21.3295 58.7751 21.4137 58.8751 21.4856 58.9575C21.2892 58.712 21.5698 59.1031 21.5803 59.1224C22.7236 61.0741 23.1165 63.5362 24.7228 65.3231C25.54 66.2315 26.7412 66.691 27.9477 66.3981C29.0489 66.1298 29.8766 65.2898 30.5483 64.4253C31.9073 62.6717 32.7438 60.2166 34.3606 58.9347C34.0099 59.2065 34.8096 58.5331 34.4413 58.8751C34.5588 58.7646 34.7394 58.8997 34.5816 58.8155C34.4238 58.7313 34.6587 58.8015 34.7342 58.8155C34.3834 58.7103 34.643 58.8067 34.6938 58.8278C34.3431 58.6787 34.7254 58.84 34.7833 58.8856C34.8411 58.9312 34.9972 59.0715 34.7833 58.8856C34.8901 58.9828 34.9913 59.0858 35.0866 59.1943C35.203 59.3321 35.3069 59.48 35.397 59.6362C35.5513 59.8782 35.6916 60.1272 35.8284 60.3797C36.116 60.9058 36.3773 61.4529 36.6544 61.986C37.7995 64.1868 39.8109 66.5682 42.5518 65.1793C44.7421 64.0658 45.5329 61.4091 47.1883 59.9571C47.2304 59.9203 47.4303 59.7817 47.2129 59.9325C47.3058 59.8694 47.4233 59.8238 47.511 59.7572C47.6425 59.6555 47.2445 59.7782 47.5654 59.7572C47.2146 59.7835 47.4566 59.7712 47.5303 59.7694C47.7056 59.7694 47.4479 59.7063 47.6004 59.8045C47.6513 59.8378 47.8477 59.9658 47.6004 59.8045C47.7283 59.9151 47.8457 60.0372 47.9512 60.1693C48.1265 60.385 47.753 59.8676 48.0266 60.285C48.0879 60.3762 48.1458 60.4691 48.2019 60.5621C48.351 60.8076 48.4843 61.0619 48.614 61.3161C48.8981 61.8755 49.1506 62.449 49.4259 63.0136C50.2291 64.6638 51.9722 67.0996 54.0906 65.9317C54.6991 65.595 55.2339 65.0408 55.7074 64.541C56.9945 63.1802 58.1204 61.6581 59.2269 60.157C59.7337 59.4661 59.3426 58.3876 58.6587 57.986C57.8538 57.5161 56.9963 57.8633 56.4878 58.5559C55.5837 59.8243 54.6077 61.0398 53.5645 62.1964C53.2979 62.484 53.0197 62.7599 52.7297 63.0242C52.6631 63.0855 52.337 63.3223 52.6053 63.1346C52.8736 62.947 52.579 63.1715 52.5211 63.1802C52.1704 63.2311 52.9402 63.0487 52.6964 63.1118C52.8908 63.0766 53.0892 63.0689 53.2857 63.089C52.9542 63.089 53.5189 63.2293 53.2208 63.0785C52.9227 62.9277 53.4207 63.2539 53.1401 63.0171C53.0731 62.9548 53.0104 62.888 52.9525 62.8172C53.1717 63.0645 52.8683 62.6945 52.849 62.6629C52.7192 62.456 52.5965 62.2491 52.4808 62.0334C52.1879 61.4897 51.9354 60.9233 51.6706 60.3639C50.636 58.1842 48.7754 55.6292 46.031 56.9724C43.9021 58.0106 42.9919 60.6182 41.4715 62.1C41.212 62.3543 41.4032 62.2473 41.0717 62.3876C40.6579 62.563 41.2471 62.3034 41.0033 62.4121C40.9086 62.456 40.6228 62.456 40.9542 62.4297C40.5474 62.463 40.9911 62.4297 40.9683 62.449C40.9455 62.4683 40.4632 62.2929 40.8508 62.4262C40.5439 62.321 40.742 62.4051 40.5 62.1649C40.1995 61.8149 39.9379 61.4333 39.7197 61.0268C39.4233 60.5007 39.1603 59.9623 38.8867 59.4257C37.8468 57.3933 36.1318 54.8786 33.468 55.8694C31.1603 56.7269 30.0064 59.4433 28.7912 61.3898C28.6509 61.6142 28.5071 61.8387 28.358 62.0579C28.3054 62.1368 27.9477 62.6261 28.0687 62.4753C27.9108 62.6734 27.739 62.8523 27.5654 63.0364C27.5022 63.1031 27.4286 63.1662 27.3602 63.2258C27.6233 63.0031 27.2743 63.2714 27.2059 63.3117C26.992 63.438 27.518 63.1153 27.2059 63.3117C26.9236 63.4871 27.3111 63.296 27.2901 63.3117C27.2901 63.303 26.7079 63.3626 27.2497 63.3328C27.2129 63.3328 26.878 63.2346 27.3058 63.3731C27.2445 63.3521 27.0358 63.1469 27.1673 63.3012C27.3251 63.4924 27.0498 63.1802 27.0446 63.1732C26.9867 63.1048 26.9236 63.0417 26.8692 62.9715C27.0744 63.2258 26.7798 62.812 26.7447 62.7541C25.4611 60.6603 25.1507 57.5634 22.9271 55.9851C19.1954 53.3354 16.2942 56.9029 15 59.5L17 64.5004" fill="#D9E021"/>
<path d="M65.7451 52.0967C67.3953 52.0967 68.977 50.6447 68.9016 48.9402C68.8262 47.2357 67.5145 45.7837 65.7451 45.7837C64.0932 45.7837 62.5114 47.2357 62.5886 48.9402C62.6658 50.6447 63.9757 52.0967 65.7451 52.0967Z" fill="#DF0034"/>
</svg>
