<svg width="64" height="64" viewBox="0 0 64 64" fill="none" xmlns="http://www.w3.org/2000/svg">
<circle cx="32" cy="32" r="32" fill="#2F00C0"/>
<path d="M24.2988 30.2678C26.3601 34.3188 29.681 37.6398 33.7321 39.7011L36.8813 36.5519C37.2821 36.151 37.8403 36.0365 38.3414 36.194C39.9446 36.7236 41.6623 37.0099 43.4517 37.0099C43.8313 37.0099 44.1954 37.1607 44.4639 37.4292C44.7323 37.6976 44.8831 38.0617 44.8831 38.4414V43.4515C44.8831 43.8311 44.7323 44.1952 44.4639 44.4637C44.1954 44.7321 43.8313 44.8829 43.4517 44.8829C36.9977 44.8829 30.808 42.3191 26.2444 37.7554C21.6807 33.1918 19.1169 27.0021 19.1169 20.5482C19.1169 20.1685 19.2677 19.8044 19.5361 19.536C19.8046 19.2675 20.1687 19.1167 20.5483 19.1167H25.5584C25.9381 19.1167 26.3022 19.2675 26.5706 19.536C26.8391 19.8044 26.9899 20.1685 26.9899 20.5482C26.9899 22.3375 27.2762 24.0552 27.8058 25.6585C27.9633 26.1595 27.8488 26.7177 27.448 27.1185L24.2988 30.2678Z" fill="white"/>
</svg>
