<svg width="79" height="70" viewBox="0 0 79 70" fill="none" xmlns="http://www.w3.org/2000/svg">
<path d="M35.3379 43.2637C42.8063 43.2637 49.5183 44.7934 54.3262 47.2188C59.1914 49.6731 61.8291 52.8805 61.8291 56.1318C61.829 59.3831 59.1913 62.5907 54.3262 65.0449C49.5183 67.4702 42.8062 69 35.3379 69C27.8695 69 21.1575 67.4703 16.3496 65.0449C11.4846 62.5907 8.84778 59.3831 8.84766 56.1318C8.84766 52.8806 11.4846 49.6731 16.3496 47.2188C21.1575 44.7934 27.8695 43.2637 35.3379 43.2637Z" stroke="black" stroke-width="2"/>
<path d="M63.9804 13.2072C63.9804 12.6225 64.4008 12.148 64.9187 12.148L73.3575 12.1487C73.8753 12.1487 74.295 12.6226 74.295 13.2072L74.2957 22.7349C74.2957 23.3196 73.8753 23.7942 73.3575 23.7942C72.8398 23.7941 72.4202 23.32 72.4199 22.7357V15.2615L71.538 14.2658L64.918 14.2658C64.4004 14.2655 63.9805 13.7917 63.9804 13.2072ZM35.4693 54.4871L36.7954 55.9842L35.4168 57.5406L34.0908 56.0434L35.4693 54.4871ZM40.984 48.2608L42.3101 49.7579L39.553 52.8707L38.227 51.3735L40.984 48.2608ZM46.4994 42.0337L47.8254 43.5309L45.0678 46.6444L43.7417 45.1472L46.4994 42.0337ZM52.0141 35.8074L53.3402 37.3046L50.5825 40.4181L49.2564 38.921L52.0141 35.8074ZM57.5288 29.5811L58.8549 31.0783L56.0972 34.1918L54.7711 32.6947L57.5288 29.5811ZM63.0435 23.3548L64.3696 24.852L61.6125 27.9648L60.2865 26.4676L63.0435 23.3548ZM68.5582 17.1286L69.8843 18.6257L67.1273 21.7385L65.8012 20.2413L68.5582 17.1286Z" fill="#012DD4"/>
<path d="M4 31.0381L2 31.0381L2.0039 30.2363C2.00454 30.1728 2.00702 30.1093 2.00781 30.0459L4.00683 30.0703C4.00284 30.3915 4 30.7144 4 31.0381ZM2.00781 32.0293C2.00372 31.7002 2 31.3697 2 31.0381L4 31.0381C4 31.3616 4.00285 31.6839 4.00683 32.0049L2.00781 32.0293ZM4.15137 26.2158C4.11108 26.8513 4.07905 27.4941 4.05469 28.1426L2.05664 28.0674C2.08165 27.4019 2.11487 26.7425 2.15625 26.0898L4.15137 26.2158ZM2.15722 35.9854C2.11583 35.3324 2.08165 34.6727 2.05664 34.0068L4.05469 33.9336C4.07905 34.5819 4.11109 35.2241 4.15137 35.8594L2.15722 35.9854ZM4.49805 22.3799C4.42375 23.0088 4.3571 23.6467 4.29883 24.293L3.30371 24.2031L2.30762 24.1143C2.36752 23.4499 2.43719 22.7929 2.51367 22.1455L4.49805 22.3799ZM2.51367 39.9297C2.4372 39.2823 2.36752 38.6263 2.30762 37.9619L4.29883 37.7822C4.3571 38.4285 4.42375 39.0664 4.49805 39.6953L2.51367 39.9297ZM5.06055 18.5811C4.94925 19.2009 4.84596 19.8327 4.75098 20.4756L2.77441 20.1836C2.87237 19.5206 2.97774 18.8682 3.09277 18.2275L5.06055 18.5811ZM3.09277 43.8477C2.97775 43.207 2.87236 42.5546 2.77441 41.8916L4.75097 41.5996C4.84598 42.2427 4.94922 42.8751 5.06054 43.4951L3.09277 43.8477ZM5.8623 14.8457C5.70956 15.4501 5.5648 16.0706 5.42871 16.7061L3.47363 16.2881C3.61469 15.6294 3.76587 14.9844 3.9248 14.3555L5.8623 14.8457ZM4.44531 47.5879L3.9248 47.7187C3.76595 47.0901 3.61462 46.4464 3.47363 45.7881L4.45117 45.5781L5.42871 45.3691C5.56479 46.0046 5.70956 46.6251 5.8623 47.2295L4.44531 47.5879ZM6.94141 11.2178C6.74032 11.7961 6.54749 12.3971 6.36328 13.0186L4.44629 12.4502C4.63889 11.8004 4.84197 11.1705 5.05371 10.5615L6.94141 11.2178ZM5.05469 51.5137C4.84282 50.9043 4.639 50.2743 4.44629 49.624L6.36328 49.0566C6.54747 49.6781 6.74033 50.2791 6.9414 50.8574L5.05469 51.5137ZM8.35644 7.78125C8.0974 8.31125 7.84566 8.87354 7.60254 9.4668L6.67773 9.08691L6.67676 9.08789L6.36328 8.95898L5.75293 8.70898C6.01157 8.07787 6.2818 7.47559 6.56152 6.90332L8.35644 7.78125ZM6.56152 55.1719C6.28181 54.5996 6.01156 53.9973 5.75293 53.3662L6.67676 52.9873L7.60254 52.6084C7.84566 53.2017 8.0974 53.7639 8.35644 54.2939L6.56152 55.1719ZM10.1953 4.72168C9.86508 5.15795 9.538 5.64577 9.2168 6.18457L8.3584 5.67187L7.66309 5.25781L7.50098 5.16016C7.85571 4.5652 8.22322 4.01568 8.60254 3.51465L10.1953 4.72168ZM8.60254 58.5596C8.22324 58.0585 7.85569 57.5091 7.50097 56.9141L9.21679 55.8906C9.53801 56.4295 9.86507 56.9172 10.1953 57.3535L8.60254 58.5596ZM12.4873 2.54004C12.1044 2.76698 11.7046 3.0728 11.2939 3.46875L10.6006 2.74805L9.9082 2.03027C10.4136 1.54312 10.9339 1.13725 11.4687 0.820312L12.4873 2.54004ZM11.4687 61.2539C10.9341 60.937 10.4134 60.532 9.9082 60.0449L10.5996 59.3262L11.2939 58.6064C11.7047 59.0025 12.1043 59.3092 12.4873 59.5361L11.4687 61.2539ZM14.2832 -5.36916e-07C14.6142 -5.22447e-07 14.9422 0.0337022 15.2666 0.0986323L14.874 2.05957C14.6766 2.02006 14.48 2 14.2832 2C14.0864 2.00001 13.8898 2.02006 13.6924 2.05957L13.3008 0.0986322C13.5213 0.0545293 13.7432 0.0240587 13.9668 0.00976507L14.2832 -5.36916e-07ZM13.9668 62.0654C13.7432 62.0511 13.5213 62.0207 13.3008 61.9766L13.6924 60.0166C13.8898 60.0561 14.0864 60.0752 14.2832 60.0752C14.48 60.0752 14.6766 60.0561 14.874 60.0166L15.2666 61.9766C14.9422 62.0415 14.6142 62.0752 14.2832 62.0752L13.9668 62.0654ZM17.2725 3.46875C16.8617 3.0728 16.462 2.76696 16.0791 2.54004L17.0986 0.819336C17.6338 1.13644 18.1545 1.54277 18.6602 2.03027L17.2725 3.46875ZM18.6602 60.0449C18.1547 60.5323 17.6336 60.9378 17.0986 61.2549L16.5889 60.3965L16.5898 60.3955L16.0791 59.5361C16.462 59.3092 16.8617 59.0025 17.2725 58.6064L18.6602 60.0449ZM19.3506 6.18457C19.0294 5.64578 18.7023 5.15795 18.3721 4.72168L19.9658 3.51465C20.3451 4.01567 20.7127 4.56523 21.0674 5.16016L19.3506 6.18457ZM21.0674 56.9141C20.7127 57.509 20.3451 58.0585 19.9658 58.5596L18.3721 57.3535C18.7022 56.9173 19.0294 56.4293 19.3506 55.8906L21.0674 56.9141ZM20.9639 9.4668C20.7207 8.87354 20.469 8.31124 20.21 7.78125L21.3096 7.24316L22.0068 6.90332C22.2865 7.47547 22.5559 8.07802 22.8145 8.70898L20.9639 9.4668ZM22.8145 53.3662C22.5559 53.9972 22.2865 54.5997 22.0068 55.1719L20.21 54.2939C20.469 53.7639 20.7207 53.2017 20.9639 52.6084L21.9209 53.001L22.8145 53.3662ZM22.2031 13.0186C22.0189 12.3971 21.8261 11.7961 21.625 11.2178L23.5146 10.5615C23.7263 11.1704 23.9285 11.8005 24.1211 12.4502L22.2031 13.0186ZM24.1211 49.624C23.9284 50.2742 23.7255 50.9044 23.5137 51.5137L21.625 50.8574C21.8261 50.2791 22.0189 49.6781 22.2031 49.0566L24.1211 49.624ZM23.1377 16.7061C23.0016 16.0706 22.8568 15.4501 22.7041 14.8457L24.6426 14.3555C24.8016 14.9846 24.9526 15.6291 25.0937 16.2881L23.1377 16.7061ZM25.0937 45.7871C24.9527 46.4458 24.8015 47.0899 24.6426 47.7187L22.7041 47.2295C22.8568 46.625 23.0016 46.0046 23.1377 45.3691L25.0937 45.7871ZM23.8154 20.4756C23.7204 19.8327 23.6172 19.2009 23.5059 18.5811L25.4746 18.2275C25.5896 18.8682 25.696 19.5206 25.7939 20.1836L23.8154 20.4756ZM25.7939 41.8916C25.696 42.5546 25.5896 43.207 25.4746 43.8477L23.5059 43.4951C23.6172 42.8751 23.7204 42.2427 23.8154 41.5996L25.7939 41.8916ZM25.2637 24.2041L24.2676 24.293C24.2093 23.6467 24.1427 23.0088 24.0684 22.3799L26.0547 22.1455C26.1312 22.7931 26.1998 23.4496 26.2598 24.1143L25.2637 24.2041ZM26.2598 37.9609C26.1998 38.6256 26.1312 39.282 26.0547 39.9297L24.0684 39.6953C24.1427 39.0664 24.2093 38.4285 24.2676 37.7822L26.2598 37.9609ZM24.5127 28.1426C24.4883 27.4941 24.4553 26.8513 24.415 26.2158L26.4111 26.0898C26.4525 26.7425 26.4857 27.4019 26.5107 28.0674L24.5127 28.1426ZM26.5107 34.0068C26.4857 34.6727 26.4525 35.3324 26.4111 35.9854L24.415 35.8594C24.4553 35.2241 24.4883 34.5819 24.5127 33.9336L26.5107 34.0068ZM26.5625 31.8389C26.5619 31.9024 26.5613 31.9659 26.5605 32.0293L24.5605 32.0049C24.5645 31.6839 24.5664 31.3616 24.5664 31.0381C24.5664 30.7144 24.5645 30.3915 24.5605 30.0703L25.5615 30.0576L26.5605 30.0459C26.5646 30.3752 26.5664 30.7062 26.5664 31.0381L26.5625 31.8389Z" fill="#012DD4"/>
<path d="M6 18.6289C6 20.3766 4.77009 21.5811 3.5 21.5811C2.22991 21.5811 1 20.3766 1 18.6289C1.00021 16.8815 2.23001 15.6777 3.5 15.6777C4.76999 15.6777 5.99979 16.8815 6 18.6289Z" fill="black" stroke="black" stroke-width="2"/>
</svg>
