<svg width="55" height="72" viewBox="0 0 55 72" fill="none" xmlns="http://www.w3.org/2000/svg">
<path fill-rule="evenodd" clip-rule="evenodd" d="M27.9638 20.6087C20.5896 20.6087 14.6116 26.5801 14.6116 33.9461C14.6116 41.3121 20.5896 47.2834 27.9638 47.2834C35.338 47.2834 41.3161 41.3121 41.3161 33.9461C41.3161 26.5801 35.338 20.6087 27.9638 20.6087ZM12 33.9461C12 25.1393 19.1472 18 27.9638 18C36.7804 18 43.9277 25.1393 43.9277 33.9461C43.9277 42.7529 36.7804 49.8921 27.9638 49.8921C19.1472 49.8921 12 42.7529 12 33.9461ZM38.1844 28.9252C38.6987 28.4202 38.7058 27.5944 38.2003 27.0807C37.6947 26.5669 36.8679 26.5598 36.3536 27.0648L25.1478 38.0681L19.574 32.5951C19.0597 32.0901 18.2329 32.0972 17.7274 32.6109C17.2218 33.1246 17.2289 33.9505 17.7432 34.4555L24.2323 40.8273C24.7404 41.3262 25.5551 41.3262 26.0631 40.8273L38.1844 28.9252Z" fill="black"/>
<path d="M25.3125 69.1818C25.642 69.397 25.9945 69.5589 26.3584 69.6672L25.7881 71.5832C25.2413 71.4205 24.712 71.1788 24.2188 70.8566L22.3506 69.6369L23.4453 67.9621L25.3125 69.1818ZM32.6484 69.6369L30.7812 70.8566C30.2878 71.1789 29.758 71.4205 29.2109 71.5832L28.6416 69.6672C29.0055 69.5589 29.358 69.397 29.6875 69.1818L31.5547 67.9621L32.6484 69.6369ZM19.7109 65.5236L18.6172 67.1975L14.8818 64.759L15.9766 63.0842L19.7109 65.5236ZM40.1172 64.759L36.3818 67.1975L35.2891 65.5236L39.0234 63.0842L40.1172 64.759ZM12.2422 60.6457L11.1484 62.3195L7.41309 59.8811L8.50781 58.2063L12.2422 60.6457ZM47.5859 59.8811L43.8506 62.3195L42.7578 60.6457L46.4922 58.2063L47.5859 59.8811ZM0 52.8742V50.9426H2V52.8742C2.00014 53.5494 2.341 54.1788 2.90625 54.5481L4.77344 55.7678L3.67969 57.4416L1.8125 56.2229C0.752377 55.5304 0.0869304 54.3801 0.0078125 53.1262L0 52.8742ZM54.9922 53.1262C54.9131 54.3801 54.2476 55.5304 53.1875 56.2229L51.3193 57.4416L50.2266 55.7678L52.0938 54.5481C52.659 54.1788 52.9999 53.5494 53 52.8742V50.9426H55V52.8742L54.9922 53.1262ZM2 43.216V47.0793H0V43.216H2ZM55 43.216V47.0793H53V43.216H55ZM2 35.4895V39.3527H0V35.4895H2ZM55 35.4895V39.3527H53V35.4895H55ZM2 27.7629V31.6262H0V27.7629H2ZM55 27.7629V31.6262H53V27.7629H55ZM2 20.0363V23.8996H0V20.0363H2ZM55 20.0363V23.8996H53V20.0363H55ZM0 14.2414C2.66688e-05 13.8434 0.058648 13.4548 0.169922 13.0861L2.08496 13.6643C2.02957 13.8479 2.00003 14.0416 2 14.2414V16.1731H0V14.2414ZM55 16.1731H53V14.2414C53 14.0416 52.9704 13.8479 52.915 13.6643L54.8291 13.0861C54.9404 13.4549 55 13.8433 55 14.2414V16.1731ZM4.40527 9.73067L5.18164 11.5734L3.22363 12.3986C3.03948 12.4762 2.87234 12.579 2.72461 12.7014L1.44824 11.1613C1.74488 10.9156 2.08036 10.7105 2.44727 10.5559L4.40527 9.73067ZM50.5938 9.73067L52.5527 10.5559C52.9194 10.7104 53.2543 10.9158 53.5508 11.1613L52.2754 12.7014C52.1277 12.579 51.9605 12.4762 51.7764 12.3986L49.8184 11.5734L50.5938 9.73067ZM13.0146 8.27266L9.09863 9.92305L8.58789 8.71212L8.32227 8.08028L12.2383 6.42989L13.0146 8.27266ZM46.6777 8.08028L46.4121 8.71212L45.9014 9.92305L41.9854 8.27266L42.4551 7.1584L42.7607 6.42989L46.6777 8.08028ZM20.0723 3.12911L20.8486 4.97188L16.9316 6.62227L16.543 5.7004L16.1553 4.7795L20.0723 3.12911ZM38.8438 4.7795L38.457 5.70137L38.4561 5.7004L38.0684 6.62227L34.1514 4.97188L34.9277 3.12911L38.8438 4.7795ZM25.9473 0.653522C26.9402 0.235284 28.0598 0.235284 29.0527 0.653522L31.0107 1.47872L30.2354 3.32149L28.2764 2.4963C27.78 2.28725 27.22 2.28725 26.7236 2.4963L24.7646 3.32149L23.9883 1.47872L25.9473 0.653522Z" fill="#012DD4"/>
</svg>
