<svg width="85" height="60" viewBox="0 0 85 60" fill="none" xmlns="http://www.w3.org/2000/svg">
<path d="M64.5972 29.1025C64.5972 41.0517 54.9105 50.7382 42.9614 50.7383C31.0123 50.7383 21.3257 41.0517 21.3257 29.1025C21.3258 17.1534 31.0123 7.4668 42.9614 7.4668C54.9105 7.46687 64.5971 17.1535 64.5972 29.1025Z" stroke="black" stroke-width="2"/>
<circle cx="42.9622" cy="29.1037" r="7.05684" transform="rotate(90 42.9622 29.1037)" fill="black" stroke="black" stroke-width="2"/>
<path d="M63.9985 29.1025C63.7789 29.2703 63.5232 29.4622 63.2329 29.6719C62.1158 30.4787 60.495 31.5564 58.4927 32.6348C54.4764 34.7977 48.9852 36.9277 42.9614 36.9277C36.9375 36.9277 31.4455 34.7977 27.4292 32.6348C25.4271 31.5565 23.807 30.4786 22.6899 29.6719C22.4 29.4625 22.1448 29.2702 21.9253 29.1025C22.1446 28.9351 22.4004 28.7443 22.6899 28.5352C23.807 27.7284 25.4271 26.6505 27.4292 25.5723C31.4455 23.4093 36.9375 21.2793 42.9614 21.2793C48.9852 21.2793 54.4764 23.4093 58.4927 25.5723C60.495 26.6506 62.1158 27.7283 63.2329 28.5352C63.5228 28.7445 63.779 28.9349 63.9985 29.1025Z" stroke="black" stroke-width="2"/>
<path d="M4.46973 56.8281C4.93846 57.0224 5.45412 57.1309 6 57.1309V59.1309L5.69141 59.123C4.98995 59.0875 4.32074 58.93 3.70312 58.6738L4.46973 56.8281ZM8.02734 57.1309V59.1309H6V57.1309H8.02734ZM16.1387 57.1309V59.1309H12.083V57.1309H16.1387ZM24.25 57.1309V59.1309H20.1943V57.1309H24.25ZM32.3613 57.1309V59.1309H28.3057V57.1309H32.3613ZM40.4727 57.1309V59.1309H36.417V57.1309H40.4727ZM48.583 57.1309V59.1309H44.5273V57.1309H48.583ZM56.6943 57.1309V59.1309H52.6387V57.1309H56.6943ZM64.8057 57.1309V59.1309H60.75V57.1309H64.8057ZM72.917 57.1309V59.1309H68.8613V57.1309H72.917ZM79 57.1309V59.1309H76.9727V57.1309H79ZM81.1855 58.4062L81.2959 58.6738C80.6785 58.9298 80.0097 59.0875 79.3086 59.123L79 59.1309V57.1309C79.5459 57.1309 80.0615 57.0224 80.5303 56.8281L81.1855 58.4062ZM0 53.1309V51.167H2V53.1309C2.00006 53.6768 2.10836 54.1924 2.30273 54.6611L0.456055 55.4258C0.200284 54.8087 0.0433622 54.1402 0.0078125 53.4395L0 53.1309ZM84.9922 53.4395C84.9566 54.1403 84.7988 54.8086 84.543 55.4258L82.6973 54.6611C82.8916 54.1924 82.9999 53.6768 83 53.1309V51.167H85V53.1309L84.9922 53.4395ZM2 43.3115V47.2393H0V43.3115H2ZM85 43.3115V47.2393H83V43.3115H85ZM2 35.4561V39.3838H0V35.4561H2ZM85 35.4561V39.3838H83V35.4561H85ZM2 27.6016V31.5293H0V27.6016H2ZM85 27.6016V31.5293H83V27.6016H85ZM2 19.7461V23.6738H0V19.7461H2ZM85 19.7461V23.6738H83V19.7461H85ZM2 11.8916V15.8184H0V11.8916H2ZM85 11.8916V15.8184H83V11.8916H85ZM0 6C0 5.1863 0.162585 4.41068 0.456055 3.70312L1.37891 4.08594L2.30273 4.46973C2.10839 4.9385 2 5.45406 2 6V7.96387H0V6ZM85 7.96387H83V6C83 5.45406 82.8916 4.9385 82.6973 4.46973L84.543 3.70312C84.8365 4.41077 85 5.18617 85 6V7.96387ZM8.02734 0V2H6C5.45406 2 4.9385 2.10839 4.46973 2.30273L4.08594 1.37793L3.70312 0.456055C4.41068 0.162584 5.1863 6.32824e-08 6 0H8.02734ZM79 0C79.8134 0 80.5886 0.162802 81.2959 0.456055L80.9141 1.37891L80.9131 1.37793L80.5303 2.30273C80.0615 2.10838 79.5459 2 79 2H76.9727V0H79ZM16.1387 0V2H12.083V0H16.1387ZM24.25 0V2H20.1943V0H24.25ZM32.3613 0V2H28.3057V0H32.3613ZM40.4727 0V2H36.417V0H40.4727ZM48.583 0V2H44.5273V0H48.583ZM56.6943 0V2H52.6387V0H56.6943ZM64.8057 0V2H60.75V0H64.8057ZM72.917 0V2H68.8613V0H72.917Z" fill="#012DD4"/>
</svg>
