<svg width="76" height="76" viewBox="0 0 76 76" fill="none" xmlns="http://www.w3.org/2000/svg">
<path d="M44.5182 52.9892C44.7664 52.8652 45.0145 52.7312 45.2576 52.5905C45.5208 52.4381 45.7605 52.2924 45.9751 52.1501C46.4931 51.8101 47.0547 51.6091 47.6314 51.5538C48.2148 51.4969 48.8049 51.5823 49.3749 51.8134L51.0631 52.4985C51.4604 52.6609 51.8845 52.666 52.26 52.537C52.6389 52.4064 52.9708 52.1467 53.1837 51.7766L55.7889 47.2676C56.0018 46.8958 56.0638 46.4771 55.9867 46.0835C55.9113 45.6949 55.695 45.3315 55.3564 45.0668L53.9163 43.9497C53.4301 43.5712 53.0596 43.1038 52.8166 42.5713C52.5768 42.0437 52.4695 41.4591 52.5031 40.8445C52.5114 40.677 52.5198 40.5363 52.5232 40.4257C52.5249 40.3671 52.5265 40.2264 52.5265 40.0037C52.5265 39.7809 52.5249 39.6402 52.5232 39.5816C52.5198 39.4677 52.5148 39.3287 52.5031 39.1612C52.4679 38.5465 52.5752 37.962 52.8166 37.4344C53.058 36.9018 53.4301 36.4328 53.9163 36.056L55.3564 34.9388C55.6967 34.6759 55.9113 34.3124 55.9867 33.9222C56.0638 33.5302 56.0018 33.1099 55.7889 32.738L53.1837 28.2291C52.9708 27.8606 52.6389 27.5993 52.26 27.4687C51.8845 27.3397 51.4604 27.3447 51.0631 27.5072L49.3749 28.1922C48.8049 28.4234 48.2148 28.5105 47.6314 28.4519C47.053 28.3949 46.4915 28.1939 45.9751 27.8556C45.7605 27.7149 45.5208 27.5675 45.2576 27.4151C45.0145 27.2744 44.7664 27.1404 44.5182 27.0148C43.9667 26.7385 43.5141 26.3516 43.1754 25.8759C42.8368 25.4036 42.6172 24.8509 42.535 24.2412L42.2869 22.4407C42.2283 22.0136 42.0204 21.6451 41.7203 21.3839C41.4236 21.126 41.0313 20.9719 40.5971 20.9719H35.3866C34.9524 20.9719 34.5601 21.1243 34.2634 21.3839C33.9633 21.6452 33.7554 22.0137 33.6968 22.4407L33.4487 24.2412C33.3632 24.8509 33.1452 25.4036 32.8083 25.8759C32.4679 26.3499 32.0153 26.7385 31.4654 27.0148C31.2173 27.1404 30.9692 27.2728 30.7261 27.4151C30.4629 27.5675 30.2232 27.7133 30.0086 27.8556C29.4906 28.1973 28.929 28.3966 28.3523 28.4519C27.7689 28.5088 27.1788 28.4234 26.6088 28.1922L24.9206 27.5072C24.5233 27.3447 24.0992 27.3397 23.7237 27.4687C23.3448 27.5993 23.0129 27.8589 22.8 28.2291L20.1948 32.738C19.9819 33.1099 19.9199 33.5286 19.997 33.9222C20.0724 34.3107 20.2887 34.6742 20.6273 34.9388L22.0674 36.056C22.5536 36.4345 22.9241 36.9018 23.1671 37.4344C23.4069 37.962 23.5142 38.5448 23.4806 39.1612C23.4722 39.3287 23.4639 39.4694 23.4605 39.5816C23.4588 39.6402 23.4572 39.7809 23.4572 40.0037C23.4572 40.2264 23.4588 40.3671 23.4605 40.4257C23.4639 40.5396 23.4689 40.6787 23.4806 40.8461C23.5158 41.4608 23.4085 42.0454 23.1671 42.5729C22.9257 43.1056 22.5536 43.5745 22.0674 43.9514L20.6273 45.0685C20.287 45.3315 20.0724 45.6949 19.997 46.0852C19.9199 46.4771 19.9819 46.8975 20.1948 47.2693L22.8 51.7783C23.0129 52.1468 23.3448 52.4081 23.7237 52.5387C24.0992 52.6676 24.5233 52.6626 24.9206 52.5002L26.6088 51.8151C27.1788 51.584 27.7689 51.4969 28.3523 51.5555C28.9307 51.6124 29.4922 51.8134 30.0086 52.1517C30.2232 52.2924 30.4629 52.4398 30.7261 52.5922C30.9692 52.7329 31.2173 52.8669 31.4654 52.9925C32.017 53.2689 32.4696 53.6558 32.8083 54.1314C33.1469 54.6038 33.3665 55.1548 33.4487 55.7661L33.6968 57.5666C33.7554 57.9937 33.9633 58.3622 34.2634 58.6235C34.5601 58.8814 34.9524 59.0355 35.3866 59.0355H40.5971C41.0313 59.0355 41.4236 58.8831 41.7203 58.6235C42.0204 58.3622 42.2283 57.9937 42.2869 57.5666L42.5417 55.7292C42.6306 55.1313 42.8469 54.592 43.1771 54.1297C43.5174 53.6557 43.9701 53.2671 44.5199 52.9908L44.5182 52.9892ZM37.9885 29.9847C40.7579 29.9847 43.2642 31.1069 45.0796 32.9208C46.8952 34.733 48.0184 37.2385 48.0184 40.0054C48.0184 42.7723 46.8952 45.2763 45.0796 47.09C43.2657 48.9039 40.7579 50.0261 37.9885 50.0261C35.2191 50.0261 32.7128 48.9039 30.8974 47.09C29.0818 45.2778 27.9586 42.7723 27.9586 40.0054C27.9586 37.2385 29.0818 34.7345 30.8974 32.9208C32.7113 31.1069 35.2191 29.9847 37.9885 29.9847ZM43.6865 34.3127C42.2297 32.8556 40.2147 31.9545 37.9885 31.9545C35.7623 31.9545 33.7488 32.8556 32.2905 34.3127C30.832 35.7682 29.9301 37.7814 29.9301 40.0055C29.9301 42.2297 30.832 44.2413 32.2905 45.6983C33.749 47.1553 35.7623 48.0566 37.9885 48.0566C40.2147 48.0566 42.2299 47.1555 43.6865 45.6983C45.145 44.2412 46.0469 42.2297 46.0469 40.0055C46.0469 37.7814 45.145 35.7681 43.6865 34.3127ZM46.2414 54.2909C45.9681 54.4484 45.6882 54.5991 45.4015 54.7431C45.1383 54.8755 44.9271 55.053 44.7745 55.2674C44.6237 55.4768 44.5248 55.7263 44.4828 56.0061L44.2297 57.835C44.104 58.7445 43.6564 59.535 43.0093 60.0995C42.3571 60.6672 41.5122 61.0039 40.5935 61.0039H35.383C34.4644 61.0039 33.6194 60.6672 32.9673 60.0995C32.3202 59.5367 31.8709 58.7444 31.7469 57.835L31.4987 56.0345C31.4585 55.7431 31.3579 55.4835 31.202 55.2674C31.0495 55.0547 30.8382 54.8772 30.575 54.7431C30.2901 54.5991 30.0084 54.4467 29.7352 54.2909C29.4787 54.1435 29.2088 53.976 28.9255 53.7884C28.679 53.626 28.4175 53.5322 28.1526 53.5071C27.8928 53.4819 27.6178 53.5238 27.3412 53.6377L25.6531 54.3228C24.8014 54.6695 23.8911 54.6778 23.0781 54.3981C22.2684 54.1201 21.5542 53.554 21.0915 52.7534L18.4864 48.2444C18.0254 47.4472 17.8929 46.5478 18.0555 45.707C18.2198 44.8628 18.6825 44.079 19.4101 43.5145L20.8501 42.3974C21.0832 42.2165 21.2575 42.0004 21.3648 41.7642C21.4738 41.5214 21.524 41.2467 21.5073 40.9536C21.4989 40.8229 21.4939 40.6655 21.4872 40.4796C21.4805 40.2401 21.4771 40.0826 21.4771 40.0039C21.4771 39.9269 21.4805 39.7677 21.4872 39.5282C21.4922 39.3423 21.4989 39.1832 21.5073 39.0542C21.524 38.7611 21.4754 38.4864 21.3648 38.2436C21.2558 38.0074 21.0848 37.7914 20.8501 37.6105L19.4101 36.4933C18.6825 35.9289 18.2198 35.1433 18.0555 34.3009C17.8912 33.4617 18.0254 32.5623 18.4864 31.7634L21.0915 27.2544C21.5542 26.4538 22.2667 25.8877 23.0781 25.6097C23.8911 25.33 24.8014 25.34 25.6531 25.6851L27.3412 26.3701C27.6162 26.4823 27.8928 26.5242 28.1526 26.5007C28.4175 26.4756 28.679 26.3802 28.9255 26.2194C29.2105 26.0335 29.4804 25.866 29.7352 25.7169C30.0084 25.5594 30.2884 25.4087 30.575 25.2647C30.8382 25.1323 31.0495 24.9548 31.202 24.7404C31.3562 24.526 31.4568 24.2664 31.4987 23.9733L31.7469 22.1728C31.8726 21.2633 32.3218 20.4728 32.9673 19.9084C33.6194 19.3406 34.4644 19.0039 35.383 19.0039H40.5935C41.5122 19.0039 42.3571 19.3406 43.0093 19.9084C43.6563 20.4711 44.1056 21.2634 44.2297 22.1728L44.4778 23.9733C44.5181 24.2647 44.6186 24.5243 44.7746 24.7404C44.9271 24.9531 45.1383 25.1307 45.4015 25.2647C45.6865 25.4087 45.9681 25.5611 46.2414 25.7169C46.4979 25.8643 46.7678 26.0318 47.0511 26.2194C47.2959 26.3818 47.5591 26.4756 47.8239 26.5007C48.0838 26.5259 48.3587 26.484 48.6353 26.3701L50.3235 25.6851C51.1751 25.3384 52.0854 25.33 52.8985 25.6097C53.7082 25.8877 54.4223 26.4539 54.885 27.2544L57.4902 31.7634C57.9512 32.5606 58.0836 33.46 57.921 34.3009C57.7567 35.145 57.2941 35.9289 56.5665 36.4933L55.1264 37.6105C54.8934 37.7913 54.7191 38.0074 54.6118 38.2436C54.5028 38.4864 54.4525 38.7611 54.4693 39.0542C54.4777 39.1849 54.4827 39.3423 54.4894 39.5282C54.4961 39.7677 54.4995 39.9252 54.4995 40.0039C54.4995 40.081 54.4961 40.2401 54.4894 40.4796C54.4844 40.6655 54.4777 40.8246 54.4693 40.9536C54.4525 41.2484 54.5011 41.5214 54.6118 41.7659C54.7208 42.0021 54.8917 42.2181 55.1264 42.399L56.5665 43.5162C57.2941 44.0806 57.7567 44.8661 57.921 45.7086C58.0853 46.5477 57.9512 47.4472 57.4902 48.2461L54.885 52.7551C54.4223 53.5557 53.7099 54.1218 52.8985 54.3998C52.0854 54.6795 51.1751 54.6695 50.3235 54.3244L48.6353 53.6394C48.3604 53.5272 48.0838 53.4853 47.8239 53.5087C47.5591 53.5339 47.2975 53.6293 47.0511 53.7901C46.7678 53.976 46.4962 54.1452 46.2414 54.2926L46.2414 54.2909Z" fill="black"/>
<path d="M40.3535 75.9269C39.64 75.9738 38.9236 75.9987 38.2061 76.003L38.1934 74.003C38.8711 73.999 39.5478 73.9751 40.2217 73.9308L40.3535 75.9269ZM34.1426 73.7853C34.4782 73.8235 34.8148 73.8576 35.1523 73.8858C35.4899 73.9141 35.8277 73.937 36.165 73.9552L36.0576 75.9523C35.7004 75.9331 35.3427 75.908 34.9854 75.878C34.628 75.8481 34.2713 75.813 33.916 75.7726L34.1426 73.7853ZM44.6143 75.3888C43.9109 75.5205 43.2033 75.6321 42.4922 75.7218L42.2422 73.7374C42.9139 73.6527 43.5828 73.5474 44.2471 73.423L44.6143 75.3888ZM30.1465 73.087C30.8036 73.2428 31.4662 73.3795 32.1338 73.4962L31.79 75.4659C31.0831 75.3423 30.3804 75.1983 29.6846 75.0333L29.916 74.0607L30.1465 73.087ZM48.7822 74.3478C48.0988 74.5625 47.4089 74.7571 46.7139 74.9308L46.2295 72.9903C46.8858 72.8264 47.5372 72.6433 48.1826 72.4405L48.7822 74.3478ZM26.2617 71.9171C26.8962 72.1503 27.5382 72.3654 28.1865 72.5607L27.6104 74.4757C26.9239 74.269 26.244 74.0419 25.5723 73.795L26.2617 71.9171ZM52.7959 72.8185C52.1424 73.1133 51.4803 73.3878 50.8115 73.6427L50.0996 71.7745C50.7313 71.5338 51.3564 71.2737 51.9736 70.9952L52.7959 72.8185ZM22.5439 70.2931C23.1467 70.6004 23.7589 70.8904 24.3789 71.1612L23.5781 72.9942C22.9217 72.7075 22.2739 72.4007 21.6357 72.0753L22.5439 70.2931ZM56.082 69.965L56.5986 70.8214C55.9844 71.1923 55.3596 71.5436 54.7266 71.8761L53.7969 70.1056C54.3947 69.7916 54.9844 69.4598 55.5645 69.1095L56.082 69.965ZM19.0469 68.2384C19.6092 68.6156 20.1819 68.976 20.7646 69.3185L19.752 71.0421C19.1349 70.6796 18.5279 70.2989 17.9326 69.8995L18.4893 69.0685L19.0469 68.2384ZM60.1367 68.3849C59.8548 68.6049 59.5694 68.8212 59.2803 69.0333C58.991 69.2454 58.699 69.4535 58.4043 69.6564L57.2695 68.0089C57.5477 67.8174 57.8236 67.6213 58.0967 67.421C58.3698 67.2207 58.64 67.0165 58.9062 66.8087L60.1367 68.3849ZM15.8184 65.7814C16.3322 66.2234 16.8591 66.6486 17.3965 67.0577L16.1846 68.6495C15.6156 68.2165 15.0587 67.7659 14.5146 67.298L15.8184 65.7814ZM63.3594 65.545C62.852 66.049 62.3295 66.5393 61.791 67.0138L60.4688 65.5128C60.9772 65.0648 61.4711 64.602 61.9502 64.1261L63.3594 65.545ZM12.9062 62.9571C13.1343 63.2063 13.3665 63.4525 13.6025 63.6954C13.8386 63.9384 14.0778 64.178 14.3203 64.4132L12.9277 65.8487C12.6709 65.5997 12.4179 65.3462 12.168 65.089C11.918 64.8317 11.6722 64.5707 11.4307 64.3067L12.9062 62.9571ZM66.2207 62.3419C65.7767 62.9031 65.3154 63.4518 64.8379 63.9864L63.3467 62.6534C63.7976 62.1485 64.233 61.6307 64.6523 61.1007L66.2207 62.3419ZM10.3506 59.8058C10.7439 60.3548 11.1541 60.8936 11.5811 61.42L10.0283 62.6798C9.57625 62.1224 9.14113 61.5522 8.72461 60.9708L9.53809 60.3888L10.3506 59.8058ZM68.6807 58.8204C68.3063 59.4311 67.9131 60.03 67.5029 60.6173L65.8633 59.4728C66.2507 58.9181 66.622 58.3513 66.9756 57.7745L68.6807 58.8204ZM8.18945 56.3731C8.5149 56.9656 8.85792 57.5492 9.21875 58.1222L7.52637 59.1876C7.14434 58.5809 6.78109 57.9633 6.43652 57.336L8.18945 56.3731ZM70.7031 55.0304C70.4039 55.6818 70.085 56.3238 69.748 56.9552L67.9844 56.0138C68.3026 55.4176 68.6032 54.8115 68.8857 54.1964L70.7031 55.0304ZM6.45117 52.7071C6.70397 53.3347 6.97585 53.9551 7.26562 54.5665L5.45801 55.423C5.15128 54.7758 4.86427 54.1195 4.59668 53.4552L6.45117 52.7071ZM71.3086 50.7208L72.2598 51.0274C72.04 51.7106 71.8002 52.3864 71.541 53.0528L69.6777 52.3273C69.9225 51.6979 70.1489 51.0603 70.3564 50.4151L71.3086 50.7208ZM5.16309 48.8605C5.33949 49.5142 5.53528 50.1628 5.75 50.8038L3.85352 51.4386C3.62619 50.76 3.41919 50.0741 3.23242 49.3819L5.16309 48.8605ZM73.3291 46.8673C73.2609 47.2184 73.1872 47.5693 73.1084 47.919C73.0296 48.2687 72.9454 48.6167 72.8564 48.963L70.9199 48.4659C71.004 48.1387 71.0827 47.8091 71.1572 47.4786C71.2317 47.1482 71.3018 46.8171 71.3662 46.4855L73.3291 46.8673ZM4.3418 44.8878C4.43915 45.5586 4.55663 46.2254 4.69336 46.8868L2.73438 47.2911C2.58965 46.5909 2.46536 45.885 2.3623 45.1749L4.3418 44.8878ZM73.8945 42.6085C73.8428 43.3217 73.7703 44.0349 73.6758 44.7462L71.6934 44.4825C71.7826 43.8108 71.8515 43.1375 71.9004 42.464L73.8945 42.6085ZM4 40.8458C4.00837 41.1834 4.02156 41.5214 4.04004 41.8595C4.05853 42.1978 4.08186 42.5355 4.11035 42.8722L2.11719 43.0411C2.08702 42.6847 2.06254 42.327 2.04297 41.9689C2.02339 41.6107 2.00886 41.2523 2 40.8946L4 40.8458ZM73.9492 38.3136C73.9828 39.0285 73.9954 39.7452 73.9863 40.462L71.9863 40.4366C71.9949 39.7598 71.9839 39.0833 71.9521 38.4083L73.9492 38.3136ZM4.1416 36.7911C4.07778 37.4635 4.03343 38.1391 4.00977 38.8165L2.01074 38.7462C2.03579 38.0292 2.08284 37.3144 2.15039 36.6026L4.1416 36.7911ZM73.4922 34.0431C73.6108 34.7495 73.7089 35.4597 73.7852 36.172L71.7959 36.3849C71.7239 35.7121 71.6316 35.0414 71.5195 34.3741L73.4922 34.0431ZM4.76465 32.7823C4.62108 33.4428 4.49765 34.1084 4.39355 34.7774L2.41699 34.4698C2.52721 33.7615 2.65854 33.0568 2.81055 32.3575L4.76465 32.7823ZM72.5293 29.8565C72.7314 30.5445 72.9128 31.2381 73.0732 31.9356L71.124 32.3839C70.9725 31.7251 70.8012 31.0697 70.6104 30.42L71.5703 30.1388L72.5293 29.8565ZM5.86133 28.8771C5.63994 29.5163 5.43775 30.1623 5.25488 30.8136L3.3291 30.2726C3.52271 29.583 3.7373 28.8995 3.97168 28.2228L5.86133 28.8771ZM71.0752 25.8146C71.3581 26.4741 71.6201 27.1416 71.8623 27.8146L69.9805 28.4913C69.7518 27.856 69.5044 27.2264 69.2373 26.6036L71.0752 25.8146ZM7.41504 25.13C7.11898 25.7386 6.84181 26.3555 6.58301 26.9796L4.73535 26.214C5.00948 25.5529 5.30358 24.8996 5.61719 24.255L7.41504 25.13ZM9.4043 21.5939C9.03731 22.1636 8.68858 22.7436 8.35742 23.3321L6.61426 22.3517C6.96494 21.7284 7.33501 21.1142 7.72363 20.5108L9.4043 21.5939ZM11.8008 18.3204C11.5855 18.5805 11.374 18.8443 11.166 19.1114C10.9578 19.3787 10.7533 19.6493 10.5537 19.922L8.94043 18.7403C9.15171 18.4517 9.36752 18.1659 9.58789 17.8829C9.80827 17.6 10.0326 17.3205 10.2607 17.045L11.8008 18.3204ZM13.8809 14.631L14.5703 15.3556C14.0807 15.8208 13.6042 16.3016 13.1416 16.797L11.6797 15.4317C12.1696 14.9072 12.6739 14.398 13.1924 13.9054L13.8809 14.631ZM17.6729 12.7413C17.1308 13.1452 16.5999 13.5658 16.082 14.0021L14.7939 12.4728C15.3422 12.0108 15.9037 11.5655 16.4775 11.1378L17.6729 12.7413ZM52.9014 0.0342835C53.4348 -0.10854 53.9831 0.207908 54.126 0.741315L56.4551 9.43467C56.5978 9.96804 56.2814 10.5164 55.748 10.6593L47.0547 12.9884C46.5213 13.1313 45.973 12.8148 45.8301 12.2814C45.6871 11.7479 46.0037 11.1997 46.5371 11.0567L54.2646 8.98643L52.1943 1.25889C52.0514 0.725427 52.3679 0.177225 52.9014 0.0342835ZM21.0645 10.5157C20.4777 10.8525 19.9006 11.207 19.335 11.5782L18.2383 9.90635C18.8371 9.5134 19.4472 9.1379 20.0684 8.78135L21.0645 10.5157ZM24.6973 8.71006C24.074 8.9748 23.4588 9.25776 22.8535 9.5587L21.9629 7.76768C22.6038 7.44904 23.2551 7.14956 23.915 6.86924L24.6973 8.71006ZM51.1533 6.49717C51.8188 6.75863 52.4779 7.04014 53.1289 7.3419L52.2881 9.15733C51.6731 8.87226 51.0505 8.60549 50.4219 8.3585L51.1533 6.49717ZM28.5186 7.34971C27.8678 7.53844 27.224 7.74634 26.5879 7.97276L25.917 6.08897C26.5907 5.84915 27.2726 5.6287 27.9619 5.42881L28.5186 7.34971ZM47.0693 5.16807C47.7618 5.34854 48.4493 5.54976 49.1309 5.77159L48.5127 7.67296C47.8688 7.46339 47.2186 7.27411 46.5645 7.10362L47.0693 5.16807ZM32.4756 6.45421C32.1422 6.509 31.809 6.56901 31.4766 6.63389C31.1441 6.69877 30.8128 6.76832 30.4834 6.84288L30.042 4.89171C30.3909 4.81274 30.7417 4.73971 31.0938 4.671C31.4458 4.6023 31.7984 4.53859 32.1514 4.48057L32.4756 6.45421ZM42.8555 4.33409C43.5652 4.43092 44.2719 4.54958 44.9746 4.68858L44.7803 5.66905L44.5869 6.65049C43.9232 6.51922 43.2553 6.40797 42.585 6.31651L42.8555 4.33409ZM36.5107 6.03624C35.8361 6.0656 35.1613 6.11486 34.4873 6.18467L34.3838 5.19053L34.2812 4.19542C34.995 4.12149 35.7095 4.06928 36.4238 4.03819L36.5107 6.03624ZM38.5723 4.00889C39.2892 4.02052 40.0051 4.05325 40.7188 4.10753L40.5674 6.10167C39.8934 6.0504 39.2171 6.0189 38.54 6.00792L38.5723 4.00889Z" fill="#012DD4"/>
</svg>
