<svg width="76" height="76" viewBox="0 0 76 76" fill="none" xmlns="http://www.w3.org/2000/svg">
<path d="M62.5702 23.3731H33.3368C34.5265 21.9165 35.209 20.0849 35.209 18.1489C35.209 13.5731 31.4861 9.85156 26.9085 9.85156C22.3308 9.85156 18.6079 13.5731 18.6079 18.1489C18.6079 20.0849 19.2904 21.9165 20.4801 23.3731H13.3817C11.5156 23.3731 10 24.8882 10 26.7535V29.212C10 31.0773 11.5156 32.5924 13.3817 32.5924H13.7813L30.9051 56.5499V71.6451C30.9051 72.3581 31.2555 73.0249 31.8427 73.4244C32.2055 73.6703 32.6266 73.7963 33.054 73.7963C33.3245 73.7963 33.5951 73.7471 33.8533 73.6426L43.6877 69.7122C44.5116 69.3864 45.0466 68.5997 45.0466 67.7116V56.5498L62.1703 32.5923H62.5699C64.436 32.5923 65.9516 31.0773 65.9516 29.2119V26.7535C65.9516 24.8881 64.4363 23.3731 62.5702 23.3731ZM20.4527 18.1489C20.4527 14.5904 23.3487 11.6955 26.9086 11.6955C30.4686 11.6955 33.3645 14.5904 33.3645 18.1489C33.3645 20.2355 32.3593 22.1624 30.6715 23.3731H23.1426C21.458 22.1623 20.4496 20.2355 20.4496 18.1489H20.4527ZM43.3743 55.7204C43.2637 55.8771 43.2022 56.0645 43.2022 56.2551V67.7111C43.2022 67.8371 43.1253 67.9508 43.0085 67.9999L33.1772 71.9304C33.0388 71.9826 32.9343 71.9335 32.8851 71.8997C32.836 71.8659 32.7529 71.789 32.7529 71.6446V56.2551C32.7529 56.0646 32.6915 55.8771 32.5808 55.7204L16.0505 32.5928H59.9081L43.3777 55.7204L43.3743 55.7204ZM64.1073 29.2124C64.1073 30.0605 63.4186 30.7489 62.5702 30.7489H13.3822C12.5337 30.7489 11.8451 30.0605 11.8451 29.2124V26.7539C11.8451 25.9058 12.5337 25.2174 13.3822 25.2174H62.5702C63.4186 25.2174 64.1073 25.9058 64.1073 26.7539V29.2124Z" fill="black"/>
<path d="M44.3828 8.34668C44.1189 8.98314 43.9717 9.68309 43.9717 10.4219L41.9717 10.4219L41.9814 10.04C42.0254 9.1725 42.2203 8.34492 42.5371 7.58105L44.3828 8.34668ZM42.5371 13.2627C42.1742 12.3875 41.9717 11.4283 41.9717 10.4219L43.9717 10.4219C43.9717 11.1607 44.1189 11.8605 44.3828 12.4971L42.5371 13.2627ZM49.3945 3C50.4008 3.00004 51.3603 3.20058 52.2354 3.56348L51.4697 5.41113C50.8333 5.1472 50.1333 5.00004 49.3945 5C48.6556 5 47.9559 5.14717 47.3193 5.41113L46.5537 3.56348C47.4287 3.20068 48.3883 3 49.3945 3ZM49.0127 17.835C48.1451 17.791 47.3176 17.5961 46.5537 17.2793L47.3193 15.4336C47.9559 15.6975 48.6557 15.8447 49.3945 15.8447C50.1333 15.8447 50.8333 15.6975 51.4697 15.4336L52.2354 17.2793C51.3601 17.6423 50.4011 17.8447 49.3945 17.8447L49.0127 17.835ZM56.8164 10.4219C56.8164 11.4281 56.6157 12.3877 56.2529 13.2627L54.4053 12.4971C54.6692 11.8605 54.8164 11.1608 54.8164 10.4219C54.8164 9.68309 54.6692 8.98314 54.4053 8.34668L56.2529 7.58105C56.6158 8.45613 56.8164 9.41556 56.8164 10.4219Z" fill="#012DD4"/>
</svg>
