<svg width="197" height="36" viewBox="0 0 197 36" fill="none" xmlns="http://www.w3.org/2000/svg">
<g clip-path="url(#clip0_135_282)">
<path d="M0 0.256C0.398 0.17 0.824 0 1.222 0H35.176C35.403 0 35.631 0.028 35.972 0.057V35.943C35.517 35.972 35.062 36 34.608 36H1.506C0.994 36 0.51 35.83 0 35.744V0.256ZM25.743 20.429C26.823 20.373 28.101 19.037 28.073 17.986C28.044 16.878 26.737 15.599 25.657 15.627C24.436 15.627 23.214 16.934 23.299 18.127C23.356 19.321 24.606 20.457 25.743 20.429ZM20.429 18.014C20.429 16.821 19.208 15.628 18.071 15.599C16.878 15.599 15.741 16.764 15.741 18.014C15.741 19.264 16.878 20.429 18.071 20.429C19.236 20.429 20.429 19.208 20.429 18.014ZM25.515 27.874C26.822 27.93 27.93 26.993 28.045 25.743C28.129 24.606 26.993 23.356 25.799 23.271C24.635 23.186 23.384 24.294 23.299 25.487C23.214 26.766 24.18 27.817 25.515 27.874ZM28.045 10.513C28.073 9.32 26.936 8.212 25.685 8.183C24.294 8.183 23.328 9.063 23.271 10.399C23.214 11.593 24.322 12.729 25.572 12.786C26.794 12.815 28.017 11.678 28.045 10.513ZM18.015 27.873C19.407 27.903 20.372 27.021 20.429 25.686C20.486 24.549 19.321 23.299 18.128 23.271C16.906 23.214 15.77 24.322 15.741 25.544C15.713 26.908 16.651 27.874 18.014 27.874L18.015 27.873ZM12.815 10.485C12.815 9.149 11.905 8.212 10.541 8.183C9.178 8.155 8.24 9.063 8.24 10.428C8.212 11.763 9.178 12.786 10.485 12.758C11.0947 12.7634 11.6819 12.5274 12.1184 12.1016C12.5548 11.6758 12.8053 11.0947 12.815 10.485ZM18.015 8.183C16.679 8.212 15.741 9.178 15.77 10.513C15.798 11.763 16.906 12.815 18.156 12.786C19.293 12.758 20.429 11.65 20.458 10.541C20.458 9.149 19.436 8.155 18.015 8.183ZM12.815 18.071C12.843 16.878 11.763 15.684 10.57 15.627C9.405 15.571 8.268 16.707 8.24 17.957C8.212 19.207 9.291 20.401 10.456 20.429C11.593 20.458 12.786 19.293 12.815 18.071ZM10.513 27.874C11.877 27.845 12.843 26.908 12.815 25.572C12.815 24.322 11.678 23.242 10.428 23.271C9.206 23.299 8.24 24.322 8.24 25.572C8.212 26.936 9.15 27.902 10.513 27.874ZM196.054 13.326H192.672C192.672 16.309 192.758 19.094 192.644 21.878C192.53 24.408 190.826 25.771 188.325 25.658C185.938 25.544 184.972 24.35 184.944 21.594V13.383H181.875C181.875 16.849 181.676 20.231 181.932 23.612C182.131 25.97 183.609 27.675 186.081 28.186C188.297 28.641 190.399 28.442 191.962 26.482C192.133 26.282 192.417 26.169 192.672 25.998C192.786 26.254 192.871 26.339 192.871 26.425C192.871 27.505 192.9 28.613 192.9 29.692C192.871 31.369 192.701 31.539 190.996 31.539H183.637V34.324C186.45 34.324 189.178 34.267 191.905 34.352C193.923 34.409 195.372 33.812 196.054 31.795V13.326ZM49.866 7.103C53.332 7.103 56.714 6.904 60.095 7.16C62.908 7.36 64.982 10.087 65.039 12.985C65.124 16.593 63.334 19.293 60.209 19.805C57.935 20.174 55.605 20.117 53.162 20.259V27.987H49.837C49.866 21.055 49.866 14.093 49.866 7.103ZM53.19 9.803V17.02C55.066 17.02 56.856 17.105 58.617 16.991C59.3986 16.945 60.1372 16.6176 60.696 16.0692C61.2549 15.5208 61.5962 14.7886 61.657 14.008C61.827 11.735 61.146 10.513 59.1 10.172C57.225 9.888 55.293 9.916 53.19 9.802V9.803ZM100.868 25.998V34.238H97.714V13.383H100.641C100.698 14.008 100.783 14.633 100.868 15.372C101.124 15.287 101.351 15.287 101.436 15.172C103.823 11.536 109.534 12.417 111.751 15.542C113.597 18.156 113.597 23.526 111.495 26.197C109.25 29.096 103.227 29.522 101.408 26.254C101.38 26.197 101.266 26.169 100.868 25.998ZM100.811 20.657C100.811 23.953 102.374 25.799 105.272 25.857C108.057 25.913 109.847 23.839 110.017 20.827C110.188 17.957 107.801 15.429 105.358 15.571C102.459 15.713 100.811 17.389 100.811 20.657ZM81.803 21.594H70.523C70.551 23.612 71.489 25.004 73.193 25.544C75.438 26.283 77.058 25.686 78.848 23.441C79.615 23.811 80.41 24.208 81.32 24.635C80.553 26.425 79.274 27.533 77.484 28.129C73.25 29.493 68.477 27.817 67.539 23.214C66.601 18.554 67.738 14.576 72.369 13.127C77.285 11.593 81.803 15.002 81.803 20.174V21.594ZM78.507 19.065C78.279 16.821 76.916 15.599 74.699 15.571C72.313 15.542 70.892 16.736 70.608 19.066L78.507 19.065ZM135.987 23.385C136.811 23.811 137.607 24.208 138.374 24.606C137.323 27.163 134.964 28.698 131.924 28.584C128.856 28.499 126.327 27.334 125.048 24.322C123.741 21.31 124.338 17.077 126.355 15.031C128.543 12.815 131.697 12.133 134.68 13.354C137.664 14.576 138.857 16.963 138.999 20.004C139.028 20.458 138.999 20.912 138.999 21.509H127.747C127.634 23.469 128.543 24.862 130.305 25.487C132.294 26.226 134.339 25.886 135.987 23.385ZM127.691 18.98H135.788C134.936 16.31 133.686 15.429 131.185 15.57C129.339 15.713 128.06 16.934 127.691 18.98ZM156.275 13.326C155.564 13.326 155.138 13.383 154.712 13.326C153.149 13.042 152.126 13.666 151.359 15.002C150.762 16.025 150.024 16.934 149.342 17.901C148.773 18.724 148.319 18.696 147.751 17.872C146.87 16.537 145.904 15.258 144.938 13.979C144.71 13.695 144.313 13.411 143.943 13.354C142.977 13.269 142.011 13.326 140.789 13.326C142.721 15.883 144.455 18.213 146.245 20.6C144.394 23.0878 142.547 25.5788 140.704 28.073C141.613 28.073 142.267 27.987 142.92 28.101C144.028 28.271 144.767 27.788 145.364 26.908C146.159 25.686 147.04 24.521 147.836 23.299C148.347 22.504 148.773 22.504 149.285 23.299C149.967 24.322 150.706 25.289 151.416 26.311C152.751 28.215 153.888 28.613 156.246 27.845C154.456 25.459 152.695 23.072 150.876 20.657C152.638 18.241 154.399 15.855 156.275 13.326ZM178.039 13.269H173.607V8.354H170.453V13.383H166.617V15.912H170.51V25.118C170.51 26.708 171.305 27.902 172.641 28.016C174.26 28.158 175.908 28.044 177.5 28.044V25.544C176.59 25.544 175.71 25.657 174.914 25.515C174.459 25.43 173.721 24.975 173.692 24.635C173.607 21.736 173.635 18.81 173.635 15.855H178.039V13.269ZM120.303 7.132H117.206V28.044H120.303V7.132ZM85.866 27.987H88.906V19.662C88.906 17.247 90.099 16.025 92.515 15.912C93.055 15.883 93.623 15.912 94.219 15.912V13.184C93.197 13.241 92.174 13.127 91.321 13.411C90.469 13.695 89.787 14.434 88.963 15.002C88.906 14.462 88.849 13.952 88.793 13.382H85.866V27.987ZM163.009 13.383H160.054V28.016H163.009V13.383ZM161.616 6.819C160.423 6.791 159.457 7.7 159.429 8.922C159.4 10.2 160.224 11.052 161.531 11.052C162.923 11.082 163.662 10.399 163.662 9.036C163.691 7.7 162.895 6.848 161.616 6.819Z" fill="#242433"/>
</g>
<defs>
<clipPath id="clip0_135_282">
<rect width="197" height="36" fill="white"/>
</clipPath>
</defs>
</svg>
