<svg width="204" height="190" viewBox="0 0 204 190" fill="none" xmlns="http://www.w3.org/2000/svg">
<path d="M92.8924 189.82C80.3526 189.82 68.1871 187.363 56.7337 182.519C45.6726 177.839 35.7379 171.139 27.2067 162.608C18.6756 154.075 11.9778 144.14 7.29984 133.075C2.45616 121.621 0 109.453 0 96.9099C0 84.3665 2.45616 72.2 7.29984 60.7444C11.9791 49.6812 18.6769 39.7446 27.2067 31.2119C35.7366 22.6791 45.6713 15.9801 56.7337 11.3012C68.1871 6.45662 80.3513 4 92.8924 4C105.433 4 117.598 6.45662 129.051 11.3012C140.112 15.9814 150.047 22.6804 158.578 31.2119C167.109 39.7434 173.807 49.6799 178.485 60.7444C183.329 72.1987 185.785 84.3665 185.785 96.9099C185.785 109.453 183.329 121.62 178.485 133.075C173.806 144.139 167.108 154.075 158.578 162.608C150.047 171.141 140.113 177.84 129.051 182.519C117.598 187.363 105.433 189.82 92.8924 189.82ZM92.8924 5.46853C42.481 5.46853 1.46826 46.489 1.46826 96.9099C1.46826 147.331 42.481 188.351 92.8924 188.351C143.304 188.351 184.316 147.331 184.316 96.9099C184.316 46.489 143.304 5.46853 92.8924 5.46853Z" fill="#012DD4"/>
<path d="M96.5459 168.609C91.8718 168.609 87.1913 168.154 82.5819 167.235C73.1328 165.355 64.3349 161.68 56.4317 156.312C48.7978 151.127 42.3176 144.59 37.1683 136.882C32.0191 129.174 28.4624 120.683 26.5953 111.645C24.6622 102.287 24.6351 92.7507 26.515 83.2998C28.395 73.8489 32.0696 65.0494 37.4363 57.1447C42.6205 49.5093 49.1565 43.0278 56.8629 37.8776C64.5693 32.7274 73.059 29.17 82.0951 27.3026C91.451 25.3692 100.986 25.342 110.435 27.2223L110.149 28.6624C91.8381 25.0182 73.2027 28.7245 57.6786 39.0988C42.1544 49.4731 31.5983 65.2721 27.9548 83.5873C20.4336 121.395 45.0676 158.274 82.8681 165.798C94.3137 168.076 106.213 167.453 117.28 163.998L117.718 165.399C110.875 167.536 103.72 168.612 96.5459 168.612V168.609Z" fill="#DF0034"/>
<path d="M185.785 96.9099H184.317C184.317 73.9016 175.743 51.9151 160.175 34.9985C142.904 16.2313 118.38 5.46853 92.8926 5.46853V4C106.112 4 118.882 6.7208 130.85 12.0847C142.411 17.2673 152.64 24.6423 161.256 34.0039C177.074 51.1925 185.786 73.5325 185.786 96.9099H185.785Z" fill="#012DD4"/>
<path d="M110.466 48.141H110.464C110.397 48.141 110.328 48.1371 110.262 48.1294L110.306 47.7655C110.359 47.7719 110.418 47.7797 110.467 47.7745C110.521 47.7745 110.574 47.7719 110.628 47.7655L110.672 48.1294C110.604 48.1371 110.536 48.1423 110.467 48.1423L110.466 48.141ZM109.865 48.0322C109.737 47.9843 109.615 47.9196 109.502 47.8419L109.711 47.5401C109.799 47.601 109.895 47.6515 109.994 47.6891L109.865 48.0322ZM111.068 48.0322L110.937 47.6891C111.037 47.6515 111.132 47.601 111.221 47.5401L111.429 47.8419C111.316 47.9196 111.195 47.9843 111.068 48.0322ZM109.197 47.5725C109.106 47.4702 109.027 47.3575 108.964 47.2371L109.289 47.0662C109.339 47.1607 109.4 47.2488 109.471 47.3291L109.197 47.5725ZM111.736 47.5699L111.461 47.3265C111.533 47.2462 111.593 47.1568 111.644 47.0623L111.969 47.2332C111.905 47.3537 111.828 47.4676 111.737 47.5699H111.736ZM108.819 46.8551C108.786 46.723 108.77 46.587 108.77 46.4497H109.136C109.136 46.5572 109.149 46.6634 109.175 46.767L108.819 46.8551ZM112.113 46.8512L111.757 46.7644C111.782 46.6608 111.795 46.5533 111.795 46.4459L112.162 46.4394V46.4459C112.162 46.5831 112.145 46.7191 112.113 46.8512ZM109.173 46.1299L108.817 46.0431C108.85 45.911 108.898 45.7815 108.961 45.6598L109.286 45.8294C109.237 45.924 109.198 46.025 109.173 46.1286V46.1299ZM111.755 46.1221C111.729 46.0185 111.691 45.9175 111.64 45.823L111.964 45.6507C112.027 45.7712 112.078 45.8994 112.11 46.0328L111.754 46.1221H111.755ZM109.467 45.5665L109.193 45.3231C109.284 45.2208 109.386 45.1288 109.497 45.0511L109.707 45.3529C109.619 45.4137 109.539 45.4863 109.467 45.5665ZM111.457 45.5601C111.386 45.4798 111.305 45.4086 111.217 45.3477L111.424 45.0447C111.536 45.1224 111.64 45.213 111.731 45.314L111.457 45.5588V45.5601ZM109.99 45.2027L109.86 44.8595C109.988 44.8103 110.121 44.7779 110.257 44.7611L110.303 45.125C110.196 45.1379 110.091 45.1638 109.992 45.2027H109.99ZM110.933 45.2001C110.833 45.1625 110.729 45.1366 110.621 45.125L110.664 44.7598C110.8 44.7753 110.933 44.8077 111.061 44.8556L110.933 45.1988V45.2001Z" fill="#E9F03C"/>
<path d="M108.331 34.5017C111.958 34.5017 114.898 31.561 114.898 27.9335C114.898 24.3059 111.958 21.3652 108.331 21.3652C104.704 21.3652 101.764 24.3059 101.764 27.9335C101.764 31.561 104.704 34.5017 108.331 34.5017Z" fill="#012DD4"/>
</svg>
