<svg width="200" height="186" viewBox="0 0 200 186" fill="none" xmlns="http://www.w3.org/2000/svg">
<path d="M92.8924 185.82C80.3526 185.82 68.1871 183.363 56.7337 178.519C45.6726 173.839 35.7379 167.139 27.2067 158.608C18.6756 150.075 11.9778 140.14 7.29984 129.075C2.45616 117.621 0 105.453 0 92.9099C0 80.3665 2.45616 68.2 7.29984 56.7444C11.9791 45.6812 18.6769 35.7446 27.2067 27.2119C35.7366 18.6791 45.6713 11.9801 56.7337 7.30122C68.1871 2.45662 80.3513 0 92.8924 0C105.433 0 117.598 2.45662 129.051 7.30122C140.112 11.9814 150.047 18.6804 158.578 27.2119C167.109 35.7434 173.807 45.6799 178.485 56.7444C183.329 68.1987 185.785 80.3665 185.785 92.9099C185.785 105.453 183.329 117.62 178.485 129.075C173.806 140.139 167.108 150.075 158.578 158.608C150.047 167.141 140.113 173.84 129.051 178.519C117.598 183.363 105.433 185.82 92.8924 185.82ZM92.8924 1.46853C42.481 1.46853 1.46826 42.489 1.46826 92.9099C1.46826 143.331 42.481 184.351 92.8924 184.351C143.304 184.351 184.316 143.331 184.316 92.9099C184.316 42.489 143.304 1.46853 92.8924 1.46853Z" fill="#012DD4"/>
<path d="M96.5459 164.609C91.8718 164.609 87.1913 164.154 82.5819 163.235C73.1328 161.355 64.3349 157.68 56.4317 152.312C48.7978 147.127 42.3176 140.59 37.1683 132.882C32.0191 125.174 28.4624 116.683 26.5953 107.645C24.6622 98.2871 24.6351 88.7507 26.515 79.2998C28.395 69.8489 32.0696 61.0494 37.4363 53.1447C42.6205 45.5093 49.1565 39.0278 56.8629 33.8776C64.5693 28.7274 73.059 25.17 82.0951 23.3026C91.451 21.3692 100.986 21.342 110.435 23.2223L110.149 24.6624C91.8382 21.0182 73.2027 24.7245 57.6786 35.0988C42.1544 45.4731 31.5983 61.2721 27.9548 79.5873C20.4336 117.395 45.0676 154.274 82.8681 161.798C94.3137 164.076 106.213 163.453 117.28 159.998L117.718 161.399C110.875 163.536 103.72 164.612 96.5459 164.612V164.609Z" fill="#DF0034"/>
<path d="M150.351 29.2656L157.125 88.6363L72.2852 178.728L150.351 29.2656Z" fill="#012DD4"/>
<path d="M183.945 60.4335C192.53 60.4335 199.49 53.4725 199.49 44.8857C199.49 36.2989 192.53 29.3379 183.945 29.3379C175.36 29.3379 168.4 36.2989 168.4 44.8857C168.4 53.4725 175.36 60.4335 183.945 60.4335Z" fill="#DF0034"/>
<path d="M82.5826 168.455C86.2095 168.455 89.1496 165.514 89.1496 161.887C89.1496 158.259 86.2095 155.318 82.5826 155.318C78.9558 155.318 76.0156 158.259 76.0156 161.887C76.0156 165.514 78.9558 168.455 82.5826 168.455Z" fill="#E9F03C"/>
<path d="M185.785 92.9099H184.317C184.317 69.9016 175.743 47.9151 160.175 30.9985C142.904 12.2313 118.38 1.46853 92.8926 1.46853V0C106.112 0 118.882 2.7208 130.85 8.0847C142.411 13.2673 152.64 20.6423 161.256 30.0039C177.074 47.1925 185.786 69.5325 185.786 92.9099H185.785Z" fill="#012DD4"/>
<path d="M108.331 30.5017C111.958 30.5017 114.898 27.561 114.898 23.9335C114.898 20.3059 111.958 17.3652 108.331 17.3652C104.704 17.3652 101.764 20.3059 101.764 23.9335C101.764 27.561 104.704 30.5017 108.331 30.5017Z" fill="#012DD4"/>
<path d="M61.1361 56.4931C64.1788 56.4931 66.6453 54.0261 66.6453 50.9829C66.6453 47.9397 64.1788 45.4727 61.1361 45.4727C58.0935 45.4727 55.627 47.9397 55.627 50.9829C55.627 54.0261 58.0935 56.4931 61.1361 56.4931Z" fill="#DF0034"/>
<path d="M61.1358 54.015C62.8105 54.015 64.1682 52.6571 64.1682 50.9821C64.1682 49.3071 62.8105 47.9492 61.1358 47.9492C59.4611 47.9492 58.1035 49.3071 58.1035 50.9821C58.1035 52.6571 59.4611 54.015 61.1358 54.015Z" fill="#E9F03C"/>
<path d="M110.466 44.141H110.464C110.397 44.141 110.328 44.1371 110.262 44.1294L110.306 43.7655C110.359 43.7719 110.418 43.7797 110.467 43.7745C110.521 43.7745 110.574 43.7719 110.628 43.7655L110.672 44.1294C110.604 44.1371 110.536 44.1423 110.467 44.1423L110.466 44.141ZM109.865 44.0322C109.737 43.9843 109.615 43.9196 109.502 43.8419L109.711 43.5401C109.799 43.601 109.895 43.6515 109.994 43.6891L109.865 44.0322ZM111.068 44.0322L110.937 43.6891C111.037 43.6515 111.132 43.601 111.221 43.5401L111.429 43.8419C111.316 43.9196 111.195 43.9843 111.068 44.0322ZM109.197 43.5725C109.106 43.4702 109.027 43.3575 108.964 43.2371L109.289 43.0662C109.339 43.1607 109.4 43.2488 109.471 43.3291L109.197 43.5725ZM111.736 43.5699L111.461 43.3265C111.533 43.2462 111.593 43.1568 111.644 43.0623L111.969 43.2332C111.905 43.3537 111.828 43.4676 111.737 43.5699H111.736ZM108.819 42.8551C108.786 42.723 108.77 42.587 108.77 42.4497H109.136C109.136 42.5572 109.149 42.6634 109.175 42.767L108.819 42.8551ZM112.113 42.8512L111.757 42.7644C111.782 42.6608 111.795 42.5533 111.795 42.4459L112.162 42.4394V42.4459C112.162 42.5831 112.145 42.7191 112.113 42.8512ZM109.173 42.1299L108.817 42.0431C108.85 41.911 108.898 41.7815 108.961 41.6598L109.286 41.8294C109.237 41.924 109.198 42.025 109.173 42.1286V42.1299ZM111.755 42.1221C111.729 42.0185 111.691 41.9175 111.64 41.823L111.964 41.6507C112.027 41.7712 112.078 41.8994 112.11 42.0328L111.754 42.1221H111.755ZM109.467 41.5665L109.193 41.3231C109.284 41.2208 109.386 41.1288 109.497 41.0511L109.707 41.3529C109.619 41.4137 109.539 41.4863 109.467 41.5665ZM111.457 41.5601C111.386 41.4798 111.305 41.4086 111.217 41.3477L111.424 41.0447C111.536 41.1224 111.64 41.213 111.731 41.314L111.457 41.5588V41.5601ZM109.99 41.2027L109.86 40.8595C109.988 40.8103 110.121 40.7779 110.257 40.7611L110.303 41.125C110.196 41.1379 110.091 41.1638 109.992 41.2027H109.99ZM110.933 41.2001C110.833 41.1625 110.729 41.1366 110.621 41.125L110.664 40.7598C110.8 40.7753 110.933 40.8077 111.061 40.8556L110.933 41.1988V41.2001Z" fill="#E9F03C"/>
<path d="M150.352 29.2656L132.922 62.6352L153.393 55.922L150.352 29.2656Z" fill="#012DD4"/>
</svg>
