<svg width="70" height="70" viewBox="0 0 70 70" fill="none" xmlns="http://www.w3.org/2000/svg">
<path d="M64.739 26.065C64.4176 25.1014 63.2324 25.3283 63.2324 26.3442V43.7796C63.2324 44.7849 64.4773 45.0362 64.7531 44.0694C64.7764 43.9875 64.788 43.9022 64.788 43.8171V26.3664C64.788 26.2642 64.7713 26.162 64.739 26.065Z" fill="white"/>
<path d="M60.9885 18.0823C60.6072 17.5136 59.7871 17.5377 59.3909 18.0962L45.5783 37.5662C45.0338 37.2551 44.4116 37.0995 43.7116 37.0995C42.3116 37.0995 41.0671 37.8773 40.3671 38.9662L26.2894 29.7106C26.3671 29.3217 26.4449 29.0106 26.4449 28.544C26.4449 26.444 24.7338 24.6551 22.556 24.6551C20.456 24.6551 18.6671 26.3662 18.6671 28.544C18.6671 29.3995 18.9783 30.1773 19.4449 30.7995L7.85652 48.5987C7.66351 48.8951 7.62729 49.2471 7.79808 49.5569C8.16095 50.2151 9.12695 50.2615 9.53595 49.6309L10.5005 48.144V53.5012C10.5005 53.6579 10.5523 53.8043 10.6542 53.9234C11.0641 54.4025 11.9005 54.1171 11.9005 53.4865V45.9662L14.5449 41.9217V57.6847C14.5449 57.8983 14.6367 58.097 14.7968 58.2383C15.2542 58.642 15.9449 58.34 15.9449 57.7299V39.8217L18.5894 35.7773V60.8453C18.5894 61.0735 18.7061 61.2899 18.9011 61.4086C19.3668 61.6922 19.9894 61.3358 19.9894 60.7906V33.5995L21.0005 32.1217C21.4671 32.3551 22.0116 32.5106 22.556 32.5106C22.556 32.5106 22.556 32.5106 22.6338 32.5106V62.9647C22.6338 63.272 22.7965 63.5525 23.0814 63.6677C23.5813 63.8696 24.1116 63.474 24.1116 62.9349V32.1995C24.5783 32.044 24.9671 31.7329 25.2783 31.4217L26.6783 32.3551V64.4116C26.6783 64.7295 26.8617 65.0084 27.1747 65.064C27.6579 65.1498 28.156 64.7666 28.156 64.2758V33.3662L30.8005 35.0773V65.1557C30.8005 65.5272 31.0715 65.8468 31.4425 65.865C31.8618 65.8854 32.2005 65.537 32.2005 65.1173V35.9329L34.8449 37.644V65.7217C34.8449 65.8936 34.9842 66.0329 35.156 66.0329C35.2126 66.0329 35.2692 66.0312 35.3257 66.0284C35.8773 66.001 36.3227 65.5074 36.3227 64.9551V38.5773L38.9671 40.2884V64.9732C38.9671 65.4058 39.3555 65.7348 39.7822 65.6637C40.1198 65.6074 40.3671 65.3154 40.3671 64.9732V42.8551C40.9116 43.8662 41.9227 44.5662 43.0894 44.7217V64.1421C43.0894 64.5569 43.4411 64.8593 43.8432 64.757C44.1546 64.6777 44.4116 64.3973 44.4116 64.076V44.7217C45.5783 44.5662 46.5116 43.8662 47.056 42.9329V62.5376C47.056 63.0876 47.6332 63.4455 48.1266 63.2022C48.3869 63.0738 48.5338 62.8162 48.5338 62.526V36.7106L51.1005 33.1329V60.2656C51.1005 60.86 51.7495 61.2149 52.2454 60.8874C52.4614 60.7447 52.5783 60.5107 52.5783 60.2519V31.0329L55.1449 27.4551V56.9943C55.1449 57.6731 55.9155 58.0186 56.4216 57.5662C56.5945 57.4116 56.7005 57.1883 56.7005 56.9563V25.2773L59.1894 21.6995V52.1538C59.1894 52.9274 60.1733 53.2571 60.6112 52.6194C60.702 52.4871 60.7449 52.3362 60.7449 52.1757V19.5217L60.9718 19.2098C61.2107 18.8813 61.2148 18.4197 60.9885 18.0823Z" fill="white"/>
<path d="M35 69V70C34.6708 70 34.3427 69.9934 34.0156 69.9844L34.043 68.9863C34.3608 68.9951 34.68 69 35 69ZM35.9834 69.9844C35.6567 69.9934 35.3289 70 35 70V69C35.32 69 35.6392 68.9951 35.957 68.9863L35.9834 69.9844ZM30.2432 68.6699C30.8695 68.7576 31.5017 68.8288 32.1387 68.8818L32.0557 69.875C31.3999 69.8204 30.7495 69.7475 30.1045 69.6572L30.2432 68.6699ZM39.8945 69.6572C39.2495 69.7475 38.5991 69.8204 37.9434 69.875L37.8613 68.8818C38.4983 68.8288 39.1305 68.7576 39.7568 68.6699L39.8945 69.6572ZM26.5049 67.9307C27.1178 68.0883 27.7375 68.2287 28.3633 68.3525L28.2656 68.8428L28.2354 69L28.1689 69.3311C27.5245 69.2036 26.886 69.0608 26.2549 68.8984L26.2842 68.7891L26.5049 67.9307ZM43.6191 68.4141L43.7441 68.8984C43.113 69.0608 42.4745 69.2036 41.8301 69.3311L41.7334 68.8438L41.6367 68.3525C42.2625 68.2287 42.8822 68.0883 43.4951 67.9307L43.6191 68.4141ZM22.8711 66.7734C23.4633 66.9996 24.0634 67.2098 24.6709 67.4033L24.5186 67.8789L24.5195 67.8799L24.3682 68.3535C23.7424 68.1542 23.1246 67.9371 22.5146 67.7041L22.8711 66.7734ZM47.1289 66.7734L47.4844 67.7041C46.8744 67.9371 46.2567 68.1542 45.6309 68.3535L45.5703 68.1611L45.4805 67.8799L45.3291 67.4033C45.9366 67.2098 46.5367 66.9996 47.1289 66.7734ZM19.3916 65.2139C19.9551 65.5056 20.528 65.7824 21.1094 66.043L20.9043 66.498L20.7217 66.9082L20.7002 66.9531C20.1018 66.6849 19.5126 66.3999 18.9326 66.0996L19.1621 65.6582L19.3916 65.2139ZM51.0664 66.0996C50.4864 66.3999 49.8973 66.6849 49.2988 66.9531L49.0947 66.499L48.8906 66.043C49.472 65.7824 50.0449 65.5056 50.6084 65.2139L51.0664 66.0996ZM16.1094 63.2734C16.6371 63.6267 17.1756 63.9661 17.7236 64.29L17.4688 64.7197L17.3438 64.9326L17.2158 65.1484C16.6515 64.8148 16.0971 64.4664 15.5537 64.1025L16.1094 63.2734ZM54.4453 64.1025C53.9019 64.4664 53.3476 64.8148 52.7832 65.1484L52.5303 64.7207L52.2764 64.29C52.8244 63.9661 53.3629 63.6267 53.8906 63.2734L54.4453 64.1025ZM13.0645 60.9785C13.5498 61.3888 14.0466 61.786 14.5547 62.1689L13.9531 62.9658C13.4302 62.5717 12.9194 62.1625 12.4199 61.7402L13.0645 60.9785ZM57.5791 61.7402C57.0796 62.1625 56.5688 62.5717 56.0459 62.9658L55.4453 62.1689C55.9534 61.786 56.4502 61.3888 56.9355 60.9785L57.5791 61.7402ZM10.293 58.3574C10.73 58.8195 11.1805 59.27 11.6426 59.707L10.9561 60.4316C10.4803 59.9817 10.0173 59.5187 9.56738 59.043L10.293 58.3574ZM60.4316 59.043C59.9817 59.5187 59.5187 59.9817 59.043 60.4316L58.3574 59.707C58.8195 59.27 59.27 58.8195 59.707 58.3574L60.4316 59.043ZM7.83105 55.4453C8.21402 55.9534 8.61122 56.4502 9.02148 56.9355L8.63867 57.2578L8.63965 57.2588L8.25879 57.5791C7.83659 57.0796 7.42734 56.5688 7.0332 56.0459L7.83105 55.4453ZM62.9658 56.0459C62.5717 56.5688 62.1625 57.0796 61.7402 57.5791L61.3604 57.2588L60.9785 56.9355C61.3888 56.4502 61.786 55.9534 62.1689 55.4453L62.9658 56.0459ZM5.70996 52.2764C6.03392 52.8244 6.37326 53.3629 6.72656 53.8906L5.89648 54.4453C5.53268 53.9019 5.18418 53.3476 4.85059 52.7832L5.70996 52.2764ZM65.1484 52.7832C64.8148 53.3476 64.4664 53.9019 64.1025 54.4453L63.2734 53.8906C63.6267 53.3629 63.9661 52.8244 64.29 52.2764L65.1484 52.7832ZM3.95703 48.8906C4.21757 49.472 4.49442 50.0449 4.78613 50.6084L3.89941 51.0664C3.59916 50.4864 3.31409 49.8972 3.0459 49.2988L3.95703 48.8906ZM66.9531 49.2988C66.6849 49.8973 66.3999 50.4864 66.0996 51.0664L65.6582 50.8379L65.2139 50.6084C65.5056 50.0449 65.7824 49.472 66.043 48.8906L66.9531 49.2988ZM2.59668 45.3291C2.79017 45.9366 3.00037 46.5367 3.22656 47.1289L2.75879 47.3066L2.29492 47.4844C2.06195 46.8744 1.84479 46.2566 1.64551 45.6309L2.59668 45.3291ZM67.8789 45.4805L68.3535 45.6309C68.1542 46.2567 67.9371 46.8744 67.7041 47.4844L67.2402 47.3076L66.7734 47.1289C66.9996 46.5367 67.2098 45.9366 67.4033 45.3291L67.8789 45.4805ZM1.64746 41.6367C1.77126 42.2625 1.9117 42.8822 2.06934 43.4951L1.58496 43.6191L1.10059 43.7441C0.938261 43.113 0.795444 42.4745 0.667969 41.8301L1.15625 41.7334L1.64746 41.6367ZM69.3311 41.8301C69.2036 42.4745 69.0608 43.113 68.8984 43.7441L68.4141 43.6201L67.9307 43.4951C68.0883 42.8822 68.2287 42.2625 68.3525 41.6367L69.3311 41.8301ZM1.11816 37.8613C1.17122 38.4983 1.24242 39.1305 1.33008 39.7568L0.341797 39.8945C0.251539 39.2496 0.178626 38.5991 0.124023 37.9434L1.11816 37.8613ZM69.875 37.9434C69.8204 38.5991 69.7475 39.2495 69.6572 39.8945L68.6699 39.7568C68.7576 39.1305 68.8288 38.4983 68.8818 37.8613L69.875 37.9434ZM0 35C0 34.6708 0.00561701 34.3427 0.0146484 34.0156L1.01367 34.043C1.0049 34.3608 1 34.68 1 35C1 35.32 1.0049 35.6392 1.01367 35.957L0.0146484 35.9834C0.00563491 35.6567 0 35.3289 0 35ZM70 35C70 35.3289 69.9934 35.6567 69.9844 35.9834L68.9863 35.957C68.9951 35.6392 69 35.32 69 35C69 34.68 68.9951 34.3608 68.9863 34.043L69.9844 34.0156C69.9934 34.3427 70 34.6708 70 35ZM1.33008 30.2432C1.24242 30.8695 1.17122 31.5017 1.11816 32.1387L0.124023 32.0557C0.178644 31.3999 0.251521 30.7495 0.341797 30.1045L1.33008 30.2432ZM69.6572 30.1045C69.7475 30.7495 69.8204 31.3999 69.875 32.0557L68.8818 32.1387C68.8288 31.5017 68.7576 30.8695 68.6699 30.2432L69.6572 30.1045ZM1.10156 26.2559L1.58594 26.3799L2.06934 26.5049C1.9117 27.1178 1.77126 27.7375 1.64746 28.3633L0.667969 28.1689C0.795461 27.5246 0.938244 26.886 1.10059 26.2549L1.10156 26.2559ZM68.8984 26.2549C69.0608 26.886 69.2036 27.5245 69.3311 28.1689L68.8438 28.2666L68.8428 28.2656L68.3525 28.3633C68.2287 27.7375 68.0883 27.1178 67.9307 26.5049L68.4141 26.3799L68.8984 26.2549ZM2.75977 22.6924L3.22656 22.8711C3.00037 23.4633 2.79017 24.0634 2.59668 24.6709L1.64551 24.3682C1.8448 23.7424 2.06193 23.1246 2.29492 22.5146L2.75977 22.6924ZM67.7041 22.5146C67.9371 23.1246 68.1542 23.7424 68.3535 24.3682L67.4033 24.6709C67.2098 24.0634 66.9996 23.4633 66.7734 22.8711L67.7041 22.5146ZM4.78613 19.3916C4.49442 19.9551 4.21757 20.528 3.95703 21.1094L3.0459 20.7002C3.3141 20.1018 3.59915 19.5126 3.89941 18.9326L4.78613 19.3916ZM66.0996 18.9326C66.3999 19.5126 66.6849 20.1018 66.9531 20.7002L66.499 20.9053L66.498 20.9043L66.043 21.1094C65.7824 20.528 65.5056 19.9551 65.2139 19.3916L66.0996 18.9326ZM6.72656 16.1094C6.37326 16.6371 6.03392 17.1756 5.70996 17.7236L5.2793 17.4688L4.85059 17.2158C5.18419 16.6515 5.53268 16.0971 5.89648 15.5537L6.72656 16.1094ZM64.1025 15.5537C64.4664 16.0971 64.8148 16.6515 65.1484 17.2158L64.7207 17.4697L64.7197 17.4688L64.29 17.7236C63.9661 17.1756 63.6267 16.6371 63.2734 16.1094L64.1025 15.5537ZM8.63965 12.7412L9.02148 13.0645C8.61122 13.5498 8.21402 14.0466 7.83105 14.5547L7.43164 14.2529L7.0332 13.9531C7.42734 13.4302 7.83659 12.9194 8.25879 12.4199L8.63965 12.7412ZM61.7402 12.4199C62.1625 12.9194 62.5717 13.4302 62.9658 13.9531L62.5684 14.2539L62.5674 14.2529L62.1689 14.5547C61.786 14.0466 61.3888 13.5498 60.9785 13.0645L61.7402 12.4199ZM11.6426 10.293C11.1805 10.73 10.73 11.1805 10.293 11.6426L9.56738 10.9561C10.0173 10.4803 10.4803 10.0173 10.9561 9.56738L11.6426 10.293ZM59.043 9.56738C59.5187 10.0173 59.9817 10.4803 60.4316 10.9561L59.707 11.6426C59.27 11.1805 58.8195 10.73 58.3574 10.293L59.043 9.56738ZM14.5547 7.83105C14.0466 8.21402 13.5498 8.61122 13.0645 9.02148L12.7412 8.63867L12.4199 8.25879C12.9194 7.83659 13.4302 7.42734 13.9531 7.0332L14.5547 7.83105ZM56.0459 7.0332C56.5688 7.42734 57.0796 7.83659 57.5791 8.25879L57.2588 8.63965L57.2578 8.63867L56.9355 9.02148C56.4502 8.61122 55.9534 8.21402 55.4453 7.83105L56.0459 7.0332ZM17.4697 5.2793L17.7236 5.70996C17.1756 6.03392 16.6371 6.37326 16.1094 6.72656L15.5537 5.89648C16.0971 5.53268 16.6515 5.18419 17.2158 4.85059L17.4697 5.2793ZM52.7832 4.85059C53.3476 5.18418 53.9019 5.53268 54.4453 5.89648L53.8906 6.72656C53.3629 6.37326 52.8244 6.03392 52.2764 5.70996L52.7832 4.85059ZM20.9053 3.50098L21.1094 3.95703C20.528 4.21757 19.9551 4.49442 19.3916 4.78613L18.9326 3.89941C19.5126 3.59915 20.1018 3.3141 20.7002 3.0459L20.9053 3.50098ZM49.2988 3.0459C49.8972 3.31409 50.4864 3.59916 51.0664 3.89941L50.6084 4.78613C50.0449 4.49442 49.472 4.21757 48.8906 3.95703L49.2988 3.0459ZM24.4316 1.8457L24.6709 2.59668C24.0634 2.79017 23.4633 3.00037 22.8711 3.22656L22.5146 2.29492C23.1246 2.06193 23.7424 1.8448 24.3682 1.64551L24.4316 1.8457ZM45.6309 1.64551C46.2566 1.84479 46.8744 2.06195 47.4844 2.29492L47.3076 2.75977L47.3066 2.75879L47.1289 3.22656C46.5367 3.00037 45.9366 2.79017 45.3291 2.59668L45.5684 1.8457L45.6309 1.64551ZM28.2666 1.15625L28.3633 1.64746C27.7375 1.77126 27.1178 1.9117 26.5049 2.06934L26.3799 1.58496L26.2559 1.10156L26.2549 1.10059C26.886 0.938244 27.5246 0.795461 28.1689 0.667969L28.2666 1.15625ZM41.8301 0.667969C42.4745 0.795444 43.113 0.938261 43.7441 1.10059L43.6201 1.58594L43.6191 1.58496L43.4951 2.06934C42.8822 1.9117 42.2625 1.77126 41.6367 1.64746L41.7334 1.15625L41.8301 0.667969ZM32.1387 1.11816C31.5017 1.17122 30.8695 1.24242 30.2432 1.33008L30.1045 0.341797C30.7495 0.251521 31.3999 0.178644 32.0557 0.124023L32.1387 1.11816ZM37.9434 0.124023C38.5991 0.178626 39.2496 0.251539 39.8945 0.341797L39.7568 1.33008C39.1305 1.24242 38.4983 1.17122 37.8613 1.11816L37.9434 0.124023ZM35 0C35.3289 0 35.6567 0.00563491 35.9834 0.0146484L35.957 1.01367C35.6392 1.0049 35.32 1 35 1C34.68 1 34.3608 1.0049 34.043 1.01367L34.0156 0.0146484C34.3427 0.00561701 34.6708 0 35 0Z" fill="#E9F03C"/>
</svg>
