<svg width="76" height="69" viewBox="0 0 76 69" fill="none" xmlns="http://www.w3.org/2000/svg">
<path d="M18 37C18 32.5817 14.4183 29 10 29C5.58172 29 2 32.5817 2 37C2 41.4183 5.58172 45 10 45V47C4.47715 47 0 42.5228 0 37C0 31.4772 4.47715 27 10 27C15.5228 27 20 31.4772 20 37C20 42.5228 15.5228 47 10 47V45C14.4183 45 18 41.4183 18 37Z" fill="#E9F03C"/>
<path d="M74 37C74 34.2386 71.7614 32 69 32C66.2386 32 64 34.2386 64 37C64 39.7614 66.2386 42 69 42V44C65.134 44 62 40.866 62 37C62 33.134 65.134 30 69 30C72.866 30 76 33.134 76 37C76 40.866 72.866 44 69 44V42C71.7614 42 74 39.7614 74 37Z" fill="white"/>
<path d="M61 7C61 4.23858 58.7614 2 56 2C53.2386 2 51 4.23858 51 7C51 9.76142 53.2386 12 56 12V14C52.134 14 49 10.866 49 7C49 3.13401 52.134 0 56 0C59.866 0 63 3.13401 63 7C63 10.866 59.866 14 56 14V12C58.7614 12 61 9.76142 61 7Z" fill="white"/>
<path d="M61 62C61 59.2386 58.7614 57 56 57C53.2386 57 51 59.2386 51 62C51 64.7614 53.2386 67 56 67V69C52.134 69 49 65.866 49 62C49 58.134 52.134 55 56 55C59.866 55 63 58.134 63 62C63 65.866 59.866 69 56 69V67C58.7614 67 61 64.7614 61 62Z" fill="white"/>
<path d="M52.7441 33.4648C52.9394 33.2695 53.2559 33.2696 53.4512 33.4648L56.6338 36.6464C56.8289 36.8417 56.8289 37.1582 56.6338 37.3535L53.4512 40.5351C53.2559 40.7303 52.9394 40.7304 52.7441 40.5351C52.5492 40.3398 52.549 40.0232 52.7441 39.8281L55.0732 37.4999H54.2627V36.4999H55.0732L52.7441 34.1718C52.549 33.9767 52.5492 33.6601 52.7441 33.4648ZM26.0176 36.4999V37.4999H24V36.4999H26.0176ZM34.0879 36.4999V37.4999H30.0527V36.4999H34.0879ZM42.1572 36.4999V37.4999H38.1221V36.4999H42.1572ZM50.2275 36.4999V37.4999H46.1924V36.4999H50.2275Z" fill="#E9F03C"/>
<path d="M41.9999 14.0004C41.9999 13.7243 42.2237 13.5005 42.4999 13.5005L47.0001 13.4998C47.276 13.4999 47.4999 13.7238 47.5 13.9997L47.4993 18.4999C47.4993 18.7761 47.2755 18.9999 46.9994 18.9999C46.7234 18.9997 46.4994 18.7759 46.4994 18.4999V15.2075L45.9159 15.791L45.2088 15.0838L45.7923 14.5003L42.4999 14.5003C42.2239 14.5003 42.0001 14.2764 41.9999 14.0004ZM25.0839 35.2088L25.791 35.9159L24.3533 37.3536L23.6462 36.6465L25.0839 35.2088ZM30.834 29.4587L31.5411 30.1658L28.6657 33.0412L27.9586 32.3341L30.834 29.4587ZM36.5841 23.7086L37.2912 24.4157L34.4158 27.2911L33.7087 26.584L36.5841 23.7086ZM42.3334 17.9592L43.0406 18.6663L40.1659 21.541L39.4588 20.8339L42.3334 17.9592Z" fill="#E9F03C"/>
<path d="M44.0002 52.0005C44.2763 52.0005 44.5001 52.2243 44.5001 52.5004L44.5001 56.9999C44.5001 57.2761 44.2763 57.4999 44.0002 57.4999L39.5006 57.4999C39.2245 57.4999 39.0007 57.2761 39.0007 56.9999C39.0007 56.7238 39.2245 56.5 39.5006 56.5L42.7931 56.5L42.3967 56.1036L43.1038 55.3965L43.5002 55.7929L43.5002 52.5004C43.5002 52.2243 43.7241 52.0005 44.0002 52.0005ZM25.6036 37.8963L24.8965 38.6034L23.6467 37.3536L24.3538 36.6465L25.6036 37.8963ZM30.6038 42.8965L29.8967 43.6036L27.397 41.1039L28.1041 40.3968L30.6038 42.8965ZM35.604 47.8966L34.8969 48.6037L32.3964 46.1033L33.1035 45.3962L35.604 47.8966ZM40.6041 52.8968L39.897 53.6039L37.3966 51.1035L38.1037 50.3964L40.6041 52.8968Z" fill="#E9F03C"/>
</svg>
