<svg width="52" height="71" viewBox="0 0 52 71" fill="none" xmlns="http://www.w3.org/2000/svg">
<path d="M1.18677 18.7798C0.869957 18.7848 0.568037 18.9143 0.347146 19.14C0.125304 19.3642 0.00176544 19.6665 0.00352082 19.9809C0.0052762 20.2953 0.132182 20.5962 0.356515 20.818L6.25489 26.5721L0.356515 32.324C0.244381 32.4339 0.155172 32.5647 0.0939988 32.7089C0.0328252 32.8532 0.00088853 33.008 1.82782e-05 33.1645C-0.000851973 33.321 0.0293614 33.4761 0.0889274 33.621C0.148493 33.7659 0.236242 33.8977 0.347146 34.0089C0.569052 34.233 0.871221 34.3608 1.18763 34.3642C1.50404 34.3677 1.80896 34.2465 2.03577 34.0273L7.96686 28.2406L13.898 34.0273C14.1248 34.2465 14.4297 34.3677 14.7461 34.3642C15.0625 34.3608 15.3647 34.233 15.5866 34.0089C15.6975 33.8977 15.7852 33.7659 15.8448 33.621C15.9044 33.4761 15.9346 33.321 15.9337 33.1645C15.9328 33.008 15.9009 32.8532 15.8397 32.7089C15.7786 32.5647 15.6893 32.4339 15.5772 32.324L9.67883 26.5721L15.5772 20.818C15.8015 20.5962 15.9284 20.2953 15.9302 19.9809C15.932 19.6665 15.8084 19.3642 15.5866 19.14C15.3647 18.9159 15.0625 18.7881 14.7461 18.7847C14.4297 18.7812 14.1248 18.9024 13.898 19.1216L7.96686 24.9037L2.03577 19.1216C1.80951 18.9004 1.50415 18.7774 1.18677 18.7798ZM41.8579 21.1154C41.7921 21.1162 41.7263 21.1224 41.6615 21.1339C41.6237 21.1406 41.5862 21.1492 41.5492 21.1595C41.5217 21.1663 41.4944 21.1741 41.4674 21.1829C41.4301 21.195 41.3934 21.209 41.3574 21.2247C41.3296 21.2383 41.3023 21.253 41.2756 21.2688C41.2137 21.303 41.155 21.3427 41.1002 21.3873C41.0786 21.4036 41.0575 21.4207 41.0371 21.4384C41.0074 21.4671 40.9793 21.4974 40.9528 21.529C40.9417 21.5405 40.9309 21.5522 40.9202 21.5641L34.6173 29.4238C34.4194 29.6701 34.3279 29.9844 34.363 30.2977C34.3981 30.611 34.5568 30.8976 34.8044 31.0947C34.9279 31.1927 35.0697 31.2653 35.2216 31.3086C35.3736 31.3518 35.5326 31.3647 35.6896 31.3465C35.8465 31.3284 35.9983 31.2795 36.1362 31.2028C36.2741 31.1261 36.3953 31.023 36.4929 30.8995L40.6559 25.7054V32.2102C40.6559 35.9926 37.5662 39.0241 33.6537 39.0241H30.2859H23.5596C18.3851 39.0241 14.1554 43.13 14.1554 48.2132V52.5962C9.72884 53.1742 6.27842 56.8957 6.27842 61.3971C6.27842 66.2988 10.3693 70.277 15.3575 70.277C20.3457 70.277 24.4343 66.2988 24.4343 61.3971C24.4343 56.8927 20.9811 53.168 16.5503 52.5939V48.2132C16.5503 44.4309 19.647 41.4062 23.5596 41.4062H30.2859H33.6537C38.8282 41.4062 43.0509 37.2934 43.0509 32.2102V25.6938L47.2232 30.8995C47.4202 31.1462 47.7075 31.3053 48.0223 31.3419C48.337 31.3785 48.6535 31.2896 48.9025 31.0947C49.1511 30.8987 49.3112 30.6125 49.3476 30.2992C49.384 29.9859 49.2937 29.671 49.0966 29.4238L42.7936 21.5641C42.6714 21.4133 42.5141 21.2945 42.3352 21.2178C42.3167 21.2103 42.2979 21.2033 42.2791 21.1967C42.2295 21.1779 42.1787 21.1623 42.127 21.1502C42.1069 21.145 42.0866 21.1404 42.0662 21.1362C41.9976 21.1232 41.9278 21.1164 41.8579 21.1154ZM37.2529 47.0975C36.9361 47.1025 36.6342 47.232 36.4133 47.4577C36.1923 47.6828 36.07 47.9856 36.0731 48.3C36.0762 48.6144 36.2043 48.9148 36.4296 49.1356L42.3279 54.8921L36.4296 60.651C36.204 60.8715 36.0754 61.1717 36.072 61.4861C36.0685 61.8005 36.1904 62.1035 36.411 62.3289C36.5212 62.4411 36.6526 62.5306 36.7978 62.5922C36.9429 62.6538 37.0988 62.6862 37.2566 62.6877C37.4144 62.6892 37.5709 62.6597 37.7172 62.6009C37.8635 62.5421 37.9966 62.4552 38.109 62.3451L44.0377 56.5607L49.9642 62.3451C50.0765 62.4548 50.2095 62.5415 50.3555 62.6001C50.5016 62.6587 50.6578 62.6881 50.8154 62.6866C50.9729 62.6851 51.1285 62.6527 51.2734 62.5913C51.4183 62.5299 51.5496 62.4408 51.6598 62.3289C51.8807 62.1038 52.003 61.801 51.9999 61.4866C51.9969 61.1722 51.8687 60.8718 51.6435 60.651L45.7451 54.8921L51.6435 49.1356C51.8687 48.9148 51.9969 48.6144 51.9999 48.3C52.003 47.9856 51.8807 47.6828 51.6598 47.4577C51.5493 47.3449 51.4174 47.2549 51.2716 47.1931C51.1259 47.1312 50.9693 47.0987 50.8108 47.0975C50.4943 47.0957 50.1899 47.2185 49.9642 47.4391L44.0377 53.2258L38.109 47.4391C37.9961 47.3288 37.8623 47.2418 37.7154 47.1831C37.5685 47.1245 37.4112 47.0954 37.2529 47.0975ZM15.3573 54.8968C19.0748 54.8968 22.0392 57.8052 22.0392 61.397C22.0392 64.9887 19.0748 67.8971 15.3573 67.8971C11.6399 67.8971 8.67316 64.9887 8.67316 61.397C8.67316 57.8052 11.6399 54.8968 15.3573 54.8968Z" fill="white"/>
<path d="M40.8937 13.5351C41.234 13.6025 41.5883 13.638 41.9532 13.6381V16.4489L41.5305 16.4379C41.1282 16.4175 40.7339 16.3659 40.3488 16.2897L40.8937 13.5351ZM43.5576 16.2897C43.0388 16.3923 42.5022 16.4489 41.9532 16.4489V13.6381C42.3181 13.6381 42.6726 13.6024 43.0128 13.5351L43.5576 16.2897ZM37.4502 11.2308C37.8462 11.8222 38.3561 12.3322 38.9476 12.7281L38.1653 13.8947L37.5518 14.8143L37.3843 15.0613C36.4875 14.4607 35.7146 13.6897 35.1143 12.7926L35.4794 12.5497L37.4502 11.2308ZM48.4285 12.5497L48.7908 12.7926C48.1904 13.6895 47.4189 14.4609 46.5221 15.0613L45.7412 13.8961L44.9603 12.7281C45.5517 12.3322 46.0617 11.8222 46.4576 11.2308L48.4285 12.5497ZM33.7295 8.22375C33.7295 7.67463 33.7846 7.13833 33.8873 6.61935L36.6432 7.16421C36.5759 7.50446 36.5403 7.85882 36.5403 8.22375C36.5403 8.58865 36.576 8.94305 36.6432 9.28328L35.2639 9.55503L35.2653 9.5564L33.8873 9.82815C33.7848 9.30933 33.7295 8.77266 33.7295 8.22375ZM50.1674 8.64783C50.147 9.04974 50.0952 9.4435 50.0192 9.82815L48.6426 9.5564L47.2646 9.28328C47.3319 8.94306 47.3676 8.58864 47.3676 8.22375C47.3675 7.85882 47.3319 7.50446 47.2646 7.16421L50.0192 6.61935C50.1219 7.13841 50.1783 7.67455 50.1784 8.22375L50.1674 8.64783ZM38.1666 2.55277L38.9476 3.72072C38.3561 4.11671 37.8462 4.62664 37.4502 5.21807L35.1143 3.65485C35.7148 2.75777 36.4873 1.98533 37.3843 1.38481L38.1666 2.55277ZM46.5221 1.38481C47.4192 1.98515 48.1902 2.758 48.7908 3.65485L47.6256 4.43714L47.6242 4.43577L46.4576 5.21807C46.0617 4.62664 45.5517 4.11672 44.9603 3.72072L46.5221 1.38481ZM41.9532 0C42.5022 0 43.0388 0.055263 43.5576 0.157832L43.0128 2.91372C42.6725 2.84646 42.3181 2.81079 41.9532 2.81079C41.5883 2.81083 41.234 2.84641 40.8937 2.91372L40.3488 0.157832C40.8678 0.055149 41.4041 4.01943e-05 41.9532 0Z" fill="#E9F03C"/>
</svg>
