<svg width="63" height="71" viewBox="0 0 63 71" fill="none" xmlns="http://www.w3.org/2000/svg">
<path d="M60.8291 57.1318C60.8291 54.4586 58.6316 51.5104 53.876 49.1113C49.235 46.7701 42.6835 45.2637 35.3379 45.2637C27.9924 45.2637 21.4408 46.7701 16.7998 49.1113C12.0444 51.5103 9.84766 54.4587 9.84766 57.1318C9.84778 59.8049 12.0445 62.7534 16.7998 65.1523C21.4408 67.4935 27.9924 69 35.3379 69V71L34.6289 70.9951C20.0097 70.8083 8.22652 64.8641 7.85645 57.4893L7.84766 57.1318C7.84766 49.4728 20.1554 43.2638 35.3379 43.2637C50.5205 43.2637 62.8291 49.4728 62.8291 57.1318L62.8193 57.4893C62.4433 64.983 50.2835 71 35.3379 71V69C42.6834 69 49.235 67.4935 53.876 65.1523C58.6315 62.7534 60.829 59.805 60.8291 57.1318Z" fill="#E9F03C"/>
<path d="M37.9285 8.07129C37.5381 7.68086 37.5383 7.04778 37.9285 6.65723L44.2927 0.292968C44.6833 -0.0975536 45.3163 -0.0975536 45.7068 0.292968L52.0711 6.65723C52.4613 7.04777 52.4615 7.68086 52.0711 8.07129C51.6806 8.46172 51.0475 8.46152 50.657 8.07129L45.6218 3.03613L44.3777 3.03613L39.3425 8.07129C38.952 8.46152 38.3189 8.46172 37.9285 8.07129ZM43.9998 55.9639L45.9998 55.9639L45.9998 58L43.9998 58L43.9998 55.9639ZM43.9998 47.8213L45.9998 47.8213L45.9998 51.8926L43.9998 51.8926L43.9998 47.8213ZM43.9998 39.6787L45.9998 39.6787L45.9998 43.75L43.9998 43.75L43.9998 39.6787ZM43.9998 31.5361L45.9998 31.5361L45.9998 35.6074L43.9998 35.6074L43.9998 31.5361ZM43.9998 23.3926L45.9998 23.3926L45.9998 27.4639L43.9998 27.4639L43.9998 23.3926ZM43.9998 15.25L45.9998 15.25L45.9998 19.3213L43.9998 19.3213L43.9998 15.25ZM43.9998 7.10742L45.9998 7.10742L45.9998 11.1787L43.9998 11.1787L43.9998 7.10742Z" fill="#E9F03C"/>
<path d="M4 32.0381L2 32.0381L2.0039 31.2363C2.00454 31.1728 2.00702 31.1093 2.00781 31.0459L4.00683 31.0703C4.00284 31.3915 4 31.7144 4 32.0381ZM2.00781 33.0293C2.00372 32.7002 2 32.3697 2 32.0381L4 32.0381C4 32.3616 4.00285 32.6839 4.00683 33.0049L2.00781 33.0293ZM4.15137 27.2158C4.11108 27.8513 4.07905 28.4941 4.05469 29.1426L2.05664 29.0674C2.08165 28.4019 2.11487 27.7425 2.15625 27.0898L4.15137 27.2158ZM2.15722 36.9854C2.11583 36.3324 2.08165 35.6727 2.05664 35.0068L4.05469 34.9336C4.07905 35.5819 4.11109 36.2241 4.15137 36.8594L2.15722 36.9854ZM4.49805 23.3799C4.42375 24.0088 4.3571 24.6467 4.29883 25.293L3.30371 25.2031L2.30762 25.1143C2.36752 24.4499 2.43719 23.7929 2.51367 23.1455L4.49805 23.3799ZM2.51367 40.9297C2.4372 40.2823 2.36752 39.6263 2.30762 38.9619L4.29883 38.7822C4.3571 39.4285 4.42375 40.0664 4.49805 40.6953L2.51367 40.9297ZM5.06055 19.5811C4.94925 20.2009 4.84596 20.8327 4.75098 21.4756L2.77441 21.1836C2.87237 20.5206 2.97774 19.8682 3.09277 19.2275L5.06055 19.5811ZM3.09277 44.8477C2.97775 44.207 2.87236 43.5546 2.77441 42.8916L4.75097 42.5996C4.84598 43.2427 4.94922 43.8751 5.06054 44.4951L3.09277 44.8477ZM5.8623 15.8457C5.70956 16.4501 5.5648 17.0706 5.42871 17.7061L3.47363 17.2881C3.61469 16.6294 3.76587 15.9844 3.9248 15.3555L5.8623 15.8457ZM4.44531 48.5879L3.9248 48.7187C3.76595 48.0901 3.61462 47.4464 3.47363 46.7881L4.45117 46.5781L5.42871 46.3691C5.56479 47.0046 5.70956 47.6251 5.8623 48.2295L4.44531 48.5879ZM6.94141 12.2178C6.74032 12.7961 6.54749 13.3971 6.36328 14.0186L4.44629 13.4502C4.63889 12.8004 4.84197 12.1705 5.05371 11.5615L6.94141 12.2178ZM5.05469 52.5137C4.84282 51.9043 4.639 51.2743 4.44629 50.624L6.36328 50.0566C6.54747 50.6781 6.74033 51.2791 6.9414 51.8574L5.05469 52.5137ZM8.35644 8.78125C8.0974 9.31125 7.84566 9.87354 7.60254 10.4668L6.67773 10.0869L6.67676 10.0879L6.36328 9.95898L5.75293 9.70898C6.01157 9.07787 6.2818 8.47559 6.56152 7.90332L8.35644 8.78125ZM6.56152 56.1719C6.28181 55.5996 6.01156 54.9973 5.75293 54.3662L6.67676 53.9873L7.60254 53.6084C7.84566 54.2017 8.0974 54.7639 8.35644 55.2939L6.56152 56.1719ZM10.1953 5.72168C9.86508 6.15795 9.538 6.64577 9.2168 7.18457L8.3584 6.67187L7.66309 6.25781L7.50098 6.16016C7.85571 5.5652 8.22322 5.01568 8.60254 4.51465L10.1953 5.72168ZM8.60254 59.5596C8.22324 59.0585 7.85569 58.5091 7.50097 57.9141L9.21679 56.8906C9.53801 57.4295 9.86507 57.9172 10.1953 58.3535L8.60254 59.5596ZM12.4873 3.54004C12.1044 3.76698 11.7046 4.0728 11.2939 4.46875L10.6006 3.74805L9.9082 3.03027C10.4136 2.54312 10.9339 2.13725 11.4687 1.82031L12.4873 3.54004ZM11.4687 62.2539C10.9341 61.937 10.4134 61.532 9.9082 61.0449L10.5996 60.3262L11.2939 59.6064C11.7047 60.0025 12.1043 60.3092 12.4873 60.5361L11.4687 62.2539ZM14.2832 0.999999C14.6142 0.999999 14.9422 1.0337 15.2666 1.09863L14.874 3.05957C14.6766 3.02006 14.48 3 14.2832 3C14.0864 3.00001 13.8898 3.02006 13.6924 3.05957L13.3008 1.09863C13.5213 1.05453 13.7432 1.02406 13.9668 1.00977L14.2832 0.999999ZM13.9668 63.0654C13.7432 63.0511 13.5213 63.0207 13.3008 62.9766L13.6924 61.0166C13.8898 61.0561 14.0864 61.0752 14.2832 61.0752C14.48 61.0752 14.6766 61.0561 14.874 61.0166L15.2666 62.9766C14.9422 63.0415 14.6142 63.0752 14.2832 63.0752L13.9668 63.0654ZM17.2725 4.46875C16.8617 4.0728 16.462 3.76696 16.0791 3.54004L17.0986 1.81934C17.6338 2.13644 18.1545 2.54277 18.6602 3.03027L17.2725 4.46875ZM18.6602 61.0449C18.1547 61.5323 17.6336 61.9378 17.0986 62.2549L16.5889 61.3965L16.5898 61.3955L16.0791 60.5361C16.462 60.3092 16.8617 60.0025 17.2725 59.6064L18.6602 61.0449ZM19.3506 7.18457C19.0294 6.64578 18.7023 6.15795 18.3721 5.72168L19.9658 4.51465C20.3451 5.01567 20.7127 5.56523 21.0674 6.16016L19.3506 7.18457ZM21.0674 57.9141C20.7127 58.509 20.3451 59.0585 19.9658 59.5596L18.3721 58.3535C18.7022 57.9173 19.0294 57.4293 19.3506 56.8906L21.0674 57.9141ZM20.9639 10.4668C20.7207 9.87354 20.469 9.31124 20.21 8.78125L21.3096 8.24316L22.0068 7.90332C22.2865 8.47547 22.5559 9.07802 22.8145 9.70898L20.9639 10.4668ZM22.8145 54.3662C22.5559 54.9972 22.2865 55.5997 22.0068 56.1719L20.21 55.2939C20.469 54.7639 20.7207 54.2017 20.9639 53.6084L21.9209 54.001L22.8145 54.3662ZM22.2031 14.0186C22.0189 13.3971 21.8261 12.7961 21.625 12.2178L23.5146 11.5615C23.7263 12.1704 23.9285 12.8005 24.1211 13.4502L22.2031 14.0186ZM24.1211 50.624C23.9284 51.2742 23.7255 51.9044 23.5137 52.5137L21.625 51.8574C21.8261 51.2791 22.0189 50.6781 22.2031 50.0566L24.1211 50.624ZM23.1377 17.7061C23.0016 17.0706 22.8568 16.4501 22.7041 15.8457L24.6426 15.3555C24.8016 15.9846 24.9526 16.6291 25.0937 17.2881L23.1377 17.7061ZM25.0937 46.7871C24.9527 47.4458 24.8015 48.0899 24.6426 48.7187L22.7041 48.2295C22.8568 47.625 23.0016 47.0046 23.1377 46.3691L25.0937 46.7871ZM23.8154 21.4756C23.7204 20.8327 23.6172 20.2009 23.5059 19.5811L25.4746 19.2275C25.5896 19.8682 25.696 20.5206 25.7939 21.1836L23.8154 21.4756ZM25.7939 42.8916C25.696 43.5546 25.5896 44.207 25.4746 44.8477L23.5059 44.4951C23.6172 43.8751 23.7204 43.2427 23.8154 42.5996L25.7939 42.8916ZM25.2637 25.2041L24.2676 25.293C24.2093 24.6467 24.1427 24.0088 24.0684 23.3799L26.0547 23.1455C26.1312 23.7931 26.1998 24.4496 26.2598 25.1143L25.2637 25.2041ZM26.2598 38.9609C26.1998 39.6256 26.1312 40.282 26.0547 40.9297L24.0684 40.6953C24.1427 40.0664 24.2093 39.4285 24.2676 38.7822L26.2598 38.9609ZM24.5127 29.1426C24.4883 28.4941 24.4553 27.8513 24.415 27.2158L26.4111 27.0898C26.4525 27.7425 26.4857 28.4019 26.5107 29.0674L24.5127 29.1426ZM26.5107 35.0068C26.4857 35.6727 26.4525 36.3324 26.4111 36.9854L24.415 36.8594C24.4553 36.2241 24.4883 35.5819 24.5127 34.9336L26.5107 35.0068ZM26.5625 32.8389C26.5619 32.9024 26.5613 32.9659 26.5605 33.0293L24.5605 33.0049C24.5645 32.6839 24.5664 32.3616 24.5664 32.0381C24.5664 31.7144 24.5645 31.3915 24.5605 31.0703L25.5615 31.0576L26.5605 31.0459C26.5646 31.3752 26.5664 31.7062 26.5664 32.0381L26.5625 32.8389Z" fill="white"/>
<path d="M6 19.6289C6 21.3766 4.77009 22.5811 3.5 22.5811C2.22991 22.5811 1 21.3766 1 19.6289C1.00021 17.8815 2.23001 16.6777 3.5 16.6777C4.76999 16.6777 5.99979 17.8815 6 19.6289Z" fill="#E9F03C" stroke="#E9F03C" stroke-width="2"/>
</svg>
