<svg width="200" height="186" viewBox="0 0 200 186" fill="none" xmlns="http://www.w3.org/2000/svg">
<path d="M110.466 44.141H110.464C110.397 44.141 110.328 44.1371 110.262 44.1294L110.306 43.7655C110.359 43.7719 110.418 43.7797 110.467 43.7745C110.521 43.7745 110.574 43.7719 110.628 43.7655L110.672 44.1294C110.604 44.1371 110.536 44.1423 110.467 44.1423L110.466 44.141ZM109.865 44.0322C109.737 43.9843 109.615 43.9196 109.502 43.8419L109.711 43.5401C109.799 43.601 109.895 43.6515 109.994 43.6891L109.865 44.0322ZM111.068 44.0322L110.937 43.6891C111.037 43.6515 111.132 43.601 111.221 43.5401L111.429 43.8419C111.316 43.9196 111.195 43.9843 111.068 44.0322ZM109.197 43.5725C109.106 43.4702 109.027 43.3575 108.964 43.2371L109.289 43.0662C109.339 43.1607 109.4 43.2488 109.471 43.3291L109.197 43.5725ZM111.736 43.5699L111.461 43.3265C111.533 43.2462 111.593 43.1568 111.644 43.0623L111.969 43.2332C111.905 43.3537 111.828 43.4676 111.737 43.5699H111.736ZM108.819 42.8551C108.786 42.723 108.77 42.587 108.77 42.4497H109.136C109.136 42.5572 109.149 42.6634 109.175 42.767L108.819 42.8551ZM112.113 42.8512L111.757 42.7644C111.782 42.6608 111.795 42.5533 111.795 42.4459L112.162 42.4394V42.4459C112.162 42.5831 112.145 42.7191 112.113 42.8512ZM109.173 42.1299L108.817 42.0431C108.85 41.911 108.898 41.7815 108.961 41.6598L109.286 41.8294C109.237 41.924 109.198 42.025 109.173 42.1286V42.1299ZM111.755 42.1221C111.729 42.0185 111.691 41.9175 111.64 41.823L111.964 41.6507C112.027 41.7712 112.078 41.8994 112.11 42.0328L111.754 42.1221H111.755ZM109.467 41.5665L109.193 41.3231C109.284 41.2208 109.386 41.1288 109.497 41.0511L109.707 41.3529C109.619 41.4137 109.539 41.4863 109.467 41.5665ZM111.457 41.5601C111.386 41.4798 111.305 41.4086 111.217 41.3477L111.424 41.0447C111.536 41.1224 111.64 41.213 111.731 41.314L111.457 41.5588V41.5601ZM109.99 41.2027L109.86 40.8595C109.988 40.8103 110.121 40.7779 110.257 40.7611L110.303 41.125C110.196 41.1379 110.091 41.1638 109.992 41.2027H109.99ZM110.933 41.2001C110.833 41.1625 110.729 41.1366 110.621 41.125L110.664 40.7598C110.8 40.7753 110.933 40.8077 111.061 40.8556L110.933 41.1988V41.2001Z" fill="#E9F03C"/>
</svg>
