<svg width="101" height="59" viewBox="0 0 101 59" fill="none" xmlns="http://www.w3.org/2000/svg">
<mask id="mask0_2009_20" style="mask-type:alpha" maskUnits="userSpaceOnUse" x="0" y="0" width="101" height="59">
<rect width="101" height="59" fill="#D9D9D9"/>
</mask>
<g mask="url(#mask0_2009_20)">
<path d="M60.3867 0.94631C60.6419 0.691168 60.7701 0.564295 61.0253 0.310547C72.6489 14.0087 78.8964 31.4225 89.01 46.1775C96.5848 57.2295 106.012 65.1863 117.686 71.6192C128.404 77.5251 139.221 82.9291 148.77 90.6991C160.729 100.429 170.958 112.42 181.731 123.409C181.479 123.657 181.352 123.781 181.099 124.028C170.34 113.053 160.133 101.02 148.108 91.3962C138.513 83.7168 127.634 78.4927 116.869 72.729C105.085 66.4188 95.7106 58.4229 88.1902 47.2957C78.1128 32.3873 71.9741 14.8174 60.3881 0.947704L60.3867 0.94631Z" fill="#E9F03C"/>
<path d="M60.1102 0.936926C60.4797 0.568853 60.6637 0.386211 61.0318 0.0195312C61.0848 0.0794826 61.1127 0.108761 61.1656 0.170107C72.8101 13.846 79.0841 31.2472 89.2229 45.9785C96.8213 57.0193 106.283 64.958 117.944 71.4174C128.667 77.3568 139.477 82.8193 149.019 90.6311C160.967 100.41 171.215 112.405 182.005 123.412C181.64 123.77 181.457 123.949 181.092 124.307C181.038 124.251 181.01 124.223 180.954 124.166C170.186 113.181 159.974 101.125 147.917 91.5206C138.298 83.858 127.387 78.6785 116.603 72.9343C104.773 66.6325 95.4202 58.5864 87.9123 47.4132C77.86 32.4504 71.7505 14.8066 60.1074 0.936926H60.1102ZM61.0151 0.605103C60.8728 0.747313 60.8017 0.817024 60.6595 0.959234C72.2706 14.9307 78.4484 32.5648 88.6735 47.4954C96.1466 58.4052 105.463 66.2421 117.047 72.4854C127.664 78.2059 138.393 83.4007 147.889 90.9518C160.014 100.596 170.277 112.711 181.099 123.752C181.24 123.614 181.31 123.546 181.45 123.408C170.62 112.36 160.346 100.268 148.257 90.5628C138.787 82.9601 128.092 77.6677 117.502 71.8691C105.977 65.5589 96.6317 57.7429 89.1309 46.8736C78.8861 32.0294 72.647 14.4818 61.0151 0.606497V0.605103Z" fill="#E9F03C"/>
<path d="M44.6406 16.9708C44.9083 16.685 45.0408 16.5414 45.3001 16.2793C55.9533 34.0388 59.7484 54.9981 69.0088 73.4492C72.2043 79.8166 76.0928 86.2579 81.5637 90.9438C86.1186 94.8462 92.3187 96.5988 98.0545 97.9163C109.808 100.614 121.907 101.757 132.699 107.58C138.805 110.873 143.703 115.403 148.521 120.319C154.46 126.378 160.4 132.437 166.339 138.496C166.087 138.745 165.96 138.869 165.708 139.115C159.768 133.056 153.829 126.997 147.889 120.938C143.072 116.023 138.177 111.497 132.051 108.242C121.21 102.48 109.069 101.491 97.2835 98.9034C91.5505 97.6444 85.303 95.9407 80.7411 92.0676C75.2465 87.4039 71.3775 80.8859 68.2113 74.5102C59.0011 55.9699 55.4737 34.6969 44.642 16.9722L44.6406 16.9708Z" fill="#E9F03C"/>
<path d="M44.373 16.9436C44.7592 16.5309 44.9516 16.3245 45.3253 15.9453C45.3727 16.0206 45.3964 16.0582 45.4452 16.1335C56.1179 33.8805 59.9283 54.8356 69.218 73.2714C72.4233 79.6332 76.3229 86.0661 81.8036 90.7409C86.3711 94.6364 92.5753 96.3903 98.3153 97.7162C110.077 100.432 122.179 101.624 132.96 107.495C139.063 110.818 143.952 115.378 148.779 120.301C154.725 126.367 160.672 132.434 166.618 138.498C166.253 138.857 166.07 139.035 165.705 139.394C165.65 139.338 165.623 139.31 165.567 139.253C159.62 133.186 153.674 127.12 147.728 121.055C142.905 116.137 138.003 111.612 131.864 108.367C120.994 102.621 108.829 101.681 97.0243 99.102C91.2801 97.8472 85.027 96.1379 80.4707 92.2383C74.9761 87.5384 71.1169 80.9911 67.9548 74.5847C58.7823 55.9998 55.2898 34.6515 44.373 16.9436ZM45.2765 16.6159C45.1329 16.7623 45.059 16.8404 44.9098 17.0007C55.5561 34.7937 59.2033 55.8771 68.4372 74.3742C71.6063 80.7235 75.4767 87.2038 80.9559 91.8479C85.5108 95.7085 91.736 97.4164 97.4551 98.6852C109.207 101.292 121.31 102.313 132.124 108.057C138.232 111.301 143.13 115.801 147.934 120.701C153.86 126.747 159.786 132.792 165.712 138.837C165.853 138.699 165.922 138.631 166.063 138.493C160.138 132.448 154.211 126.402 148.285 120.357C143.481 115.455 138.582 110.953 132.485 107.688C121.698 101.91 109.618 100.803 97.8845 98.1358C92.164 96.835 85.9654 95.0992 81.4146 91.2233C75.9479 86.5666 72.0678 80.1295 68.882 73.7844C59.6216 55.3417 55.8307 34.4201 45.2765 16.6159Z" fill="#E9F03C"/>
<path d="M28.543 33.9276C28.8009 33.6655 28.9306 33.533 29.1899 33.2695C39.0902 52.631 43.1 74.1717 51.5071 94.116C54.3444 100.844 57.7992 107.863 63.7888 112.333C68.7062 116.002 74.8714 117.245 80.8624 117.766C93.0729 118.827 105.896 117.249 117.364 122.52C123.758 125.459 128.291 130.47 133.13 135.407C139.07 141.466 145.009 147.526 150.948 153.585C150.696 153.833 150.569 153.957 150.317 154.204C144.377 148.145 138.438 142.085 132.499 136.026C127.662 131.092 123.139 126.034 116.755 123.081C105.292 117.779 92.4511 119.411 80.2406 118.36C74.1897 117.84 68.1457 116.566 63.1935 112.857C57.1983 108.366 53.7588 101.395 50.909 94.6472C42.5019 74.7405 38.4322 53.2542 28.543 33.9276Z" fill="#E9F03C"/>
<path d="M28.2885 33.863C28.6622 33.4837 28.849 33.2941 29.2226 32.9121C29.2672 32.9958 29.2896 33.0376 29.3342 33.1226C39.2471 52.512 43.2401 74.0903 51.6695 94.0597C54.5054 100.777 57.9742 107.816 63.9805 112.256C68.9132 115.902 75.1063 117.124 81.0945 117.64C93.3162 118.69 106.154 117.135 117.619 122.45C124.007 125.411 128.544 130.449 133.387 135.39C139.334 141.456 145.28 147.522 151.226 153.589C150.861 153.947 150.679 154.125 150.313 154.484C150.259 154.428 150.231 154.4 150.175 154.343C144.229 148.277 138.283 142.21 132.336 136.144C127.494 131.204 122.968 126.136 116.575 123.186C105.092 117.887 92.2357 119.549 80.0084 118.484C73.9324 117.954 67.9261 116.645 62.9697 112.904C56.9759 108.38 53.5489 101.36 50.702 94.5923C42.3213 74.6661 38.2307 53.1771 28.2871 33.8671L28.2885 33.863ZM29.1571 33.6259C29.0135 33.7723 28.941 33.8462 28.7974 33.9912C38.621 53.3123 42.674 74.7665 51.0867 94.6383C53.9337 101.363 57.3775 108.296 63.3573 112.766C68.2886 116.452 74.3576 117.708 80.3765 118.227C92.5619 119.277 105.365 117.665 116.814 122.92C123.196 125.848 127.712 130.863 132.54 135.787C138.465 141.833 144.392 147.878 150.317 153.923C150.458 153.785 150.528 153.717 150.669 153.579C144.743 147.534 138.817 141.488 132.891 135.443C128.062 130.517 123.539 125.529 117.153 122.608C105.701 117.37 92.9063 118.952 80.7222 117.897C74.7369 117.378 68.6009 116.139 63.6891 112.475C57.7107 108.016 54.2586 101.056 51.42 94.3427C43.0073 74.45 38.9863 52.9665 29.1571 33.6246V33.6259Z" fill="#E9F03C"/>
<path d="M13.3203 48.5716C13.5629 48.3514 13.6842 48.2412 13.9268 48.0195C24.1199 65.114 29.9798 84.1563 38.8945 101.861C45.1754 114.338 54.2253 122.864 67.8747 126.501C79.3142 129.549 92.5021 129.026 102.635 135.859C108.336 139.703 112.947 145.602 117.74 150.493C123.68 156.552 129.619 162.612 135.56 168.671C135.307 168.919 135.181 169.043 134.928 169.29C128.936 163.176 122.943 157.064 116.951 150.95C112.131 146.033 107.479 140.056 101.711 136.233C91.6391 129.559 78.7119 129.842 67.4006 126.708C54.0552 123.009 44.9454 114.628 38.6714 102.429C29.5783 84.7474 23.6292 65.6675 13.3217 48.5716H13.3203Z" fill="#E9F03C"/>
<path d="M13.0664 48.5015C13.4164 48.1822 13.592 48.0232 13.9434 47.7012C13.9908 47.7779 14.0145 47.8169 14.0605 47.895C24.2592 65.0397 30.0982 84.1376 39.0226 101.889C45.3077 114.389 54.384 122.886 68.0655 126.477C79.5274 129.486 92.7515 128.927 102.882 135.805C108.577 139.672 113.195 145.577 117.997 150.475C123.943 156.541 129.889 162.607 135.836 168.673C135.47 169.032 135.288 169.21 134.922 169.568C134.868 169.513 134.84 169.485 134.784 169.428C128.838 163.361 122.892 157.295 116.945 151.229C112.138 146.325 107.52 140.442 101.838 136.542C91.7602 129.628 78.6114 129.938 67.2067 126.724C53.6423 122.902 44.5911 114.285 38.2669 101.864C29.323 84.298 23.3376 65.4217 13.0664 48.5015ZM13.9085 48.3341C13.7733 48.4568 13.7063 48.5182 13.5725 48.6409C23.8186 65.7507 29.7357 84.8278 38.8176 102.497C45.0749 114.67 54.1819 123.004 67.5036 126.661C78.7996 129.763 91.6947 129.447 101.776 136.057C107.547 139.841 112.187 145.809 116.993 150.712C122.971 156.811 128.95 162.91 134.929 169.009C135.07 168.871 135.14 168.803 135.281 168.665C129.302 162.565 123.324 156.467 117.344 150.367C112.542 145.469 107.904 139.491 102.119 135.735C92.0028 129.167 79.0854 129.584 67.7671 126.547C54.3938 122.96 45.3021 114.638 39.0658 102.424C30.0034 84.6786 24.1393 65.5221 13.9099 48.3328L13.9085 48.3341Z" fill="#E9F03C"/>
<path d="M-62.7168 120.973C-42.3166 100.974 -22.4044 80.2488 -1.29593 60.9975C7.75951 52.7395 17.0143 44.7451 25.6892 36.0772C37.4466 24.3282 48.624 12.0228 60.4024 0.289062C60.6436 0.558146 60.7635 0.69478 61.0019 0.972229C49.2068 12.8077 38.0154 25.2219 26.1897 37.0211C17.5609 45.6304 8.32697 53.5314 -0.706177 61.703C-21.8662 80.847 -41.7199 101.629 -62.0978 121.604C-62.3459 121.352 -62.47 121.225 -62.7168 120.973Z" fill="#E9F03C"/>
<path d="M-62.9961 120.971C-62.9403 120.915 -62.9124 120.888 -62.8553 120.833C-42.43 100.81 -22.4913 80.063 -1.36052 60.7823C7.81902 52.4059 17.1868 44.2804 25.9703 35.4773C37.6135 23.8077 48.7156 11.6236 60.4103 0C60.7603 0.386198 60.9345 0.582783 61.2775 0.984318C61.2204 1.04148 61.1925 1.06937 61.1353 1.12653C49.4197 12.9007 38.298 25.2451 26.5517 36.983C17.8351 45.6927 8.498 53.6704 -0.639706 61.9214C-10.3002 70.6436 -19.3989 80.0239 -28.6914 89.1337C-39.827 100.05 -50.964 110.966 -62.0996 121.883C-62.4579 121.517 -62.6364 121.335 -62.9947 120.969L-62.9961 120.971ZM60.395 0.579995C48.6417 12.3137 37.4852 24.6177 25.7375 36.35C17.092 44.983 7.86362 52.9357 -1.16393 61.1546C-22.2375 80.3376 -42.0912 101.029 -62.4398 120.976C-62.3018 121.117 -62.2335 121.187 -62.0954 121.328C-41.7594 101.393 -21.9378 80.6708 -0.834892 61.5463C8.18011 53.3762 17.3973 45.4752 26.0163 36.8743C37.8031 25.1154 48.9666 12.7501 60.7282 0.960616C60.5957 0.807252 60.5288 0.73057 60.395 0.579995Z" fill="#E9F03C"/>
<path d="M-47.6289 136.365C-36.5992 125.553 -25.5696 114.741 -14.5385 103.929C-5.88184 95.4435 2.36356 86.2626 12.5762 79.6094C21.1116 74.0478 29.6275 68.9659 37.1535 61.9976C50.6091 49.5375 61.82 34.664 73.6039 20.6758C73.8061 21.048 73.9078 21.2349 74.11 21.6085C62.3163 35.6971 51.1096 50.71 37.5578 63.1966C30.0862 70.0813 21.6289 75.0098 13.1241 80.4306C2.88918 86.9541 -5.30464 96.1169 -13.9181 104.562C-24.9478 115.374 -35.9774 126.186 -47.0085 136.998C-47.2567 136.746 -47.3807 136.619 -47.6275 136.367L-47.6289 136.365Z" fill="#E9F03C"/>
<path d="M-47.9062 136.361C-47.8505 136.306 -47.8226 136.279 -47.7654 136.223C-36.7232 125.399 -25.681 114.574 -14.6374 103.749C-5.96539 95.2486 2.29535 86.0677 12.5136 79.3866C21.0782 73.786 29.615 68.6483 37.1633 61.6368C50.612 49.1418 61.8424 34.2697 73.6528 20.2773C73.9456 20.8141 74.092 21.0832 74.3848 21.6214C74.3206 21.6981 74.2886 21.7371 74.2244 21.8138C62.4182 35.9372 51.2031 50.9975 37.6137 63.4939C30.1476 70.3604 21.6889 75.2486 13.1898 80.647C2.93668 87.1594 -5.26131 96.35 -13.8818 104.8C-24.924 115.625 -35.9662 126.45 -47.0098 137.275C-47.3681 136.909 -47.5465 136.727 -47.9049 136.361H-47.9062ZM73.5552 21.0707C61.7322 35.1299 50.4865 50.1331 36.8984 62.5765C29.47 69.3803 21.0964 74.3521 12.6962 79.7909C2.60905 86.3214 -5.51367 95.3546 -14.0463 103.718C-25.1484 114.6 -36.2492 125.484 -47.3514 136.365C-47.2133 136.506 -47.145 136.576 -47.007 136.717C-35.9048 125.835 -24.8041 114.952 -13.7019 104.07C-5.193 95.7282 2.90183 86.7062 13.0001 80.2468C21.3822 74.8861 29.7252 69.9979 37.1229 63.2416C50.7625 50.787 62.0069 35.7044 73.8341 21.5893C73.7225 21.3816 73.6654 21.277 73.5538 21.0693L73.5552 21.0707Z" fill="#E9F03C"/>
<path d="M-32.541 151.755C-21.5114 140.943 -10.4817 130.131 0.549347 119.319C8.00562 112.009 15.2583 102.588 25.8112 99.8957C28.997 99.0829 32.2762 98.7023 35.4173 97.7026C39.7143 96.3349 43.5582 93.9689 47.0409 91.1331C53.2229 86.0972 58.2309 79.8678 63.119 73.6161C70.9936 63.5457 78.4708 53.1685 86.1013 42.9141C86.316 43.2543 86.4234 43.4243 86.6395 43.7617C78.9839 54.0887 71.4816 64.537 63.5777 74.6771C58.6868 80.9511 53.6844 87.2209 47.4759 92.2568C44.0127 95.0648 40.1856 97.3987 35.9011 98.6981C32.7795 99.6448 29.5296 99.9543 26.3647 100.709C15.83 103.218 8.56471 112.703 1.17117 119.952C-9.85849 130.764 -20.8881 141.576 -31.9192 152.388C-32.1674 152.136 -32.2915 152.009 -32.5382 151.756L-32.541 151.755Z" fill="#E9F03C"/>
<path d="M-32.8203 151.753C-32.7645 151.698 -32.7367 151.671 -32.6795 151.615C-21.6373 140.79 -10.5951 129.965 0.448509 119.141C7.92291 111.814 15.1687 102.423 25.7368 99.7011C28.9338 98.8771 32.2227 98.4784 35.3709 97.4592C39.686 96.0622 43.5424 93.6655 47.0377 90.8032C53.2322 85.7297 58.2556 79.4696 63.1632 73.1901C71.0378 63.1141 78.5219 52.7369 86.1594 42.4824C86.4689 42.9746 86.6251 43.2186 86.9374 43.7038C86.8649 43.8013 86.8301 43.8488 86.7576 43.9464C79.088 54.2998 71.5731 64.776 63.6526 74.9398C58.7603 81.2194 53.7564 87.4975 47.5354 92.5293C44.075 95.3274 40.2506 97.6474 35.9662 98.9259C32.8459 99.8587 29.596 100.15 26.4353 100.896C15.8923 103.383 8.59353 112.943 1.20278 120.189C-9.83942 131.014 -20.8816 141.839 -31.9252 152.663C-32.2835 152.298 -32.462 152.115 -32.8203 151.75V151.753ZM86.0381 43.344C78.4257 53.5888 70.9611 63.9534 63.0963 74.0071C58.2291 80.2309 53.2392 86.4282 47.0753 91.4306C43.6065 94.2455 39.778 96.5864 35.4991 97.9305C32.3691 98.9134 29.1053 99.2787 25.932 100.076C15.4071 102.721 8.17666 112.117 0.751057 119.394C-10.2535 130.181 -21.2581 140.97 -32.2626 151.757C-32.1246 151.898 -32.0563 151.968 -31.9183 152.108C-20.9137 141.321 -9.90913 130.533 1.09543 119.746C8.48757 112.5 15.7236 103.072 26.2387 100.526C29.3994 99.7611 32.6494 99.4362 35.7682 98.4826C40.0401 97.1762 43.8603 94.852 47.3179 92.0538C53.4971 87.0528 58.4842 80.8318 63.3528 74.5954C71.2343 64.5027 78.7115 54.0976 86.3379 43.8139C86.218 43.6257 86.158 43.5309 86.0395 43.3413L86.0381 43.344Z" fill="#E9F03C"/>
</g>
</svg>
