<svg width="68" height="38" viewBox="0 0 68 38" fill="none" xmlns="http://www.w3.org/2000/svg">
<path d="M3 16.5C1.61929 16.5 0.5 17.6193 0.5 19C0.5 20.3807 1.61929 21.5 3 21.5V16.5ZM66.7678 20.7678C67.7441 19.7915 67.7441 18.2085 66.7678 17.2322L50.8579 1.32233C49.8816 0.34602 48.2986 0.34602 47.3223 1.32233C46.346 2.29864 46.346 3.88155 47.3223 4.85786L61.4645 19L47.3223 33.1421C46.346 34.1184 46.346 35.7014 47.3223 36.6777C48.2986 37.654 49.8816 37.654 50.8579 36.6777L66.7678 20.7678ZM3 19V21.5H65V19V16.5H3V19Z" fill="#012DD4"/>
</svg>
