<svg width="29" height="29" viewBox="0 0 29 29" fill="none" xmlns="http://www.w3.org/2000/svg">
<path d="M14.5 28.5C6.76801 28.5 0.500001 22.232 0.500001 14.5C0.500002 6.76801 6.76801 0.499999 14.5 0.499999C22.232 0.5 28.5 6.76801 28.5 14.5C28.5 22.232 22.232 28.5 14.5 28.5Z" stroke="white"/>
<path d="M14.4998 19.6527C11.6541 19.6527 9.34726 17.3459 9.34726 14.5002C9.34726 11.6545 11.6541 9.34766 14.4998 9.34766C17.3455 9.34766 19.6523 11.6545 19.6523 14.5002C19.6523 17.3459 17.3455 19.6527 14.4998 19.6527Z" fill="white" stroke="white"/>
<path d="M14.5 19.6527C10.6094 19.6527 7.06802 18.2778 4.48403 16.8862C3.19491 16.192 2.15182 15.4978 1.43223 14.9781C1.17756 14.7941 0.963663 14.6323 0.793985 14.5002C0.963663 14.3681 1.17756 14.2063 1.43223 14.0223C2.15182 13.5026 3.19491 12.8084 4.48403 12.1141C7.06802 10.7225 10.6094 9.34766 14.5 9.34766C18.3906 9.34766 21.932 10.7225 24.516 12.1141C25.8051 12.8084 26.8482 13.5026 27.5678 14.0223C27.8224 14.2063 28.0363 14.3681 28.206 14.5002C28.0363 14.6323 27.8224 14.7941 27.5678 14.9781C26.8482 15.4978 25.8051 16.192 24.516 16.8863C21.932 18.2778 18.3906 19.6527 14.5 19.6527Z" stroke="white"/>
</svg>
