<svg width="55" height="34" viewBox="0 0 55 34" fill="none" xmlns="http://www.w3.org/2000/svg">
<path d="M53.8727 22.4413C54.3444 22.9628 54.6756 23.5041 54.8519 24.0604L54.3753 24.2115C54.4584 24.4737 54.5 24.7362 54.5 25C54.5 25.2638 54.4584 25.5263 54.3753 25.7885L54.8519 25.9396C54.6756 26.4959 54.3444 27.0372 53.8727 27.5587L53.5019 27.2233C53.1438 27.6192 52.6904 28.011 52.1438 28.3941L52.4307 28.8035C51.9468 29.1427 51.4002 29.4704 50.7957 29.7849L50.5649 29.3414C50.0461 29.6113 49.4812 29.8725 48.8731 30.1236L49.064 30.5858C48.5014 30.8181 47.9045 31.0411 47.2757 31.254L47.1154 30.7804C46.5428 30.9743 45.9425 31.16 45.3165 31.3367L45.4524 31.8179C44.8578 31.9857 44.2411 32.1453 43.6038 32.2963L43.4886 31.8097C42.89 31.9515 42.2726 32.0856 41.6379 32.2115L41.7352 32.7019C41.1253 32.8229 40.4999 32.9364 39.8602 33.0419L39.7788 32.5486C39.167 32.6495 38.5418 32.7431 37.9043 32.8291L37.9711 33.3246C37.3507 33.4083 36.719 33.4847 36.0768 33.5536L36.0234 33.0565C35.4034 33.1231 34.7735 33.1825 34.1345 33.2347L34.1752 33.733C33.549 33.7841 32.9144 33.8282 32.2721 33.865L32.2436 33.3658C31.6182 33.4016 30.9855 33.4305 30.3461 33.4521L30.363 33.9518C29.7335 33.9731 29.0977 33.9875 28.4563 33.9947L28.4507 33.4947C28.1352 33.4982 27.8182 33.5 27.5 33.5C27.1818 33.5 26.8648 33.4982 26.5493 33.4947L26.5437 33.9947C25.9023 33.9875 25.2665 33.9731 24.6369 33.9518L24.6539 33.4521C24.0145 33.4305 23.3818 33.4016 22.7564 33.3658L22.7279 33.865C22.0856 33.8282 21.451 33.7841 20.8248 33.733L20.8655 33.2347C20.2265 33.1825 19.5966 33.1231 18.9766 33.0565L18.9232 33.5536C18.281 33.4847 17.6493 33.4083 17.0289 33.3246L17.0957 32.8291C16.4582 32.7431 15.833 32.6495 15.2212 32.5486L15.1398 33.0419C14.5001 32.9364 13.8747 32.8229 13.2648 32.7019L13.3621 32.2115C12.7274 32.0856 12.11 31.9515 11.5114 31.8097L11.3962 32.2963C10.7589 32.1453 10.1422 31.9857 9.54762 31.8179L9.68345 31.3367C9.05746 31.16 8.45722 30.9743 7.88462 30.7804L7.72426 31.254C7.09554 31.0411 6.49863 30.8181 5.93602 30.5858L6.12686 30.1236C5.51879 29.8725 4.95393 29.6113 4.43513 29.3414L4.20432 29.7849C3.59984 29.4704 3.05319 29.1427 2.56926 28.8035L2.85622 28.3941C2.30962 28.011 1.85619 27.6192 1.4981 27.2233L1.12727 27.5587C0.655585 27.0372 0.324399 26.4959 0.14806 25.9396L0.624689 25.7885C0.541584 25.5263 0.5 25.2638 0.5 25C0.5 24.7362 0.541583 24.4737 0.624688 24.2115L0.148058 24.0604C0.324396 23.5041 0.655582 22.9628 1.12727 22.4413L1.49809 22.7767C1.85619 22.3808 2.30962 21.989 2.85622 21.6059L2.56925 21.1965C3.05319 20.8573 3.59983 20.5296 4.20432 20.2151L4.43512 20.6586C4.95393 20.3887 5.51879 20.1275 6.12685 19.8764L5.93602 19.4142C6.49862 19.1819 7.09554 18.9589 7.72425 18.746L7.88461 19.2196C8.45722 19.0257 9.05746 18.84 9.68345 18.6633L9.54762 18.1821C10.1422 18.0143 10.7589 17.8547 11.3962 17.7037L11.5114 18.1903C12.11 18.0485 12.7274 17.9145 13.3621 17.7885L13.2648 17.2981C13.8747 17.1771 14.5001 17.0636 15.1398 16.9581L15.2212 17.4514C15.833 17.3505 16.4582 17.2569 17.0957 17.1709L17.0289 16.6754C17.6493 16.5917 18.281 16.5153 18.9232 16.4464L18.9766 16.9435C19.5966 16.8769 20.2265 16.8175 20.8655 16.7653L20.8248 16.267C21.451 16.2159 22.0856 16.1718 22.7279 16.135L22.7564 16.6342C23.3818 16.5984 24.0145 16.5695 24.6539 16.5479L24.637 16.0482C25.2665 16.0269 25.9023 16.0125 26.5437 16.0053L26.5493 16.5053C26.8648 16.5018 27.1818 16.5 27.5 16.5C27.8182 16.5 28.1352 16.5018 28.4507 16.5053L28.4563 16.0053C29.0977 16.0125 29.7335 16.0269 30.3631 16.0482L30.3461 16.5479C30.9855 16.5695 31.6182 16.5984 32.2436 16.6342L32.2721 16.135C32.9144 16.1718 33.549 16.2159 34.1752 16.267L34.1345 16.7653C34.7735 16.8175 35.4034 16.8769 36.0234 16.9435L36.0768 16.4464C36.719 16.5153 37.3507 16.5917 37.9711 16.6754L37.9043 17.1709C38.5418 17.2569 39.167 17.3505 39.7788 17.4514L39.8602 16.9581C40.4999 17.0636 41.1253 17.1771 41.7352 17.2981L41.6379 17.7885C42.2726 17.9145 42.89 18.0485 43.4886 18.1903L43.6038 17.7037C44.2411 17.8547 44.8578 18.0143 45.4524 18.1821L45.3165 18.6633C45.9425 18.84 46.5428 19.0257 47.1154 19.2196L47.2757 18.746C47.9045 18.9589 48.5014 19.1819 49.064 19.4142L48.8731 19.8764C49.4812 20.1275 50.0461 20.3887 50.5649 20.6586L50.7957 20.2151C51.4002 20.5296 51.9468 20.8573 52.4307 21.1965L52.1438 21.6059C52.6904 21.989 53.1438 22.3808 53.5019 22.7767L53.8727 22.4413Z" stroke="white" stroke-dasharray="2 2"/>
<path d="M30 25.5C30.2761 25.5 30.5 25.2761 30.5 25L30.5 20.5C30.5 20.2239 30.2761 20 30 20C29.7239 20 29.5 20.2239 29.5 20.5L29.5 24.5L25.5 24.5C25.2239 24.5 25 24.7239 25 25C25 25.2761 25.2239 25.5 25.5 25.5L30 25.5ZM5.64645 1.35355L29.6464 25.3536L30.3536 24.6464L6.35355 0.646447L5.64645 1.35355Z" fill="white"/>
<ellipse cx="13.5" cy="7.95162" rx="3.95162" ry="3.5" transform="rotate(90 13.5 7.95162)" fill="white"/>
</svg>
