<svg width="51" height="51" viewBox="0 0 51 51" fill="none" xmlns="http://www.w3.org/2000/svg">
<path d="M25.5 50.5C11.6929 50.5 0.500002 39.3071 0.500003 25.5C0.500003 11.6929 11.6929 0.499998 25.5 0.499999C39.3071 0.499999 50.5 11.6929 50.5 25.5C50.5 39.3071 39.3071 50.5 25.5 50.5Z" stroke="white"/>
<path d="M25.4998 34.9409C20.2858 34.9409 16.0591 30.7142 16.0591 25.5002C16.0591 20.2863 20.2858 16.0596 25.4998 16.0596C30.7137 16.0596 34.9404 20.2863 34.9404 25.5002C34.9404 30.7142 30.7137 34.9409 25.4998 34.9409Z" fill="white" stroke="white"/>
<path d="M25.5 34.9409C18.5718 34.9409 12.2805 32.494 7.70586 30.0304C5.42143 28.8001 3.57289 27.5699 2.29666 26.6481C1.65873 26.1874 1.16431 25.8041 0.830467 25.537C0.814842 25.5245 0.799568 25.5122 0.784648 25.5002C0.799568 25.4883 0.814842 25.476 0.830467 25.4635C1.16431 25.1964 1.65873 24.8131 2.29666 24.3524C3.57289 23.4306 5.42143 22.2004 7.70586 20.9701C12.2805 18.5065 18.5718 16.0596 25.5 16.0596C32.4282 16.0596 38.7195 18.5065 43.2941 20.9701C45.5786 22.2004 47.4271 23.4306 48.7033 24.3524C49.3413 24.8131 49.8357 25.1964 50.1695 25.4635C50.1852 25.476 50.2004 25.4883 50.2154 25.5002C50.2004 25.5122 50.1852 25.5245 50.1695 25.537C49.8357 25.8041 49.3413 26.1874 48.7033 26.6481C47.4271 27.5699 45.5786 28.8001 43.2941 30.0304C38.7195 32.494 32.4282 34.9409 25.5 34.9409Z" stroke="white"/>
</svg>
