<svg width="29" height="29" viewBox="0 0 29 29" fill="none" xmlns="http://www.w3.org/2000/svg">
<path d="M26.5233 15.9076L26.4975 16.1215L26.6354 16.2872L28.4609 18.4804L28.4627 18.4825C28.5072 18.5355 28.5104 18.6054 28.48 18.6564L28.4781 18.6596L25.1537 24.3361C25.1536 24.3363 25.1535 24.3365 25.1534 24.3366C25.1179 24.3962 25.0465 24.4301 24.9754 24.4181L24.9727 24.4177L22.1346 23.9545L21.9268 23.9205L21.7573 24.0456C20.9945 24.6083 20.162 25.0831 19.2736 25.4586L19.0772 25.5416L19.0011 25.7407L17.9886 28.3907L17.9884 28.3912C17.9647 28.4535 17.9003 28.5 17.8266 28.5H11.1734C11.0974 28.5 11.0347 28.4528 11.0124 28.3933L11.0114 28.3907L9.99885 25.7407L9.92277 25.5416L9.72644 25.4586C8.83774 25.083 8.00412 24.6082 7.24303 24.0458L7.07345 23.9205L6.86535 23.9545L4.0273 24.4177L4.02456 24.4181C3.95497 24.4299 3.88353 24.3975 3.84595 24.3354C3.84572 24.3351 3.8455 24.3347 3.84529 24.3343L0.523117 18.6617C0.52298 18.6615 0.522843 18.6612 0.522707 18.661C0.489279 18.6026 0.49668 18.5308 0.537349 18.4825L0.539109 18.4804L2.36461 16.2872L2.50197 16.1222L2.47688 15.9089C2.42228 15.4447 2.38969 14.9741 2.38969 14.5C2.38969 14.0251 2.42107 13.5547 2.47672 13.0924L2.50248 12.8785L2.3646 12.7128L0.539108 10.5196L0.539114 10.5196L0.537338 10.5175C0.49278 10.4645 0.48963 10.3946 0.520008 10.3436L0.52191 10.3404L3.84632 4.66392C3.84641 4.66375 3.84651 4.66359 3.84661 4.66342C3.88209 4.60378 3.95346 4.56986 4.02458 4.58188L4.0273 4.58233L6.86535 5.04555L7.07322 5.07948L7.24272 4.95444C8.00551 4.39173 8.83797 3.91694 9.72644 3.54142L9.92277 3.45844L9.99885 3.25934L11.0114 0.609352L11.0116 0.60876C11.0353 0.546522 11.0997 0.5 11.1734 0.5H17.8266C17.9026 0.5 17.9653 0.54723 17.9876 0.606671L17.9886 0.609352L19.0011 3.25934L19.0772 3.45844L19.2736 3.54142C20.1623 3.91704 20.9959 4.39182 21.757 4.95421L21.9265 5.07951L22.1346 5.04555L24.9727 4.58234L24.9754 4.58187C25.045 4.57012 25.1165 4.60249 25.1541 4.66457C25.1543 4.66493 25.1545 4.66529 25.1547 4.66566L28.4769 10.3383C28.477 10.3385 28.4771 10.3387 28.4772 10.3389C28.5107 10.3973 28.5033 10.4691 28.4626 10.5175L28.4609 10.5196L26.6354 12.7128L26.498 12.8778L26.5231 13.0911C26.5777 13.5553 26.6103 14.0259 26.6103 14.5C26.6103 14.9749 26.5789 15.4453 26.5233 15.9076ZM7.69889 14.4999C7.69889 18.2146 10.7509 21.2108 14.5028 21.2108C18.2548 21.2108 21.3066 18.2146 21.3066 14.4999C21.3066 10.7853 18.2548 7.789 14.5028 7.789C10.7507 7.789 7.69889 10.7853 7.69889 14.4999Z" stroke="white"/>
</svg>
