<svg width="118" height="136" viewBox="0 0 118 136" fill="none" xmlns="http://www.w3.org/2000/svg">
<path d="M115.387 112.687C116.47 113.757 117.234 114.87 117.646 116.016L117.175 116.185C117.391 116.785 117.5 117.39 117.5 118C117.5 118.61 117.391 119.215 117.175 119.815L117.646 119.984C117.234 121.13 116.47 122.243 115.387 123.313L115.036 122.958C114.2 123.785 113.159 124.593 111.924 125.375L112.192 125.798C111.137 126.466 109.951 127.111 108.644 127.731L108.43 127.279C107.29 127.819 106.055 128.34 104.731 128.84L104.908 129.308C103.699 129.764 102.419 130.202 101.072 130.619L100.924 130.142C99.6883 130.525 98.3956 130.892 97.0499 131.241L97.1754 131.725C95.9064 132.054 94.5913 132.366 93.2335 132.662L93.1271 132.173C91.844 132.453 90.5221 132.717 89.1644 132.965L89.2542 133.457C87.954 133.694 86.6214 133.916 85.2589 134.123L85.1838 133.629C83.8769 133.828 82.5422 134.012 81.1819 134.181L81.2436 134.677C79.9239 134.841 78.5803 134.991 77.215 135.126L77.1657 134.628C75.8434 134.759 74.5005 134.876 73.1388 134.978L73.1763 135.477C71.8458 135.577 70.4976 135.663 69.1332 135.736L69.1069 135.236C67.7738 135.307 66.4254 135.363 65.0631 135.406L65.0787 135.906C63.7421 135.947 62.3922 135.975 61.0306 135.99L61.0255 135.49C60.3531 135.497 59.6779 135.5 59 135.5C58.3221 135.5 57.6469 135.497 56.9745 135.49L56.9694 135.99C55.6078 135.975 54.2579 135.947 52.9213 135.906L52.9369 135.406C51.5746 135.363 50.2261 135.307 48.8931 135.236L48.8668 135.736C47.5024 135.663 46.1542 135.577 44.8237 135.477L44.8612 134.978C43.4995 134.876 42.1566 134.759 40.8343 134.628L40.785 135.126C39.4197 134.991 38.0761 134.841 36.7564 134.677L36.8181 134.181C35.4578 134.012 34.1231 133.828 32.8162 133.629L32.7411 134.123C31.3786 133.916 30.046 133.694 28.7458 133.457L28.8356 132.965C27.4779 132.717 26.156 132.453 24.8729 132.173L24.7665 132.662C23.4086 132.366 22.0936 132.054 20.8246 131.725L20.9501 131.241C19.6044 130.892 18.3117 130.525 17.0761 130.142L16.9279 130.619C15.5813 130.202 14.301 129.764 13.0924 129.308L13.2689 128.84C11.9448 128.34 10.7095 127.819 9.56967 127.279L9.35556 127.731C8.04859 127.111 6.86274 126.466 5.80824 125.798L6.0759 125.375C4.84123 124.593 3.80018 123.785 2.96431 122.958L2.61274 123.313C1.53018 122.243 0.766157 121.13 0.354425 119.984L0.824953 119.815C0.609096 119.215 0.5 118.61 0.5 118C0.5 117.39 0.609097 116.785 0.824955 116.185L0.354427 116.016C0.766159 114.87 1.53019 113.757 2.61274 112.687L2.96432 113.042C3.80019 112.215 4.84123 111.407 6.0759 110.625L5.80824 110.202C6.86275 109.534 8.04859 108.889 9.35556 108.269L9.56968 108.721C10.7095 108.181 11.9448 107.66 13.2689 107.16L13.0924 106.692C14.301 106.236 15.5813 105.798 16.9279 105.381L17.0761 105.858C18.3117 105.475 19.6044 105.108 20.9501 104.759L20.8246 104.275C22.0936 103.946 23.4086 103.634 24.7665 103.338L24.8729 103.827C26.156 103.547 27.4779 103.283 28.8356 103.035L28.7458 102.543C30.046 102.306 31.3786 102.084 32.7411 101.877L32.8162 102.371C34.1231 102.172 35.4578 101.988 36.8181 101.819L36.7564 101.323C38.0761 101.159 39.4197 101.009 40.785 100.874L40.8343 101.372C42.1566 101.241 43.4995 101.124 44.8612 101.022L44.8237 100.523C46.1542 100.423 47.5024 100.337 48.8668 100.264L48.8931 100.764C50.2262 100.693 51.5746 100.637 52.9369 100.594L52.9213 100.094C54.2579 100.053 55.6078 100.025 56.9694 100.01L56.9745 100.51C57.6469 100.503 58.3221 100.5 59 100.5C59.6779 100.5 60.3531 100.503 61.0255 100.51L61.0306 100.01C62.3922 100.025 63.7421 100.053 65.0787 100.094L65.0631 100.594C66.4254 100.637 67.7739 100.693 69.1069 100.764L69.1332 100.264C70.4976 100.337 71.8458 100.423 73.1763 100.523L73.1388 101.022C74.5005 101.124 75.8434 101.241 77.1657 101.372L77.215 100.874C78.5803 101.009 79.9239 101.159 81.2436 101.323L81.1819 101.819C82.5422 101.988 83.8769 102.172 85.1838 102.371L85.2589 101.877C86.6214 102.084 87.954 102.306 89.2542 102.543L89.1644 103.035C90.5221 103.283 91.844 103.547 93.1271 103.827L93.2335 103.338C94.5914 103.634 95.9064 103.946 97.1754 104.275L97.0499 104.759C98.3956 105.108 99.6883 105.475 100.924 105.858L101.072 105.381C102.419 105.798 103.699 106.236 104.908 106.692L104.731 107.16C106.055 107.66 107.29 108.181 108.43 108.721L108.644 108.269C109.951 108.889 111.137 109.534 112.192 110.202L111.924 110.625C113.159 111.407 114.2 112.215 115.036 113.042L115.387 112.687Z" stroke="white" stroke-dasharray="4 4"/>
<path d="M72 50.5208V0L34 71.2586H58.3333V122L94 50.5208H72Z" fill="white"/>
</svg>
