<svg width="45" height="28" viewBox="0 0 45 28" fill="none" xmlns="http://www.w3.org/2000/svg">
<path d="M43.5164 18.0012C44.1205 18.5169 44.5525 19.0605 44.7893 19.6245L44.3283 19.8181C44.4435 20.0924 44.5 20.3646 44.5 20.6363C44.5 20.9081 44.4435 21.1803 44.3283 21.4546L44.7893 21.6482C44.5525 22.2122 44.1205 22.7558 43.5164 23.2715L43.1918 22.8912C42.7501 23.2683 42.2007 23.6368 41.5491 23.9909L41.7878 24.4302C41.2226 24.7373 40.5909 25.0298 39.8991 25.3056L39.714 24.8411C39.1187 25.0784 38.4759 25.3039 37.7897 25.5157L37.9372 25.9935C37.3008 26.19 36.6295 26.3744 35.9265 26.5458L35.8081 26.06C35.1652 26.2167 34.4947 26.3625 33.7993 26.4964L33.8939 26.9874C33.2307 27.1151 32.5459 27.232 31.8415 27.3373L31.7675 26.8428C31.1025 26.9423 30.4197 27.0314 29.7209 27.1095L29.7765 27.6064C29.0993 27.6821 28.4076 27.7475 27.7031 27.8021L27.6644 27.3036C26.9883 27.356 26.3001 27.3983 25.6014 27.4301L25.6241 27.9296C24.9394 27.9607 24.2448 27.9817 23.5418 27.9922L23.5343 27.4923C23.1915 27.4974 22.8467 27.5 22.5 27.5C22.1533 27.5 21.8085 27.4974 21.4657 27.4923L21.4582 27.9922C20.7552 27.9817 20.0606 27.9607 19.3759 27.9296L19.3986 27.4301C18.6999 27.3983 18.0117 27.356 17.3356 27.3036L17.2969 27.8021C16.5924 27.7475 15.9007 27.6821 15.2235 27.6064L15.2791 27.1095C14.5803 27.0314 13.8975 26.9423 13.2325 26.8428L13.1585 27.3373C12.4541 27.232 11.7693 27.1151 11.1061 26.9874L11.2007 26.4964C10.5053 26.3625 9.83484 26.2167 9.19189 26.06L9.07348 26.5458C8.37052 26.3744 7.69917 26.19 7.06282 25.9935L7.21033 25.5157C6.52409 25.3039 5.8813 25.0784 5.28601 24.8411L5.10086 25.3056C4.40911 25.0298 3.77738 24.7373 3.21219 24.4302L3.4509 23.9909C2.79926 23.6368 2.24986 23.2683 1.80819 22.8912L1.48355 23.2715C0.879473 22.7558 0.447513 22.2122 0.210687 21.6482L0.671689 21.4546C0.556502 21.1803 0.5 20.9081 0.5 20.6363C0.5 20.3646 0.556502 20.0924 0.671689 19.8181L0.210686 19.6245C0.447512 19.0605 0.879472 18.5169 1.48355 18.0012L1.80819 18.3815C2.24986 18.0044 2.79926 17.6359 3.4509 17.2818L3.21218 16.8425C3.77738 16.5354 4.40911 16.2429 5.10086 15.9671L5.28601 16.4316C5.88129 16.1943 6.52409 15.9688 7.21032 15.7569L7.06282 15.2792C7.69917 15.0827 8.37052 14.8983 9.07348 14.7269L9.19189 15.2127C9.83484 15.056 10.5053 14.9102 11.2007 14.7763L11.1061 14.2853C11.7693 14.1576 12.4541 14.0407 13.1585 13.9354L13.2325 14.4299C13.8975 14.3304 14.5803 14.2413 15.2791 14.1632L15.2235 13.6663C15.9007 13.5906 16.5924 13.5252 17.2969 13.4706L17.3356 13.9691C18.0117 13.9167 18.6999 13.8744 19.3986 13.8426L19.3759 13.3431C20.0606 13.312 20.7552 13.2909 21.4582 13.2805L21.4657 13.7804C21.8085 13.7753 22.1533 13.7727 22.5 13.7727C22.8467 13.7727 23.1915 13.7753 23.5343 13.7804L23.5418 13.2805C24.2448 13.2909 24.9394 13.312 25.6241 13.3431L25.6014 13.8426C26.3001 13.8744 26.9883 13.9167 27.6644 13.9691L27.7031 13.4706C28.4076 13.5252 29.0993 13.5906 29.7765 13.6663L29.7209 14.1632C30.4197 14.2413 31.1025 14.3304 31.7675 14.4299L31.8415 13.9354C32.5459 14.0407 33.2307 14.1576 33.8939 14.2853L33.7993 14.7763C34.4947 14.9102 35.1652 15.056 35.8081 15.2127L35.9265 14.7269C36.6295 14.8983 37.3008 15.0827 37.9372 15.2792L37.7897 15.7569C38.4759 15.9688 39.1187 16.1943 39.714 16.4316L39.8991 15.9671C40.5909 16.2429 41.2226 16.5354 41.7878 16.8425L41.5491 17.2818C42.2007 17.6359 42.7501 18.0044 43.1918 18.3815L43.5164 18.0012Z" stroke="white" stroke-dasharray="2 2"/>
<path d="M24.5455 21.1364C24.8217 21.1364 25.0455 20.9125 25.0455 20.6364L25.0455 16.1364C25.0455 15.8602 24.8217 15.6364 24.5455 15.6364C24.2694 15.6364 24.0455 15.8602 24.0455 16.1364L24.0455 20.1364L20.0455 20.1364C19.7694 20.1364 19.5455 20.3602 19.5455 20.6364C19.5455 20.9125 19.7694 21.1364 20.0455 21.1364L24.5455 21.1364ZM4.55563 1.35355L24.192 20.9899L24.8991 20.2828L5.26273 0.646447L4.55563 1.35355Z" fill="white"/>
<ellipse cx="11.0455" cy="6.68773" rx="3.23314" ry="2.86364" transform="rotate(90 11.0455 6.68773)" fill="white"/>
</svg>
