<svg width="1948" height="3894" viewBox="0 0 1948 3894" fill="none" xmlns="http://www.w3.org/2000/svg">
<g opacity="0.15">
<path d="M1 1.38477H1047.13C1145.23 1.38477 1239.79 1.38477 1331.57 1.38477H1947.3" stroke="white" stroke-width="0.5" stroke-miterlimit="10"/>
<path d="M1 103.789H901.172C1085.2 95.1589 1264.91 95.1589 1456.02 103.789H1947.15" stroke="white" stroke-width="0.5" stroke-miterlimit="10"/>
<path d="M1 206.195H756.756C780.568 206.195 804.535 206.195 828.81 206.657C1059.54 206.657 1298.89 189.32 1526.69 205.964C1547.27 205.964 1567.15 205.964 1586.57 205.964H1947.15" stroke="white" stroke-width="0.5" stroke-miterlimit="10"/>
<path d="M1 308.598H686.089C710.03 308.598 733.92 309.189 757.758 310.37C1033.87 309.06 1316.23 300.507 1586.18 308.29C1622.02 308.29 1655.54 308.29 1687.37 308.29H1947.15" stroke="white" stroke-width="0.5" stroke-miterlimit="10"/>
<path d="M1 411.08H686.089C705.574 408.755 725.191 407.726 744.811 407.998C879.825 411.773 999.658 437.432 1136.52 454.23C1307.68 479.889 1470.28 428.571 1643.06 410.772H1947.15" stroke="white" stroke-width="0.5" stroke-miterlimit="10"/>
<path d="M1 513.483H686.089C705.628 511.996 725.24 511.739 744.811 512.713C764.231 513.637 783.343 515.564 802.223 517.567C999.658 522.961 1170.74 634.226 1359 642.779C1461.73 642.779 1538.71 557.173 1633.89 522.421C1651.1 516.195 1669.01 512.106 1687.21 510.247C1706.46 508.449 1725.86 509.539 1744.78 513.483H1947.15" stroke="white" stroke-width="0.5" stroke-miterlimit="10"/>
<path d="M1 615.658H686.089C713.555 614.467 741.068 614.982 768.47 617.199C795.442 619.28 821.951 622.593 847.69 625.906C973.996 633.612 1085.2 685.315 1196.4 736.633C1376.11 813.686 1530.16 710.974 1680.82 629.528C1703.66 620.797 1727.5 614.947 1751.79 612.114C1777.51 609.234 1803.51 610.43 1828.86 615.658H1947.07" stroke="white" stroke-width="0.5" stroke-miterlimit="10"/>
<path d="M1 718.294H756.756C784.91 724.099 812.858 729.493 840.6 734.476C1076.64 762.446 1316.23 873.712 1554.05 808.37C1580.85 800.979 1607.03 791.498 1632.34 780.014C1659.3 767.731 1685.23 753.301 1709.87 736.864C1752.64 711.205 1786.93 719.758 1829.09 718.448C1866.15 718.448 1895.75 718.448 1916.01 718.448H1946.84" stroke="white" stroke-width="0.5" stroke-miterlimit="10"/>
<path d="M1 820.697H828.579C852.699 820.697 876.974 820.697 902.482 822.238C1085.2 882.34 1273.46 899.292 1459.72 887.426C1490.55 884.755 1521.37 881.262 1552.2 876.947C1645.64 863.475 1738.26 844.825 1829.63 821.083C1866.46 821.083 1896.05 821.083 1916.32 821.083H1947.15" stroke="white" stroke-width="0.5" stroke-miterlimit="10"/>
<path d="M1 923.18H901.172C925.447 923.18 949.799 923.18 974.613 923.643C1153.63 950.765 1324.79 993.53 1513.05 967.871C1624.25 950.765 1718.42 916.554 1829.01 923.257H1947.07" stroke="white" stroke-width="0.5" stroke-miterlimit="10"/>
<path d="M1 1025.58H304.859C325.152 1026 345.702 1026.3 366.509 1026.51C387.008 1026.51 407.738 1026.89 428.16 1026.97C529.112 1027.74 631.76 1027.74 732.789 1025.58H1047.13C1290.57 1053.32 1530.16 1044.77 1768.21 1026.05C1804.66 1025.51 1836.95 1025.51 1863.53 1025.51H1947.15" stroke="white" stroke-width="0.5" stroke-miterlimit="10"/>
<path d="M1 1127.99H119.215C149.064 1128.3 178.784 1128.45 208.376 1128.45C469.08 1113.04 716.991 1130.45 974.073 1127.99H1155.71C1332.96 1130.38 1521.61 1130.38 1701.86 1127.99C1738.92 1127.99 1772.98 1127.99 1803.04 1127.99H1947.15" stroke="white" stroke-width="0.5" stroke-miterlimit="10"/>
<path d="M1 1230.39H83.8426C110.352 1229.85 136.785 1229.01 163.063 1227.62C460.295 1173.14 751.285 1215.91 1046.74 1230.32H1310.53C1401.54 1233.01 1504.27 1233.01 1597.9 1230.32H1946.92" stroke="white" stroke-width="0.5" stroke-miterlimit="10"/>
<path d="M1 1332.8H54.944C85.2298 1330.56 115.438 1327.79 145.262 1323.32C434.864 1224.38 742.962 1258.75 1045.82 1332.26C1071.17 1332.64 1095.45 1332.72 1119.57 1332.72H1947.15" stroke="white" stroke-width="0.5" stroke-miterlimit="10"/>
<path d="M1 1435.2H54.944C80.2537 1438.55 105.907 1438.34 131.159 1434.59C229.646 1412.63 306.632 1344.2 409.279 1318.47C631.76 1267.15 820.025 1386.97 1034.72 1417.63C1064.24 1422.72 1092.21 1428.5 1119.49 1435.05H1947.15" stroke="white" stroke-width="0.5" stroke-miterlimit="10"/>
<path d="M1 1537.68H55.3294C73.2079 1538.53 91.3948 1539.69 109.273 1540.15C229.414 1558.18 280.738 1429.89 383.386 1395.67C468.926 1361.46 563.097 1378.57 648.637 1404.23C777.024 1446.99 896.779 1498.31 1035.11 1516.26C1064.24 1522.5 1091.83 1529.36 1119.26 1536.61C1143.46 1537.61 1167.42 1537.61 1191.24 1537.68H1946.99" stroke="white" stroke-width="0.5" stroke-miterlimit="10"/>
<path d="M1 1640.47H118.983C169.614 1627.14 238.123 1652.8 272.339 1610.04C486.265 1361.92 785.732 1584.38 1037.42 1615.28C1064.78 1622.37 1092.06 1630.69 1119.41 1639.32C1143.61 1640.4 1167.58 1640.47 1191.39 1640.55H1947.15" stroke="white" stroke-width="0.5" stroke-miterlimit="10"/>
<path d="M1 1742.49H119.215C144.029 1742.49 172.234 1742.49 203.367 1742.49C229.569 1738.18 255.231 1746.73 272.724 1738.18C486.65 1567.04 726.239 1669.75 954.654 1707.74C983.013 1712.98 1010.45 1718.38 1038.04 1724.31C1065.62 1730.24 1092.52 1735.87 1119.95 1742.26C1144 1742.72 1167.96 1742.72 1191.78 1742.8H1947.53" stroke="white" stroke-width="0.5" stroke-miterlimit="10"/>
<path d="M1 1844.9H305.09C331.985 1837.96 359.034 1832.18 386.083 1827.02C520.481 1806.37 657.345 1797.82 793.9 1813.07C821.412 1814.85 848.615 1816.93 875.741 1819.16C902.867 1821.4 929.685 1823.94 956.118 1826.4C982.55 1828.87 1010.06 1831.41 1037.65 1834.11C1065.24 1836.81 1092.13 1840.66 1119.57 1844.51H1947.15" stroke="white" stroke-width="0.5" stroke-miterlimit="10"/>
<path d="M1 1947.3H361.269H421.07C473.627 1946.27 525.953 1945.53 578.047 1945.07C630.142 1944.6 682.133 1944.37 734.022 1944.37C785.963 1944.37 837.929 1944.63 889.921 1945.14C941.912 1945.66 994.161 1946.4 1046.67 1947.38H1947.15" stroke="white" stroke-width="0.5" stroke-miterlimit="10"/>
<path d="M1 1947.3V1.38477" stroke="white" stroke-width="0.5" stroke-miterlimit="10"/>
<path d="M103.418 1947.3V1744.96C103.418 1714.14 103.418 1679.77 103.418 1643.25C102.724 1592.08 102.262 1541.85 101.953 1491.84C101.645 1441.83 101.953 1392.28 101.953 1342.51C101.953 1292.73 102.647 1242.34 103.341 1191.64C103.341 1167.83 103.341 1143.86 103.341 1119.82V1.38672" stroke="white" stroke-width="0.5" stroke-miterlimit="10"/>
<path d="M205.833 1947.3V1744.73C195.275 1566.73 195.275 1395.67 198.126 1218.91C200.515 1162.2 203.058 1104.41 205.833 1047.24V1.38477" stroke="white" stroke-width="0.5" stroke-miterlimit="10"/>
<path d="M308.327 1947.3V1916.48C308.327 1896.29 308.327 1866.7 308.327 1829.18C263.862 1592.85 255.308 1336.03 297.846 1098.55C301.16 1071.74 304.551 1044.15 308.173 1016.49C308.173 995.61 308.173 974.728 308.173 953.924V1.38477" stroke="white" stroke-width="0.5" stroke-miterlimit="10"/>
<path d="M410.746 1947.3C406.328 1919.87 402.064 1892.57 397.954 1865.39C349.327 1601.02 306.557 1327.17 390.71 1065.96C396.875 1040.3 403.271 1013.49 410.515 986.519C410.515 964.251 410.515 941.905 410.515 919.637V1.38672" stroke="white" stroke-width="0.5" stroke-miterlimit="10"/>
<path d="M513.161 1945.22C514.062 1921.82 513.212 1898.38 510.618 1875.1C486.266 1695.1 357.88 1532.52 383.541 1335.73C400.649 1207.43 520.482 1121.9 513.084 983.512C513.084 962.194 513.084 940.902 513.084 919.635V1.38477" stroke="white" stroke-width="0.5" stroke-miterlimit="10"/>
<path d="M615.578 1940.37C615.437 1911.15 612.495 1882.02 606.792 1853.37C512.159 1601.02 366.664 1335.73 589.145 1087.61C614.576 1070.27 623.284 1027.74 615.578 983.435V1.38477" stroke="white" stroke-width="0.5" stroke-miterlimit="10"/>
<path d="M717.609 1937.98C711.598 1907.7 705.51 1877.57 698.575 1847.59C597.468 1583.92 520.482 1292.96 715.76 1047.16C717.301 1022.81 717.686 998.461 717.686 974.112V617.122C716.916 514.409 716.916 411.773 717.686 305.439V1.38477" stroke="white" stroke-width="0.5" stroke-miterlimit="10"/>
<path d="M820.259 1940.98C816.766 1913.86 813.503 1886.71 810.472 1859.54C806.08 1832.49 801.918 1805.6 796.755 1778.32C691.564 1532.91 742.811 1284.79 819.874 1047.7C820.722 1015.8 820.722 983.822 820.722 951.922V792.883C821.698 766.633 822.468 740.332 823.034 713.98C823.573 687.628 823.881 661.198 823.958 634.461C820.259 471.646 820.259 317.615 820.722 159.27V1.38672" stroke="white" stroke-width="0.5" stroke-miterlimit="10"/>
<path d="M922.902 1945.22C921.978 1917.64 921.258 1890.08 920.745 1862.54C920.051 1834.8 919.435 1807.14 918.895 1779.25C862.716 1566.73 896.932 1344.36 922.209 1119.82C922.825 1095.7 922.902 1071.51 922.902 1047.24V919.635C925.677 900.602 927.989 881.878 929.992 863.385C931.996 844.893 933.537 826.554 934.847 808.215C956.81 548.621 922.594 300.508 922.902 43.4561V1.38477" stroke="white" stroke-width="0.5" stroke-miterlimit="10"/>
<path d="M1025.32 1947.3V1687.24C1025.32 1658.73 1025.32 1630.3 1024.4 1601.95C1016.69 1464.1 1025.32 1327.17 1025.32 1191.63V1013.49C1035.84 987.842 1044.74 961.567 1051.98 934.814C1102.31 625.674 1016.77 309.061 1025.32 1.38477" stroke="white" stroke-width="0.5" stroke-miterlimit="10"/>
<path d="M1127.74 1947.3V1744.88C1127.74 1652.42 1127.74 1558.18 1127.74 1464.33V1115.28C1126.99 1076.97 1130.66 1038.7 1138.68 1001.24C1146.06 966.17 1163.02 933.84 1187.69 907.847C1222.14 865.236 1247.8 813.841 1247.8 753.739C1230.69 497.073 1093.68 266.066 1127.74 1.07812" stroke="white" stroke-width="0.5" stroke-miterlimit="10"/>
<path d="M1230.15 1947.3V1191.64C1217.59 1126.83 1234.85 1068.73 1260.52 1014.03C1269.15 995.764 1278.63 977.888 1288.34 960.088C1319.48 917.199 1341.77 868.536 1353.9 816.941C1366.03 765.346 1367.77 711.851 1359 659.579C1307.68 428.417 1196.4 231.776 1230.15 1" stroke="white" stroke-width="0.5" stroke-miterlimit="10"/>
<path d="M1332.26 1947.3V1251.81C1315.69 1136.7 1367.17 1041.23 1410.94 942.288C1421.88 917.554 1432.37 892.589 1441 867.007C1461.42 813.84 1469.97 753.969 1461.42 702.651C1393.22 463.091 1299.12 249.19 1332.26 1.38477" stroke="white" stroke-width="0.5" stroke-miterlimit="10"/>
<path d="M1435.06 1947.3V1251.81C1421.58 1129.3 1472.82 1019.73 1505.11 902.451C1511.59 879.335 1517.29 855.217 1521.6 830.945C1530.16 591.385 1410.32 360.455 1434.83 119.045C1434.83 82.3678 1434.83 52.8562 1434.83 32.591V1.76953" stroke="white" stroke-width="0.5" stroke-miterlimit="10"/>
<path d="M1537.48 1947.3V1248.35C1555.2 1091 1572.62 935.277 1576.94 779.012C1577.63 747.728 1577.86 716.444 1576.94 685.006C1572.62 523.193 1538.4 369.085 1537.02 203.728C1537.02 172.906 1537.02 144.397 1537.02 119.585V1.38477" stroke="white" stroke-width="0.5" stroke-miterlimit="10"/>
<path d="M1639.9 1947.3V1251.81C1639.9 1229.52 1639.9 1207.1 1639.9 1184.55C1652.81 1006.68 1656.7 828.28 1651.53 650.023C1650.76 624.75 1649.81 599.476 1648.68 574.203C1640.98 505.856 1640.98 428.879 1639.82 361.919V1.38477" stroke="white" stroke-width="0.5" stroke-miterlimit="10"/>
<path d="M1742.31 1947.3V1155.8C1742.31 1134.85 1742.31 1113.81 1742.31 1092.85C1743.93 916.552 1752.48 728.31 1742.31 549.854C1742.31 530.282 1742.31 511.327 1742.31 492.449V1.38477" stroke="white" stroke-width="0.5" stroke-miterlimit="10"/>
<path d="M1844.73 1947.3V974.343C1846.73 882.341 1846.73 779.628 1844.73 686.393V1.38477" stroke="white" stroke-width="0.5" stroke-miterlimit="10"/>
<path d="M1947.15 1947.3V1.38477" stroke="white" stroke-width="0.5" stroke-miterlimit="10"/>
</g>
<g opacity="0.15">
<path d="M1 2049.79H901.172C1085.2 2041.16 1264.91 2041.16 1456.02 2049.79H1947.15" stroke="white" stroke-width="0.5" stroke-miterlimit="10"/>
<path d="M1 2152.19H756.756C780.568 2152.19 804.535 2152.19 828.81 2152.66C1059.54 2152.66 1298.89 2135.32 1526.69 2151.96C1547.27 2151.96 1567.15 2151.96 1586.57 2151.96H1947.15" stroke="white" stroke-width="0.5" stroke-miterlimit="10"/>
<path d="M1 2254.6H686.089C710.03 2254.6 733.92 2255.19 757.758 2256.37C1033.87 2255.06 1316.23 2246.51 1586.18 2254.29C1622.02 2254.29 1655.54 2254.29 1687.37 2254.29H1947.15" stroke="white" stroke-width="0.5" stroke-miterlimit="10"/>
<path d="M1 2357.08H686.089C705.574 2354.76 725.191 2353.73 744.811 2354C879.825 2357.77 999.658 2383.43 1136.52 2400.23C1307.68 2425.89 1470.28 2374.57 1643.06 2356.77H1947.15" stroke="white" stroke-width="0.5" stroke-miterlimit="10"/>
<path d="M1 2459.48H686.089C705.628 2458 725.24 2457.74 744.811 2458.71C764.231 2459.64 783.343 2461.56 802.223 2463.57C999.658 2468.96 1170.74 2580.23 1359 2588.78C1461.73 2588.78 1538.71 2503.17 1633.89 2468.42C1651.1 2462.2 1669.01 2458.11 1687.21 2456.25C1706.46 2454.45 1725.86 2455.54 1744.78 2459.48H1947.15" stroke="white" stroke-width="0.5" stroke-miterlimit="10"/>
<path d="M1 2561.66H686.089C713.555 2560.47 741.068 2560.98 768.47 2563.2C795.442 2565.28 821.951 2568.59 847.69 2571.91C973.996 2579.61 1085.2 2631.31 1196.4 2682.63C1376.11 2759.69 1530.16 2656.97 1680.82 2575.53C1703.66 2566.8 1727.5 2560.95 1751.79 2558.11C1777.51 2555.23 1803.51 2556.43 1828.86 2561.66H1947.07" stroke="white" stroke-width="0.5" stroke-miterlimit="10"/>
<path d="M1 2664.29H756.756C784.91 2670.1 812.858 2675.49 840.6 2680.48C1076.64 2708.45 1316.23 2819.71 1554.05 2754.37C1580.85 2746.98 1607.03 2737.5 1632.34 2726.01C1659.3 2713.73 1685.23 2699.3 1709.87 2682.86C1752.64 2657.21 1786.93 2665.76 1829.09 2664.45C1866.15 2664.45 1895.75 2664.45 1916.01 2664.45H1946.84" stroke="white" stroke-width="0.5" stroke-miterlimit="10"/>
<path d="M1 2766.7H828.579C852.699 2766.7 876.974 2766.7 902.482 2768.24C1085.2 2828.34 1273.46 2845.29 1459.72 2833.43C1490.55 2830.75 1521.37 2827.26 1552.2 2822.95C1645.64 2809.47 1738.26 2790.82 1829.63 2767.08C1866.46 2767.08 1896.05 2767.08 1916.32 2767.08H1947.15" stroke="white" stroke-width="0.5" stroke-miterlimit="10"/>
<path d="M1 2869.18H901.172C925.447 2869.18 949.799 2869.18 974.613 2869.64C1153.63 2896.77 1324.79 2939.53 1513.05 2913.87C1624.25 2896.77 1718.42 2862.55 1829.01 2869.26H1947.07" stroke="white" stroke-width="0.5" stroke-miterlimit="10"/>
<path d="M1 2971.58H304.859C325.152 2972 345.702 2972.3 366.509 2972.51C387.008 2972.51 407.738 2972.89 428.16 2972.97C529.112 2973.74 631.76 2973.74 732.789 2971.58H1047.13C1290.57 2999.32 1530.16 2990.77 1768.21 2972.05C1804.66 2971.51 1836.95 2971.51 1863.53 2971.51H1947.15" stroke="white" stroke-width="0.5" stroke-miterlimit="10"/>
<path d="M1 3073.99H119.215C149.064 3074.3 178.784 3074.45 208.376 3074.45C469.08 3059.04 716.991 3076.45 974.073 3073.99H1155.71C1332.96 3076.38 1521.61 3076.38 1701.86 3073.99C1738.92 3073.99 1772.98 3073.99 1803.04 3073.99H1947.15" stroke="white" stroke-width="0.5" stroke-miterlimit="10"/>
<path d="M1 3176.39H83.8426C110.352 3175.85 136.785 3175.01 163.063 3173.62C460.295 3119.14 751.285 3161.91 1046.74 3176.32H1310.53C1401.54 3179.01 1504.27 3179.01 1597.9 3176.32H1946.92" stroke="white" stroke-width="0.5" stroke-miterlimit="10"/>
<path d="M1 3278.8H54.944C85.2298 3276.56 115.438 3273.79 145.262 3269.32C434.864 3170.38 742.962 3204.75 1045.82 3278.26C1071.17 3278.64 1095.45 3278.72 1119.57 3278.72H1947.15" stroke="white" stroke-width="0.5" stroke-miterlimit="10"/>
<path d="M1 3381.2H54.944C80.2537 3384.55 105.907 3384.34 131.159 3380.59C229.646 3358.63 306.632 3290.2 409.279 3264.47C631.76 3213.15 820.025 3332.97 1034.72 3363.63C1064.24 3368.72 1092.21 3374.5 1119.49 3381.05H1947.15" stroke="white" stroke-width="0.5" stroke-miterlimit="10"/>
<path d="M1 3483.68H55.3294C73.2079 3484.53 91.3948 3485.69 109.273 3486.15C229.414 3504.18 280.738 3375.89 383.386 3341.67C468.926 3307.46 563.097 3324.57 648.637 3350.23C777.024 3392.99 896.779 3444.31 1035.11 3462.26C1064.24 3468.5 1091.83 3475.36 1119.26 3482.61C1143.46 3483.61 1167.42 3483.61 1191.24 3483.68H1946.99" stroke="white" stroke-width="0.5" stroke-miterlimit="10"/>
<path d="M1 3586.47H118.983C169.614 3573.14 238.123 3598.8 272.339 3556.04C486.265 3307.92 785.732 3530.38 1037.42 3561.28C1064.78 3568.37 1092.06 3576.69 1119.41 3585.32C1143.61 3586.4 1167.58 3586.47 1191.39 3586.55H1947.15" stroke="white" stroke-width="0.5" stroke-miterlimit="10"/>
<path d="M1 3688.49H119.215C144.029 3688.49 172.234 3688.49 203.367 3688.49C229.569 3684.18 255.231 3692.73 272.724 3684.18C486.65 3513.04 726.239 3615.75 954.654 3653.74C983.013 3658.98 1010.45 3664.38 1038.04 3670.31C1065.62 3676.24 1092.52 3681.87 1119.95 3688.26C1144 3688.72 1167.96 3688.72 1191.78 3688.8H1947.53" stroke="white" stroke-width="0.5" stroke-miterlimit="10"/>
<path d="M1 3790.9H305.09C331.985 3783.96 359.034 3778.18 386.083 3773.02C520.481 3752.37 657.345 3743.82 793.9 3759.07C821.412 3760.85 848.615 3762.93 875.741 3765.16C902.867 3767.4 929.685 3769.94 956.118 3772.4C982.55 3774.87 1010.06 3777.41 1037.65 3780.11C1065.24 3782.81 1092.13 3786.66 1119.57 3790.51H1947.15" stroke="white" stroke-width="0.5" stroke-miterlimit="10"/>
<path d="M1 3893.3H361.269H421.07C473.627 3892.27 525.953 3891.53 578.047 3891.07C630.142 3890.6 682.133 3890.37 734.022 3890.37C785.963 3890.37 837.929 3890.63 889.921 3891.14C941.912 3891.66 994.161 3892.4 1046.67 3893.38H1947.15" stroke="white" stroke-width="0.5" stroke-miterlimit="10"/>
<path d="M1 3893.3V1947.38" stroke="white" stroke-width="0.5" stroke-miterlimit="10"/>
<path d="M103.418 3893.3V3690.96C103.418 3660.14 103.418 3625.77 103.418 3589.25C102.724 3538.08 102.262 3487.85 101.953 3437.84C101.645 3387.83 101.953 3338.28 101.953 3288.51C101.953 3238.73 102.647 3188.34 103.341 3137.64C103.341 3113.83 103.341 3089.86 103.341 3065.82V1947.39" stroke="white" stroke-width="0.5" stroke-miterlimit="10"/>
<path d="M205.833 3893.3V3690.73C195.275 3512.73 195.275 3341.67 198.126 3164.91C200.515 3108.2 203.058 3050.41 205.833 2993.24V1947.38" stroke="white" stroke-width="0.5" stroke-miterlimit="10"/>
<path d="M308.327 3893.3V3862.48C308.327 3842.29 308.327 3812.7 308.327 3775.18C263.862 3538.85 255.308 3282.03 297.846 3044.55C301.16 3017.74 304.551 2990.15 308.173 2962.49C308.173 2941.61 308.173 2920.73 308.173 2899.92V1947.38" stroke="white" stroke-width="0.5" stroke-miterlimit="10"/>
<path d="M410.746 3893.3C406.328 3865.87 402.064 3838.57 397.954 3811.39C349.327 3547.02 306.557 3273.17 390.71 3011.96C396.875 2986.3 403.271 2959.49 410.515 2932.52C410.515 2910.25 410.515 2887.91 410.515 2865.64V1947.39" stroke="white" stroke-width="0.5" stroke-miterlimit="10"/>
<path d="M513.161 3891.22C514.062 3867.82 513.212 3844.38 510.618 3821.1C486.266 3641.1 357.88 3478.52 383.541 3281.73C400.649 3153.43 520.482 3067.9 513.084 2929.51C513.084 2908.19 513.084 2886.9 513.084 2865.63V1947.38" stroke="white" stroke-width="0.5" stroke-miterlimit="10"/>
<path d="M615.578 3886.37C615.437 3857.15 612.495 3828.02 606.792 3799.37C512.159 3547.02 366.664 3281.73 589.145 3033.61C614.576 3016.27 623.284 2973.74 615.578 2929.44V1947.38" stroke="white" stroke-width="0.5" stroke-miterlimit="10"/>
<path d="M717.609 3883.98C711.598 3853.7 705.51 3823.57 698.575 3793.59C597.468 3529.92 520.482 3238.96 715.76 2993.16C717.301 2968.81 717.686 2944.46 717.686 2920.11V2563.12C716.916 2460.41 716.916 2357.77 717.686 2251.44V1947.38" stroke="white" stroke-width="0.5" stroke-miterlimit="10"/>
<path d="M820.259 3886.98C816.766 3859.86 813.503 3832.71 810.472 3805.54C806.08 3778.49 801.918 3751.6 796.755 3724.32C691.564 3478.91 742.811 3230.79 819.874 2993.7C820.722 2961.8 820.722 2929.82 820.722 2897.92V2738.88C821.698 2712.63 822.468 2686.33 823.034 2659.98C823.573 2633.63 823.881 2607.2 823.958 2580.46C820.259 2417.65 820.259 2263.62 820.722 2105.27V1947.39" stroke="white" stroke-width="0.5" stroke-miterlimit="10"/>
<path d="M922.902 3891.22C921.978 3863.64 921.258 3836.08 920.745 3808.54C920.051 3780.8 919.435 3753.14 918.895 3725.25C862.716 3512.73 896.932 3290.36 922.209 3065.82C922.825 3041.7 922.902 3017.51 922.902 2993.24V2865.63C925.677 2846.6 927.989 2827.88 929.992 2809.39C931.996 2790.89 933.537 2772.55 934.847 2754.21C956.81 2494.62 922.594 2246.51 922.902 1989.46V1947.38" stroke="white" stroke-width="0.5" stroke-miterlimit="10"/>
<path d="M1025.32 3893.3V3633.24C1025.32 3604.73 1025.32 3576.3 1024.4 3547.95C1016.69 3410.1 1025.32 3273.17 1025.32 3137.63V2959.49C1035.84 2933.84 1044.74 2907.57 1051.98 2880.81C1102.31 2571.67 1016.77 2255.06 1025.32 1947.38" stroke="white" stroke-width="0.5" stroke-miterlimit="10"/>
<path d="M1127.74 3893.3V3690.88C1127.74 3598.42 1127.74 3504.18 1127.74 3410.33V3061.28C1126.99 3022.97 1130.66 2984.7 1138.68 2947.24C1146.06 2912.17 1163.02 2879.84 1187.69 2853.85C1222.14 2811.24 1247.8 2759.84 1247.8 2699.74C1230.69 2443.07 1093.68 2212.07 1127.74 1947.08" stroke="white" stroke-width="0.5" stroke-miterlimit="10"/>
<path d="M1230.15 3893.3V3137.64C1217.59 3072.83 1234.85 3014.73 1260.52 2960.03C1269.15 2941.76 1278.63 2923.89 1288.34 2906.09C1319.48 2863.2 1341.77 2814.54 1353.9 2762.94C1366.03 2711.35 1367.77 2657.85 1359 2605.58C1307.68 2374.42 1196.4 2177.78 1230.15 1947" stroke="white" stroke-width="0.5" stroke-miterlimit="10"/>
<path d="M1332.26 3893.3V3197.81C1315.69 3082.7 1367.17 2987.23 1410.94 2888.29C1421.88 2863.55 1432.37 2838.59 1441 2813.01C1461.42 2759.84 1469.97 2699.97 1461.42 2648.65C1393.22 2409.09 1299.12 2195.19 1332.26 1947.38" stroke="white" stroke-width="0.5" stroke-miterlimit="10"/>
<path d="M1435.06 3893.3V3197.81C1421.58 3075.3 1472.82 2965.73 1505.11 2848.45C1511.59 2825.33 1517.29 2801.22 1521.6 2776.95C1530.16 2537.38 1410.32 2306.45 1434.83 2065.05C1434.83 2028.37 1434.83 1998.86 1434.83 1978.59V1947.77" stroke="white" stroke-width="0.5" stroke-miterlimit="10"/>
<path d="M1537.48 3893.3V3194.35C1555.2 3037 1572.62 2881.28 1576.94 2725.01C1577.63 2693.73 1577.86 2662.44 1576.94 2631.01C1572.62 2469.19 1538.4 2315.09 1537.02 2149.73C1537.02 2118.91 1537.02 2090.4 1537.02 2065.59V1947.38" stroke="white" stroke-width="0.5" stroke-miterlimit="10"/>
<path d="M1639.9 3893.3V3197.81C1639.9 3175.52 1639.9 3153.1 1639.9 3130.55C1652.81 2952.68 1656.7 2774.28 1651.53 2596.02C1650.76 2570.75 1649.81 2545.48 1648.68 2520.2C1640.98 2451.86 1640.98 2374.88 1639.82 2307.92V1947.38" stroke="white" stroke-width="0.5" stroke-miterlimit="10"/>
<path d="M1742.31 3893.3V3101.8C1742.31 3080.85 1742.31 3059.81 1742.31 3038.85C1743.93 2862.55 1752.48 2674.31 1742.31 2495.85C1742.31 2476.28 1742.31 2457.33 1742.31 2438.45V1947.38" stroke="white" stroke-width="0.5" stroke-miterlimit="10"/>
<path d="M1844.73 3893.3V2920.34C1846.73 2828.34 1846.73 2725.63 1844.73 2632.39V1947.38" stroke="white" stroke-width="0.5" stroke-miterlimit="10"/>
<path d="M1947.15 3893.3V1947.38" stroke="white" stroke-width="0.5" stroke-miterlimit="10"/>
</g>
</svg>
