<svg width="0" height="0" style="position:absolute"><symbol viewBox="0 0 64 64" style="enable-background:new 0 0 64 64" xml:space="preserve" id="anchor" xmlns="http://www.w3.org/2000/svg"><path d="M56.6 37.6c-1.5-6-7.3-10.1-13.6-9.6-.3 0-.5.1-.7.4l-.1.1c-.1.1-.2.3-.2.5v9c0 .6.4 1 1 1 1.9 0 3.8-.9 4.9-2.4.7 1 1.1 2.2 1.1 3.4 0 1.7-.7 3.4-2 4.5-1.3 1.2-3 1.7-4.8 1.4-3-.4-5.2-2.9-5.2-6L36.1 20c3.4-1.7 5.3-5.4 4.8-9.2-.5-4-3.8-7.3-7.9-7.7-2.6-.3-5.1.5-7 2.2-1.9 1.7-3 4.1-3 6.7 0 3.4 1.9 6.5 4.9 8L27 40c0 3-2.2 5.5-5.2 5.9-1.8.2-3.5-.3-4.8-1.4-1.3-1.1-2-2.8-2-4.5 0-1.2.4-2.4 1.1-3.4 1.2 1.5 3 2.4 4.9 2.4.6 0 1-.4 1-1v-9c0-.2-.1-.4-.2-.6 0 0 0-.1-.1-.1-.2-.2-.4-.3-.7-.4-6.3-.4-12 3.7-13.6 9.7-1.1 4.2-.1 8.4 2.6 11.7 2.7 3.2 6.6 4.9 10.8 4.7h.1c4.4-.3 8.4 2.1 10 6.1l.1.3c.2.4.5.6.9.6s.8-.3.9-.6l.1-.3c1.6-3.9 5.6-6.4 10.1-6 4.2.3 8.2-1.4 10.9-4.7 2.8-3.3 3.7-7.6 2.7-11.8zM52.5 48c-2.3 2.7-5.6 4.2-9.3 3.9-4.6-.3-8.9 1.9-11.2 5.7-2.1-3.5-6-5.7-10.3-5.7h-.9c-3.6.2-6.9-1.2-9.2-3.9-2.3-2.7-3.1-6.4-2.2-9.9C10.6 33.3 15 30 20 30v6.9c-1.1-.3-2.1-1-2.7-2l-.3-.5c-.2-.3-.4-.4-.7-.5-.3 0-.6.1-.8.3-1.6 1.5-2.5 3.6-2.5 5.8 0 2.3 1 4.5 2.7 6 1.7 1.5 4.1 2.2 6.4 1.9 4-.5 6.9-3.9 6.9-7.9l.9-20.6c0-.4-.2-.8-.6-1-2.6-1-4.3-3.6-4.3-6.4 0-2 .9-3.9 2.3-5.2 1.5-1.3 3.4-2 5.5-1.7 3.1.4 5.7 2.9 6.1 6 .4 3.2-1.3 6.2-4.3 7.4-.4.2-.6.5-.6 1L35 40c0 4.1 2.9 7.4 6.9 7.9 2.3.3 4.6-.4 6.4-1.9s2.7-3.7 2.7-6c0-2.2-.9-4.3-2.5-5.8-.2-.2-.5-.3-.8-.2-.3 0-.6.2-.7.5l-.3.5c-.6 1-1.6 1.7-2.7 2v-7c5 0 9.4 3.3 10.6 8.1.9 3.6.1 7.2-2.1 9.9z"/><path d="M37 12c0-2.8-2.2-5-5-5s-5 2.2-5 5 2.2 5 5 5 5-2.2 5-5zm-5 3c-1.7 0-3-1.3-3-3s1.3-3 3-3 3 1.3 3 3-1.3 3-3 3z"/></symbol><symbol viewBox="0 0 64 64" style="enable-background:new 0 0 64 64" xml:space="preserve" id="compass" xmlns="http://www.w3.org/2000/svg"><path d="M32 3C16 3 3 16 3 32s13 29 29 29 29-13 29-29S48 3 32 3zm0 56C17.1 59 5 46.9 5 32S17.1 5 32 5s27 12.1 27 27-12.1 27-27 27z"/><path d="M32 8C18.8 8 8 18.8 8 32s10.8 24 24 24 24-10.8 24-24S45.2 8 32 8zm0 46c-12.1 0-22-9.9-22-22s9.9-22 22-22 22 9.9 22 22-9.9 22-22 22z"/><path d="M37.3 27.4 33 12.7c-.1-.4-.5-.7-1-.7s-.8.3-1 .7l-4.3 14.7c-1 1.2-1.7 2.8-1.7 4.6s.7 3.4 1.7 4.6L31 51.3c.1.4.5.7 1 .7s.8-.3 1-.7l4.3-14.7c1.1-1.2 1.7-2.8 1.7-4.6s-.7-3.4-1.7-4.6zM32 37c-2.8 0-5-2.2-5-5s2.2-5 5-5 5 2.2 5 5-2.2 5-5 5zm0-20.4 2.6 9c-.8-.4-1.7-.6-2.6-.6s-1.8.2-2.6.5l2.6-8.9zm0 30.8-2.6-9c.8.3 1.7.5 2.6.5s1.8-.2 2.6-.5l-2.6 9zM52 31h-2c-.6 0-1 .4-1 1s.4 1 1 1h2c.6 0 1-.4 1-1s-.4-1-1-1zM14 31h-2c-.6 0-1 .4-1 1s.4 1 1 1h2c.6 0 1-.4 1-1s-.4-1-1-1z"/></symbol><symbol fill="none" viewBox="0 0 16 16" id="digital-icon-arrow" xmlns="http://www.w3.org/2000/svg"><path d="M9 1a1 1 0 0 0-2 0h2ZM7.293 15.707a1 1 0 0 0 1.414 0l6.364-6.364a1 1 0 0 0-1.414-1.414L8 13.586 2.343 7.929A1 1 0 0 0 .93 9.343l6.364 6.364ZM8 1H7v14h2V1H8Z" fill="#012DD4"/></symbol><symbol viewBox="0 0 64 64" style="enable-background:new 0 0 64 64" xml:space="preserve" id="fish" xmlns="http://www.w3.org/2000/svg"><path d="M55.9 32c2.1-1.2 3.6-3.2 4-5.8l1.1-7.1c0-.3 0-.6-.2-.8-.2-.2-.5-.3-.8-.3-5.9 0-11.2 2.9-14.4 7.8-3.6-2.5-8.3-5.2-13.2-7l4.5-6.2c.2-.3.2-.7.1-1.1-.2-.3-.5-.5-.9-.5l-9.6.6c-3.6.2-6.9 2.6-8.2 6-10.3 2.8-14.9 13.8-15 14-.1.2-.1.5 0 .8.1.1 5 11.9 16.1 14.2.5 1.3 3.1 6.4 9.8 6.4.4 0 .8-.3.9-.7s-.1-.9-.5-1.1c0 0-1.4-.9-1.5-4.7 6.4-1.4 12.9-5.1 17.6-8.2C48.8 43.1 54.1 46 60 46c.3 0 .6-.1.8-.3.2-.2.3-.5.2-.8l-1.1-7.1c-.4-2.6-1.9-4.6-4-5.8zm2.9-12-.9 5.9c-.4 2.8-2.8 4.9-5.6 5.1-.7-.6-2.6-2.2-5.1-4 2.6-4.1 6.9-6.6 11.6-7zM23 45c-1.3 0-2.6-.2-3.7-.4 3.6-8.4 3.6-16.8 0-25.2 1.2-.3 2.4-.4 3.7-.4 11 0 24 10.1 27.5 13C47 34.9 34 45 23 45zm3.4-31.4 7.5-.5-3.6 5c-2.4-.7-4.9-1.1-7.3-1.1-.8 0-1.6.1-2.4.2 1.2-2.1 3.4-3.4 5.8-3.6zM5.1 32c.8-1.8 4.7-9.3 12.2-12 3.5 8 3.5 16 0 24C9.8 41.3 5.9 33.8 5.1 32zm21.7 18.8c-2.9-.7-4.5-2.5-5.3-3.8H23c1 0 2-.1 3-.2.1 1.8.4 3.1.8 4zM47.2 37c2.6-1.8 4.4-3.4 5.1-4 2.8.2 5.1 2.2 5.6 5.1l.9 5.9c-4.7-.4-9-2.9-11.6-7z"/><path d="M13 25c-1.7 0-3 1.3-3 3s1.3 3 3 3 3-1.3 3-3-1.3-3-3-3zm0 4c-.6 0-1-.4-1-1s.4-1 1-1 1 .4 1 1-.4 1-1 1z"/></symbol><symbol viewBox="0 0 120 96" id="logotype" xmlns="http://www.w3.org/2000/svg"><path d="M49.7 12.076H30.932v4.595H49.7v-4.595Z"/><path d="M42.254 15.366h-4.596v15.32h4.596v-15.32ZM119.455 21.469h-18.766v4.596h18.766v-4.596Z"/><path d="M112.01 24.758h-4.596v15.32h4.596v-15.32ZM15.373 31.627h5.584c.171.448.442.85.793 1.176.822.766 1.971 1.15 3.447 1.15a4.561 4.561 0 0 0 2.32-.464 1.36 1.36 0 0 0 .767-1.176c0-.2-.055-.394-.161-.563a1.53 1.53 0 0 0-.529-.479 6.102 6.102 0 0 0-.72-.383 8.371 8.371 0 0 0-1.014-.33c-.442-.12-.81-.215-1.104-.286-.294-.073-.72-.173-1.279-.3-.559-.126-.984-.229-1.275-.302a12.362 12.362 0 0 1-4.454-1.968c-1.106-.838-1.66-2.04-1.662-3.608 0-1.657.766-3.074 2.298-4.251 1.532-1.177 3.604-1.766 6.215-1.766 3.32 0 5.808 1.004 7.465 3.01a7.392 7.392 0 0 1 1.497 3.007h-5.55a2.298 2.298 0 0 0-.585-.82c-.628-.549-1.559-.822-2.792-.82a4.342 4.342 0 0 0-2.118.384 1.149 1.149 0 0 0-.674.973c0 .509.326.915.984 1.214.933.387 1.903.676 2.896.861.743.165 1.279.288 1.6.383.322.096.843.23 1.56.44.556.152 1.1.348 1.627.587.383.184.82.433 1.34.766.452.262.85.606 1.176 1.015.29.4.526.837.705 1.298.207.53.311 1.096.306 1.666 0 1.749-.773 3.235-2.32 4.458-1.548 1.223-3.718 1.833-6.511 1.83-3.486 0-6.166-1.111-8.043-3.335a9.577 9.577 0 0 1-1.792-3.363M50.668 36.492V17.343h10.283c2.452 0 4.435.639 5.952 1.915a6.02 6.02 0 0 1 2.279 4.772c0 2.464-1.373 4.379-4.117 5.745l4.262 6.698h-5.879l-3.672-5.744h-3.673v5.744l-5.435.02Zm5.435-10.386h4.703a3.197 3.197 0 0 0 2.026-.601 1.754 1.754 0 0 0 0-2.9 3.175 3.175 0 0 0-2.026-.6h-4.703v4.1ZM77.707 21.469h-5.438v19.138h5.438V21.469ZM81.525 36.492V17.355h5.435v7.108h2.351l4.994-7.108h6.174l-6.465 9.023 6.906 10.114h-6.17l-5.144-7.38H86.96v7.38h-5.435Z"/><path fill-rule="evenodd" clip-rule="evenodd" d="M0 0h86.965v86.965H0V0Zm5.447 5.447v76.07h76.07V5.447H5.447Z"/><path d="m37.5 87-7.755 9L56.5 87h-19Z" fill="#2F00C0"/><path d="M29.654 95.55 18.068 67.11 12.27 52.881l21.138-10.074-3.754 52.742Z" fill="#DF0034"/><path d="M17.468 63.454c.786-1.578 1.671-3.595 3.134-4.679.156-.127.342-.214.54-.25-.398.078.238.085-.118 0a.798.798 0 0 1 .21.127c-.187-.249-.052-.028.022.048.073.075.158.175.23.258-.197-.246.084.145.094.164 1.144 1.952 1.537 4.414 3.143 6.201.817.909 2.018 1.368 3.225 1.075 1.1-.268 1.929-1.108 2.6-1.973 1.36-1.753 2.196-4.208 3.813-5.49-.351.271.449-.402.08-.06.118-.11.298.025.14-.06-.157-.084.078-.014.153 0-.35-.105-.091-.008-.04.013-.35-.15.031.012.09.058.057.045.213.185 0 0 .106.097.207.2.303.308.116.138.22.286.31.442.154.242.295.491.431.744.288.526.55 1.073.826 1.606 1.145 2.2 3.157 4.582 5.898 3.193 2.19-1.113 2.98-3.77 4.636-5.222.042-.037.242-.175.025-.025.093-.063.21-.108.298-.175.131-.101-.267.021.054 0-.35.026-.108.014-.035.012.176 0-.082-.063.07.035.051.034.248.162 0 0 .128.111.246.233.351.365.175.216-.198-.301.076.116.06.091.119.184.175.277.149.246.282.5.412.754.284.56.537 1.133.812 1.698.803 1.65 2.546 4.086 4.665 2.918.608-.337 1.143-.891 1.616-1.391 1.288-1.36 2.413-2.883 3.52-4.384.507-.69.116-1.77-.568-2.171-.805-.47-1.663-.123-2.171.57a40.75 40.75 0 0 1-2.923 3.64c-.267.288-.545.564-.835.828-.067.062-.393.298-.125.11.269-.187-.026.038-.084.046-.35.051.42-.131.175-.068.195-.035.393-.043.59-.023-.332 0 .233.14-.065-.01-.298-.151.2.175-.08-.062a2.014 2.014 0 0 1-.188-.2c.219.248-.085-.123-.104-.154-.13-.207-.252-.414-.368-.63-.293-.543-.546-1.11-.81-1.67-1.035-2.179-2.896-4.734-5.64-3.39-2.129 1.038-3.04 3.645-4.56 5.127-.259.254-.068.147-.4.288-.413.175.176-.085-.068.024-.094.044-.38.044-.049.018-.407.033.037 0 .014.019-.023.02-.505-.156-.117-.023-.307-.105-.109-.02-.351-.261-.3-.35-.562-.732-.78-1.138-.297-.526-.56-1.065-.833-1.601-1.04-2.033-2.755-4.547-5.419-3.557-2.308.858-3.462 3.574-4.677 5.52-.14.225-.284.45-.433.669-.053.079-.41.568-.29.417-.157.198-.329.377-.503.561-.063.067-.136.13-.205.19.263-.223-.086.045-.154.086-.214.126.312-.197 0 0-.282.175.105-.016.084 0 0-.009-.582.05-.04.02-.037 0-.372-.097.056.041-.062-.02-.27-.226-.139-.072.158.191-.117-.12-.122-.128-.058-.068-.121-.131-.176-.202.205.255-.09-.159-.124-.217-1.284-2.094-1.594-5.19-3.818-6.769-3.732-2.65-6.633.918-7.927 3.515l2 5" fill="#D9E021"/><path d="M65.745 52.097c1.65 0 3.232-1.452 3.157-3.157-.076-1.704-1.388-3.156-3.157-3.156-1.652 0-3.234 1.452-3.156 3.156.077 1.705 1.387 3.157 3.156 3.157Z" fill="#DF0034"/></symbol><symbol fill="none" viewBox="0 0 120 96" id="logotype-black" xmlns="http://www.w3.org/2000/svg"><path d="M49.7 12.076H30.932v4.595H49.7v-4.595Z" fill="#000"/><path d="M42.254 15.366h-4.596v15.32h4.596v-15.32ZM119.455 21.469h-18.766v4.596h18.766v-4.596Z" fill="#000"/><path d="M112.01 24.758h-4.596v15.32h4.596v-15.32ZM15.373 31.627h5.584c.171.448.442.85.793 1.176.822.766 1.971 1.15 3.447 1.15a4.561 4.561 0 0 0 2.32-.464 1.36 1.36 0 0 0 .767-1.176c0-.2-.055-.394-.161-.563a1.53 1.53 0 0 0-.529-.479 6.102 6.102 0 0 0-.72-.383 8.371 8.371 0 0 0-1.014-.33c-.442-.12-.81-.215-1.104-.286-.294-.073-.72-.173-1.279-.3-.559-.126-.984-.229-1.275-.302a12.362 12.362 0 0 1-4.454-1.968c-1.106-.838-1.66-2.04-1.662-3.608 0-1.657.766-3.074 2.298-4.251 1.532-1.177 3.604-1.766 6.215-1.766 3.32 0 5.808 1.004 7.465 3.01a7.392 7.392 0 0 1 1.497 3.007h-5.55a2.298 2.298 0 0 0-.585-.82c-.628-.549-1.559-.822-2.792-.82a4.342 4.342 0 0 0-2.118.384 1.149 1.149 0 0 0-.674.973c0 .509.326.915.984 1.214.933.387 1.903.676 2.896.861.743.165 1.279.288 1.6.383.322.096.843.23 1.56.44.556.152 1.1.348 1.627.587.383.184.82.433 1.34.766.452.262.85.606 1.176 1.015.29.4.526.837.705 1.298.207.53.311 1.096.306 1.666 0 1.749-.773 3.235-2.32 4.458-1.548 1.223-3.718 1.833-6.511 1.83-3.486 0-6.166-1.111-8.043-3.335a9.577 9.577 0 0 1-1.792-3.363M50.668 36.492V17.343h10.283c2.452 0 4.435.639 5.952 1.915a6.02 6.02 0 0 1 2.279 4.772c0 2.464-1.373 4.379-4.117 5.745l4.262 6.698h-5.879l-3.672-5.744h-3.673v5.744l-5.435.02Zm5.435-10.386h4.703a3.197 3.197 0 0 0 2.026-.601 1.754 1.754 0 0 0 0-2.9 3.175 3.175 0 0 0-2.026-.6h-4.703v4.1ZM77.707 21.469h-5.438v19.138h5.438V21.469ZM81.525 36.492V17.355h5.435v7.108h2.351l4.994-7.108h6.174l-6.465 9.023 6.906 10.114h-6.17l-5.144-7.38H86.96v7.38h-5.435Z" fill="#000"/><path fill-rule="evenodd" clip-rule="evenodd" d="M0 0h86.965v86.965H0V0Zm5.447 5.447v76.07h76.07V5.447H5.447Z" fill="#000"/><path d="m37.5 87-7.755 9L56.5 87h-19Z" fill="#2F00C0"/><path d="M29.654 95.55 18.068 67.11 12.27 52.881l21.138-10.074-3.754 52.742Z" fill="#DF0034"/><path d="M17.468 63.454c.786-1.578 1.671-3.595 3.134-4.679.156-.127.342-.214.54-.25-.398.078.238.085-.118 0a.798.798 0 0 1 .21.127c-.187-.249-.052-.028.022.048.073.075.158.175.23.258-.197-.246.084.145.094.164 1.144 1.952 1.537 4.414 3.143 6.201.817.909 2.018 1.368 3.225 1.075 1.1-.268 1.929-1.108 2.6-1.973 1.36-1.753 2.196-4.208 3.813-5.49-.351.271.449-.402.08-.06.118-.11.298.025.14-.06-.157-.084.078-.014.153 0-.35-.105-.091-.008-.04.013-.35-.15.031.012.09.058.057.045.213.185 0 0 .106.097.207.2.303.308.116.138.22.286.31.442.154.242.295.491.431.744.288.526.55 1.073.826 1.606 1.145 2.2 3.157 4.582 5.898 3.193 2.19-1.113 2.98-3.77 4.636-5.222.042-.037.242-.175.025-.025.093-.063.21-.108.298-.175.131-.101-.267.021.054 0-.35.026-.108.014-.035.012.176 0-.082-.063.07.035.051.034.248.162 0 0 .128.111.246.233.351.365.175.216-.198-.301.076.116.06.091.119.184.175.277.149.246.282.5.412.754.284.56.537 1.133.812 1.698.803 1.65 2.546 4.086 4.665 2.918.608-.337 1.143-.891 1.616-1.391 1.288-1.36 2.413-2.883 3.52-4.384.507-.69.116-1.77-.568-2.171-.805-.47-1.663-.123-2.171.57a40.75 40.75 0 0 1-2.923 3.64c-.267.288-.545.564-.835.828-.067.062-.393.298-.125.11.269-.187-.026.038-.084.046-.35.051.42-.131.175-.068.195-.035.393-.043.59-.023-.332 0 .233.14-.065-.01-.298-.151.2.175-.08-.062a2.014 2.014 0 0 1-.188-.2c.219.248-.085-.123-.104-.154-.13-.207-.252-.414-.368-.63-.293-.543-.546-1.11-.81-1.67-1.035-2.179-2.896-4.734-5.64-3.39-2.129 1.038-3.04 3.645-4.56 5.127-.259.254-.068.147-.4.288-.413.175.176-.085-.068.024-.094.044-.38.044-.049.018-.407.033.037 0 .014.019-.023.02-.505-.156-.117-.023-.307-.105-.109-.02-.351-.261-.3-.35-.562-.732-.78-1.138-.297-.526-.56-1.065-.833-1.601-1.04-2.033-2.755-4.547-5.419-3.557-2.308.858-3.462 3.574-4.677 5.52-.14.225-.284.45-.433.669-.053.079-.41.568-.29.417-.157.198-.329.377-.503.561-.063.067-.136.13-.205.19.263-.223-.086.045-.154.086-.214.126.312-.197 0 0-.282.175.105-.016.084 0 0-.009-.582.05-.04.02-.037 0-.372-.097.056.041-.062-.02-.27-.226-.139-.072.158.191-.117-.12-.122-.128-.058-.068-.121-.131-.176-.202.205.255-.09-.159-.124-.217-1.284-2.094-1.594-5.19-3.818-6.769-3.732-2.65-6.633.918-7.927 3.515l2 5" fill="#D9E021"/><path d="M65.745 52.097c1.65 0 3.232-1.452 3.157-3.157-.076-1.704-1.388-3.156-3.157-3.156-1.652 0-3.234 1.452-3.156 3.156.077 1.705 1.387 3.157 3.156 3.157Z" fill="#DF0034"/></symbol><symbol fill="none" viewBox="0 0 120 96" id="logotype-white" xmlns="http://www.w3.org/2000/svg"><path d="M49.7 12.076H30.932v4.595H49.7v-4.595Z" fill="#fff"/><path d="M42.254 15.366h-4.596v15.32h4.596v-15.32ZM119.455 21.469h-18.766v4.596h18.766v-4.596Z" fill="#fff"/><path d="M112.01 24.758h-4.596v15.32h4.596v-15.32ZM15.373 31.627h5.584c.171.448.442.85.793 1.176.822.766 1.971 1.15 3.447 1.15.8.051 1.601-.108 2.32-.464a1.36 1.36 0 0 0 .767-1.176c0-.2-.055-.394-.161-.563a1.53 1.53 0 0 0-.529-.479 6.102 6.102 0 0 0-.72-.383 8.371 8.371 0 0 0-1.014-.33c-.442-.12-.81-.215-1.104-.286-.294-.073-.72-.173-1.279-.3-.559-.126-.984-.229-1.275-.302a12.362 12.362 0 0 1-4.454-1.968c-1.106-.838-1.66-2.04-1.662-3.608 0-1.657.766-3.074 2.298-4.251 1.532-1.177 3.604-1.766 6.215-1.766 3.32 0 5.808 1.004 7.465 3.01a7.394 7.394 0 0 1 1.497 3.007h-5.55a2.297 2.297 0 0 0-.585-.82c-.628-.549-1.559-.822-2.792-.82a4.342 4.342 0 0 0-2.118.384 1.149 1.149 0 0 0-.674.973c0 .509.326.915.984 1.214.933.387 1.903.676 2.896.861.743.165 1.279.288 1.6.383.322.096.843.23 1.56.44.556.152 1.1.348 1.627.587.383.184.82.433 1.34.766.452.262.85.606 1.176 1.015.29.4.526.837.705 1.298.207.53.311 1.096.306 1.666 0 1.749-.773 3.235-2.32 4.458-1.548 1.223-3.718 1.833-6.511 1.83-3.486 0-6.166-1.111-8.043-3.335a9.577 9.577 0 0 1-1.792-3.363M50.668 36.492V17.343h10.283c2.452 0 4.435.639 5.952 1.915a6.02 6.02 0 0 1 2.279 4.772c0 2.464-1.373 4.379-4.117 5.745l4.262 6.698h-5.879l-3.672-5.744h-3.673v5.744l-5.435.02Zm5.435-10.386h4.703a3.197 3.197 0 0 0 2.026-.601 1.754 1.754 0 0 0 0-2.9 3.175 3.175 0 0 0-2.026-.6h-4.703v4.1ZM77.707 21.469h-5.438v19.138h5.438V21.469ZM81.525 36.492V17.355h5.435v7.108h2.351l4.994-7.108h6.174l-6.465 9.023 6.906 10.114h-6.17l-5.144-7.38H86.96v7.38h-5.435Z" fill="#fff"/><path fill-rule="evenodd" clip-rule="evenodd" d="M0 0h86.965v86.965H0V0Zm5.447 5.447v76.07h76.07V5.447H5.447Z" fill="#fff"/><path d="m37.5 87-7.755 9L56.5 87h-19Z" fill="#2F00C0"/><path d="M29.654 95.55 18.068 67.11 12.27 52.881l21.138-10.074-3.754 52.742Z" fill="#DF0034"/><path d="M17.468 63.454c.786-1.578 1.671-3.595 3.134-4.679.156-.127.342-.214.54-.25-.398.078.238.085-.118 0a.798.798 0 0 1 .21.127c-.187-.249-.052-.028.022.048.073.075.158.175.23.258-.197-.246.084.145.094.164 1.144 1.952 1.537 4.414 3.143 6.201.817.909 2.018 1.368 3.225 1.075 1.1-.268 1.929-1.108 2.6-1.973 1.36-1.753 2.196-4.208 3.813-5.49-.351.271.449-.402.08-.06.118-.11.298.025.14-.06-.157-.084.078-.014.153 0-.35-.105-.091-.008-.04.013-.35-.15.031.012.09.058.057.045.213.185 0 0 .106.097.207.2.303.308.116.138.22.286.31.442.154.242.295.491.431.744.288.526.55 1.073.826 1.606 1.145 2.2 3.157 4.582 5.898 3.193 2.19-1.113 2.98-3.77 4.636-5.222.042-.037.242-.175.025-.025.093-.063.21-.108.298-.175.131-.101-.267.021.054 0-.35.026-.108.014-.035.012.176 0-.082-.063.07.035.051.034.248.162 0 0 .128.111.246.233.351.365.175.216-.198-.301.076.116.06.091.119.184.175.277.149.246.282.5.412.754.284.56.537 1.133.812 1.698.803 1.65 2.546 4.086 4.665 2.918.608-.337 1.143-.891 1.616-1.391 1.288-1.36 2.413-2.883 3.52-4.384.507-.69.116-1.77-.568-2.171-.805-.47-1.663-.123-2.171.57a40.75 40.75 0 0 1-2.923 3.64c-.267.288-.545.564-.835.828-.067.062-.393.298-.125.11.269-.187-.026.038-.084.046-.35.051.42-.131.175-.068.195-.035.393-.043.59-.023-.332 0 .233.14-.065-.01-.298-.151.2.175-.08-.062a2.014 2.014 0 0 1-.188-.2c.219.248-.085-.123-.104-.154-.13-.207-.252-.414-.368-.63-.293-.543-.546-1.11-.81-1.67-1.035-2.179-2.896-4.734-5.64-3.39-2.129 1.038-3.04 3.645-4.56 5.127-.259.254-.068.147-.4.288-.413.175.176-.085-.068.024-.094.044-.38.044-.049.018-.407.033.037 0 .014.019-.023.02-.505-.156-.117-.023-.307-.105-.109-.02-.351-.261-.3-.35-.562-.732-.78-1.138-.297-.526-.56-1.065-.833-1.601-1.04-2.033-2.755-4.547-5.419-3.557-2.308.858-3.462 3.574-4.677 5.52-.14.225-.284.45-.433.669-.053.079-.41.568-.29.417-.157.198-.329.377-.503.561-.063.067-.136.13-.205.19.263-.223-.086.045-.154.086-.214.126.312-.197 0 0-.282.175.105-.016.084 0 0-.009-.582.05-.04.02-.037 0-.372-.097.056.041-.062-.02-.27-.226-.139-.072.158.191-.117-.12-.122-.128-.058-.068-.121-.131-.176-.202.205.255-.09-.159-.124-.217-1.284-2.094-1.594-5.19-3.818-6.769-3.732-2.65-6.633.918-7.927 3.515l2 5" fill="#D9E021"/><path d="M65.745 52.097c1.65 0 3.232-1.452 3.157-3.157-.076-1.704-1.388-3.156-3.157-3.156-1.652 0-3.234 1.452-3.156 3.156.077 1.705 1.387 3.157 3.156 3.157Z" fill="#DF0034"/></symbol><symbol fill="none" viewBox="0 0 75 74" id="menu-icon" xmlns="http://www.w3.org/2000/svg"><path fill="#CA1212" d="m37.167 0 37 37-37 37-37-37z"/><path stroke="#fff" stroke-width="2" d="M20.664 29.648h33.791M20.664 37.506h33.791M20.664 45.364h33.791"/></symbol><symbol fill="none" viewBox="0 0 64 64" id="phone-icon" xmlns="http://www.w3.org/2000/svg"><circle cx="32" cy="32" r="32" fill="#2F00C0"/><path d="M24.299 30.268a21.61 21.61 0 0 0 9.433 9.433l3.15-3.15c.4-.4.958-.515 1.46-.357 1.603.53 3.32.816 5.11.816a1.431 1.431 0 0 1 1.431 1.431v5.01a1.432 1.432 0 0 1-1.431 1.432 24.335 24.335 0 0 1-24.335-24.335 1.431 1.431 0 0 1 1.431-1.431h5.01a1.431 1.431 0 0 1 1.432 1.431c0 1.79.286 3.507.816 5.11.157.502.043 1.06-.358 1.46l-3.15 3.15Z" fill="#fff"/></symbol></svg>