<svg width="87" height="79" viewBox="0 0 87 79" fill="none" xmlns="http://www.w3.org/2000/svg">
<path d="M0 21H13.5L34.5 62.5H72.5L85 33H43.5" stroke="white" stroke-width="2"/>
<circle cx="63.5" cy="16.5" r="15.5" transform="rotate(90 63.5 16.5)" stroke="#EAF03C" stroke-width="2"/>
<path d="M63.5 21C61.0147 21 59 18.9853 59 16.5C59 14.0147 61.0147 12 63.5 12C65.9853 12 68 14.0147 68 16.5C68 18.9853 65.9853 21 63.5 21Z" fill="#EAF03C" stroke="#EAF03C" stroke-width="2"/>
<path d="M63.5 22C59.1729 22 55.2166 20.4531 52.3108 18.8717C50.8637 18.0841 49.6929 17.2966 48.8862 16.7079C48.7869 16.6354 48.6932 16.566 48.6052 16.5C48.6932 16.434 48.7869 16.3646 48.8862 16.2921C49.6929 15.7034 50.8637 14.9159 52.3108 14.1283C55.2166 12.5469 59.1729 11 63.5 11C67.8271 11 71.7834 12.5469 74.6892 14.1284C76.1363 14.9159 77.3071 15.7034 78.1138 16.2921C78.2131 16.3646 78.3068 16.434 78.3948 16.5C78.3068 16.566 78.2131 16.6354 78.1138 16.7079C77.3071 17.2966 76.1363 18.0841 74.6892 18.8717C71.7834 20.4531 67.8271 22 63.5 22Z" stroke="#EAF03C" stroke-width="2"/>
<path d="M44.9881 78.5068C44.4719 78.7208 43.9222 78.8703 43.349 78.9451L43.2196 77.9535C42.9845 77.9841 42.7444 78 42.5 78C42.2556 78 42.0155 77.9841 41.7804 77.9535L41.651 78.9451C41.0778 78.8703 40.5281 78.7208 40.0119 78.5068L40.3949 77.5831C39.9483 77.3979 39.531 77.1553 39.1522 76.8642L38.5429 77.6571C38.0926 77.3111 37.6889 76.9074 37.3429 76.4571L38.1358 75.8478C37.8447 75.469 37.6021 75.0517 37.4169 74.6051L36.4932 74.9881C36.2792 74.4719 36.1297 73.9222 36.0549 73.349L37.0465 73.2196C37.0159 72.9845 37 72.7444 37 72.5C37 72.2556 37.0159 72.0155 37.0465 71.7804L36.0549 71.651C36.1297 71.0778 36.2792 70.5281 36.4932 70.0119L37.417 70.3949C37.6021 69.9483 37.8447 69.531 38.1358 69.1522L37.3429 68.5429C37.6889 68.0926 38.0926 67.6889 38.5429 67.3429L39.1522 68.1358C39.531 67.8447 39.9483 67.6021 40.3949 67.4169L40.0119 66.4932C40.5281 66.2792 41.0778 66.1297 41.651 66.0549L41.7804 67.0465C42.0155 67.0159 42.2556 67 42.5 67C42.7444 67 42.9845 67.0159 43.2196 67.0465L43.349 66.0549C43.9222 66.1297 44.4719 66.2792 44.9881 66.4932L44.6051 67.4169C45.0517 67.6021 45.469 67.8447 45.8478 68.1358L46.4571 67.3429C46.9074 67.6889 47.3111 68.0926 47.6571 68.5429L46.8642 69.1522C47.1553 69.531 47.3979 69.9483 47.5831 70.3949L48.5068 70.0119C48.7208 70.5281 48.8703 71.0778 48.9451 71.651L47.9535 71.7804C47.9841 72.0155 48 72.2556 48 72.5C48 72.7444 47.9841 72.9845 47.9535 73.2196L48.9451 73.349C48.8703 73.9222 48.7208 74.4719 48.5068 74.9881L47.583 74.6051C47.3979 75.0517 47.1553 75.469 46.8642 75.8478L47.6571 76.4571C47.3111 76.9074 46.9074 77.3111 46.4571 77.6571L45.8478 76.8642C45.469 77.1553 45.0517 77.3979 44.6051 77.5831L44.9881 78.5068Z" stroke="#EAF03C" stroke-width="2" stroke-dasharray="2 2"/>
<path d="M67.9881 78.5068C67.4719 78.7208 66.9222 78.8703 66.349 78.9451L66.2196 77.9535C65.9845 77.9841 65.7444 78 65.5 78C65.2556 78 65.0155 77.9841 64.7804 77.9535L64.651 78.9451C64.0778 78.8703 63.5281 78.7208 63.0119 78.5068L63.3949 77.5831C62.9483 77.3979 62.531 77.1553 62.1522 76.8642L61.5429 77.6571C61.0926 77.3111 60.6889 76.9074 60.3429 76.4571L61.1358 75.8478C60.8447 75.469 60.6021 75.0517 60.4169 74.6051L59.4932 74.9881C59.2792 74.4719 59.1297 73.9222 59.0549 73.349L60.0465 73.2196C60.0159 72.9845 60 72.7444 60 72.5C60 72.2556 60.0159 72.0155 60.0465 71.7804L59.0549 71.651C59.1297 71.0778 59.2792 70.5281 59.4932 70.0119L60.417 70.3949C60.6021 69.9483 60.8447 69.531 61.1358 69.1522L60.3429 68.5429C60.6889 68.0926 61.0926 67.6889 61.5429 67.3429L62.1522 68.1358C62.531 67.8447 62.9483 67.6021 63.3949 67.4169L63.0119 66.4932C63.5281 66.2792 64.0778 66.1297 64.651 66.0549L64.7804 67.0465C65.0155 67.0159 65.2556 67 65.5 67C65.7444 67 65.9845 67.0159 66.2196 67.0465L66.349 66.0549C66.9222 66.1297 67.4719 66.2792 67.9881 66.4932L67.6051 67.4169C68.0517 67.6021 68.469 67.8447 68.8478 68.1358L69.4571 67.3429C69.9074 67.6889 70.3111 68.0926 70.6571 68.5429L69.8642 69.1522C70.1553 69.531 70.3979 69.9483 70.5831 70.3949L71.5068 70.0119C71.7208 70.5281 71.8703 71.0778 71.9451 71.651L70.9535 71.7804C70.9841 72.0155 71 72.2556 71 72.5C71 72.7444 70.9841 72.9845 70.9535 73.2196L71.9451 73.349C71.8703 73.9222 71.7208 74.4719 71.5068 74.9881L70.583 74.6051C70.3979 75.0517 70.1553 75.469 69.8642 75.8478L70.6571 76.4571C70.3111 76.9074 69.9074 77.3111 69.4571 77.6571L68.8478 76.8642C68.469 77.1553 68.0517 77.3979 67.6051 77.5831L67.9881 78.5068Z" stroke="#EAF03C" stroke-width="2" stroke-dasharray="2 2"/>
</svg>
