<svg width="75" height="70" viewBox="0 0 75 70" fill="none" xmlns="http://www.w3.org/2000/svg">
<path d="M61.8301 56.1317C61.8301 59.3831 59.1932 62.5907 54.3279 65.045C49.52 67.4704 42.8081 68.9997 35.3396 68.9997C27.8711 68.9997 21.1591 67.4704 16.3512 65.045C11.486 62.5907 8.849 59.3831 8.849 56.1317C8.849 52.8804 11.486 49.6728 16.3512 47.2184C21.1591 44.793 27.8711 43.2638 35.3396 43.2638C42.8081 43.2638 49.52 44.793 54.3279 47.2184C59.1932 49.6728 61.8301 52.8804 61.8301 56.1317Z" stroke="#EAF03C" stroke-width="2"/>
<path d="M74.2962 13.2071C74.2962 12.6224 73.8764 12.1484 73.3585 12.1484L64.9195 12.1484C64.4016 12.1484 63.9818 12.6224 63.9818 13.2071C63.9818 13.7917 64.4016 14.2657 64.9195 14.2657L72.4209 14.2657L72.4209 22.735C72.4209 23.3197 72.8407 23.7937 73.3585 23.7937C73.8764 23.7937 74.2962 23.3197 74.2962 22.735L74.2962 13.2071ZM35.4178 57.5406L36.7965 55.984L35.4704 54.4868L34.0917 56.0434L35.4178 57.5406ZM39.5539 52.8708L42.3113 49.7576L40.9853 48.2604L38.2278 51.3736L39.5539 52.8708ZM45.0687 46.6443L47.8262 43.5311L46.5001 42.034L43.7427 45.1472L45.0687 46.6443ZM50.5836 40.4179L53.341 37.3047L52.0149 35.8075L49.2575 38.9208L50.5836 40.4179ZM56.0984 34.1915L58.8558 31.0783L57.5297 29.5811L54.7723 32.6943L56.0984 34.1915ZM61.6132 27.9651L64.3706 24.8519L63.0446 23.3547L60.2871 26.4679L61.6132 27.9651ZM67.128 21.7387L69.8855 18.6255L68.5594 17.1283L65.802 20.2415L67.128 21.7387ZM72.6429 15.5122L74.0216 13.9556L72.6955 12.4585L71.3168 14.0151L72.6429 15.5122ZM74.2962 13.2071C74.2962 12.6224 73.8764 12.1484 73.3585 12.1484L64.9195 12.1484C64.4016 12.1484 63.9818 12.6224 63.9818 13.2071C63.9818 13.7917 64.4016 14.2657 64.9195 14.2657L72.4209 14.2657L72.4209 22.735C72.4209 23.3197 72.8407 23.7937 73.3585 23.7937C73.8764 23.7937 74.2962 23.3197 74.2962 22.735L74.2962 13.2071ZM35.4178 57.5406L36.7965 55.984L35.4704 54.4868L34.0917 56.0434L35.4178 57.5406ZM39.5539 52.8708L42.3113 49.7576L40.9853 48.2604L38.2278 51.3736L39.5539 52.8708ZM45.0687 46.6443L47.8262 43.5311L46.5001 42.034L43.7427 45.1472L45.0687 46.6443ZM50.5836 40.4179L53.341 37.3047L52.0149 35.8075L49.2575 38.9208L50.5836 40.4179ZM56.0984 34.1915L58.8558 31.0783L57.5297 29.5811L54.7723 32.6943L56.0984 34.1915ZM61.6132 27.9651L64.3706 24.8519L63.0446 23.3547L60.2871 26.4679L61.6132 27.9651ZM67.128 21.7387L69.8855 18.6255L68.5594 17.1283L65.802 20.2415L67.128 21.7387ZM72.6429 15.5122L74.0216 13.9556L72.6955 12.4585L71.3168 14.0151L72.6429 15.5122Z" fill="#EAF03C"/>
<path d="M17.0986 61.2563C16.5033 61.609 15.8914 61.8524 15.2664 61.9775L15.0701 60.9969C14.8092 61.0492 14.547 61.0755 14.283 61.0755C14.0191 61.0755 13.7569 61.0492 13.4959 60.9969L13.2997 61.9775C12.6746 61.8524 12.0627 61.609 11.4675 61.2563L11.9773 60.396C11.5183 60.124 11.0577 59.7683 10.5995 59.3265L9.90547 60.0465C9.45716 59.6142 9.02145 59.1176 8.6001 58.5609L9.39743 57.9574C9.04262 57.4887 8.69525 56.9699 8.35725 56.4029L7.49829 56.9149C7.17415 56.3712 6.86081 55.7896 6.55926 55.1726L7.45769 54.7335C7.18829 54.1823 6.92766 53.5998 6.67676 52.9876L5.75144 53.3668C5.50845 52.7738 5.27512 52.1558 5.05209 51.5143L5.99662 51.1859C5.79022 50.5922 5.5925 49.9769 5.4041 49.3413L4.44532 49.6254C4.26221 49.0076 4.08801 48.372 3.92319 47.7198L4.89271 47.4748C4.73685 46.8581 4.5894 46.2256 4.45082 45.5785L3.47299 45.7879C3.33732 45.1544 3.21011 44.5075 3.09176 43.8484L4.07602 43.6717C3.96283 43.0413 3.85781 42.3992 3.76132 41.7461L2.77206 41.8923C2.67689 41.2481 2.58995 40.5939 2.51155 39.9303L3.50465 39.813C3.42924 39.1746 3.36183 38.5274 3.30273 37.8719L2.30677 37.9617C2.24807 37.3107 2.19746 36.6518 2.15524 35.9859L3.15324 35.9227C3.1124 35.2786 3.07951 34.6277 3.05482 33.9707L2.05553 34.0082C2.03096 33.3545 2.01442 32.6949 2.00616 32.0301L3.00608 32.0176C3.00204 31.6923 3 31.3656 3 31.0378C3 30.7099 3.00204 30.3832 3.00608 30.0579L2.00616 30.0455C2.01442 29.3806 2.03096 28.721 2.05553 28.0673L3.05482 28.1048C3.07951 27.4478 3.1124 26.7969 3.15324 26.1529L2.15524 26.0896C2.19746 25.4237 2.24806 24.7649 2.30677 24.1138L3.30273 24.2036C3.36183 23.5481 3.42924 22.9009 3.50465 22.2626L2.51156 22.1452C2.58995 21.4817 2.67689 20.8274 2.77206 20.1833L3.76132 20.3294C3.85781 19.6764 3.96283 19.0342 4.07602 18.4038L3.09176 18.2271C3.21011 17.568 3.33732 16.9212 3.47299 16.2876L4.45082 16.497C4.5894 15.8499 4.73685 15.2174 4.89271 14.6007L3.92319 14.3557C4.08801 13.7035 4.26222 13.0679 4.44532 12.4501L5.4041 12.7342C5.5925 12.0986 5.79022 11.4833 5.99663 10.8896L5.05209 10.5612C5.27512 9.91974 5.50846 9.3017 5.75145 8.70876L6.67676 9.08796C6.92766 8.47572 7.1883 7.89317 7.45769 7.342L6.55927 6.90288C6.86081 6.28593 7.17415 5.70434 7.49829 5.1606L8.35725 5.67265C8.69525 5.10566 9.04262 4.58686 9.39743 4.11812L8.6001 3.51458C9.02145 2.95795 9.45716 2.46128 9.90547 2.02906L10.5995 2.74896C11.0577 2.30726 11.5183 1.95151 11.9773 1.67951L11.4675 0.819232C12.0627 0.466487 12.6746 0.223131 13.2997 0.0980166L13.4959 1.07857C13.7569 1.02634 14.0191 0.999999 14.283 0.999999C14.547 0.999999 14.8092 1.02634 15.0701 1.07857L15.2664 0.0980159C15.8914 0.22313 16.5033 0.466486 17.0986 0.819232L16.5887 1.67951C17.0477 1.95151 17.5083 2.30726 17.9665 2.74896L18.6606 2.02906C19.1089 2.46128 19.5446 2.95794 19.9659 3.51458L19.1686 4.11812C19.5234 4.58686 19.8708 5.10566 20.2088 5.67265L21.0677 5.1606C21.3919 5.70434 21.7052 6.28593 22.0068 6.90288L21.1083 7.342C21.3777 7.89317 21.6384 8.47572 21.8893 9.08796L22.8146 8.70876C23.0576 9.3017 23.2909 9.91974 23.514 10.5612L22.5694 10.8896C22.7758 11.4833 22.9735 12.0986 23.1619 12.7342L24.1207 12.4501C24.3038 13.0679 24.478 13.7035 24.6429 14.3557L23.6733 14.6007C23.8292 15.2174 23.9766 15.8499 24.1152 16.497L25.093 16.2876C25.2287 16.9212 25.3559 17.568 25.4743 18.2271L24.49 18.4038C24.6032 19.0342 24.7082 19.6764 24.8047 20.3294L25.794 20.1833C25.8891 20.8274 25.9761 21.4817 26.0545 22.1452L25.0614 22.2626C25.1368 22.9009 25.2042 23.5481 25.2633 24.2036L26.2593 24.1138C26.318 24.7649 26.3686 25.4237 26.4108 26.0896L25.4128 26.1529C25.4536 26.7969 25.4865 27.4478 25.5112 28.1048L26.5105 28.0673C26.5351 28.721 26.5516 29.3806 26.5599 30.0455L25.56 30.0579C25.564 30.3832 25.566 30.7099 25.566 31.0378C25.566 31.3656 25.564 31.6923 25.56 32.0176L26.5599 32.0301C26.5516 32.6949 26.5351 33.3545 26.5105 34.0082L25.5112 33.9707C25.4865 34.6277 25.4536 35.2786 25.4128 35.9226L26.4108 35.9859C26.3686 36.6518 26.318 37.3107 26.2593 37.9617L25.2633 37.8719C25.2042 38.5274 25.1368 39.1746 25.0614 39.813L26.0545 39.9303C25.9761 40.5939 25.8891 41.2481 25.794 41.8923L24.8047 41.7461C24.7082 42.3992 24.6032 43.0413 24.49 43.6717L25.4743 43.8484C25.3559 44.5075 25.2287 45.1544 25.093 45.7879L24.1152 45.5785C23.9766 46.2256 23.8292 46.8581 23.6733 47.4748L24.6429 47.7198C24.478 48.372 24.3038 49.0076 24.1207 49.6254L23.1619 49.3413C22.9735 49.9769 22.7758 50.5922 22.5694 51.1859L23.514 51.5143C23.2909 52.1558 23.0576 52.7738 22.8146 53.3668L21.8893 52.9876C21.6384 53.5998 21.3777 54.1823 21.1083 54.7335L22.0068 55.1726C21.7052 55.7896 21.3919 56.3712 21.0677 56.9149L20.2088 56.4029C19.8708 56.9699 19.5234 57.4887 19.1686 57.9574L19.9659 58.5609C19.5446 59.1176 19.1089 59.6142 18.6606 60.0465L17.9665 59.3265C17.5083 59.7683 17.0477 60.124 16.5887 60.396L17.0986 61.2563Z" stroke="white" stroke-width="2" stroke-dasharray="2 2"/>
<path d="M3.5 21.581C2.22991 21.581 1 20.377 1 18.6293C1 16.8817 2.22991 15.6777 3.5 15.6777C4.77009 15.6777 6 16.8817 6 18.6294C6 20.377 4.77009 21.581 3.5 21.581Z" fill="#EAF03C" stroke="#EAF03C" stroke-width="2"/>
</svg>
