<svg width="66" height="58" viewBox="0 0 66 58" fill="none" xmlns="http://www.w3.org/2000/svg">
<path d="M64.3625 52.7106C64.9783 52.5753 65.509 52.1667 65.7888 51.6069L64.8944 51.1598C64.9614 51.0258 65 50.8742 65 50.7077V49.7453H66V47.8205H65V45.8956H66V43.9708H65V42.0459H66V40.1211H65V38.1963H66V36.2714H65V34.3466H66V32.4218H65V30.4969H66V28.5721H65V26.6473H66V24.7224H65V22.7976H66V20.8728H65V18.9479H66V17.0231H65V15.0983H66V13.1734H65V11.2486H66V9.32375H65V7.39892H66V5.47408H65V4.51167C65 4.39922 64.9817 4.29216 64.9484 4.19325L65.8961 3.8742C65.7565 3.45949 65.483 3.10351 65.1177 2.86673L64.5738 3.70593C64.4903 3.65181 64.3958 3.61035 64.2913 3.58531C64.0108 3.51817 63.6951 3.44431 63.3492 3.36597L63.57 2.39066C63.0041 2.26252 62.3585 2.12263 61.654 1.98049L61.4562 2.96073C60.8599 2.84043 60.2214 2.71858 59.5536 2.60107L59.7269 1.6162C59.1038 1.50655 58.4552 1.40057 57.7914 1.30293L57.6459 2.29229C57.0184 2.2 56.3783 2.11544 55.7344 2.0426L55.8468 1.04894C55.1979 0.975539 54.5442 0.913694 53.8945 0.867398L53.8234 1.86487C53.1789 1.81895 52.5413 1.7889 51.9191 1.77849L51.9358 0.778628C51.2648 0.767397 50.6082 0.778221 49.9766 0.815866L50.0361 1.81409C49.7187 1.83301 49.4099 1.85892 49.1109 1.89229C48.7872 1.92844 48.4541 1.97568 48.113 2.03311L47.947 1.04699C47.2715 1.16073 46.5747 1.31118 45.8672 1.49002L46.1123 2.45952C45.4575 2.62505 44.7906 2.81639 44.1204 3.02688L43.8207 2.07282C43.1463 2.28463 42.4716 2.51448 41.8054 2.75548L42.1456 3.69584C41.483 3.93554 40.828 4.18685 40.1896 4.4428L39.8174 3.51462C39.1401 3.78621 38.4824 4.06247 37.855 4.33521L38.2537 5.2523C37.5747 5.54745 36.9313 5.83859 36.3372 6.11505L35.9153 5.20841C35.1955 5.54335 34.5478 5.85677 33.996 6.13018L34.44 7.02622C34.0852 7.20199 33.7708 7.36092 33.5033 7.49793C33.4259 7.53756 33.3568 7.58669 33.2963 7.64338L32.6125 6.9137C32.3517 7.15806 32.165 7.47102 32.0704 7.81695L33.0351 8.0806C33.0122 8.16413 33 8.25259 33 8.34413V9.37916H32V11.4492H33V13.5193H32V15.5893H33V17.6594H32V19.7294H33V21.7995H32V23.8695H33V25.9396H32V28.0096H33V30.0797H32V32.1497H33V34.2198H32V36.2898H33V38.3599H32V40.4299H33V42.5H32V44.57H33V46.64H32V48.7101H33V50.7801H32V52.8502H33V53.8852C33 54.0759 33.0492 54.2436 33.1317 54.3874L32.2643 54.885C32.6136 55.4939 33.268 55.8945 33.9752 55.938L34.0365 54.9399C34.2102 54.9506 34.3899 54.9201 34.5659 54.8374C34.8351 54.7107 35.1184 54.5792 35.414 54.444L35.8299 55.3534C36.3576 55.112 36.925 54.8588 37.5227 54.6012L37.1269 53.6829C37.6805 53.4443 38.2602 53.2017 38.8584 52.9609L39.2319 53.8885C39.7934 53.6625 40.3712 53.4382 40.9588 53.2205L40.6113 52.2827C41.1954 52.0663 41.7901 51.856 42.3893 51.6564L42.7054 52.6051C43.2932 52.4093 43.8845 52.2243 44.4733 52.0548L44.1966 51.0939C44.8135 50.9163 45.4303 50.7544 46.0403 50.6138L46.265 51.5882C46.8831 51.4457 47.4913 51.3262 48.0823 51.2353L47.9304 50.2469C48.2562 50.1968 48.5788 50.1548 48.8969 50.1218C49.2102 50.0893 49.5296 50.0646 49.8536 50.0468L49.9084 51.0453C50.4968 51.0131 51.1071 51.0046 51.7308 51.0159L51.749 50.0161C52.3658 50.0273 52.9929 50.0573 53.6224 50.1021L53.5514 51.0995C54.1542 51.1424 54.7616 51.1995 55.3667 51.2674L55.4783 50.2737C56.0976 50.3432 56.7136 50.4238 57.3188 50.512L57.1746 51.5015C57.7872 51.5908 58.3897 51.6882 58.9745 51.79L59.146 50.8048C59.7751 50.9143 60.3834 51.0289 60.9616 51.1441L60.7663 52.1248C61.4018 52.2514 62.0012 52.3789 62.5514 52.5014L62.7686 51.5252C63.0845 51.5955 63.3845 51.6642 63.6661 51.7301C63.8322 51.7689 63.9951 51.7675 64.1479 51.734L64.3625 52.7106Z" stroke="#EAF03C" stroke-width="2" stroke-dasharray="2 2"/>
<path d="M1 4.51167C1 4.05524 1.29849 3.68354 1.70875 3.58531C4.822 2.83993 11.9717 1.34334 16.8891 1.89229C19.5524 2.18962 22.7528 3.22446 25.6737 4.38818C28.5787 5.54553 31.137 6.80157 32.4967 7.49793C32.8022 7.65437 33 7.97419 33 8.34413V53.8852C33 54.6316 32.1682 55.1826 31.4341 54.8374C27.9272 53.188 21.8633 50.6152 17.1031 50.1218C12.3226 49.6263 5.82122 50.914 2.3339 51.7301C1.64567 51.8911 1 51.3654 1 50.7077V4.51167Z" stroke="white" stroke-width="2"/>
<ellipse cx="8.5" cy="27.3067" rx="1.69355" ry="1.5" transform="rotate(90 8.5 27.3067)" fill="#EAF03C"/>
<ellipse cx="16.5" cy="27.3067" rx="1.69355" ry="1.5" transform="rotate(90 16.5 27.3067)" fill="#EAF03C"/>
<ellipse cx="24.5" cy="27.3067" rx="1.69355" ry="1.5" transform="rotate(90 24.5 27.3067)" fill="#EAF03C"/>
</svg>
