<svg width="1118" height="880" viewBox="0 0 1118 880" fill="none" xmlns="http://www.w3.org/2000/svg">
<g clip-path="url(#clip0_2201_2)">
<path d="M518.188 690.21H620.118C629.677 690.21 638.89 690.21 647.833 690.21H707.827" stroke="white" stroke-width="0.5" stroke-miterlimit="10"/>
<path d="M518.188 700.188H605.897C623.828 699.347 641.338 699.347 659.959 700.188H707.812" stroke="white" stroke-width="0.5" stroke-miterlimit="10"/>
<path d="M518.188 710.166H591.826C594.146 710.166 596.481 710.166 598.846 710.211C621.327 710.211 644.649 708.522 666.845 710.144C668.85 710.144 670.787 710.144 672.679 710.144H707.812" stroke="white" stroke-width="0.5" stroke-miterlimit="10"/>
<path d="M518.188 720.144H584.94C587.273 720.144 589.6 720.201 591.923 720.316C618.827 720.189 646.339 719.355 672.642 720.114C676.133 720.114 679.399 720.114 682.5 720.114H707.812" stroke="white" stroke-width="0.5" stroke-miterlimit="10"/>
<path d="M518.188 730.129H584.94C586.839 729.903 588.75 729.802 590.662 729.829C603.817 730.197 615.493 732.697 628.828 734.334C645.505 736.834 661.349 731.833 678.183 730.099H707.812" stroke="white" stroke-width="0.5" stroke-miterlimit="10"/>
<path d="M518.188 740.107H584.94C586.844 739.962 588.755 739.937 590.662 740.032C592.554 740.122 594.416 740.31 596.256 740.505C615.493 741.031 632.162 751.872 650.506 752.705C660.515 752.705 668.016 744.364 677.289 740.978C678.966 740.371 680.711 739.973 682.485 739.792C684.36 739.617 686.251 739.723 688.094 740.107H707.812" stroke="white" stroke-width="0.5" stroke-miterlimit="10"/>
<path d="M518.188 750.063H584.94C587.616 749.947 590.297 749.997 592.967 750.213C595.595 750.415 598.178 750.738 600.686 751.061C612.993 751.812 623.828 756.85 634.663 761.85C652.173 769.358 667.183 759.35 681.862 751.414C684.088 750.563 686.411 749.993 688.778 749.717C691.283 749.437 693.817 749.553 696.286 750.063H707.805" stroke="white" stroke-width="0.5" stroke-miterlimit="10"/>
<path d="M518.188 760.063H591.826C594.569 760.629 597.292 761.154 599.995 761.64C622.994 764.365 646.339 775.206 669.51 768.84C672.122 768.119 674.672 767.196 677.139 766.077C679.766 764.88 682.292 763.474 684.693 761.872C688.86 759.372 692.202 760.206 696.309 760.078C699.921 760.078 702.804 760.078 704.779 760.078H707.782" stroke="white" stroke-width="0.5" stroke-miterlimit="10"/>
<path d="M518.188 770.041H598.824C601.174 770.041 603.539 770.041 606.024 770.191C623.828 776.047 642.171 777.698 660.32 776.542C663.323 776.282 666.327 775.942 669.33 775.521C678.435 774.209 687.459 772.391 696.362 770.078C699.951 770.078 702.834 770.078 704.809 770.078H707.812" stroke="white" stroke-width="0.5" stroke-miterlimit="10"/>
<path d="M518.188 780.026H605.897C608.262 780.026 610.635 780.026 613.053 780.071C630.495 782.714 647.172 786.881 665.516 784.38C676.351 782.714 685.527 779.38 696.301 780.033H707.805" stroke="white" stroke-width="0.5" stroke-miterlimit="10"/>
<path d="M518.188 790.004H547.795C549.772 790.044 551.774 790.074 553.801 790.094C555.799 790.094 557.819 790.132 559.808 790.139C569.645 790.214 579.646 790.214 589.49 790.004H620.118C643.838 792.707 667.183 791.874 690.377 790.049C693.929 789.997 697.075 789.997 699.665 789.997H707.812" stroke="white" stroke-width="0.5" stroke-miterlimit="10"/>
<path d="M518.188 799.982H529.706C532.614 800.012 535.51 800.027 538.394 800.027C563.796 798.525 587.951 800.222 613 799.982H630.698C647.968 800.215 666.349 800.215 683.912 799.982C687.524 799.982 690.843 799.982 693.771 799.982H707.812" stroke="white" stroke-width="0.5" stroke-miterlimit="10"/>
<path d="M518.188 809.96H526.26C528.843 809.907 531.418 809.825 533.979 809.689C562.94 804.381 591.292 808.548 620.081 809.952H645.783C654.651 810.215 664.66 810.215 673.783 809.952H707.79" stroke="white" stroke-width="0.5" stroke-miterlimit="10"/>
<path d="M518.188 819.937H523.444C526.395 819.72 529.338 819.449 532.244 819.014C560.462 809.374 590.481 812.722 619.991 819.885C622.461 819.922 624.826 819.93 627.176 819.93H707.812" stroke="white" stroke-width="0.5" stroke-miterlimit="10"/>
<path d="M518.188 829.916H523.444C525.91 830.242 528.409 830.222 530.87 829.856C540.466 827.716 547.967 821.049 557.969 818.541C579.646 813.541 597.99 825.216 618.909 828.204C621.785 828.699 624.511 829.262 627.169 829.901H707.812" stroke="white" stroke-width="0.5" stroke-miterlimit="10"/>
<path d="M518.188 839.901H523.481C525.223 839.983 526.995 840.096 528.737 840.141C540.444 841.898 545.444 829.397 555.446 826.064C563.781 822.731 572.956 824.397 581.291 826.897C593.8 831.064 605.469 836.064 618.947 837.814C621.785 838.422 624.473 839.09 627.146 839.796C629.504 839.893 631.839 839.893 634.16 839.901H707.797" stroke="white" stroke-width="0.5" stroke-miterlimit="10"/>
<path d="M518.188 849.916H529.684C534.617 848.617 541.292 851.117 544.626 846.95C565.47 822.775 594.649 844.45 619.172 847.461C621.838 848.152 624.496 848.963 627.161 849.803C629.519 849.908 631.854 849.916 634.175 849.923H707.812" stroke="white" stroke-width="0.5" stroke-miterlimit="10"/>
<path d="M518.188 859.857H529.706C532.124 859.857 534.872 859.857 537.906 859.857C540.458 859.436 542.959 860.27 544.663 859.436C565.507 842.761 588.852 852.769 611.108 856.471C613.871 856.981 616.544 857.507 619.232 858.085C621.92 858.663 624.541 859.211 627.214 859.834C629.557 859.879 631.892 859.879 634.212 859.887H707.85" stroke="white" stroke-width="0.5" stroke-miterlimit="10"/>
<path d="M518.188 869.835H547.817C550.438 869.159 553.073 868.596 555.709 868.093C568.804 866.081 582.139 865.247 595.445 866.734C598.125 866.906 600.776 867.109 603.419 867.327C606.062 867.545 608.675 867.792 611.25 868.033C613.826 868.273 616.507 868.521 619.195 868.783C621.883 869.046 624.503 869.422 627.176 869.797H707.812" stroke="white" stroke-width="0.5" stroke-miterlimit="10"/>
<path d="M518.188 879.812H553.291H559.118C564.239 879.712 569.337 879.639 574.413 879.594C579.489 879.549 584.555 879.527 589.61 879.527C594.671 879.527 599.735 879.552 604.801 879.602C609.866 879.652 614.957 879.725 620.073 879.82H707.812" stroke="white" stroke-width="0.5" stroke-miterlimit="10"/>
<path d="M518.188 879.813V690.21" stroke="white" stroke-width="0.5" stroke-miterlimit="10"/>
<path d="M528.167 879.813V860.097C528.167 857.094 528.167 853.745 528.167 850.187C528.099 845.202 528.054 840.306 528.024 835.434C527.994 830.561 528.024 825.734 528.024 820.884C528.024 816.034 528.092 811.124 528.159 806.183C528.159 803.864 528.159 801.529 528.159 799.186V690.21" stroke="white" stroke-width="0.5" stroke-miterlimit="10"/>
<path d="M538.146 879.813V860.075C537.117 842.731 537.117 826.064 537.395 808.841C537.628 803.316 537.876 797.685 538.146 792.114V690.21" stroke="white" stroke-width="0.5" stroke-miterlimit="10"/>
<path d="M548.132 879.813V876.809C548.132 874.842 548.132 871.959 548.132 868.303C543.8 845.277 542.966 820.253 547.111 797.114C547.434 794.501 547.764 791.814 548.117 789.118C548.117 787.084 548.117 785.049 548.117 783.022V690.21" stroke="white" stroke-width="0.5" stroke-miterlimit="10"/>
<path d="M558.112 879.813C557.681 877.14 557.266 874.479 556.865 871.832C552.127 846.072 547.96 819.39 556.159 793.938C556.76 791.438 557.383 788.825 558.089 786.198C558.089 784.028 558.089 781.851 558.089 779.681V690.21" stroke="white" stroke-width="0.5" stroke-miterlimit="10"/>
<path d="M568.091 879.61C568.178 877.329 568.095 875.046 567.843 872.778C565.47 855.24 552.961 839.398 555.461 820.223C557.128 807.723 568.804 799.389 568.083 785.905C568.083 783.828 568.083 781.753 568.083 779.681V690.21" stroke="white" stroke-width="0.5" stroke-miterlimit="10"/>
<path d="M578.07 879.137C578.056 876.291 577.769 873.452 577.214 870.661C567.993 846.072 553.816 820.223 575.494 796.048C577.972 794.359 578.82 790.214 578.07 785.897V690.21" stroke="white" stroke-width="0.5" stroke-miterlimit="10"/>
<path d="M588.011 878.904C587.425 875.954 586.832 873.018 586.156 870.097C576.305 844.406 568.804 816.056 587.831 792.106C587.981 789.734 588.019 787.361 588.019 784.989V750.205C587.944 740.197 587.944 730.197 588.019 719.836V690.21" stroke="white" stroke-width="0.5" stroke-miterlimit="10"/>
<path d="M598.013 879.197C597.672 876.554 597.355 873.909 597.059 871.261C596.631 868.626 596.226 866.006 595.723 863.348C585.473 839.436 590.467 815.26 597.975 792.159C598.058 789.051 598.058 785.935 598.058 782.827V767.331C598.153 764.773 598.228 762.21 598.283 759.643C598.336 757.075 598.366 754.5 598.373 751.895C598.013 736.031 598.013 721.022 598.058 705.594V690.21" stroke="white" stroke-width="0.5" stroke-miterlimit="10"/>
<path d="M608.014 879.61C607.924 876.922 607.854 874.237 607.804 871.554C607.736 868.851 607.676 866.156 607.624 863.438C602.15 842.731 605.484 821.064 607.947 799.186C608.007 796.836 608.014 794.479 608.014 792.114V779.681C608.285 777.827 608.51 776.002 608.705 774.2C608.9 772.398 609.05 770.612 609.178 768.825C611.318 743.531 607.984 719.356 608.014 694.31V690.21" stroke="white" stroke-width="0.5" stroke-miterlimit="10"/>
<path d="M617.993 879.813V854.474C617.993 851.696 617.993 848.925 617.903 846.163C617.152 832.731 617.993 819.39 617.993 806.183V788.825C619.018 786.327 619.886 783.767 620.591 781.16C625.494 751.039 617.16 720.189 617.993 690.21" stroke="white" stroke-width="0.5" stroke-miterlimit="10"/>
<path d="M627.972 879.812V860.089C627.972 851.08 627.972 841.898 627.972 832.753V798.743C627.899 795.01 628.257 791.282 629.039 787.631C629.757 784.215 631.411 781.065 633.814 778.532C637.17 774.38 639.671 769.372 639.671 763.516C638.004 738.508 624.653 716 627.972 690.18" stroke="white" stroke-width="0.5" stroke-miterlimit="10"/>
<path d="M637.951 879.812V806.183C636.727 799.869 638.409 794.208 640.91 788.878C641.751 787.099 642.674 785.357 643.62 783.622C646.655 779.443 648.827 774.702 650.009 769.675C651.191 764.648 651.36 759.435 650.506 754.342C645.505 731.819 634.663 712.659 637.951 690.173" stroke="white" stroke-width="0.5" stroke-miterlimit="10"/>
<path d="M647.9 879.813V812.047C646.286 800.83 651.302 791.528 655.567 781.888C656.633 779.478 657.654 777.046 658.495 774.553C660.485 769.373 661.318 763.539 660.485 758.539C653.84 735.197 644.672 714.356 647.9 690.21" stroke="white" stroke-width="0.5" stroke-miterlimit="10"/>
<path d="M657.917 879.812V812.047C656.603 800.109 661.596 789.433 664.742 778.006C665.373 775.754 665.929 773.404 666.349 771.039C667.183 747.697 655.507 725.196 657.894 701.674C657.894 698.101 657.894 695.225 657.894 693.251V690.248" stroke="white" stroke-width="0.5" stroke-miterlimit="10"/>
<path d="M667.896 879.813V811.709C669.623 796.378 671.32 781.205 671.741 765.979C671.808 762.931 671.831 759.883 671.741 756.82C671.32 741.053 667.986 726.038 667.851 709.926C667.851 706.923 667.851 704.145 667.851 701.727V690.21" stroke="white" stroke-width="0.5" stroke-miterlimit="10"/>
<path d="M677.875 879.813V812.047C677.875 809.875 677.875 807.69 677.875 805.493C679.133 788.163 679.512 770.78 679.009 753.411C678.934 750.949 678.841 748.486 678.731 746.023C677.98 739.364 677.98 731.864 677.868 725.339V690.21" stroke="white" stroke-width="0.5" stroke-miterlimit="10"/>
<path d="M687.854 879.813V802.692C687.854 800.65 687.854 798.601 687.854 796.558C688.012 779.381 688.845 761.039 687.854 743.651C687.854 741.744 687.854 739.897 687.854 738.058V690.21" stroke="white" stroke-width="0.5" stroke-miterlimit="10"/>
<path d="M697.833 879.813V785.011C698.028 776.047 698.028 766.039 697.833 756.955V690.21" stroke="white" stroke-width="0.5" stroke-miterlimit="10"/>
<path d="M707.812 879.813V690.21" stroke="white" stroke-width="0.5" stroke-miterlimit="10"/>
</g>
<defs>
<clipPath id="clip0_2201_2">
<rect width="190" height="190" fill="white" transform="translate(518 690)"/>
</clipPath>
</defs>
</svg>
