<svg xmlns="http://www.w3.org/2000/svg" fill="none" viewBox="43.586 38.91044776119403 1094.362 387.92537313432837" style="max-height: 500px" width="1094.362" height="387.92537313432837">
<g filter="url(#filter0_d_2028_38)">
<rect fill="#2A2C2D" rx="15" height="219" width="277" y="189" x="44"/>
</g>
<g clip-path="url(#clip0_2028_38)">
<g opacity="0.25" style="mix-blend-mode:overlay">
<path fill="#FEFDFF" d="M76.9562 390C75.3053 390 73.9727 388.666 73.9727 387.013V210.987C73.9727 209.334 75.3053 208 76.9562 208C78.607 208 79.9397 209.334 79.9397 210.987V387.013C79.9397 388.666 78.607 390 76.9562 390Z"/>
</g>
<g opacity="0.25" style="mix-blend-mode:overlay">
<path fill="#FEFDFF" d="M130.481 390C128.83 390 127.497 388.666 127.497 387.013V210.987C127.497 209.334 128.83 208 130.481 208C132.131 208 133.464 209.334 133.464 210.987V387.013C133.464 388.666 132.131 390 130.481 390Z"/>
</g>
<g opacity="0.25" style="mix-blend-mode:overlay">
<path fill="#FEFDFF" d="M184.005 390C182.354 390 181.021 388.666 181.021 387.013V210.987C181.021 209.334 182.354 208 184.005 208C185.655 208 186.988 209.334 186.988 210.987V387.013C186.988 388.666 185.655 390 184.005 390Z"/>
</g>
<g opacity="0.25" style="mix-blend-mode:overlay">
<path fill="#FEFDFF" d="M237.509 390C235.858 390 234.525 388.666 234.525 387.013V210.987C234.525 209.334 235.858 208 237.509 208C239.16 208 240.492 209.334 240.492 210.987V387.013C240.492 388.666 239.16 390 237.509 390Z"/>
</g>
<g opacity="0.25" style="mix-blend-mode:overlay">
<path fill="#FEFDFF" d="M291.033 390C289.382 390 288.05 388.666 288.05 387.013V210.987C288.05 209.334 289.382 208 291.033 208C292.684 208 294.017 209.334 294.017 210.987V387.013C294.017 388.666 292.684 390 291.033 390Z"/>
</g>
<g opacity="0.25" style="mix-blend-mode:overlay">
<path fill="#FEFDFF" d="M291.033 283.13H76.9558C73.654 283.13 70.9888 280.461 70.9888 277.156C70.9888 273.851 73.654 271.182 76.9558 271.182H291.033C294.334 271.182 297 273.851 297 277.156C297 280.461 294.334 283.13 291.033 283.13Z"/>
</g>
<g opacity="0.25" style="mix-blend-mode:overlay">
<path fill="#FEFDFF" d="M291.033 240.776H76.9558C73.654 240.776 70.9888 238.108 70.9888 234.802C70.9888 231.497 73.654 228.828 76.9558 228.828H291.033C294.334 228.828 297 231.497 297 234.802C297 238.108 294.334 240.776 291.033 240.776Z"/>
</g>
<path fill="#DF0034" d="M242.322 240.776H76.9558C73.654 240.776 70.9888 238.108 70.9888 234.802C70.9888 231.497 73.654 228.828 76.9558 228.828H242.322C245.624 228.828 248.289 231.497 248.289 234.802C248.289 238.108 245.624 240.776 242.322 240.776Z"/>
<path fill="#012DD4" d="M184.004 240.776H76.9558C73.654 240.776 70.9888 238.108 70.9888 234.802C70.9888 231.497 73.654 228.828 76.9558 228.828H184.004C187.306 228.828 189.971 231.497 189.971 234.802C189.971 238.108 187.306 240.776 184.004 240.776Z"/>
<path fill="#012DD4" d="M274.584 283.13H76.9558C73.654 283.13 70.9888 280.461 70.9888 277.156C70.9888 273.851 73.654 271.182 76.9558 271.182H274.584C277.885 271.182 280.551 273.851 280.551 277.156C280.551 280.461 277.885 283.13 274.584 283.13Z"/>
<path fill="#DF0034" d="M244.092 283.13H76.9558C73.654 283.13 70.9888 280.461 70.9888 277.156C70.9888 273.851 73.654 271.182 76.9558 271.182H244.092C247.394 271.182 250.059 273.851 250.059 277.156C250.059 280.461 247.394 283.13 244.092 283.13Z"/>
<g opacity="0.25" style="mix-blend-mode:overlay">
<path fill="#FEFDFF" d="M291.033 325.484H76.9558C73.654 325.484 70.9888 322.815 70.9888 319.51C70.9888 316.204 73.654 313.536 76.9558 313.536H291.033C294.334 313.536 297 316.204 297 319.51C297 322.815 294.334 325.484 291.033 325.484Z"/>
</g>
<path fill="#DF0034" d="M173.204 325.484H76.9558C73.654 325.484 70.9888 322.815 70.9888 319.51C70.9888 316.204 73.654 313.536 76.9558 313.536H173.204C176.506 313.536 179.171 316.204 179.171 319.51C179.171 322.815 176.506 325.484 173.204 325.484Z"/>
<path fill="#012DD4" d="M103.37 327.475H76.956C72.5603 327.475 69 323.911 69 319.51C69 315.109 72.5603 311.545 76.956 311.545H103.37C107.766 311.545 111.326 315.109 111.326 319.51C111.326 323.911 107.766 327.475 103.37 327.475Z"/>
<g opacity="0.25" style="mix-blend-mode:overlay">
<path fill="#FEFDFF" d="M291.033 367.817H76.9558C73.654 367.817 70.9888 365.149 70.9888 361.844C70.9888 358.538 73.654 355.87 76.9558 355.87H291.033C294.334 355.87 297 358.538 297 361.844C297 365.149 294.334 367.817 291.033 367.817Z"/>
</g>
<path fill="#012DD4" d="M251.193 367.817H76.9558C73.654 367.817 70.9888 365.149 70.9888 361.844C70.9888 358.538 73.654 355.87 76.9558 355.87H251.193C254.495 355.87 257.16 358.538 257.16 361.844C257.16 365.149 254.495 367.817 251.193 367.817Z"/>
<path fill="#DF0034" d="M103.37 369.809H76.956C72.5603 369.809 69 366.244 69 361.844C69 357.443 72.5603 353.879 76.956 353.879H103.37C107.766 353.879 111.326 357.443 111.326 361.844C111.326 366.244 107.766 369.809 103.37 369.809Z"/>
</g>
<g filter="url(#filter1_d_2028_38)">
<rect fill="#2A2C2D" rx="15" height="216" width="237" y="191" x="897"/>
</g>
<g clip-path="url(#clip1_2028_38)">
<path fill="#A10C2E" d="M1077.1 372.976C1076.46 372.976 1075.82 372.732 1075.34 372.245C1074.37 371.27 1074.37 369.695 1075.34 368.72C1106.95 337.019 1106.95 285.446 1075.34 253.745C1074.37 252.77 1074.37 251.195 1075.34 250.22C1076.31 249.245 1077.88 249.245 1078.85 250.22C1112.39 283.852 1112.39 338.594 1078.85 372.226C1078.37 372.713 1077.73 372.957 1077.1 372.957V372.976Z"/>
<path fill="#E9F03C" d="M958.915 378C957.008 378 955.082 377.269 953.624 375.807C918.119 340.206 918.119 282.296 953.624 246.696C989.128 211.095 1046.88 211.095 1082.37 246.696C1085.28 249.62 1085.28 254.363 1082.37 257.307C1079.45 260.231 1074.7 260.231 1071.79 257.307C1042.11 227.555 993.84 227.555 964.187 257.307C934.516 287.058 934.516 335.444 964.187 365.196C967.104 368.12 967.104 372.863 964.187 375.807C962.729 377.269 960.822 378 958.896 378H958.915Z"/>
<path fill="#012DD4" d="M1049 311.5C1049 329.992 1034.22 345 1016 345C997.784 345 983 329.992 983 311.5C983 293.008 997.784 278 1016 278C1034.22 278 1049 293.008 1049 311.5Z"/>
</g>
<g filter="url(#filter2_d_2028_38)">
<rect fill="#2A2C2D" rx="15" height="386" width="616" y="40" x="302"/>
</g>
<defs>
<filter color-interpolation-filters="sRGB" filterUnits="userSpaceOnUse" height="307" width="365" y="149" x="0" id="filter0_d_2028_38">
<feFlood result="BackgroundImageFix" flood-opacity="0"/>
<feColorMatrix result="hardAlpha" values="0 0 0 0 0 0 0 0 0 0 0 0 0 0 0 0 0 0 127 0" type="matrix" in="SourceAlpha"/>
<feOffset dy="4"/>
<feGaussianBlur stdDeviation="22"/>
<feComposite operator="out" in2="hardAlpha"/>
<feColorMatrix values="0 0 0 0 0 0 0 0 0 0 0 0 0 0 0 0 0 0 0.25 0" type="matrix"/>
<feBlend result="effect1_dropShadow_2028_38" in2="BackgroundImageFix" mode="normal"/>
<feBlend result="shape" in2="effect1_dropShadow_2028_38" in="SourceGraphic" mode="normal"/>
</filter>
<filter color-interpolation-filters="sRGB" filterUnits="userSpaceOnUse" height="304" width="325" y="151" x="853" id="filter1_d_2028_38">
<feFlood result="BackgroundImageFix" flood-opacity="0"/>
<feColorMatrix result="hardAlpha" values="0 0 0 0 0 0 0 0 0 0 0 0 0 0 0 0 0 0 127 0" type="matrix" in="SourceAlpha"/>
<feOffset dy="4"/>
<feGaussianBlur stdDeviation="22"/>
<feComposite operator="out" in2="hardAlpha"/>
<feColorMatrix values="0 0 0 0 0 0 0 0 0 0 0 0 0 0 0 0 0 0 0.25 0" type="matrix"/>
<feBlend result="effect1_dropShadow_2028_38" in2="BackgroundImageFix" mode="normal"/>
<feBlend result="shape" in2="effect1_dropShadow_2028_38" in="SourceGraphic" mode="normal"/>
</filter>
<filter color-interpolation-filters="sRGB" filterUnits="userSpaceOnUse" height="474" width="704" y="0" x="258" id="filter2_d_2028_38">
<feFlood result="BackgroundImageFix" flood-opacity="0"/>
<feColorMatrix result="hardAlpha" values="0 0 0 0 0 0 0 0 0 0 0 0 0 0 0 0 0 0 127 0" type="matrix" in="SourceAlpha"/>
<feOffset dy="4"/>
<feGaussianBlur stdDeviation="22"/>
<feComposite operator="out" in2="hardAlpha"/>
<feColorMatrix values="0 0 0 0 0 0 0 0 0 0 0 0 0 0 0 0 0 0 0.25 0" type="matrix"/>
<feBlend result="effect1_dropShadow_2028_38" in2="BackgroundImageFix" mode="normal"/>
<feBlend result="shape" in2="effect1_dropShadow_2028_38" in="SourceGraphic" mode="normal"/>
</filter>
<clipPath id="clip0_2028_38">
<rect transform="translate(69 208)" fill="white" height="182" width="228"/>
</clipPath>
<clipPath id="clip1_2028_38">
<rect transform="translate(927 220)" fill="white" height="158" width="177"/>
</clipPath>
</defs>
</svg>