<svg width="1918" height="1080" viewBox="0 0 1918 1080" fill="none" xmlns="http://www.w3.org/2000/svg">
<g clip-path="url(#clip0_118_127)">
<g opacity="0.15">
<path d="M-28.0742 0.384766H1018.05C1116.16 0.384766 1210.71 0.384766 1302.49 0.384766H1918.23" stroke="white" stroke-width="0.5" stroke-miterlimit="10"/>
<path d="M-28.0742 102.789H872.098C1056.12 94.1589 1235.83 94.1589 1426.95 102.789H1918.07" stroke="white" stroke-width="0.5" stroke-miterlimit="10"/>
<path d="M-28.0742 205.195H727.682C751.494 205.195 775.461 205.195 799.736 205.657C1030.46 205.657 1269.82 188.32 1497.62 204.964C1518.19 204.964 1538.08 204.964 1557.5 204.964H1918.07" stroke="white" stroke-width="0.5" stroke-miterlimit="10"/>
<path d="M-28.0742 307.598H657.015C680.956 307.598 704.845 308.189 728.684 309.37C1004.8 308.06 1287.16 299.507 1557.11 307.29C1592.94 307.29 1626.47 307.29 1658.29 307.29H1918.07" stroke="white" stroke-width="0.5" stroke-miterlimit="10"/>
<path d="M-28.0742 410.08H657.015C676.499 407.755 696.116 406.726 715.737 406.998C850.751 410.773 970.584 436.432 1107.45 453.23C1278.6 478.889 1441.21 427.571 1613.98 409.772H1918.07" stroke="white" stroke-width="0.5" stroke-miterlimit="10"/>
<path d="M-28.0742 512.483H657.015C676.554 510.996 696.166 510.739 715.737 511.713C735.157 512.637 754.268 514.564 773.149 516.567C970.584 521.961 1141.66 633.226 1329.93 641.779C1432.65 641.779 1509.64 556.173 1604.81 521.421C1622.02 515.195 1639.93 511.106 1658.14 509.247C1677.38 507.449 1696.79 508.539 1715.71 512.483H1918.07" stroke="white" stroke-width="0.5" stroke-miterlimit="10"/>
<path d="M-28.0742 614.658H657.015C684.481 613.467 711.994 613.982 739.395 616.199C766.367 618.28 792.877 621.593 818.616 624.906C944.922 632.612 1056.12 684.315 1167.33 735.633C1347.04 812.686 1501.09 709.974 1651.74 628.528C1674.59 619.797 1698.43 613.947 1722.72 611.114C1748.43 608.234 1774.44 609.43 1799.78 614.658H1918" stroke="white" stroke-width="0.5" stroke-miterlimit="10"/>
<path d="M-28.0742 717.294H727.682C755.835 723.099 783.784 728.493 811.526 733.476C1047.57 761.446 1287.16 872.712 1524.97 807.37C1551.77 799.979 1577.95 790.498 1603.27 779.014C1630.23 766.731 1656.15 752.301 1680.8 735.864C1723.57 710.205 1757.86 718.758 1800.01 717.448C1837.08 717.448 1866.67 717.448 1886.94 717.448H1917.76" stroke="white" stroke-width="0.5" stroke-miterlimit="10"/>
<path d="M-28.0742 819.697H799.504C823.625 819.697 847.9 819.697 873.408 821.238C1056.12 881.34 1244.39 898.292 1430.65 886.426C1461.47 883.755 1492.3 880.262 1523.13 875.947C1616.56 862.475 1709.18 843.825 1800.55 820.083C1837.39 820.083 1866.98 820.083 1887.25 820.083H1918.07" stroke="white" stroke-width="0.5" stroke-miterlimit="10"/>
<path d="M-28.0742 922.18H872.098C896.372 922.18 920.724 922.18 945.539 922.643C1124.56 949.765 1295.71 992.53 1483.98 966.871C1595.18 949.765 1689.35 915.554 1799.94 922.257H1918" stroke="white" stroke-width="0.5" stroke-miterlimit="10"/>
<path d="M-28.0742 1024.58H275.785C296.078 1025 316.628 1025.3 337.435 1025.51C357.934 1025.51 378.664 1025.89 399.086 1025.97C500.038 1026.74 602.686 1026.74 703.715 1024.58H1018.05C1261.5 1052.32 1501.09 1043.77 1739.13 1025.05C1775.58 1024.51 1807.87 1024.51 1834.46 1024.51H1918.07" stroke="white" stroke-width="0.5" stroke-miterlimit="10"/>
<path d="M74.3434 1946.3V1743.96C74.3434 1713.14 74.3434 1678.77 74.3434 1642.25C73.6498 1591.08 73.1874 1540.85 72.8792 1490.84C72.5709 1440.83 72.8792 1391.28 72.8792 1341.51C72.8792 1291.73 73.5727 1241.34 74.2663 1190.64C74.2663 1166.83 74.2663 1142.86 74.2663 1118.82V0.386719" stroke="white" stroke-width="0.5" stroke-miterlimit="10"/>
<path d="M176.759 1946.3V1743.73C166.201 1565.73 166.201 1394.67 169.052 1217.91C171.441 1161.2 173.984 1103.41 176.759 1046.24V0.384766" stroke="white" stroke-width="0.5" stroke-miterlimit="10"/>
<path d="M279.253 1946.3V1915.48C279.253 1895.29 279.253 1865.7 279.253 1828.18C234.787 1591.85 226.234 1335.03 268.772 1097.55C272.086 1070.74 275.477 1043.15 279.099 1015.49C279.099 994.61 279.099 973.728 279.099 952.924V0.384766" stroke="white" stroke-width="0.5" stroke-miterlimit="10"/>
<path d="M381.672 1946.3C377.254 1918.87 372.989 1891.57 368.879 1864.39C320.253 1600.02 277.483 1326.17 361.636 1064.96C367.801 1039.3 374.197 1012.49 381.441 985.519C381.441 963.251 381.441 940.905 381.441 918.637V0.386719" stroke="white" stroke-width="0.5" stroke-miterlimit="10"/>
<path d="M484.087 1944.22C484.988 1920.82 484.138 1897.38 481.544 1874.1C457.192 1694.1 328.805 1531.52 354.467 1334.73C371.575 1206.43 491.408 1120.9 484.01 982.512C484.01 961.194 484.01 939.902 484.01 918.635V0.384766" stroke="white" stroke-width="0.5" stroke-miterlimit="10"/>
<path d="M586.503 1939.37C586.362 1910.15 583.421 1881.02 577.718 1852.37C483.085 1600.02 337.59 1334.73 560.071 1086.61C585.502 1069.27 594.21 1026.74 586.503 982.435V0.384766" stroke="white" stroke-width="0.5" stroke-miterlimit="10"/>
<path d="M688.535 1936.98C682.524 1906.7 676.436 1876.57 669.5 1846.59C568.394 1582.92 491.408 1291.96 686.685 1046.16C688.227 1021.81 688.612 997.461 688.612 973.112V616.122C687.841 513.409 687.841 410.773 688.612 304.439V0.384766" stroke="white" stroke-width="0.5" stroke-miterlimit="10"/>
<path d="M791.185 1939.98C787.692 1912.86 784.429 1885.71 781.398 1858.54C777.005 1831.49 772.844 1804.6 767.681 1777.32C662.49 1531.91 713.737 1283.79 790.8 1046.7C791.647 1014.8 791.647 982.822 791.647 950.922V791.883C792.624 765.633 793.394 739.332 793.959 712.98C794.499 686.628 794.807 660.198 794.884 633.461C791.185 470.646 791.185 316.615 791.647 158.27V0.386719" stroke="white" stroke-width="0.5" stroke-miterlimit="10"/>
<path d="M893.828 1944.22C892.903 1916.64 892.184 1889.08 891.67 1861.54C890.977 1833.8 890.36 1806.14 889.821 1778.25C833.642 1565.73 867.858 1343.36 893.135 1118.82C893.751 1094.7 893.828 1070.51 893.828 1046.24V918.635C896.602 899.602 898.914 880.878 900.918 862.385C902.922 843.893 904.463 825.554 905.773 807.215C927.736 547.621 893.52 299.508 893.828 42.4561V0.384766" stroke="white" stroke-width="0.5" stroke-miterlimit="10"/>
<path d="M996.246 1946.3V1686.24C996.246 1657.73 996.247 1629.3 995.322 1600.95C987.615 1463.1 996.246 1326.17 996.246 1190.63V1012.49C1006.76 986.842 1015.67 960.567 1022.91 933.814C1073.23 624.674 987.693 308.061 996.246 0.384766" stroke="white" stroke-width="0.5" stroke-miterlimit="10"/>
<path d="M1098.66 1946.3V1743.88C1098.66 1651.42 1098.66 1557.18 1098.66 1463.33V1114.27C1097.91 1075.97 1101.59 1037.7 1109.61 1000.23C1116.98 965.168 1133.95 932.838 1158.62 906.845C1193.07 864.234 1218.73 812.839 1218.73 752.737C1201.62 496.071 1064.6 265.064 1098.66 0.0761719" stroke="white" stroke-width="0.5" stroke-miterlimit="10"/>
<path d="M1201.08 1946.3V1190.64C1188.52 1125.83 1205.78 1067.73 1231.44 1013.03C1240.07 994.764 1249.55 976.888 1259.26 959.088C1290.41 916.199 1312.69 867.536 1324.83 815.941C1336.96 764.346 1338.69 710.851 1329.93 658.579C1278.6 427.417 1167.33 230.776 1201.08 0" stroke="white" stroke-width="0.5" stroke-miterlimit="10"/>
<path d="M1303.19 1946.3V1250.81C1286.62 1135.7 1338.1 1040.23 1381.87 941.288C1392.81 916.554 1403.29 891.589 1411.92 866.007C1432.34 812.84 1440.9 752.969 1432.34 701.651C1364.14 462.091 1270.05 248.19 1303.19 0.384766" stroke="white" stroke-width="0.5" stroke-miterlimit="10"/>
<path d="M1405.99 1946.3V1250.81C1392.5 1128.3 1443.75 1018.73 1476.04 901.453C1482.51 878.337 1488.21 854.219 1492.53 829.947C1501.08 590.387 1381.25 359.457 1405.76 118.047C1405.76 81.3697 1405.76 51.8581 1405.76 31.593V0.771484" stroke="white" stroke-width="0.5" stroke-miterlimit="10"/>
<path d="M1508.41 1946.3V1247.35C1526.13 1090 1543.55 934.277 1547.86 778.012C1548.56 746.728 1548.79 715.444 1547.86 684.006C1543.55 522.193 1509.33 368.085 1507.94 202.728C1507.94 171.906 1507.94 143.397 1507.94 118.585V0.384766" stroke="white" stroke-width="0.5" stroke-miterlimit="10"/>
<path d="M1610.82 1946.3V1250.81C1610.82 1228.52 1610.82 1206.1 1610.82 1183.55C1623.74 1005.68 1627.62 827.28 1622.46 649.023C1621.69 623.75 1620.74 598.476 1619.61 573.203C1611.9 504.856 1611.9 427.879 1610.75 360.919V0.384766" stroke="white" stroke-width="0.5" stroke-miterlimit="10"/>
<path d="M1713.24 1946.3V1154.8C1713.24 1133.85 1713.24 1112.81 1713.24 1091.85C1714.86 915.552 1723.41 727.31 1713.24 548.854C1713.24 529.282 1713.24 510.327 1713.24 491.449V0.384766" stroke="white" stroke-width="0.5" stroke-miterlimit="10"/>
<path d="M1815.66 1946.3V973.343C1817.66 881.341 1817.66 778.628 1815.66 685.393V0.384766" stroke="white" stroke-width="0.5" stroke-miterlimit="10"/>
<path d="M1918.07 1946.3V0.384766" stroke="white" stroke-width="0.5" stroke-miterlimit="10"/>
</g>
</g>
<defs>
<clipPath id="clip0_118_127">
<rect width="1946" height="1080" fill="white" transform="translate(-28)"/>
</clipPath>
</defs>
</svg>
