<svg xmlns="http://www.w3.org/2000/svg" fill="none" viewBox="18.9 35.55 324 142.2" style="max-height: 500px" width="324" height="142.2">
<path fill="#E9F03C" d="M273.272 117.535L330.8 49.1944L298.294 36.7972L273.272 117.535Z"/>
<path fill="#C91212" d="M336.427 55.4924C336.274 55.5527 336.115 55.6054 335.958 55.647L335.732 54.7814C335.982 54.7168 336.233 54.6141 336.461 54.4936L336.887 55.2803C336.741 55.3583 336.587 55.4327 336.431 55.4942L336.427 55.4924ZM334.969 55.7827C334.635 55.7888 334.3 55.7509 333.975 55.6754L334.178 54.8036C334.432 54.8629 334.695 54.8917 334.955 54.8876L334.969 55.7827ZM337.699 54.7018L337.094 54.0399C337.287 53.8653 337.459 53.6648 337.605 53.4477L338.348 53.9459C338.162 54.2232 337.944 54.4793 337.699 54.7018ZM333.038 55.3348C332.741 55.1838 332.461 54.9988 332.209 54.7822L332.794 54.1029C332.99 54.2734 333.21 54.4177 333.444 54.5361L333.038 55.3348ZM338.798 53.0547L337.957 52.748C338.047 52.5019 338.105 52.2445 338.135 51.9846L339.026 52.0814C338.99 52.4117 338.915 52.74 338.801 53.0535L338.798 53.0547ZM331.533 54.0431C331.341 53.7723 331.181 53.4786 331.058 53.167L331.89 52.8386C331.986 53.0827 332.111 53.3121 332.263 53.5241L331.533 54.0431ZM339.009 51.0824L338.123 51.2045C338.089 50.9461 338.022 50.6905 337.925 50.4465L338.751 50.1034L338.757 50.1181C338.88 50.4298 338.964 50.7535 339.009 51.0824ZM331.689 52.0788L330.803 52.2009C330.757 51.8691 330.75 51.5351 330.785 51.2019L331.675 51.2958C331.648 51.5545 331.651 51.8187 331.688 52.0759L331.689 52.0788ZM337.544 49.7475C337.392 49.5355 337.214 49.341 337.014 49.1716L337.595 48.4906C337.85 48.7059 338.078 48.9558 338.27 49.2267L337.541 49.7487L337.544 49.7475ZM331.854 50.5354L331.01 50.2299C331.124 49.9164 331.274 49.616 331.46 49.3386L332.207 49.8357C332.061 50.0527 331.944 50.2893 331.854 50.5354ZM336.364 48.7384C336.131 48.62 335.882 48.5314 335.627 48.4721L335.826 47.5985C336.151 47.674 336.465 47.7881 336.764 47.935L336.363 48.7355L336.364 48.7384ZM332.713 49.2417L332.109 48.5798C332.356 48.3532 332.629 48.1602 332.923 48.0001L333.352 48.7856C333.123 48.9102 332.908 49.063 332.716 49.2405L332.713 49.2417ZM334.851 48.3911C334.591 48.3952 334.33 48.4304 334.078 48.499L333.848 47.6317C334.171 47.5451 334.502 47.4991 334.836 47.493L334.85 48.3881L334.851 48.3911Z"/>
<path fill="#DF0034" d="M46 39L104.788 108.218L64.3743 96.7085L46 39Z"/>
<g filter="url(#filter0_d_122_3)">
<rect fill="#2A2C2D" rx="5" height="69.2176" width="87.5492" y="92" x="20"/>
</g>
<g clip-path="url(#clip0_122_3)">
<g opacity="0.25" style="mix-blend-mode:overlay">
<path fill="#FEFDFF" d="M30.4156 155.529C29.8939 155.529 29.4727 155.107 29.4727 154.584V98.9492C29.4727 98.4269 29.8939 98.0052 30.4156 98.0052C30.9374 98.0052 31.3586 98.4269 31.3586 98.9492V154.584C31.3586 155.107 30.9374 155.529 30.4156 155.529Z"/>
</g>
<g opacity="0.25" style="mix-blend-mode:overlay">
<path fill="#FEFDFF" d="M47.3326 155.529C46.8108 155.529 46.3896 155.107 46.3896 154.584V98.9492C46.3896 98.4269 46.8108 98.0052 47.3326 98.0052C47.8544 98.0052 48.2756 98.4269 48.2756 98.9492V154.584C48.2756 155.107 47.8544 155.529 47.3326 155.529Z"/>
</g>
<g opacity="0.25" style="mix-blend-mode:overlay">
<path fill="#FEFDFF" d="M64.2496 155.529C63.7278 155.529 63.3066 155.107 63.3066 154.584V98.9492C63.3066 98.4269 63.7278 98.0052 64.2496 98.0052C64.7714 98.0052 65.1926 98.4269 65.1926 98.9492V154.584C65.1926 155.107 64.7714 155.529 64.2496 155.529Z"/>
</g>
<g opacity="0.25" style="mix-blend-mode:overlay">
<path fill="#FEFDFF" d="M81.1607 155.529C80.639 155.529 80.2178 155.107 80.2178 154.584V98.9492C80.2178 98.4269 80.639 98.0052 81.1607 98.0052C81.6825 98.0052 82.1037 98.4269 82.1037 98.9492V154.584C82.1037 155.107 81.6825 155.529 81.1607 155.529Z"/>
</g>
<g opacity="0.25" style="mix-blend-mode:overlay">
<path fill="#FEFDFF" d="M98.0777 155.529C97.556 155.529 97.1348 155.107 97.1348 154.584V98.9492C97.1348 98.4269 97.556 98.0052 98.0777 98.0052C98.5995 98.0052 99.0207 98.4269 99.0207 98.9492V154.584C99.0207 155.107 98.5995 155.529 98.0777 155.529Z"/>
</g>
<g opacity="0.25" style="mix-blend-mode:overlay">
<path fill="#FEFDFF" d="M98.0779 121.751H30.4162C29.3727 121.751 28.5303 120.908 28.5303 119.863C28.5303 118.818 29.3727 117.975 30.4162 117.975H98.0779C99.1214 117.975 99.9638 118.818 99.9638 119.863C99.9638 120.908 99.1214 121.751 98.0779 121.751Z"/>
</g>
<g opacity="0.25" style="mix-blend-mode:overlay">
<path fill="#FEFDFF" d="M98.0779 108.364H30.4162C29.3727 108.364 28.5303 107.521 28.5303 106.476C28.5303 105.432 29.3727 104.588 30.4162 104.588H98.0779C99.1214 104.588 99.9638 105.432 99.9638 106.476C99.9638 107.521 99.1214 108.364 98.0779 108.364Z"/>
</g>
<path fill="#DF0034" d="M82.6822 108.364H30.4162C29.3727 108.364 28.5303 107.521 28.5303 106.476C28.5303 105.432 29.3727 104.588 30.4162 104.588H82.6822C83.7258 104.588 84.5682 105.432 84.5682 106.476C84.5682 107.521 83.7258 108.364 82.6822 108.364Z"/>
<path fill="#012DD4" d="M64.2502 108.364H30.4162C29.3727 108.364 28.5303 107.521 28.5303 106.476C28.5303 105.432 29.3727 104.588 30.4162 104.588H64.2502C65.2937 104.588 66.1361 105.432 66.1361 106.476C66.1361 107.521 65.2937 108.364 64.2502 108.364Z"/>
<path fill="#012DD4" d="M92.8789 121.751H30.4162C29.3727 121.751 28.5303 120.908 28.5303 119.863C28.5303 118.818 29.3727 117.975 30.4162 117.975H92.8789C93.9225 117.975 94.7649 118.818 94.7649 119.863C94.7649 120.908 93.9225 121.751 92.8789 121.751Z"/>
<path fill="#DF0034" d="M83.2417 121.751H30.4162C29.3727 121.751 28.5303 120.908 28.5303 119.863C28.5303 118.818 29.3727 117.975 30.4162 117.975H83.2417C84.2853 117.975 85.1276 118.818 85.1276 119.863C85.1276 120.908 84.2853 121.751 83.2417 121.751Z"/>
<g opacity="0.25" style="mix-blend-mode:overlay">
<path fill="#FEFDFF" d="M98.0779 135.137H30.4162C29.3727 135.137 28.5303 134.294 28.5303 133.249C28.5303 132.204 29.3727 131.361 30.4162 131.361H98.0779C99.1214 131.361 99.9638 132.204 99.9638 133.249C99.9638 134.294 99.1214 135.137 98.0779 135.137Z"/>
</g>
<path fill="#DF0034" d="M60.8366 135.137H30.4162C29.3727 135.137 28.5303 134.294 28.5303 133.249C28.5303 132.204 29.3727 131.361 30.4162 131.361H60.8366C61.8802 131.361 62.7226 132.204 62.7226 133.249C62.7226 134.294 61.8802 135.137 60.8366 135.137Z"/>
<path fill="#012DD4" d="M38.7644 135.767H30.416C29.0267 135.767 27.9014 134.64 27.9014 133.249C27.9014 131.858 29.0267 130.732 30.416 130.732H38.7644C40.1538 130.732 41.279 131.858 41.279 133.249C41.279 134.64 40.1538 135.767 38.7644 135.767Z"/>
<g opacity="0.25" style="mix-blend-mode:overlay">
<path fill="#FEFDFF" d="M98.0779 148.517H30.4162C29.3727 148.517 28.5303 147.674 28.5303 146.629C28.5303 145.585 29.3727 144.741 30.4162 144.741H98.0779C99.1214 144.741 99.9638 145.585 99.9638 146.629C99.9638 147.674 99.1214 148.517 98.0779 148.517Z"/>
</g>
<path fill="#012DD4" d="M85.486 148.517H30.4162C29.3727 148.517 28.5303 147.674 28.5303 146.629C28.5303 145.585 29.3727 144.741 30.4162 144.741H85.486C86.5295 144.741 87.3719 145.585 87.3719 146.629C87.3719 147.674 86.5295 148.517 85.486 148.517Z"/>
<path fill="#DF0034" d="M38.7644 149.147H30.416C29.0267 149.147 27.9014 148.02 27.9014 146.629C27.9014 145.238 29.0267 144.112 30.416 144.112H38.7644C40.1538 144.112 41.279 145.238 41.279 146.629C41.279 148.02 40.1538 149.147 38.7644 149.147Z"/>
</g>
<path fill="#DF0034" d="M28.6432 48.7677C30.5033 47.8975 31.3058 45.6842 30.4356 43.8241C29.5654 41.964 27.3521 41.1615 25.492 42.0317C23.6319 42.9019 22.8294 45.1152 23.6996 46.9753C24.5698 48.8354 26.7831 49.6379 28.6432 48.7677Z"/>
<g filter="url(#filter1_d_122_3)">
<rect fill="#2A2C2D" rx="5" height="68.2694" width="74.9067" y="93" x="267"/>
</g>
<g clip-path="url(#clip1_122_3)">
<path fill="#A10C2E" d="M323.922 150.516C323.721 150.516 323.52 150.439 323.366 150.285C323.059 149.976 323.059 149.479 323.366 149.171C333.359 139.151 333.359 122.851 323.366 112.831C323.059 112.523 323.059 112.025 323.366 111.717C323.673 111.409 324.17 111.409 324.477 111.717C335.078 122.347 335.078 139.649 324.477 150.279C324.324 150.433 324.123 150.51 323.922 150.51V150.516Z"/>
<path fill="#E9F03C" d="M286.569 152.104C285.966 152.104 285.358 151.873 284.897 151.41C273.675 140.158 273.675 121.855 284.897 110.603C296.118 99.3513 314.372 99.3513 325.588 110.603C326.51 111.528 326.51 113.027 325.588 113.957C324.666 114.881 323.165 114.881 322.243 113.957C312.865 104.554 297.608 104.554 288.235 113.957C278.857 123.36 278.857 138.653 288.235 148.057C289.157 148.981 289.157 150.48 288.235 151.41C287.775 151.873 287.172 152.104 286.563 152.104H286.569Z"/>
<path fill="#012DD4" d="M315.042 131.086C315.042 136.93 310.369 141.674 304.612 141.674C298.854 141.674 294.182 136.93 294.182 131.086C294.182 125.241 298.854 120.497 304.612 120.497C310.369 120.497 315.042 125.241 315.042 131.086Z"/>
</g>
<g filter="url(#filter2_d_122_3)">
<rect fill="#2A2C2D" rx="5" height="136.74" width="218.218" y="40" x="69.7822"/>
</g>
<path fill="#E9F03C" d="M115.667 138.581C106.573 138.581 104.018 129.995 101.544 121.692C98.7453 112.288 95.8494 102.561 84.0547 102.561V100.942C97.0581 100.942 100.27 111.721 103.101 121.23C105.616 129.671 107.79 136.954 115.667 136.954C123.543 136.954 126.829 125.657 129.911 113.696C133.205 100.926 136.612 87.7105 147.279 87.7105C157.394 87.7105 160.234 93.0759 162.975 98.2714C165.79 103.596 168.459 108.63 178.891 108.63C190.288 108.63 194.214 101.209 198.019 94.039C201.061 88.2932 203.932 82.863 210.503 82.863C217.074 82.863 219.807 89.8874 222.687 97.3327C226.232 106.485 230.255 116.852 242.115 116.852C253.975 116.852 258.022 108.436 261.567 101.015C264.463 94.9453 267.197 89.2077 273.727 89.2077V90.8262C268.219 90.8262 265.81 95.8679 263.028 101.711C259.28 109.569 255.037 118.471 242.115 118.471C229.193 118.471 224.91 107.554 221.178 97.9153C218.38 90.7048 215.97 84.4816 210.503 84.4816C205.036 84.4816 202.383 89.2643 199.455 94.7916C195.618 102.034 191.27 110.249 178.891 110.249C167.477 110.249 164.322 104.284 161.54 99.024C158.903 94.039 156.413 89.3291 147.279 89.3291C138.145 89.3291 134.624 101.921 131.485 114.093C128.378 126.126 125.166 138.565 115.667 138.565V138.581Z"/>
<path fill="#012DD4" d="M147.279 138.581C139.232 138.581 134.543 135.878 129.116 132.746C120.972 128.044 110.832 122.201 84.0547 122.201V120.583C111.262 120.583 121.613 126.555 129.927 131.346C135.371 134.486 139.67 136.962 147.279 136.962C156.908 136.962 160.461 123.949 163.892 111.365C167.21 99.2021 170.341 87.7186 178.899 87.7186C186.914 87.7186 188.99 96.3454 191.197 105.482C193.955 116.933 196.81 128.781 210.511 128.781C225.388 128.781 229.152 121.594 232.47 115.25C234.693 111.001 236.794 106.995 242.123 106.995C247.769 106.995 250.77 112.15 253.958 117.613C258.022 124.589 262.63 132.487 273.735 132.487V134.106C261.689 134.106 256.627 125.406 252.555 118.422C249.489 113.154 246.836 108.614 242.123 108.614C237.775 108.614 236.072 111.875 233.914 116.002C230.556 122.42 226.378 130.407 210.511 130.407C195.528 130.407 192.389 117.37 189.615 105.87C187.481 97.0009 185.632 89.3452 178.899 89.3452C171.582 89.3452 168.613 100.254 165.458 111.794C161.864 124.969 158.149 138.589 147.279 138.589V138.581Z"/>
<path fill="#012DD4" d="M211.273 131.904C212.554 131.904 213.593 130.868 213.593 129.59C213.593 128.312 212.554 127.275 211.273 127.275C209.992 127.275 208.953 128.312 208.953 129.59C208.953 130.868 209.992 131.904 211.273 131.904Z"/>
<path fill="#E9F03C" d="M147.279 90.8424C148.56 90.8424 149.599 89.8062 149.599 88.5279C149.599 87.2496 148.56 86.2134 147.279 86.2134C145.998 86.2134 144.959 87.2496 144.959 88.5279C144.959 89.8062 145.998 90.8424 147.279 90.8424Z"/>
<circle fill="#E9F03C" r="8.50199" cy="74.008" cx="147.009"/>
<path fill="#1D1E1F" d="M147.009 70.8197C147.745 70.8197 148.341 71.3866 148.341 72.0855C148.341 72.7844 147.745 73.3508 147.009 73.3508C146.274 73.3508 145.677 72.7839 145.677 72.085C145.677 71.3861 146.274 70.8197 147.009 70.8197ZM143.723 71.5402C144.317 71.5402 144.798 71.9977 144.798 72.5618C144.798 73.126 144.317 73.5835 143.723 73.5835C143.129 73.5835 142.648 73.126 142.648 72.5618C142.648 71.9977 143.129 71.5402 143.723 71.5402ZM141.49 76.2093C142.284 76.5486 143.078 76.7068 143.873 76.6843C143.784 76.5712 143.74 76.4286 143.754 76.2806C143.835 75.4428 144.263 74.7077 144.895 74.1983C144.549 74.0125 144.149 73.9067 143.723 73.9067C142.477 73.9067 141.453 74.8125 141.342 75.9689C141.332 76.0724 141.39 76.1666 141.49 76.2094L141.49 76.2093ZM150.295 71.5402C150.889 71.5402 151.37 71.9977 151.37 72.5618C151.37 73.126 150.889 73.5835 150.295 73.5835C149.701 73.5835 149.22 73.126 149.22 72.5618C149.22 71.9977 149.701 71.5402 150.295 71.5402ZM144.242 76.6051C144.118 76.5523 144.046 76.4355 144.059 76.3067C144.197 74.8736 145.465 73.7517 147.009 73.7517C148.553 73.7517 149.821 74.8741 149.959 76.3067C149.971 76.4355 149.9 76.5523 149.775 76.6051C147.931 77.3932 146.087 77.3932 144.242 76.6051H144.242ZM150.146 76.6842C150.94 76.7072 151.734 76.5486 152.528 76.2093C152.628 76.1665 152.685 76.0722 152.676 75.9683C152.564 74.812 151.541 73.9061 150.295 73.9061C149.869 73.9061 149.469 74.0119 149.123 74.1977C149.755 74.7071 150.183 75.4418 150.264 76.28C150.278 76.4285 150.234 76.5706 150.146 76.6841L150.146 76.6842Z" clip-rule="evenodd" fill-rule="evenodd"/>
<circle fill="#012DD4" r="8.50199" cy="143.795" cx="210.773"/>
<path fill-opacity="0.6" fill="white" d="M210.773 139.544C208.427 139.544 206.522 141.449 206.522 143.795C206.522 146.141 208.427 148.046 210.773 148.046C213.12 148.046 215.024 146.141 215.024 143.795C215.024 141.449 213.12 139.544 210.773 139.544ZM210.207 141.819V144.213C210.207 144.34 210.292 144.452 210.414 144.486L212.037 144.936C212.188 144.978 212.345 144.89 212.386 144.739C212.428 144.588 212.34 144.432 212.189 144.39L210.773 143.997V141.819C210.773 141.663 210.646 141.536 210.49 141.536C210.334 141.536 210.207 141.663 210.207 141.819Z" clip-rule="evenodd" fill-rule="evenodd"/>
<defs>
<filter color-interpolation-filters="sRGB" filterUnits="userSpaceOnUse" height="157.218" width="175.549" y="52" x="-24" id="filter0_d_122_3">
<feFlood result="BackgroundImageFix" flood-opacity="0"/>
<feColorMatrix result="hardAlpha" values="0 0 0 0 0 0 0 0 0 0 0 0 0 0 0 0 0 0 127 0" type="matrix" in="SourceAlpha"/>
<feOffset dy="4"/>
<feGaussianBlur stdDeviation="22"/>
<feComposite operator="out" in2="hardAlpha"/>
<feColorMatrix values="0 0 0 0 0 0 0 0 0 0 0 0 0 0 0 0 0 0 0.25 0" type="matrix"/>
<feBlend result="effect1_dropShadow_122_3" in2="BackgroundImageFix" mode="normal"/>
<feBlend result="shape" in2="effect1_dropShadow_122_3" in="SourceGraphic" mode="normal"/>
</filter>
<filter color-interpolation-filters="sRGB" filterUnits="userSpaceOnUse" height="156.269" width="162.906" y="53" x="223" id="filter1_d_122_3">
<feFlood result="BackgroundImageFix" flood-opacity="0"/>
<feColorMatrix result="hardAlpha" values="0 0 0 0 0 0 0 0 0 0 0 0 0 0 0 0 0 0 127 0" type="matrix" in="SourceAlpha"/>
<feOffset dy="4"/>
<feGaussianBlur stdDeviation="22"/>
<feComposite operator="out" in2="hardAlpha"/>
<feColorMatrix values="0 0 0 0 0 0 0 0 0 0 0 0 0 0 0 0 0 0 0.25 0" type="matrix"/>
<feBlend result="effect1_dropShadow_122_3" in2="BackgroundImageFix" mode="normal"/>
<feBlend result="shape" in2="effect1_dropShadow_122_3" in="SourceGraphic" mode="normal"/>
</filter>
<filter color-interpolation-filters="sRGB" filterUnits="userSpaceOnUse" height="224.74" width="306.218" y="0" x="25.7822" id="filter2_d_122_3">
<feFlood result="BackgroundImageFix" flood-opacity="0"/>
<feColorMatrix result="hardAlpha" values="0 0 0 0 0 0 0 0 0 0 0 0 0 0 0 0 0 0 127 0" type="matrix" in="SourceAlpha"/>
<feOffset dy="4"/>
<feGaussianBlur stdDeviation="22"/>
<feComposite operator="out" in2="hardAlpha"/>
<feColorMatrix values="0 0 0 0 0 0 0 0 0 0 0 0 0 0 0 0 0 0 0.25 0" type="matrix"/>
<feBlend result="effect1_dropShadow_122_3" in2="BackgroundImageFix" mode="normal"/>
<feBlend result="shape" in2="effect1_dropShadow_122_3" in="SourceGraphic" mode="normal"/>
</filter>
<clipPath id="clip0_122_3">
<rect transform="translate(27.9014 98.0052)" fill="white" height="57.5233" width="72.0622"/>
</clipPath>
<clipPath id="clip1_122_3">
<rect transform="translate(276.482 102.166)" fill="white" height="49.9378" width="55.943"/>
</clipPath>
</defs>
</svg>