<svg width="89" height="59" viewBox="0 0 89 59" fill="none" xmlns="http://www.w3.org/2000/svg">
<path d="M88.9377 2.00001C88.9377 1.41532 88.5179 0.941343 88 0.941344L79.561 0.941343C79.0431 0.941344 78.6233 1.41532 78.6233 2.00001C78.6233 2.58469 79.0431 3.05867 79.561 3.05867L87.0623 3.05867L87.0623 11.528C87.0623 12.1127 87.4822 12.5866 88 12.5866C88.5179 12.5866 88.9377 12.1127 88.9377 11.528L88.9377 2.00001ZM38.9674 58.8567L40.3478 57.2981L39.0217 55.8009L37.6413 57.3595L38.9674 58.8567ZM43.1087 54.181L45.8695 51.0639L44.5435 49.5667L41.7826 52.6838L43.1087 54.181ZM48.6304 47.9468L51.3913 44.8297L50.0652 43.3325L47.3043 46.4496L48.6304 47.9468ZM54.1522 41.7125L56.913 38.5954L55.587 37.0983L52.8261 40.2154L54.1522 41.7125ZM59.6739 35.4783L62.4348 32.3612L61.1087 30.864L58.3478 33.9811L59.6739 35.4783ZM65.1956 29.2441L67.9565 26.127L66.6304 24.6298L63.8696 27.7469L65.1956 29.2441ZM70.7174 23.0098L73.4783 19.8927L72.1522 18.3956L69.3913 21.5127L70.7174 23.0098ZM76.2391 16.7756L79 13.6585L77.6739 12.1613L74.9131 15.2784L76.2391 16.7756ZM81.7609 10.5414L84.5218 7.42426L83.1957 5.92708L80.4348 9.0442L81.7609 10.5414ZM87.2826 4.30714L88.6631 2.7486L87.337 1.25142L85.9566 2.80996L87.2826 4.30714ZM88.9377 2.00001C88.9377 1.41532 88.5179 0.941343 88 0.941344L79.561 0.941343C79.0431 0.941344 78.6233 1.41532 78.6233 2.00001C78.6233 2.58469 79.0431 3.05867 79.561 3.05867L87.0623 3.05867L87.0623 11.528C87.0623 12.1127 87.4822 12.5866 88 12.5866C88.5179 12.5866 88.9377 12.1127 88.9377 11.528L88.9377 2.00001ZM38.9674 58.8567L40.3478 57.2981L39.0217 55.8009L37.6413 57.3595L38.9674 58.8567ZM43.1087 54.181L45.8695 51.0639L44.5435 49.5667L41.7826 52.6838L43.1087 54.181ZM48.6304 47.9468L51.3913 44.8297L50.0652 43.3325L47.3043 46.4496L48.6304 47.9468ZM54.1522 41.7125L56.913 38.5954L55.587 37.0983L52.8261 40.2154L54.1522 41.7125ZM59.6739 35.4783L62.4348 32.3612L61.1087 30.864L58.3478 33.9811L59.6739 35.4783ZM65.1956 29.2441L67.9565 26.127L66.6304 24.6298L63.8696 27.7469L65.1956 29.2441ZM70.7174 23.0098L73.4783 19.8927L72.1522 18.3956L69.3913 21.5127L70.7174 23.0098ZM76.2391 16.7756L79 13.6585L77.6739 12.1613L74.9131 15.2784L76.2391 16.7756ZM81.7609 10.5414L84.5218 7.42426L83.1957 5.92708L80.4348 9.0442L81.7609 10.5414ZM87.2826 4.30714L88.6631 2.7486L87.337 1.25142L85.9566 2.80996L87.2826 4.30714Z" fill="white"/>
<circle cx="21.2409" cy="26.8364" r="20.2409" transform="rotate(90 21.2409 26.8364)" stroke="#EAF03C" stroke-width="2"/>
<path d="M21 38C14.9249 38 10 33.0751 10 27C10 20.9249 14.9249 16 21 16C27.0751 16 32 20.9249 32 27C32 33.0751 27.0751 38 21 38Z" fill="#EAF03C" stroke="#EAF03C" stroke-width="2"/>
</svg>
