<svg width="72" height="73" viewBox="0 0 72 73" fill="none" xmlns="http://www.w3.org/2000/svg">
<g filter="url(#filter0_d_165_401)">
<path d="M57.4618 45.492C58.4542 46.6153 59.1592 47.8173 59.5298 49.0744L58.5706 49.3572C58.7424 49.9399 58.8303 50.5317 58.8303 51.1317C58.8303 51.7318 58.7424 52.3236 58.5706 52.9063L59.5298 53.189C59.1592 54.4461 58.4542 55.6482 57.4618 56.7714L56.7124 56.1093C55.9266 56.9988 54.9307 57.8508 53.7425 58.6452L54.2983 59.4765C53.2121 60.2027 51.9877 60.8733 50.6447 61.4784L50.234 60.5666C49.0644 61.0936 47.797 61.5713 46.4452 61.9915L46.742 62.9464C45.4616 63.3445 44.1115 63.6911 42.7032 63.9804L42.5019 63.0009C41.2067 63.267 39.8593 63.484 38.4693 63.6469L38.5857 64.6402C37.235 64.7985 35.8461 64.9065 34.4272 64.9603L34.3894 63.961C33.7129 63.9866 33.0294 63.9997 32.3397 63.9997C31.65 63.9997 30.9665 63.9866 30.29 63.961L30.2522 64.9603C28.8332 64.9065 27.4444 64.7985 26.0937 64.6402L26.2101 63.6469C24.82 63.484 23.4727 63.267 22.1774 63.0009L21.9762 63.9804C20.5679 63.6911 19.2178 63.3445 17.9374 62.9464L18.2342 61.9915C16.8824 61.5713 15.615 61.0936 14.4454 60.5666L14.0346 61.4784C12.6917 60.8733 11.4673 60.2027 10.3811 59.4765L10.9369 58.6452C9.74864 57.8508 8.75279 56.9988 7.96695 56.1093L7.21753 56.7714C6.22517 55.6482 5.52014 54.4461 5.14954 53.189L6.10873 52.9063C5.93697 52.3236 5.84912 51.7318 5.84912 51.1317C5.84912 50.5317 5.93697 49.9399 6.10873 49.3572L5.14954 49.0744C5.52014 47.8173 6.22517 46.6153 7.21753 45.492L7.96695 46.1541C8.75279 45.2646 9.74864 44.4127 10.9369 43.6182L10.3811 42.7869C11.4673 42.0607 12.6917 41.3901 14.0346 40.7851L14.4454 41.6968C15.615 41.1699 16.8824 40.6922 18.2342 40.2719L17.9374 39.317C19.2178 38.919 20.5679 38.5724 21.9762 38.283L22.1774 39.2626C23.4727 38.9964 24.82 38.7794 26.2101 38.6165L26.0937 37.6233C27.4444 37.465 28.8332 37.3569 30.2522 37.3032L30.29 38.3025C30.9665 38.2768 31.65 38.2638 32.3397 38.2638C33.0294 38.2638 33.7129 38.2768 34.3894 38.3025L34.4272 37.3032C35.8461 37.3569 37.235 37.465 38.5857 37.6233L38.4693 38.6165C39.8593 38.7794 41.2067 38.9964 42.5019 39.2626L42.7032 38.283C44.1115 38.5724 45.4616 38.919 46.742 39.317L46.4452 40.2719C47.797 40.6922 49.0644 41.1699 50.234 41.6968L50.6447 40.7851C51.9877 41.3901 53.2121 42.0607 54.2983 42.7869L53.7425 43.6182C54.9307 44.4127 55.9266 45.2646 56.7124 46.1541L57.4618 45.492Z" stroke="white" stroke-width="2" stroke-dasharray="4 4"/>
<circle cx="51.5" cy="16.5" r="15.5" stroke="#EAF03C" stroke-width="2"/>
<path d="M32 50.8468L44 30" stroke="#EAF03C" stroke-width="2"/>
</g>
<defs>
<filter id="filter0_d_165_401" x="0.849121" y="0" width="71.1509" height="72.9996" filterUnits="userSpaceOnUse" color-interpolation-filters="sRGB">
<feFlood flood-opacity="0" result="BackgroundImageFix"/>
<feColorMatrix in="SourceAlpha" type="matrix" values="0 0 0 0 0 0 0 0 0 0 0 0 0 0 0 0 0 0 127 0" result="hardAlpha"/>
<feOffset dy="4"/>
<feGaussianBlur stdDeviation="2"/>
<feComposite in2="hardAlpha" operator="out"/>
<feColorMatrix type="matrix" values="0 0 0 0 0 0 0 0 0 0 0 0 0 0 0 0 0 0 0.25 0"/>
<feBlend mode="normal" in2="BackgroundImageFix" result="effect1_dropShadow_165_401"/>
<feBlend mode="normal" in="SourceGraphic" in2="effect1_dropShadow_165_401" result="shape"/>
</filter>
</defs>
</svg>
