<svg width="67" height="67" viewBox="0 0 67 67" fill="none" xmlns="http://www.w3.org/2000/svg">
<circle cx="33.5001" cy="33.4999" r="33.0001" transform="rotate(-180 33.5001 33.4999)" stroke="white"/>
<path d="M53.3674 34.499C53.9197 34.499 54.3674 34.0513 54.3674 33.499C54.3674 32.9467 53.9197 32.499 53.3674 32.499L53.3674 34.499ZM12.9253 32.7919C12.5348 33.1824 12.5348 33.8156 12.9253 34.2061L19.2893 40.5701C19.6798 40.9606 20.313 40.9606 20.7035 40.5701C21.094 40.1796 21.094 39.5464 20.7035 39.1559L15.0467 33.499L20.7035 27.8422C21.094 27.4516 21.094 26.8185 20.7035 26.428C20.313 26.0374 19.6798 26.0374 19.2893 26.428L12.9253 32.7919ZM53.3674 32.499L13.6324 32.499L13.6324 34.499L53.3674 34.499L53.3674 32.499Z" fill="white"/>
</svg>
