<svg width="137" height="105" viewBox="0 0 137 105" fill="none" xmlns="http://www.w3.org/2000/svg">
<path d="M58.0974 7.9791C59.6379 5.31708 63.4811 5.31708 65.0216 7.97909L74.5861 24.5069C76.1457 27.2019 74.1639 30.5668 71.0507 30.5097L52.1224 30.1627C49.0745 30.1068 47.2068 26.7984 48.7337 24.1598L58.0974 7.9791Z" stroke="#D9E021" stroke-width="2"/>
<path d="M83.7774 41.6221C85.2051 41.6221 86.5245 42.3829 87.2395 43.6186L98.1872 62.5364C99.7304 65.2031 97.8061 68.5399 94.7251 68.5399H28.3927C25.3118 68.5399 23.3875 65.2031 24.9307 62.5364L35.8783 43.6186C36.5934 42.3829 37.9128 41.6221 39.3404 41.6221H83.7774Z" stroke="white" stroke-width="2"/>
<path d="M104.846 79.4062C106.273 79.4062 107.593 80.1671 108.308 81.4028L117.911 97.9969C119.454 100.664 117.53 104 114.449 104H8.67034C5.58935 104 3.66507 100.664 5.20826 97.9969L14.8112 81.4028C15.5262 80.1671 16.8456 79.4062 18.2733 79.4062H104.846Z" stroke="white" stroke-width="2"/>
<path d="M118.281 1.76763C118.847 1.6165 119.414 1.89896 119.548 2.39854L121.735 10.5396C121.869 11.0391 121.519 11.5666 120.954 11.7178C120.388 11.8689 119.821 11.5864 119.687 11.0869L117.744 3.8504L109.554 6.0396C108.989 6.19074 108.422 5.90827 108.288 5.40869C108.154 4.90912 108.503 4.38162 109.069 4.23048L118.281 1.76763ZM58.2555 91.8288L59.3973 90.1057L61.1885 90.9979L60.0467 92.721L58.2555 91.8288ZM61.6809 86.6594L63.9645 83.2131L65.7557 84.1054L63.4721 87.5516L61.6809 86.6594ZM66.2481 79.7669L68.5316 76.3206L70.3229 77.2129L68.0393 80.6591L66.2481 79.7669ZM70.8152 72.8744L73.0988 69.4281L74.8901 70.3203L72.6065 73.7666L70.8152 72.8744ZM75.3824 65.9819L77.666 62.5356L79.4572 63.4278L77.1736 66.8741L75.3824 65.9819ZM79.9496 59.0893L82.2332 55.6431L84.0244 56.5353L81.7408 59.9816L79.9496 59.0893ZM84.5168 52.1968L86.8003 48.7506L88.5916 49.6428L86.308 53.0891L84.5168 52.1968ZM89.0839 45.3043L91.3675 41.858L93.1588 42.7503L90.8752 46.1965L89.0839 45.3043ZM93.6511 38.4118L95.9347 34.9655L97.7259 35.8578L95.4423 39.304L93.6511 38.4118ZM98.2183 31.5193L100.502 28.073L102.293 28.9652L100.01 32.4115L98.2183 31.5193ZM102.785 24.6267L105.069 21.1805L106.86 22.0727L104.577 25.519L102.785 24.6267ZM107.353 17.7342L109.636 14.288L111.427 15.1802L109.144 18.6265L107.353 17.7342ZM111.92 10.8417L114.203 7.39544L115.995 8.28768L113.711 11.7339L111.92 10.8417ZM116.487 3.94918L117.629 2.22607L119.42 3.11831L118.278 4.84142L116.487 3.94918ZM118.281 1.76763C118.847 1.6165 119.414 1.89896 119.548 2.39854L121.735 10.5396C121.869 11.0391 121.519 11.5666 120.954 11.7178C120.388 11.8689 119.821 11.5864 119.687 11.0869L117.744 3.8504L109.554 6.0396C108.989 6.19074 108.422 5.90827 108.288 5.40869C108.154 4.90912 108.503 4.38162 109.069 4.23048L118.281 1.76763ZM58.2555 91.8288L59.3973 90.1057L61.1885 90.9979L60.0467 92.721L58.2555 91.8288ZM61.6809 86.6594L63.9645 83.2131L65.7557 84.1054L63.4721 87.5516L61.6809 86.6594ZM66.2481 79.7669L68.5316 76.3206L70.3229 77.2129L68.0393 80.6591L66.2481 79.7669ZM70.8152 72.8744L73.0988 69.4281L74.8901 70.3203L72.6065 73.7666L70.8152 72.8744ZM75.3824 65.9819L77.666 62.5356L79.4572 63.4278L77.1736 66.8741L75.3824 65.9819ZM79.9496 59.0893L82.2332 55.6431L84.0244 56.5353L81.7408 59.9816L79.9496 59.0893ZM84.5168 52.1968L86.8003 48.7506L88.5916 49.6428L86.308 53.0891L84.5168 52.1968ZM89.0839 45.3043L91.3675 41.858L93.1588 42.7503L90.8752 46.1965L89.0839 45.3043ZM93.6511 38.4118L95.9347 34.9655L97.7259 35.8578L95.4423 39.304L93.6511 38.4118ZM98.2183 31.5193L100.502 28.073L102.293 28.9652L100.01 32.4115L98.2183 31.5193ZM102.785 24.6267L105.069 21.1805L106.86 22.0727L104.577 25.519L102.785 24.6267ZM107.353 17.7342L109.636 14.288L111.427 15.1802L109.144 18.6265L107.353 17.7342ZM111.92 10.8417L114.203 7.39544L115.995 8.28768L113.711 11.7339L111.92 10.8417ZM116.487 3.94918L117.629 2.22607L119.42 3.11831L118.278 4.84142L116.487 3.94918Z" fill="#EAF03C"/>
</svg>
