<svg width="115" height="115" viewBox="0 0 115 115" fill="none" xmlns="http://www.w3.org/2000/svg">
<path d="M57.5 114C26.2959 114 1 88.7041 1.00001 57.5C1.00001 26.2959 26.2959 0.999996 57.5 0.999997C88.7041 0.999999 114 26.2959 114 57.5C114 88.7041 88.7041 114 57.5 114Z" stroke="white" stroke-width="2"/>
<path d="M99.7071 58.7071C100.098 58.3166 100.098 57.6834 99.7071 57.2929L93.3431 50.9289C92.9526 50.5384 92.3195 50.5384 91.9289 50.9289C91.5384 51.3195 91.5384 51.9526 91.9289 52.3431L97.5858 58L91.9289 63.6569C91.5384 64.0474 91.5384 64.6805 91.9289 65.0711C92.3195 65.4616 92.9526 65.4616 93.3431 65.0711L99.7071 58.7071ZM54 59L55.875 59L55.875 57L54 57L54 59ZM59.625 59L63.375 59L63.375 57L59.625 57L59.625 59ZM67.125 59L70.875 59L70.875 57L67.125 57L67.125 59ZM74.625 59L78.375 59L78.375 57L74.625 57L74.625 59ZM82.125 59L85.875 59L85.875 57L82.125 57L82.125 59ZM89.625 59L93.375 59L93.375 57L89.625 57L89.625 59ZM97.125 59L99 59L99 57L97.125 57L97.125 59ZM99.7071 58.7071C100.098 58.3166 100.098 57.6834 99.7071 57.2929L93.3431 50.9289C92.9526 50.5384 92.3195 50.5384 91.9289 50.9289C91.5384 51.3195 91.5384 51.9526 91.9289 52.3431L97.5858 58L91.9289 63.6569C91.5384 64.0474 91.5384 64.6805 91.9289 65.0711C92.3195 65.4616 92.9526 65.4616 93.3431 65.0711L99.7071 58.7071ZM54 59L55.875 59L55.875 57L54 57L54 59ZM59.625 59L63.375 59L63.375 57L59.625 57L59.625 59ZM67.125 59L70.875 59L70.875 57L67.125 57L67.125 59ZM74.625 59L78.375 59L78.375 57L74.625 57L74.625 59ZM82.125 59L85.875 59L85.875 57L82.125 57L82.125 59ZM89.625 59L93.375 59L93.375 57L89.625 57L89.625 59ZM97.125 59L99 59L99 57L97.125 57L97.125 59Z" fill="#EAF03C"/>
<path d="M56 19L56 18L54 18L54 19L56 19ZM56 59L56 57L54 57L54 59L56 59ZM56 53L56 49L54 49L54 53L56 53ZM56 45L56 41L54 41L54 45L56 45ZM56 37L56 33L54 33L54 37L56 37ZM56 29L56 25L54 25L54 29L56 29ZM56 21L56 19L54 19L54 21L56 21ZM56 19L56 18L54 18L54 19L56 19ZM56 59L56 57L54 57L54 59L56 59ZM56 53L56 49L54 49L54 53L56 53ZM56 45L56 41L54 41L54 45L56 45ZM56 37L56 33L54 33L54 37L56 37ZM56 29L56 25L54 25L54 29L56 29ZM56 21L56 19L54 19L54 21L56 21Z" fill="#EAF03C"/>
</svg>
