<svg width="41" height="41" viewBox="0 0 41 41" fill="none" xmlns="http://www.w3.org/2000/svg">
<circle cx="20.5001" cy="20.5001" r="19.9999" transform="rotate(-180 20.5001 20.5001)" stroke="#343536"/>
<path d="M32.6573 21.4995C33.2096 21.4995 33.6573 21.0518 33.6573 20.4995C33.6573 19.9472 33.2096 19.4995 32.6573 19.4995L32.6573 21.4995ZM7.63503 19.7924C7.2445 20.1829 7.2445 20.8161 7.63503 21.2066L13.999 27.5706C14.3895 27.9611 15.0227 27.9611 15.4132 27.5706C15.8037 27.1801 15.8037 26.5469 15.4132 26.1564L9.75635 20.4995L15.4132 14.8427C15.8037 14.4521 15.8037 13.819 15.4132 13.4284C15.0227 13.0379 14.3895 13.0379 13.999 13.4284L7.63503 19.7924ZM32.6573 19.4995L8.34214 19.4995L8.34214 21.4995L32.6573 21.4995L32.6573 19.4995Z" fill="#343536"/>
</svg>
