<svg width="194" height="89" viewBox="0 0 194 89" fill="none" xmlns="http://www.w3.org/2000/svg">
<path d="M47.0745 87.9421C46.4015 87.9881 45.7242 88.0191 45.0432 88.0346L45.0205 87.0348C44.6889 87.0424 44.3565 87.0462 44.0231 87.0462C43.6897 87.0462 43.3572 87.0424 43.0257 87.0348L43.0029 88.0346C42.3219 88.0191 41.6447 87.9881 40.9716 87.9421L41.0399 86.9444C40.3759 86.8989 39.7161 86.8384 39.0608 86.7632L38.9468 87.7566C38.2706 87.679 37.5991 87.5861 36.9326 87.4781L37.0924 86.491C36.4361 86.3847 35.7848 86.2636 35.1389 86.128L34.9334 87.1067C34.2678 86.967 33.6077 86.8122 32.9536 86.6428L33.2043 85.6747C32.5611 85.5081 31.9237 85.327 31.2925 85.1318L30.997 86.0871C30.3475 85.8862 29.7044 85.6707 29.0681 85.4409L29.4078 84.5004C28.7832 84.2748 28.1654 84.0352 27.5546 83.7819L27.1716 84.7057C26.544 84.4454 25.9238 84.1711 25.3113 83.8831L25.7369 82.9781C25.1363 82.6957 24.5434 82.3998 23.9584 82.0908L23.4913 82.9751C22.891 82.658 22.2988 82.3274 21.7153 81.9838L22.2228 81.1221C21.6512 80.7855 21.0881 80.436 20.5338 80.0741L19.9871 80.9115C19.4189 80.5405 18.8598 80.1567 18.3102 79.7606L18.8949 78.9493C18.357 78.5616 17.8284 78.1618 17.3095 77.7502L16.688 78.5337C16.1566 78.1122 15.6351 77.6787 15.124 77.2335L15.7808 76.4794C15.2809 76.0441 14.7912 75.5974 14.3121 75.1398L13.6214 75.8629C13.1311 75.3946 12.6515 74.9151 12.1832 74.4248L12.9064 73.7341C12.4487 73.2549 12.002 72.7652 11.5667 72.2654L10.8126 72.9221C10.3675 72.411 9.93397 71.8895 9.51246 71.3581L10.2959 70.7367C9.88438 70.2178 9.48454 69.6892 9.09683 69.1513L8.28559 69.736C7.88945 69.1864 7.5057 68.6273 7.1347 68.059L7.97203 67.5123C7.61013 66.9581 7.26067 66.3949 6.92405 65.8234L6.06238 66.3308C5.71874 65.7473 5.38817 65.1552 5.07107 64.5548L5.9553 64.0878C5.64631 63.5028 5.35042 62.9098 5.06801 62.3093L4.16307 62.7348C3.87504 62.1223 3.60071 61.5021 3.34048 60.8746L4.26421 60.4915C4.01094 59.8808 3.77134 59.2629 3.54578 58.6383L2.60524 58.978C2.37546 58.3418 2.15992 57.6987 1.95901 57.0492L2.91435 56.7537C2.71911 56.1225 2.53801 55.4851 2.37143 54.8419L1.40336 55.0926C1.23394 54.4384 1.07918 53.7783 0.939458 53.1127L1.91813 52.9073C1.78253 52.2613 1.66141 51.61 1.55515 50.9537L0.568006 51.1136C0.460088 50.4471 0.36714 49.7756 0.289503 49.0994L1.28297 48.9853C1.20774 48.33 1.14722 47.6702 1.10176 47.0062L0.104093 47.0745C0.0580119 46.4015 0.0270671 45.7243 0.0115795 45.0432L1.01132 45.0205C1.00378 44.6889 0.99999 44.3565 0.99999 44.0231C0.99999 43.6897 1.00378 43.3572 1.01132 43.0257L0.0115795 43.0029C0.0270672 42.3219 0.0580121 41.6447 0.104094 40.9716L1.10176 41.0399C1.14722 40.3759 1.20774 39.7161 1.28297 39.0608L0.289503 38.9468C0.36714 38.2706 0.460089 37.5991 0.568007 36.9326L1.55514 37.0924C1.66141 36.4361 1.78253 35.7848 1.91813 35.1389L0.939459 34.9334C1.07918 34.2678 1.23394 33.6078 1.40336 32.9536L2.37142 33.2043C2.53802 32.5611 2.71911 31.9237 2.91435 31.2925L1.95901 30.997C2.15991 30.3475 2.37545 29.7044 2.60523 29.0681L3.54578 29.4078C3.77133 28.7833 4.01093 28.1654 4.2642 27.5546L3.34048 27.1716C3.60071 26.544 3.87504 25.9238 4.16306 25.3113L5.068 25.7369C5.35041 25.1363 5.64631 24.5434 5.9553 23.9584L5.07107 23.4913C5.38817 22.891 5.71873 22.2989 6.06238 21.7153L6.92405 22.2228C7.26066 21.6512 7.61011 21.0881 7.97201 20.5338L7.1347 19.9871C7.50569 19.4189 7.88945 18.8598 8.28558 18.3102L9.09682 18.8949C9.48453 18.357 9.88438 17.8284 10.2959 17.3095L9.51246 16.6881C9.93397 16.1566 10.3675 15.6351 10.8126 15.124L11.5667 15.7808C12.002 15.2809 12.4487 14.7912 12.9064 14.3121L12.1832 13.6214C12.6515 13.1311 13.1311 12.6516 13.6214 12.1832L14.3121 12.9064C14.7912 12.4488 15.2809 12.0021 15.7808 11.5667L15.124 10.8126C15.6351 10.3675 16.1566 9.93398 16.688 9.51248L17.3094 10.296C17.8284 9.88439 18.357 9.48455 18.8949 9.09684L18.3102 8.2856C18.8598 7.88947 19.4189 7.5057 19.9871 7.13471L20.5338 7.97203C21.0881 7.61013 21.6512 7.26068 22.2228 6.92406L21.7153 6.06239C22.2988 5.71875 22.891 5.38818 23.4913 5.07108L23.9584 5.95531C24.5433 5.64632 25.1363 5.35042 25.7369 5.06801L25.3113 4.16308C25.9238 3.87505 26.544 3.60072 27.1716 3.34049L27.5546 4.26422C28.1654 4.01095 28.7832 3.77134 29.4078 3.54579L29.0681 2.60524C29.7044 2.37546 30.3475 2.15993 30.997 1.95902L31.2925 2.91436C31.9237 2.71912 32.561 2.53802 33.2043 2.37143L32.9536 1.40337C33.6077 1.23395 34.2678 1.07919 34.9334 0.939466L35.1389 1.91814C35.7848 1.78254 36.4361 1.66142 37.0924 1.55516L36.9326 0.568013C37.5991 0.460096 38.2706 0.367143 38.9468 0.289509L39.0608 1.28298C39.7161 1.20775 40.3759 1.14723 41.0399 1.10177L40.9716 0.104103C41.6447 0.0580228 42.3219 0.0270712 43.0029 0.0115854L43.0257 1.01133C43.3572 1.00379 43.6897 0.999998 44.0231 0.999998C44.3564 0.999998 44.6889 1.00379 45.0205 1.01133L45.0432 0.0115851C45.7242 0.0270707 46.4015 0.0580222 47.0745 0.104102L47.0062 1.10177C47.6702 1.14723 48.33 1.20775 48.9853 1.28298L49.0994 0.289508C49.7755 0.367141 50.447 0.460094 51.1135 0.568011L50.9537 1.55515C51.61 1.66142 52.2613 1.78253 52.9073 1.91813L53.1127 0.939464C53.7783 1.07919 54.4384 1.23395 55.0926 1.40337L54.8418 2.37143C55.4851 2.53802 56.1225 2.71912 56.7536 2.91436L57.0491 1.95902C57.6987 2.15992 58.3417 2.37546 58.978 2.60524L58.6383 3.54579C59.2629 3.77134 59.8807 4.01094 60.4915 4.26421L60.8746 3.34049C61.5021 3.60072 62.1223 3.87504 62.7348 4.16307L62.3093 5.06801C62.9098 5.35042 63.5028 5.64631 64.0878 5.95531L64.5548 5.07107C65.1552 5.38817 65.7473 5.71874 66.3308 6.06238L65.8233 6.92406C66.3949 7.26067 66.958 7.61013 67.5123 7.97203L68.059 7.1347C68.6272 7.50569 69.1863 7.88946 69.7359 8.28559L69.1512 9.09683C69.6892 9.48455 70.2178 9.88438 70.7367 10.2959L71.3581 9.51247C71.8895 9.93397 72.411 10.3675 72.9221 10.8126L72.2653 11.5667C72.7652 12.0021 73.2549 12.4487 73.7341 12.9064L74.4247 12.1832C74.9151 12.6515 75.3946 13.1311 75.8629 13.6214L75.1397 14.3121C75.5974 14.7912 76.0441 15.2809 76.4794 15.7808L77.2335 15.124C77.6786 15.6351 78.1122 16.1566 78.5337 16.688L77.7502 17.3095C78.1617 17.8284 78.5616 18.357 78.9493 18.8949L79.7605 18.3102C80.1567 18.8598 80.5404 19.4189 80.9114 19.9871L80.0741 20.5338C80.436 21.0881 80.7855 21.6512 81.1221 22.2228L81.9838 21.7153C82.3274 22.2988 82.658 22.891 82.9751 23.4913L82.0908 23.9584C82.3998 24.5434 82.6957 25.1363 82.9781 25.7369L83.8831 25.3113C84.1711 25.9238 84.4454 26.544 84.7056 27.1716L83.7819 27.5546C84.0352 28.1654 84.2748 28.7832 84.5004 29.4078L85.4409 29.0681C85.6707 29.7044 85.8862 30.3475 86.0871 30.997L85.1318 31.2925C85.327 31.9237 85.5081 32.5611 85.6747 33.2043L86.6428 32.9536C86.8122 33.6077 86.9669 34.2678 87.1067 34.9334L86.128 35.1389C86.2636 35.7848 86.3847 36.4361 86.491 37.0924L87.4781 36.9326C87.586 37.5991 87.679 38.2706 87.7566 38.9468L86.7632 39.0608C86.8384 39.7161 86.8989 40.3759 86.9444 41.0399L87.942 40.9716C87.9881 41.6447 88.0191 42.3219 88.0346 43.0029L87.0348 43.0257C87.0424 43.3572 87.0461 43.6897 87.0461 44.0231C87.0461 44.3565 87.0424 44.6889 87.0348 45.0205L88.0346 45.0432C88.0191 45.7242 87.9881 46.4015 87.942 47.0745L86.9444 47.0062C86.8989 47.6702 86.8384 48.33 86.7632 48.9853L87.7566 49.0994C87.679 49.7755 87.586 50.4471 87.4781 51.1135L86.491 50.9537C86.3847 51.61 86.2636 52.2613 86.128 52.9073L87.1067 53.1127C86.967 53.7783 86.8122 54.4384 86.6428 55.0926L85.6747 54.8419C85.5081 55.4851 85.327 56.1225 85.1318 56.7536L86.0871 57.0492C85.8862 57.6987 85.6707 58.3417 85.4409 58.978L84.5004 58.6383C84.2748 59.2629 84.0352 59.8807 83.7819 60.4915L84.7057 60.8746C84.4454 61.5021 84.1711 62.1223 83.8831 62.7348L82.9781 62.3093C82.6957 62.9098 82.3998 63.5028 82.0908 64.0878L82.9751 64.5548C82.658 65.1552 82.3274 65.7473 81.9838 66.3308L81.1221 65.8233C80.7855 66.3949 80.436 66.958 80.0741 67.5123L80.9114 68.059C80.5404 68.6272 80.1567 69.1863 79.7605 69.736L78.9493 69.1512C78.5616 69.6892 78.1618 70.2178 77.7502 70.7367L78.5337 71.3581C78.1122 71.8895 77.6786 72.411 77.2335 72.9221L76.4794 72.2653C76.0441 72.7652 75.5974 73.2549 75.1398 73.7341L75.8629 74.4248C75.3946 74.9151 74.9151 75.3946 74.4248 75.8629L73.7341 75.1398C73.2549 75.5974 72.7652 76.0441 72.2654 76.4794L72.9221 77.2335C72.411 77.6786 71.8895 78.1122 71.3581 78.5337L70.7367 77.7502C70.2178 78.1618 69.6892 78.5616 69.1512 78.9493L69.736 79.7606C69.1864 80.1567 68.6272 80.5405 68.059 80.9114L67.5123 80.0741C66.958 80.436 66.3949 80.7855 65.8233 81.1221L66.3308 81.9838C65.7473 82.3274 65.1552 82.658 64.5548 82.9751L64.0878 82.0908C63.5028 82.3998 62.9098 82.6957 62.3093 82.9781L62.7348 83.8831C62.1223 84.1711 61.5021 84.4454 60.8746 84.7057L60.4915 83.7819C59.8807 84.0352 59.2629 84.2748 58.6383 84.5004L58.978 85.4409C58.3417 85.6707 57.6987 85.8862 57.0492 86.0871L56.7536 85.1318C56.1225 85.327 55.4851 85.5081 54.8419 85.6747L55.0926 86.6428C54.4384 86.8122 53.7783 86.967 53.1127 87.1067L52.9073 86.128C52.2613 86.2636 51.61 86.3847 50.9537 86.491L51.1135 87.4781C50.4471 87.5861 49.7755 87.679 49.0994 87.7566L48.9853 86.7632C48.33 86.8384 47.6702 86.8989 47.0062 86.9444L47.0745 87.9421Z" stroke="white" stroke-width="2" stroke-dasharray="2 2"/>
<path d="M99.2384 87.0462C75.4774 87.0462 56.2153 67.7841 56.2153 44.0231C56.2153 20.2621 75.4774 0.999997 99.2384 0.999998C122.999 0.999999 142.261 20.2621 142.261 44.0231C142.261 67.7841 122.999 87.0462 99.2384 87.0462Z" stroke="white" stroke-width="2"/>
<path d="M149.977 87.0462C126.216 87.0462 106.954 67.7841 106.954 44.0231C106.954 20.2621 126.216 0.999997 149.977 0.999998C173.738 0.999999 193 20.2621 193 44.0231C193 67.7841 173.738 87.0462 149.977 87.0462Z" stroke="#EAF03C" stroke-width="2"/>
</svg>
